<svg xmlns="http://www.w3.org/2000/svg" width="339" height="258" viewBox="0 0 339 258">
  <g id="Grupo_99594" data-name="Grupo 99594" transform="translate(-362 -3872)">
    <path id="Trazado_104231" data-name="Trazado 104231" d="M10,0H329a10,10,0,0,1,10,10V248a10,10,0,0,1-10,10H10A10,10,0,0,1,0,248V10A10,10,0,0,1,10,0Z" transform="translate(362 3872)" fill="#fff"/>
    <path id="Trazado_104158" data-name="Trazado 104158" d="M-3973.59-7788.533v53.777h-54.088" transform="translate(4428 11761)" fill="none" stroke="#ea7596" stroke-width="3"/>
    <path id="Trazado_104159" data-name="Trazado 104159" d="M-3895.5-7840.1v52.238h-52.248" transform="translate(4428 11761)" fill="none" stroke="#ea7596" stroke-width="3"/>
    <path id="Trazado_104160" data-name="Trazado 104160" d="M-3919.352-7759.99V-7840.1h-28.4" transform="translate(4451.852 11840.229)" fill="none" stroke="#ea7596" stroke-width="3"/>
    <g id="Trazado_104232" data-name="Trazado 104232" transform="translate(466 3958)" fill="#ddd">
      <path d="M 12.5 83.5 L 1.5 83.5 L 1.5 1.5 L 12.5 1.5 L 12.5 83.5 Z" stroke="none"/>
      <path d="M 3 3 L 3 82 L 11 82 L 11 3 L 3 3 M 0 0 L 14 0 L 14 85 L 0 85 L 0 0 Z" stroke="none" fill="#ea7596"/>
    </g>
    <path id="Trazado_104161" data-name="Trazado 104161" d="M-3895.5-7734.756h-52.77" transform="translate(4428 11761)" fill="none" stroke="#ea7596" stroke-width="3"/>
    <g id="Trazado_104233" data-name="Trazado 104233" transform="translate(482.712 4011) rotate(-90)" fill="none">
      <path d="M10.5,0,21,23.664H0Z" stroke="none"/>
      <path d="M 10.5 7.396791458129883 L 4.613216400146484 20.663818359375 L 16.38678359985352 20.663818359375 L 10.5 7.396791458129883 M 10.5 0 L 21 23.663818359375 L 0 23.663818359375 L 10.5 0 Z" stroke="none" fill="#ea7596"/>
    </g>
    <path id="Trazado_104163" data-name="Trazado 104163" d="M19.7-10.225a12.6,12.6,0,0,1-.981,5.164,8.975,8.975,0,0,1-2.71,3.538L19.453,1.2,16.274,3.9,11.689.205A9.53,9.53,0,0,1,10.4.293,9.245,9.245,0,0,1,5.566-.967a8.568,8.568,0,0,1-3.289-3.6A12.239,12.239,0,0,1,1.055-9.961v-1.128A12.621,12.621,0,0,1,2.2-16.626a8.57,8.57,0,0,1,3.281-3.691,9.172,9.172,0,0,1,4.885-1.3,9.131,9.131,0,0,1,4.834,1.289,8.685,8.685,0,0,1,3.3,3.669A12.27,12.27,0,0,1,19.7-11.206Zm-5.229-.894a8.969,8.969,0,0,0-1.062-4.827,3.406,3.406,0,0,0-3.04-1.648A3.383,3.383,0,0,0,7.31-15.967a9.085,9.085,0,0,0-1.04,4.761v.981A9.218,9.218,0,0,0,7.31-5.4,3.4,3.4,0,0,0,10.4-3.721a3.356,3.356,0,0,0,3.01-1.655,9.024,9.024,0,0,0,1.062-4.761ZM35.054-8.335h2.168v3.809H35.054V0H30.117V-4.526H21.87l-.293-3.018,8.54-13.74v-.044h4.937Zm-8.774,0h3.838V-14.9l-.308.5Z" transform="translate(550 3971)"/>
    <path id="Trazado_104162" data-name="Trazado 104162" d="M13.123,0H1.477V-1.624L7.629-8.459A14.616,14.616,0,0,0,9.515-10.98a4.207,4.207,0,0,0,.519-2.008,3.189,3.189,0,0,0-.842-2.283,2.945,2.945,0,0,0-2.246-.891,3.488,3.488,0,0,0-2.618.958,3.66,3.66,0,0,0-.934,2.667H1.135A5.242,5.242,0,0,1,2.716-16.5a5.86,5.86,0,0,1,4.23-1.514,5.631,5.631,0,0,1,3.918,1.3,4.435,4.435,0,0,1,1.44,3.461q0,2.625-3.345,6.25L4.2-1.843h8.923Zm8.215-7.922a11.021,11.021,0,0,1-4.388-2.13,4.07,4.07,0,0,1-1.373-3.119,4.3,4.3,0,0,1,1.678-3.473,6.671,6.671,0,0,1,4.364-1.373,7.281,7.281,0,0,1,3.265.708,5.369,5.369,0,0,1,2.222,1.953,4.994,4.994,0,0,1,.787,2.722H25.537a3.233,3.233,0,0,0-1.025-2.533,4.179,4.179,0,0,0-2.893-.922,4.275,4.275,0,0,0-2.7.763,2.543,2.543,0,0,0-.97,2.118,2.288,2.288,0,0,0,.922,1.837A9.047,9.047,0,0,0,22-10,14.528,14.528,0,0,1,25.47-8.624a5.261,5.261,0,0,1,1.855,1.752,4.471,4.471,0,0,1,.6,2.356,4.153,4.153,0,0,1-1.685,3.461,7.183,7.183,0,0,1-4.5,1.3,8.354,8.354,0,0,1-3.418-.7A5.752,5.752,0,0,1,15.875-2.38a4.692,4.692,0,0,1-.861-2.771h2.356a3.061,3.061,0,0,0,1.19,2.545,5.011,5.011,0,0,0,3.18.934,4.607,4.607,0,0,0,2.844-.757,2.458,2.458,0,0,0,.989-2.063,2.413,2.413,0,0,0-.916-2.02A10.555,10.555,0,0,0,21.338-7.922Zm14.111-.342L33.276-6.006V0H30.933V-17.773h2.344v8.789l7.9-8.789h2.832L37.012-9.924,44.556,0H41.748ZM53.442,0H51.172V-15.051l-4.553,1.672V-15.43l6.47-2.429h.354ZM71.2-7.581q0,3.967-1.355,5.9A4.819,4.819,0,0,1,65.613.244,4.854,4.854,0,0,1,61.4-1.642a9.8,9.8,0,0,1-1.416-5.634v-3.015q0-3.918,1.355-5.823a4.856,4.856,0,0,1,4.248-1.9,4.9,4.9,0,0,1,4.224,1.837q1.355,1.837,1.392,5.67Zm-2.258-3.088a8.275,8.275,0,0,0-.806-4.181,2.773,2.773,0,0,0-2.551-1.312,2.737,2.737,0,0,0-2.527,1.306,8.08,8.08,0,0,0-.818,4.016v3.613a8.408,8.408,0,0,0,.836,4.254A2.768,2.768,0,0,0,65.613-1.6,2.73,2.73,0,0,0,68.1-2.893a8.1,8.1,0,0,0,.848-4.077Zm6.189,1.758.9-8.862h9.106v2.087h-7.19l-.537,4.846a5.736,5.736,0,0,1,2.966-.769A4.9,4.9,0,0,1,84.241-10a6.291,6.291,0,0,1,1.428,4.34,6.072,6.072,0,0,1-1.483,4.327A5.406,5.406,0,0,1,80.042.244,5.618,5.618,0,0,1,76.2-1.062a5.213,5.213,0,0,1-1.7-3.613h2.136a3.587,3.587,0,0,0,1.086,2.3,3.378,3.378,0,0,0,2.319.775,3.047,3.047,0,0,0,2.472-1.074,4.491,4.491,0,0,0,.9-2.966A4.122,4.122,0,0,0,82.44-8.5a3.3,3.3,0,0,0-2.582-1.08,3.723,3.723,0,0,0-2.319.647l-.6.488Zm23.779-4.224a4.127,4.127,0,0,1-.7,2.368,4.776,4.776,0,0,1-1.9,1.624,5.094,5.094,0,0,1,2.2,1.746,4.393,4.393,0,0,1,.812,2.6,4.644,4.644,0,0,1-1.556,3.674,5.98,5.98,0,0,1-4.1,1.367,5.953,5.953,0,0,1-4.108-1.373A4.666,4.666,0,0,1,88.025-4.8a4.524,4.524,0,0,1,.787-2.6,4.9,4.9,0,0,1,2.179-1.758,4.658,4.658,0,0,1-1.868-1.624,4.186,4.186,0,0,1-.684-2.356A4.594,4.594,0,0,1,89.88-16.7a5.4,5.4,0,0,1,3.8-1.318,5.408,5.408,0,0,1,3.79,1.318A4.585,4.585,0,0,1,98.914-13.135ZM97.07-4.846a3.276,3.276,0,0,0-.946-2.429,3.355,3.355,0,0,0-2.472-.94,3.3,3.3,0,0,0-2.448.928,3.313,3.313,0,0,0-.922,2.441,3.155,3.155,0,0,0,.9,2.38,3.444,3.444,0,0,0,2.5.867,3.434,3.434,0,0,0,2.49-.873A3.148,3.148,0,0,0,97.07-4.846ZM93.677-16.162a2.914,2.914,0,0,0-2.155.824A3.027,3.027,0,0,0,90.7-13.1a3.012,3.012,0,0,0,.812,2.191,2.881,2.881,0,0,0,2.167.836,2.881,2.881,0,0,0,2.167-.836,3.012,3.012,0,0,0,.812-2.191,3.013,3.013,0,0,0-.842-2.209A2.873,2.873,0,0,0,93.677-16.162Z" transform="translate(548 4004)"/>
  </g>
</svg>
