<svg xmlns="http://www.w3.org/2000/svg" xmlns:xlink="http://www.w3.org/1999/xlink" width="424" height="322" viewBox="0 0 424 322">
  <defs>
    <clipPath id="clip-path">
      <rect id="Rectángulo_34318" data-name="Rectángulo 34318" width="402.474" height="295.627" fill="none"/>
    </clipPath>
  </defs>
  <g id="Grupo_99863" data-name="Grupo 99863" transform="translate(2510 8222)">
    <g id="Rectángulo_34324" data-name="Rectángulo 34324" transform="translate(-2510 -8222)" fill="#fff" stroke="#707070" stroke-width="1">
      <rect width="424" height="322" stroke="none"/>
      <rect x="0.5" y="0.5" width="423" height="321" fill="none"/>
    </g>
    <g id="Grupo_99862" data-name="Grupo 99862" transform="translate(-2499 -8209)">
      <line id="Línea_179" data-name="Línea 179" y2="226.554" transform="translate(48.241 21.038)" fill="none" stroke="#1d1d1b" stroke-miterlimit="10" stroke-width="2"/>
      <path id="Trazado_105233" data-name="Trazado 105233" d="M56.328,29.719l-8.086-8.632-8.086,8.632" fill="none" stroke="#1d1d1b" stroke-miterlimit="10" stroke-width="2"/>
      <line id="Línea_180" data-name="Línea 180" x1="352.906" transform="translate(24.817 225.836)" fill="none" stroke="#1d1d1b" stroke-miterlimit="10" stroke-width="2"/>
      <path id="Trazado_105234" data-name="Trazado 105234" d="M369.042,233.922l8.632-8.086-8.632-8.086" fill="none" stroke="#1d1d1b" stroke-miterlimit="10" stroke-width="2"/>
      <line id="Línea_181" data-name="Línea 181" y2="33.904" transform="translate(183.797 224.836)" fill="none" stroke="#1d1d1b" stroke-miterlimit="10" stroke-width="2"/>
      <path id="Trazado_105235" data-name="Trazado 105235" d="M190.564,232.1l-6.766-7.224-6.767,7.224" fill="none" stroke="#1d1d1b" stroke-miterlimit="10" stroke-width="2"/>
      <line id="Línea_182" data-name="Línea 182" x1="62.139" transform="translate(48.947 63.648)" fill="none" stroke="#1d1d1b" stroke-miterlimit="10" stroke-width="2"/>
      <path id="Trazado_105236" data-name="Trazado 105236" d="M104.926,69.386l6.126-5.738-6.126-5.738" fill="none" stroke="#1d1d1b" stroke-miterlimit="10" stroke-width="2"/>
      <path id="Trazado_105237" data-name="Trazado 105237" d="M75.13,56.523l5.738,6.126,5.738-6.126" fill="none" stroke="#1d1d1b" stroke-miterlimit="10" stroke-width="2"/>
      <path id="Trazado_105238" data-name="Trazado 105238" d="M55.072,69.386l-6.126-5.738,6.126-5.738" fill="none" stroke="#1d1d1b" stroke-miterlimit="10" stroke-width="2"/>
      <g id="Grupo_99853" data-name="Grupo 99853">
        <g id="Grupo_99852" data-name="Grupo 99852" clip-path="url(#clip-path)">
          <path id="Trazado_105239" data-name="Trazado 105239" d="M97.325,31.232s-8.435-.557-13.365,6.4c-3.943,5.569-3.092,25.012-3.092,25.012" fill="none" stroke="#1d1d1b" stroke-miterlimit="10" stroke-width="2"/>
          <path id="Trazado_105240" data-name="Trazado 105240" d="M48.241,224.877s34.533-88.456,50.574-120.316c6.111-12.137,9.173-16.856,16.856-16.856h237.9" fill="none" stroke="#f70000" stroke-miterlimit="10" stroke-width="2"/>
          <path id="Trazado_105241" data-name="Trazado 105241" d="M48.268,226.416s15.8-44.384,31.843-76.244c6.111-12.137,9.174-16.856,16.856-16.856h256.6" fill="none" stroke="#f70000" stroke-miterlimit="10" stroke-width="2"/>
          <path id="Trazado_105242" data-name="Trazado 105242" d="M48.268,226.416s-3.1,1.307,12.942-30.553c6.111-12.138,9.174-16.857,16.857-16.857H355.5" fill="none" stroke="#f70000" stroke-miterlimit="10" stroke-width="2"/>
          <line id="Línea_183" data-name="Línea 183" x2="304.148" transform="translate(51.351 219.592)" fill="none" stroke="#f70000" stroke-miterlimit="10" stroke-width="2"/>
          <line id="Línea_184" data-name="Línea 184" y2="4" transform="translate(113.129 63.648)" fill="none" stroke="#1d1d1b" stroke-miterlimit="10" stroke-width="2"/>
          <line id="Línea_185" data-name="Línea 185" y2="136.264" transform="translate(113.129 75.435)" fill="none" stroke="#1d1d1b" stroke-miterlimit="10" stroke-width="2" stroke-dasharray="7.786 7.786"/>
          <line id="Línea_186" data-name="Línea 186" y2="4" transform="translate(113.129 215.592)" fill="none" stroke="#1d1d1b" stroke-miterlimit="10" stroke-width="2"/>
        </g>
      </g>
      <text id="SATURACIÓN" transform="translate(104.926 34.041)" font-size="16" font-family="Roboto-Regular, Roboto"><tspan x="0" y="0">S</tspan><tspan y="0" letter-spacing="-0.062em">A</tspan><tspan y="0">TUR</tspan><tspan y="0" letter-spacing="-0.005em">A</tspan><tspan y="0">CIÓN</tspan></text>
      <text id="ACTIVA" transform="translate(164.798 159.929)" font-size="16" font-family="Roboto-Regular, Roboto"><tspan x="0" y="0" letter-spacing="-0.005em">A</tspan><tspan y="0" letter-spacing="-0.014em">C</tspan><tspan y="0">TI</tspan><tspan y="0" letter-spacing="-0.037em">V</tspan><tspan y="0">A</tspan></text>
      <text id="CORTE" transform="translate(164.942 279.049)" font-size="16" font-family="Roboto-Regular, Roboto"><tspan x="0" y="0">CO</tspan><tspan y="0" letter-spacing="-0.039em">R</tspan><tspan y="0">TE</tspan></text>
      <text id="I" transform="translate(18.782 35.161)" font-size="16" font-family="Roboto-Regular, Roboto"><tspan x="0" y="0">I</tspan></text>
      <text id="C" transform="translate(24.814 39.113)" font-size="16" font-family="Roboto-Regular, Roboto"><tspan x="0" y="0">C</tspan></text>
      <text id="V" transform="translate(361.022 253.785)" font-size="16" font-family="Roboto-Regular, Roboto"><tspan x="0" y="0">V</tspan></text>
      <text id="CE" transform="translate(372.063 258.745)" font-size="16" font-family="Roboto-Regular, Roboto"><tspan x="0" y="0">CE</tspan></text>
      <text id="I-2" data-name="I" transform="translate(281.599 201.113)" font-size="16" font-family="Roboto-Regular, Roboto"><tspan x="0" y="0">I</tspan></text>
      <text id="B" transform="translate(287.63 205.065)" font-size="16" font-family="Roboto-Regular, Roboto"><tspan x="0" y="0">B</tspan></text>
      <text id="_30_" data-name="30 " transform="translate(300.942 74.841)" font-size="16" font-family="Roboto-Regular, Roboto"><tspan x="0" y="0">30 </tspan></text>
      <text id="A_" data-name="A " transform="translate(337.118 74.569)" font-size="16" font-family="Roboto-Regular, Roboto"><tspan x="0" y="0">A </tspan></text>
      <text id="_" data-name="=" transform="translate(301.246 203.081)" font-size="16" font-family="Roboto-Regular, Roboto"><tspan x="0" y="0">=</tspan></text>
      <g id="Grupo_99855" data-name="Grupo 99855">
        <g id="Grupo_99854" data-name="Grupo 99854" clip-path="url(#clip-path)">
          <line id="Línea_187" data-name="Línea 187" y1="13.436" x2="3.337" transform="translate(324.845 65.197)" fill="none" stroke="#1d1d1b" stroke-miterlimit="10" stroke-width="2"/>
          <path id="Trazado_105243" data-name="Trazado 105243" d="M332.4,65.2s-1.133,5.561-1.817,7.318c-.287.736-1.125,2.06-2.4,2.06-1.668,0-1.668-2.66-1.668-2.66" fill="none" stroke="#1d1d1b" stroke-miterlimit="10" stroke-width="2"/>
          <path id="Trazado_105244" data-name="Trazado 105244" d="M330.787,71.914s-.565,2.6,1.092,2.66c1.173.041,1.623-1.894,1.623-1.894" fill="none" stroke="#1d1d1b" stroke-miterlimit="10" stroke-width="2"/>
        </g>
      </g>
      <text id="_20_" data-name="20 " transform="translate(301.676 119.333)" font-size="16" font-family="Roboto-Regular, Roboto"><tspan x="0" y="0">20 </tspan></text>
      <text id="A_2" data-name="A " transform="translate(337.852 119.061)" font-size="16" font-family="Roboto-Regular, Roboto"><tspan x="0" y="0">A </tspan></text>
      <g id="Grupo_99857" data-name="Grupo 99857">
        <g id="Grupo_99856" data-name="Grupo 99856" clip-path="url(#clip-path)">
          <line id="Línea_188" data-name="Línea 188" y1="13.436" x2="3.337" transform="translate(325.579 109.689)" fill="none" stroke="#1d1d1b" stroke-miterlimit="10" stroke-width="2"/>
          <path id="Trazado_105245" data-name="Trazado 105245" d="M333.131,109.689s-1.133,5.561-1.817,7.318c-.287.736-1.125,2.06-2.4,2.06-1.668,0-1.668-2.66-1.668-2.66" fill="none" stroke="#1d1d1b" stroke-miterlimit="10" stroke-width="2"/>
          <path id="Trazado_105246" data-name="Trazado 105246" d="M331.521,116.407s-.565,2.6,1.092,2.66c1.173.041,1.623-1.893,1.623-1.893" fill="none" stroke="#1d1d1b" stroke-miterlimit="10" stroke-width="2"/>
        </g>
      </g>
      <text id="_10_" data-name="10 " transform="translate(302.41 163.02)" font-size="16" font-family="Roboto-Regular, Roboto"><tspan x="0" y="0">10 </tspan></text>
      <text id="A_3" data-name="A " transform="translate(338.586 162.747)" font-size="16" font-family="Roboto-Regular, Roboto"><tspan x="0" y="0">A </tspan></text>
      <g id="Grupo_99859" data-name="Grupo 99859">
        <g id="Grupo_99858" data-name="Grupo 99858" clip-path="url(#clip-path)">
          <line id="Línea_189" data-name="Línea 189" y1="13.436" x2="3.337" transform="translate(326.314 153.375)" fill="none" stroke="#1d1d1b" stroke-miterlimit="10" stroke-width="2"/>
          <path id="Trazado_105247" data-name="Trazado 105247" d="M333.866,153.375s-1.133,5.561-1.817,7.318c-.287.736-1.125,2.06-2.4,2.06-1.668,0-1.668-2.66-1.668-2.66" fill="none" stroke="#1d1d1b" stroke-miterlimit="10" stroke-width="2"/>
          <path id="Trazado_105248" data-name="Trazado 105248" d="M332.256,160.093s-.565,2.6,1.092,2.66c1.173.041,1.623-1.893,1.623-1.893" fill="none" stroke="#1d1d1b" stroke-miterlimit="10" stroke-width="2"/>
        </g>
      </g>
      <text id="_0_" data-name="0 " transform="translate(313.693 204.249)" font-size="16" font-family="Roboto-Regular, Roboto"><tspan x="0" y="0">0 </tspan></text>
      <text id="A_4" data-name="A " transform="translate(339.518 204.137)" font-size="16" font-family="Roboto-Regular, Roboto"><tspan x="0" y="0">A </tspan></text>
      <g id="Grupo_99861" data-name="Grupo 99861">
        <g id="Grupo_99860" data-name="Grupo 99860" clip-path="url(#clip-path)">
          <line id="Línea_190" data-name="Línea 190" y1="13.437" x2="3.337" transform="translate(328.256 193.764)" fill="none" stroke="#1d1d1b" stroke-miterlimit="10" stroke-width="2"/>
          <path id="Trazado_105249" data-name="Trazado 105249" d="M335.808,193.763s-1.133,5.562-1.817,7.318c-.287.737-1.125,2.061-2.4,2.061-1.669,0-1.669-2.66-1.669-2.66" fill="none" stroke="#1d1d1b" stroke-miterlimit="10" stroke-width="2"/>
          <path id="Trazado_105250" data-name="Trazado 105250" d="M334.2,200.482s-.565,2.6,1.091,2.66c1.173.041,1.624-1.893,1.624-1.893" fill="none" stroke="#1d1d1b" stroke-miterlimit="10" stroke-width="2"/>
          <rect id="Rectángulo_34322" data-name="Rectángulo 34322" width="400.474" height="293.627" transform="translate(1 1)" fill="none" stroke="#1d1d1b" stroke-miterlimit="10" stroke-width="2"/>
        </g>
      </g>
    </g>
  </g>
</svg>
