<svg xmlns="http://www.w3.org/2000/svg" width="561" height="229" viewBox="0 0 561 229">
  <g id="Grupo_99593" data-name="Grupo 99593" transform="translate(-520 -1185)">
    <path id="Trazado_104214" data-name="Trazado 104214" d="M10,0H551a10,10,0,0,1,10,10V219a10,10,0,0,1-10,10H10A10,10,0,0,1,0,219V10A10,10,0,0,1,10,0Z" transform="translate(520 1185)" fill="#f8f8f8"/>
    <path id="Trazado_104152" data-name="Trazado 104152" d="M-3766.315-10429.628v29.261l-44.911,44.911v19.15l20.943,20.942" transform="translate(4448 11653.314)" fill="none" stroke="#ea7596" stroke-linecap="round" stroke-width="2"/>
    <g id="Trazado_104215" data-name="Trazado 104215" transform="translate(621 1268.314)" fill="#ededed">
      <path d="M 16 76 L 3 76 C 1.897199988365173 76 1 75.10279846191406 1 74 L 1 3 C 1 1.897199988365173 1.897199988365173 1 3 1 L 16 1 C 17.1028003692627 1 18 1.897199988365173 18 3 L 18 74 C 18 75.10279846191406 17.1028003692627 76 16 76 Z" stroke="none"/>
      <path d="M 3 2 C 2.448600769042969 2 2 2.448600769042969 2 3 L 2 74 C 2 74.55139923095703 2.448600769042969 75 3 75 L 16 75 C 16.55139923095703 75 17 74.55139923095703 17 74 L 17 3 C 17 2.448600769042969 16.55139923095703 2 16 2 L 3 2 M 3 0 L 16 0 C 17.65685844421387 0 19 1.3431396484375 19 3 L 19 74 C 19 75.65684509277344 17.65685844421387 77 16 77 L 3 77 C 1.343141555786133 77 0 75.65684509277344 0 74 L 0 3 C 0 1.3431396484375 1.343141555786133 0 3 0 Z" stroke="none" fill="#ea7596"/>
    </g>
    <path id="Trazado_104216" data-name="Trazado 104216" d="M9.945-3.789A4.025,4.025,0,0,1,8.59-.9,4.76,4.76,0,0,1,5.367.156,4.28,4.28,0,0,1,1.926-1.316,6.038,6.038,0,0,1,.672-5.359v-.7A6.819,6.819,0,0,1,1.25-8.945,4.332,4.332,0,0,1,2.9-10.863a4.629,4.629,0,0,1,2.5-.668A4.637,4.637,0,0,1,8.57-10.477,4.326,4.326,0,0,1,9.961-7.516H7.617A2.376,2.376,0,0,0,7-9.113a2.271,2.271,0,0,0-1.605-.5,1.991,1.991,0,0,0-1.754.84,4.707,4.707,0,0,0-.6,2.605V-5.3a5.038,5.038,0,0,0,.559,2.7,1.954,1.954,0,0,0,1.762.852,2.314,2.314,0,0,0,1.621-.5A2.241,2.241,0,0,0,7.6-3.789ZM10.984-4.3a5.013,5.013,0,0,1,.484-2.242A3.546,3.546,0,0,1,12.863-8.07a4.069,4.069,0,0,1,2.113-.539A3.849,3.849,0,0,1,17.77-7.562a4.2,4.2,0,0,1,1.207,2.844l.016.578A4.418,4.418,0,0,1,17.906-1.02,3.775,3.775,0,0,1,14.992.156a3.793,3.793,0,0,1-2.918-1.172A4.5,4.5,0,0,1,10.984-4.2Zm2.258.164A3.151,3.151,0,0,0,13.7-2.3a1.5,1.5,0,0,0,1.3.637,1.5,1.5,0,0,0,1.281-.629A3.448,3.448,0,0,0,16.734-4.3a3.12,3.12,0,0,0-.461-1.828,1.5,1.5,0,0,0-1.3-.648,1.475,1.475,0,0,0-1.281.645A3.506,3.506,0,0,0,13.242-4.141ZM22.766,0H20.5V-12h2.266Zm5.75.156A4.15,4.15,0,0,1,25.488-.984,4.054,4.054,0,0,1,24.32-4.023v-.219a5.106,5.106,0,0,1,.492-2.277,3.612,3.612,0,0,1,1.395-1.547,3.914,3.914,0,0,1,2.059-.543A3.508,3.508,0,0,1,31-7.516a4.444,4.444,0,0,1,1,3.1v.922H26.609a2.1,2.1,0,0,0,.66,1.328,2,2,0,0,0,1.395.5A2.437,2.437,0,0,0,30.7-2.609l1.109,1.242A3.389,3.389,0,0,1,30.438-.246,4.511,4.511,0,0,1,28.516.156Zm-.258-6.937a1.414,1.414,0,0,0-1.09.453,2.341,2.341,0,0,0-.535,1.3h3.141v-.18a1.669,1.669,0,0,0-.406-1.16A1.459,1.459,0,0,0,28.258-6.781Zm8.531,5.117A1.481,1.481,0,0,0,37.8-2.008a1.2,1.2,0,0,0,.406-.914h2.117a2.9,2.9,0,0,1-.469,1.574A3.093,3.093,0,0,1,38.6-.238a3.949,3.949,0,0,1-1.77.395A3.67,3.67,0,0,1,33.969-1,4.56,4.56,0,0,1,32.922-4.18v-.148a4.508,4.508,0,0,1,1.039-3.117,3.627,3.627,0,0,1,2.852-1.164,3.555,3.555,0,0,1,2.543.9,3.2,3.2,0,0,1,.973,2.4H38.211A1.539,1.539,0,0,0,37.8-6.371a1.358,1.358,0,0,0-1.031-.41,1.361,1.361,0,0,0-1.191.574,3.324,3.324,0,0,0-.4,1.863v.234a3.366,3.366,0,0,0,.4,1.875A1.378,1.378,0,0,0,36.789-1.664Zm7.531-8.867v2.078h1.445V-6.8H44.32v4.219a1.007,1.007,0,0,0,.18.672.9.9,0,0,0,.688.2,3.6,3.6,0,0,0,.664-.055V-.047a4.648,4.648,0,0,1-1.367.2,2.156,2.156,0,0,1-2.422-2.4V-6.8H40.828V-8.453h1.234v-2.078ZM46.438-4.3a5.013,5.013,0,0,1,.484-2.242A3.546,3.546,0,0,1,48.316-8.07a4.069,4.069,0,0,1,2.113-.539,3.849,3.849,0,0,1,2.793,1.047A4.2,4.2,0,0,1,54.43-4.719l.016.578A4.418,4.418,0,0,1,53.359-1.02,3.775,3.775,0,0,1,50.445.156a3.793,3.793,0,0,1-2.918-1.172A4.5,4.5,0,0,1,46.438-4.2Zm2.258.164a3.151,3.151,0,0,0,.453,1.84,1.5,1.5,0,0,0,1.3.637,1.5,1.5,0,0,0,1.281-.629A3.448,3.448,0,0,0,52.188-4.3a3.12,3.12,0,0,0-.461-1.828,1.5,1.5,0,0,0-1.3-.648,1.475,1.475,0,0,0-1.281.645A3.506,3.506,0,0,0,48.7-4.141Zm11.891-2.2a6.134,6.134,0,0,0-.812-.062,1.654,1.654,0,0,0-1.68.867V0H55.836V-8.453h2.133l.063,1.008a2.092,2.092,0,0,1,1.883-1.164,2.366,2.366,0,0,1,.7.1Z" transform="translate(688 1242.314)" fill="#00cca7"/>
    <path id="Trazado_104217" data-name="Trazado 104217" d="M4.758.156A4.15,4.15,0,0,1,1.73-.984,4.054,4.054,0,0,1,.563-4.023v-.219A5.106,5.106,0,0,1,1.055-6.52,3.612,3.612,0,0,1,2.449-8.066a3.914,3.914,0,0,1,2.059-.543,3.508,3.508,0,0,1,2.73,1.094,4.444,4.444,0,0,1,1,3.1v.922H2.852a2.1,2.1,0,0,0,.66,1.328,2,2,0,0,0,1.395.5,2.437,2.437,0,0,0,2.039-.945L8.055-1.367A3.389,3.389,0,0,1,6.68-.246,4.511,4.511,0,0,1,4.758.156ZM4.5-6.781a1.414,1.414,0,0,0-1.09.453,2.341,2.341,0,0,0-.535,1.3H6.016v-.18a1.669,1.669,0,0,0-.406-1.16A1.459,1.459,0,0,0,4.5-6.781Zm7.133-1.672.07.945a2.971,2.971,0,0,1,2.43-1.1A2.255,2.255,0,0,1,16.375-7.32a2.9,2.9,0,0,1,2.539-1.289,2.521,2.521,0,0,1,2.047.8,3.681,3.681,0,0,1,.672,2.41V0H19.367V-5.391a1.61,1.61,0,0,0-.281-1.051,1.246,1.246,0,0,0-.992-.332,1.409,1.409,0,0,0-1.406.969L16.7,0H14.438V-5.383a1.59,1.59,0,0,0-.289-1.062,1.259,1.259,0,0,0-.984-.328,1.463,1.463,0,0,0-1.391.8V0H9.516V-8.453ZM25.75,0H23.484V-8.453H25.75Zm-2.4-10.641a1.112,1.112,0,0,1,.34-.836,1.277,1.277,0,0,1,.926-.328,1.28,1.28,0,0,1,.922.328,1.105,1.105,0,0,1,.344.836,1.108,1.108,0,0,1-.348.844,1.283,1.283,0,0,1-.918.328A1.283,1.283,0,0,1,23.7-9.8,1.108,1.108,0,0,1,23.352-10.641Zm8.836,8.3a.727.727,0,0,0-.41-.652,4.659,4.659,0,0,0-1.316-.426q-3.016-.633-3.016-2.562a2.323,2.323,0,0,1,.934-1.879,3.766,3.766,0,0,1,2.441-.754,4.053,4.053,0,0,1,2.574.758,2.388,2.388,0,0,1,.965,1.969H32.1a1.092,1.092,0,0,0-.312-.8A1.322,1.322,0,0,0,30.813-7a1.351,1.351,0,0,0-.883.258.814.814,0,0,0-.312.656.7.7,0,0,0,.355.605,3.657,3.657,0,0,0,1.2.4,9.8,9.8,0,0,1,1.422.379A2.336,2.336,0,0,1,34.383-2.43a2.2,2.2,0,0,1-.992,1.871,4.28,4.28,0,0,1-2.562.715,4.47,4.47,0,0,1-1.887-.379,3.166,3.166,0,0,1-1.293-1.039,2.414,2.414,0,0,1-.469-1.426H29.32a1.179,1.179,0,0,0,.445.922,1.766,1.766,0,0,0,1.109.32,1.635,1.635,0,0,0,.98-.246A.766.766,0,0,0,32.188-2.336Zm3.3-1.969a5.013,5.013,0,0,1,.484-2.242A3.546,3.546,0,0,1,37.363-8.07a4.069,4.069,0,0,1,2.113-.539A3.849,3.849,0,0,1,42.27-7.562a4.2,4.2,0,0,1,1.207,2.844l.016.578A4.418,4.418,0,0,1,42.406-1.02,3.775,3.775,0,0,1,39.492.156a3.793,3.793,0,0,1-2.918-1.172A4.5,4.5,0,0,1,35.484-4.2Zm2.258.164A3.151,3.151,0,0,0,38.2-2.3a1.5,1.5,0,0,0,1.3.637,1.5,1.5,0,0,0,1.281-.629A3.448,3.448,0,0,0,41.234-4.3a3.12,3.12,0,0,0-.461-1.828,1.5,1.5,0,0,0-1.3-.648,1.475,1.475,0,0,0-1.281.645A3.506,3.506,0,0,0,37.742-4.141Zm11.891-2.2A6.134,6.134,0,0,0,48.82-6.4a1.654,1.654,0,0,0-1.68.867V0H44.883V-8.453h2.133l.063,1.008a2.092,2.092,0,0,1,1.883-1.164,2.366,2.366,0,0,1,.7.1Z" transform="translate(672 1357.314)" fill="#00cca7"/>
    <g id="Trazado_104218" data-name="Trazado 104218" transform="translate(671.607 1341.607) rotate(135)" fill="#eaeaea">
      <path d="M 14.27682209014893 13 L 1.723176717758179 13 L 7.999999523162842 2.015559911727905 L 14.27682209014893 13 Z" stroke="none"/>
      <path d="M 7.999999523162842 4.031137466430664 L 3.44636344909668 12 L 12.55363464355469 12 L 7.999999523162842 4.031137466430664 M 7.999999523162842 0 L 16 14 L -9.5367431640625e-07 14 L 7.999999523162842 0 Z" stroke="none" fill="#ea7596"/>
    </g>
    <path id="Trazado_104219" data-name="Trazado 104219" d="M12.51-6.65a8.782,8.782,0,0,1-.654,3.55A5.485,5.485,0,0,1,10.02-.771l2.539,1.992L11.279,2.4,8.281.02A6.1,6.1,0,0,1,6.8.2,5.434,5.434,0,0,1,3.818-.63,5.453,5.453,0,0,1,1.8-2.983a8.439,8.439,0,0,1-.737-3.54V-7.549a8.691,8.691,0,0,1,.713-3.623,5.434,5.434,0,0,1,2.017-2.407,5.411,5.411,0,0,1,2.983-.835,5.505,5.505,0,0,1,3.022.83A5.355,5.355,0,0,1,11.807-11.2a8.77,8.77,0,0,1,.7,3.638Zm-1.875-.918a6.453,6.453,0,0,0-1-3.872A3.332,3.332,0,0,0,6.777-12.8,3.3,3.3,0,0,0,3.989-11.45,6.245,6.245,0,0,0,2.939-7.7V-6.65A6.434,6.434,0,0,0,3.96-2.8,3.308,3.308,0,0,0,6.8-1.4,3.314,3.314,0,0,0,9.609-2.72a6.348,6.348,0,0,0,1.025-3.794ZM20.869,0H19.053V-12.041L15.41-10.7v-1.641l5.176-1.943h.283Z" transform="translate(688 1274.314)"/>
    <path id="Trazado_104220" data-name="Trazado 104220" d="M10.5,0H1.182V-1.3L6.1-6.768A11.693,11.693,0,0,0,7.612-8.784a3.366,3.366,0,0,0,.415-1.606,2.551,2.551,0,0,0-.674-1.826,2.356,2.356,0,0,0-1.8-.713,2.79,2.79,0,0,0-2.095.767,2.928,2.928,0,0,0-.747,2.134H.908A4.194,4.194,0,0,1,2.173-13.2a4.688,4.688,0,0,1,3.384-1.211,4.5,4.5,0,0,1,3.135,1.04,3.548,3.548,0,0,1,1.152,2.769q0,2.1-2.676,5L3.359-1.475H10.5ZM23.809,0H21.924L14.766-10.957V0H12.881V-14.219h1.885L21.943-3.213V-14.219h1.865ZM35.986,0H26.67V-1.3l4.922-5.469A11.693,11.693,0,0,0,33.1-8.784a3.366,3.366,0,0,0,.415-1.606,2.551,2.551,0,0,0-.674-1.826,2.356,2.356,0,0,0-1.8-.713,2.79,2.79,0,0,0-2.095.767,2.928,2.928,0,0,0-.747,2.134H26.4A4.194,4.194,0,0,1,27.661-13.2a4.688,4.688,0,0,1,3.384-1.211,4.5,4.5,0,0,1,3.135,1.04,3.548,3.548,0,0,1,1.152,2.769q0,2.1-2.676,5L28.848-1.475h7.139Zm11.23,0H37.9V-1.3l4.922-5.469a11.693,11.693,0,0,0,1.509-2.017,3.366,3.366,0,0,0,.415-1.606,2.551,2.551,0,0,0-.674-1.826,2.356,2.356,0,0,0-1.8-.713,2.79,2.79,0,0,0-2.095.767,2.928,2.928,0,0,0-.747,2.134H37.627A4.194,4.194,0,0,1,38.892-13.2a4.688,4.688,0,0,1,3.384-1.211,4.5,4.5,0,0,1,3.135,1.04,3.548,3.548,0,0,1,1.152,2.769q0,2.1-2.676,5L40.078-1.475h7.139Zm11.23,0H49.131V-1.3l4.922-5.469a11.693,11.693,0,0,0,1.509-2.017,3.366,3.366,0,0,0,.415-1.606,2.551,2.551,0,0,0-.674-1.826,2.356,2.356,0,0,0-1.8-.713,2.79,2.79,0,0,0-2.095.767,2.928,2.928,0,0,0-.747,2.134H48.857A4.194,4.194,0,0,1,50.122-13.2a4.688,4.688,0,0,1,3.384-1.211,4.5,4.5,0,0,1,3.135,1.04,3.548,3.548,0,0,1,1.152,2.769q0,2.1-2.676,5L51.309-1.475h7.139Zm11.23,0H60.361V-1.3l4.922-5.469a11.693,11.693,0,0,0,1.509-2.017,3.366,3.366,0,0,0,.415-1.606,2.551,2.551,0,0,0-.674-1.826,2.356,2.356,0,0,0-1.8-.713,2.79,2.79,0,0,0-2.095.767,2.928,2.928,0,0,0-.747,2.134H60.088A4.194,4.194,0,0,1,61.353-13.2a4.688,4.688,0,0,1,3.384-1.211,4.5,4.5,0,0,1,3.135,1.04,3.548,3.548,0,0,1,1.152,2.769q0,2.1-2.676,5L62.539-1.475h7.139Z" transform="translate(688 1298.314)"/>
    <path id="Trazado_104153" data-name="Trazado 104153" d="M-3783.227-9975v13.693" transform="translate(4448 11321.314)" fill="none" stroke="#ea7596" stroke-linecap="round" stroke-width="2"/>
    <path id="Trazado_104221" data-name="Trazado 104221" d="M1.039-4.617a12.079,12.079,0,0,1,.473-3.391,9.85,9.85,0,0,1,1.41-2.953,6,6,0,0,1,1.945-1.875l.3.953A6.222,6.222,0,0,0,3.293-9.211a11.583,11.583,0,0,0-.8,4.023l-.008.664A11.643,11.643,0,0,0,3.586.711,6.252,6.252,0,0,0,5.164,2.789l-.3.883A6.192,6.192,0,0,1,2.883,1.734,10.859,10.859,0,0,1,1.039-4.617ZM11.781,0a3.036,3.036,0,0,1-.2-.891A3.225,3.225,0,0,1,9.172.156,2.984,2.984,0,0,1,7.121-.551a2.287,2.287,0,0,1-.8-1.793,2.39,2.39,0,0,1,1-2.051,4.733,4.733,0,0,1,2.824-.73h1.406v-.664A1.623,1.623,0,0,0,11.1-7a1.821,1.821,0,0,0-1.336-.449,2.107,2.107,0,0,0-1.3.391,1.151,1.151,0,0,0-.523.945H6.492a2,2,0,0,1,.449-1.223A3.066,3.066,0,0,1,8.16-8.266a4.1,4.1,0,0,1,1.691-.344,3.342,3.342,0,0,1,2.289.73A2.635,2.635,0,0,1,13-5.867v3.891a4.757,4.757,0,0,0,.3,1.852V0Zm-2.4-1.1a2.54,2.54,0,0,0,1.289-.352,2.127,2.127,0,0,0,.883-.914V-4.1H10.422q-2.656,0-2.656,1.555a1.316,1.316,0,0,0,.453,1.063A1.742,1.742,0,0,0,9.383-1.1ZM18.6-4.539a12.084,12.084,0,0,1-.457,3.34,9.876,9.876,0,0,1-1.4,2.949,6.127,6.127,0,0,1-1.973,1.922l-.3-.883A6.281,6.281,0,0,0,16.4-.074a12.387,12.387,0,0,0,.746-4.309v-.25A12.861,12.861,0,0,0,16.8-7.684a10.3,10.3,0,0,0-.957-2.527,5.838,5.838,0,0,0-1.379-1.742l.3-.883a6.1,6.1,0,0,1,1.965,1.906,9.9,9.9,0,0,1,1.4,2.945A12.363,12.363,0,0,1,18.6-4.539Z" transform="translate(634 1378.314)"/>
    <path id="Trazado_104154" data-name="Trazado 104154" d="M-3827-10013.5h-26.617" transform="translate(4448 11320.314)" fill="none" stroke="#ea7596" stroke-width="2"/>
    <path id="Trazado_104222" data-name="Trazado 104222" d="M8.484-4.148A5.119,5.119,0,0,1,7.617-.98,2.872,2.872,0,0,1,5.2.156,2.639,2.639,0,0,1,3-.9L2.9,0H.867V-12H3.125v4.3A2.571,2.571,0,0,1,5.18-8.609,2.9,2.9,0,0,1,7.605-7.473a5.126,5.126,0,0,1,.879,3.2ZM6.227-4.312A3.363,3.363,0,0,0,5.82-6.184a1.374,1.374,0,0,0-1.211-.59,1.489,1.489,0,0,0-1.484.883v3.336a1.509,1.509,0,0,0,1.5.891A1.394,1.394,0,0,0,6.063-2.742,5.562,5.562,0,0,0,6.227-4.312ZM14.773,0a2.507,2.507,0,0,1-.227-.758,2.732,2.732,0,0,1-2.133.914,3,3,0,0,1-2.059-.719,2.312,2.312,0,0,1-.816-1.812,2.389,2.389,0,0,1,1-2.062,4.915,4.915,0,0,1,2.879-.727h1.039v-.484a1.393,1.393,0,0,0-.3-.937,1.183,1.183,0,0,0-.949-.352,1.345,1.345,0,0,0-.895.273.929.929,0,0,0-.324.75H9.727a2.268,2.268,0,0,1,.453-1.359,3,3,0,0,1,1.281-.98,4.669,4.669,0,0,1,1.859-.355,3.689,3.689,0,0,1,2.48.785,2.747,2.747,0,0,1,.918,2.207v3.664a4.041,4.041,0,0,0,.336,1.82V0ZM12.906-1.57a1.945,1.945,0,0,0,.922-.223,1.462,1.462,0,0,0,.625-.6V-3.844h-.844q-1.7,0-1.8,1.172l-.008.133a.9.9,0,0,0,.3.7A1.153,1.153,0,0,0,12.906-1.57Zm10.125-.766a.727.727,0,0,0-.41-.652A4.659,4.659,0,0,0,21.3-3.414q-3.016-.633-3.016-2.562a2.323,2.323,0,0,1,.934-1.879,3.766,3.766,0,0,1,2.441-.754,4.053,4.053,0,0,1,2.574.758A2.388,2.388,0,0,1,25.2-5.883H22.945a1.092,1.092,0,0,0-.312-.8A1.322,1.322,0,0,0,21.656-7a1.351,1.351,0,0,0-.883.258.814.814,0,0,0-.312.656.7.7,0,0,0,.355.605,3.657,3.657,0,0,0,1.2.4,9.8,9.8,0,0,1,1.422.379A2.336,2.336,0,0,1,25.227-2.43a2.2,2.2,0,0,1-.992,1.871,4.28,4.28,0,0,1-2.562.715,4.47,4.47,0,0,1-1.887-.379,3.166,3.166,0,0,1-1.293-1.039,2.414,2.414,0,0,1-.469-1.426h2.141a1.179,1.179,0,0,0,.445.922,1.766,1.766,0,0,0,1.109.32,1.635,1.635,0,0,0,.98-.246A.766.766,0,0,0,23.031-2.336ZM30.57.156A4.15,4.15,0,0,1,27.543-.984a4.054,4.054,0,0,1-1.168-3.039v-.219a5.106,5.106,0,0,1,.492-2.277,3.612,3.612,0,0,1,1.395-1.547,3.914,3.914,0,0,1,2.059-.543,3.508,3.508,0,0,1,2.73,1.094,4.444,4.444,0,0,1,1,3.1v.922H28.664a2.1,2.1,0,0,0,.66,1.328,2,2,0,0,0,1.395.5,2.437,2.437,0,0,0,2.039-.945l1.109,1.242A3.389,3.389,0,0,1,32.492-.246,4.511,4.511,0,0,1,30.57.156Zm-.258-6.937a1.414,1.414,0,0,0-1.09.453,2.341,2.341,0,0,0-.535,1.3h3.141v-.18a1.669,1.669,0,0,0-.406-1.16A1.459,1.459,0,0,0,30.313-6.781Z" transform="translate(571 1296.314)" fill="#00cca7"/>
    <path id="Trazado_104155" data-name="Trazado 104155" d="M-3766.315-10429.628v29.261l-44.911,44.911v19.15l27.721,28.948" transform="translate(4719 11653.314)" fill="none" stroke="#ea7596" stroke-linecap="round" stroke-width="2"/>
    <g id="Trazado_104223" data-name="Trazado 104223" transform="translate(892 1268.314)" fill="#ededed">
      <path d="M 16 76 L 3 76 C 1.897199988365173 76 1 75.10279846191406 1 74 L 1 3 C 1 1.897199988365173 1.897199988365173 1 3 1 L 16 1 C 17.1028003692627 1 18 1.897199988365173 18 3 L 18 74 C 18 75.10279846191406 17.1028003692627 76 16 76 Z" stroke="none"/>
      <path d="M 3 2 C 2.448600769042969 2 2 2.448600769042969 2 3 L 2 74 C 2 74.55139923095703 2.448600769042969 75 3 75 L 16 75 C 16.55139923095703 75 17 74.55139923095703 17 74 L 17 3 C 17 2.448600769042969 16.55139923095703 2 16 2 L 3 2 M 3 0 L 16 0 C 17.65685844421387 0 19 1.3431396484375 19 3 L 19 74 C 19 75.65684509277344 17.65685844421387 77 16 77 L 3 77 C 1.343141555786133 77 0 75.65684509277344 0 74 L 0 3 C 0 1.3431396484375 1.343141555786133 0 3 0 Z" stroke="none" fill="#ea7596"/>
    </g>
    <path id="Trazado_104224" data-name="Trazado 104224" d="M9.945-3.789A4.025,4.025,0,0,1,8.59-.9,4.76,4.76,0,0,1,5.367.156,4.28,4.28,0,0,1,1.926-1.316,6.038,6.038,0,0,1,.672-5.359v-.7A6.819,6.819,0,0,1,1.25-8.945,4.332,4.332,0,0,1,2.9-10.863a4.629,4.629,0,0,1,2.5-.668A4.637,4.637,0,0,1,8.57-10.477,4.326,4.326,0,0,1,9.961-7.516H7.617A2.376,2.376,0,0,0,7-9.113a2.271,2.271,0,0,0-1.605-.5,1.991,1.991,0,0,0-1.754.84,4.707,4.707,0,0,0-.6,2.605V-5.3a5.038,5.038,0,0,0,.559,2.7,1.954,1.954,0,0,0,1.762.852,2.314,2.314,0,0,0,1.621-.5A2.241,2.241,0,0,0,7.6-3.789ZM10.984-4.3a5.013,5.013,0,0,1,.484-2.242A3.546,3.546,0,0,1,12.863-8.07a4.069,4.069,0,0,1,2.113-.539A3.849,3.849,0,0,1,17.77-7.562a4.2,4.2,0,0,1,1.207,2.844l.016.578A4.418,4.418,0,0,1,17.906-1.02,3.775,3.775,0,0,1,14.992.156a3.793,3.793,0,0,1-2.918-1.172A4.5,4.5,0,0,1,10.984-4.2Zm2.258.164A3.151,3.151,0,0,0,13.7-2.3a1.5,1.5,0,0,0,1.3.637,1.5,1.5,0,0,0,1.281-.629A3.448,3.448,0,0,0,16.734-4.3a3.12,3.12,0,0,0-.461-1.828,1.5,1.5,0,0,0-1.3-.648,1.475,1.475,0,0,0-1.281.645A3.506,3.506,0,0,0,13.242-4.141ZM22.766,0H20.5V-12h2.266Zm5.75.156A4.15,4.15,0,0,1,25.488-.984,4.054,4.054,0,0,1,24.32-4.023v-.219a5.106,5.106,0,0,1,.492-2.277,3.612,3.612,0,0,1,1.395-1.547,3.914,3.914,0,0,1,2.059-.543A3.508,3.508,0,0,1,31-7.516a4.444,4.444,0,0,1,1,3.1v.922H26.609a2.1,2.1,0,0,0,.66,1.328,2,2,0,0,0,1.395.5A2.437,2.437,0,0,0,30.7-2.609l1.109,1.242A3.389,3.389,0,0,1,30.438-.246,4.511,4.511,0,0,1,28.516.156Zm-.258-6.937a1.414,1.414,0,0,0-1.09.453,2.341,2.341,0,0,0-.535,1.3h3.141v-.18a1.669,1.669,0,0,0-.406-1.16A1.459,1.459,0,0,0,28.258-6.781Zm8.531,5.117A1.481,1.481,0,0,0,37.8-2.008a1.2,1.2,0,0,0,.406-.914h2.117a2.9,2.9,0,0,1-.469,1.574A3.093,3.093,0,0,1,38.6-.238a3.949,3.949,0,0,1-1.77.395A3.67,3.67,0,0,1,33.969-1,4.56,4.56,0,0,1,32.922-4.18v-.148a4.508,4.508,0,0,1,1.039-3.117,3.627,3.627,0,0,1,2.852-1.164,3.555,3.555,0,0,1,2.543.9,3.2,3.2,0,0,1,.973,2.4H38.211A1.539,1.539,0,0,0,37.8-6.371a1.358,1.358,0,0,0-1.031-.41,1.361,1.361,0,0,0-1.191.574,3.324,3.324,0,0,0-.4,1.863v.234a3.366,3.366,0,0,0,.4,1.875A1.378,1.378,0,0,0,36.789-1.664Zm7.531-8.867v2.078h1.445V-6.8H44.32v4.219a1.007,1.007,0,0,0,.18.672.9.9,0,0,0,.688.2,3.6,3.6,0,0,0,.664-.055V-.047a4.648,4.648,0,0,1-1.367.2,2.156,2.156,0,0,1-2.422-2.4V-6.8H40.828V-8.453h1.234v-2.078ZM46.438-4.3a5.013,5.013,0,0,1,.484-2.242A3.546,3.546,0,0,1,48.316-8.07a4.069,4.069,0,0,1,2.113-.539,3.849,3.849,0,0,1,2.793,1.047A4.2,4.2,0,0,1,54.43-4.719l.016.578A4.418,4.418,0,0,1,53.359-1.02,3.775,3.775,0,0,1,50.445.156a3.793,3.793,0,0,1-2.918-1.172A4.5,4.5,0,0,1,46.438-4.2Zm2.258.164a3.151,3.151,0,0,0,.453,1.84,1.5,1.5,0,0,0,1.3.637,1.5,1.5,0,0,0,1.281-.629A3.448,3.448,0,0,0,52.188-4.3a3.12,3.12,0,0,0-.461-1.828,1.5,1.5,0,0,0-1.3-.648,1.475,1.475,0,0,0-1.281.645A3.506,3.506,0,0,0,48.7-4.141Zm11.891-2.2a6.134,6.134,0,0,0-.812-.062,1.654,1.654,0,0,0-1.68.867V0H55.836V-8.453h2.133l.063,1.008a2.092,2.092,0,0,1,1.883-1.164,2.366,2.366,0,0,1,.7.1Z" transform="translate(959 1242.314)" fill="#00cca7"/>
    <path id="Trazado_104225" data-name="Trazado 104225" d="M4.758.156A4.15,4.15,0,0,1,1.73-.984,4.054,4.054,0,0,1,.563-4.023v-.219A5.106,5.106,0,0,1,1.055-6.52,3.612,3.612,0,0,1,2.449-8.066a3.914,3.914,0,0,1,2.059-.543,3.508,3.508,0,0,1,2.73,1.094,4.444,4.444,0,0,1,1,3.1v.922H2.852a2.1,2.1,0,0,0,.66,1.328,2,2,0,0,0,1.395.5,2.437,2.437,0,0,0,2.039-.945L8.055-1.367A3.389,3.389,0,0,1,6.68-.246,4.511,4.511,0,0,1,4.758.156ZM4.5-6.781a1.414,1.414,0,0,0-1.09.453,2.341,2.341,0,0,0-.535,1.3H6.016v-.18a1.669,1.669,0,0,0-.406-1.16A1.459,1.459,0,0,0,4.5-6.781Zm7.133-1.672.07.945a2.971,2.971,0,0,1,2.43-1.1A2.255,2.255,0,0,1,16.375-7.32a2.9,2.9,0,0,1,2.539-1.289,2.521,2.521,0,0,1,2.047.8,3.681,3.681,0,0,1,.672,2.41V0H19.367V-5.391a1.61,1.61,0,0,0-.281-1.051,1.246,1.246,0,0,0-.992-.332,1.409,1.409,0,0,0-1.406.969L16.7,0H14.438V-5.383a1.59,1.59,0,0,0-.289-1.062,1.259,1.259,0,0,0-.984-.328,1.463,1.463,0,0,0-1.391.8V0H9.516V-8.453ZM25.75,0H23.484V-8.453H25.75Zm-2.4-10.641a1.112,1.112,0,0,1,.34-.836,1.277,1.277,0,0,1,.926-.328,1.28,1.28,0,0,1,.922.328,1.105,1.105,0,0,1,.344.836,1.108,1.108,0,0,1-.348.844,1.283,1.283,0,0,1-.918.328A1.283,1.283,0,0,1,23.7-9.8,1.108,1.108,0,0,1,23.352-10.641Zm8.836,8.3a.727.727,0,0,0-.41-.652,4.659,4.659,0,0,0-1.316-.426q-3.016-.633-3.016-2.562a2.323,2.323,0,0,1,.934-1.879,3.766,3.766,0,0,1,2.441-.754,4.053,4.053,0,0,1,2.574.758,2.388,2.388,0,0,1,.965,1.969H32.1a1.092,1.092,0,0,0-.312-.8A1.322,1.322,0,0,0,30.813-7a1.351,1.351,0,0,0-.883.258.814.814,0,0,0-.312.656.7.7,0,0,0,.355.605,3.657,3.657,0,0,0,1.2.4,9.8,9.8,0,0,1,1.422.379A2.336,2.336,0,0,1,34.383-2.43a2.2,2.2,0,0,1-.992,1.871,4.28,4.28,0,0,1-2.562.715,4.47,4.47,0,0,1-1.887-.379,3.166,3.166,0,0,1-1.293-1.039,2.414,2.414,0,0,1-.469-1.426H29.32a1.179,1.179,0,0,0,.445.922,1.766,1.766,0,0,0,1.109.32,1.635,1.635,0,0,0,.98-.246A.766.766,0,0,0,32.188-2.336Zm3.3-1.969a5.013,5.013,0,0,1,.484-2.242A3.546,3.546,0,0,1,37.363-8.07a4.069,4.069,0,0,1,2.113-.539A3.849,3.849,0,0,1,42.27-7.562a4.2,4.2,0,0,1,1.207,2.844l.016.578A4.418,4.418,0,0,1,42.406-1.02,3.775,3.775,0,0,1,39.492.156a3.793,3.793,0,0,1-2.918-1.172A4.5,4.5,0,0,1,35.484-4.2Zm2.258.164A3.151,3.151,0,0,0,38.2-2.3a1.5,1.5,0,0,0,1.3.637,1.5,1.5,0,0,0,1.281-.629A3.448,3.448,0,0,0,41.234-4.3a3.12,3.12,0,0,0-.461-1.828,1.5,1.5,0,0,0-1.3-.648,1.475,1.475,0,0,0-1.281.645A3.506,3.506,0,0,0,37.742-4.141Zm11.891-2.2A6.134,6.134,0,0,0,48.82-6.4a1.654,1.654,0,0,0-1.68.867V0H44.883V-8.453h2.133l.063,1.008a2.092,2.092,0,0,1,1.883-1.164,2.366,2.366,0,0,1,.7.1Z" transform="translate(943 1357.314)" fill="#00cca7"/>
    <g id="Trazado_104226" data-name="Trazado 104226" transform="translate(903.787 1324.021) rotate(-45)" fill="#eaeaea">
      <path d="M 14.27682209014893 13 L 1.723176717758179 13 L 7.999999523162842 2.015559911727905 L 14.27682209014893 13 Z" stroke="none"/>
      <path d="M 7.999999523162842 4.031137466430664 L 3.44636344909668 12 L 12.55363464355469 12 L 7.999999523162842 4.031137466430664 M 7.999999523162842 0 L 16 14 L -9.5367431640625e-07 14 L 7.999999523162842 0 Z" stroke="none" fill="#ea7596"/>
    </g>
    <path id="Trazado_104227" data-name="Trazado 104227" d="M12.51-6.65a8.782,8.782,0,0,1-.654,3.55A5.485,5.485,0,0,1,10.02-.771l2.539,1.992L11.279,2.4,8.281.02A6.1,6.1,0,0,1,6.8.2,5.434,5.434,0,0,1,3.818-.63,5.453,5.453,0,0,1,1.8-2.983a8.439,8.439,0,0,1-.737-3.54V-7.549a8.691,8.691,0,0,1,.713-3.623,5.434,5.434,0,0,1,2.017-2.407,5.411,5.411,0,0,1,2.983-.835,5.505,5.505,0,0,1,3.022.83A5.355,5.355,0,0,1,11.807-11.2a8.77,8.77,0,0,1,.7,3.638Zm-1.875-.918a6.453,6.453,0,0,0-1-3.872A3.332,3.332,0,0,0,6.777-12.8,3.3,3.3,0,0,0,3.989-11.45,6.245,6.245,0,0,0,2.939-7.7V-6.65A6.434,6.434,0,0,0,3.96-2.8,3.308,3.308,0,0,0,6.8-1.4,3.314,3.314,0,0,0,9.609-2.72a6.348,6.348,0,0,0,1.025-3.794ZM24.248,0H14.932V-1.3l4.922-5.469a11.693,11.693,0,0,0,1.509-2.017,3.366,3.366,0,0,0,.415-1.606,2.551,2.551,0,0,0-.674-1.826,2.356,2.356,0,0,0-1.8-.713,2.79,2.79,0,0,0-2.095.767,2.928,2.928,0,0,0-.747,2.134H14.658A4.194,4.194,0,0,1,15.923-13.2a4.688,4.688,0,0,1,3.384-1.211,4.5,4.5,0,0,1,3.135,1.04,3.548,3.548,0,0,1,1.152,2.769q0,2.1-2.676,5L17.109-1.475h7.139Z" transform="translate(959 1274.314)"/>
    <path id="Trazado_104228" data-name="Trazado 104228" d="M10.5,0H1.182V-1.3L6.1-6.768A11.693,11.693,0,0,0,7.612-8.784a3.366,3.366,0,0,0,.415-1.606,2.551,2.551,0,0,0-.674-1.826,2.356,2.356,0,0,0-1.8-.713,2.79,2.79,0,0,0-2.095.767,2.928,2.928,0,0,0-.747,2.134H.908A4.194,4.194,0,0,1,2.173-13.2a4.688,4.688,0,0,1,3.384-1.211,4.5,4.5,0,0,1,3.135,1.04,3.548,3.548,0,0,1,1.152,2.769q0,2.1-2.676,5L3.359-1.475H10.5ZM23.809,0H21.924L14.766-10.957V0H12.881V-14.219h1.885L21.943-3.213V-14.219h1.865ZM35.986,0H26.67V-1.3l4.922-5.469A11.693,11.693,0,0,0,33.1-8.784a3.366,3.366,0,0,0,.415-1.606,2.551,2.551,0,0,0-.674-1.826,2.356,2.356,0,0,0-1.8-.713,2.79,2.79,0,0,0-2.095.767,2.928,2.928,0,0,0-.747,2.134H26.4A4.194,4.194,0,0,1,27.661-13.2a4.688,4.688,0,0,1,3.384-1.211,4.5,4.5,0,0,1,3.135,1.04,3.548,3.548,0,0,1,1.152,2.769q0,2.1-2.676,5L28.848-1.475h7.139Zm8.838-6.25a4.42,4.42,0,0,1-1.353,1.084,3.67,3.67,0,0,1-1.724.41A3.788,3.788,0,0,1,39.6-5.361a3.936,3.936,0,0,1-1.411-1.7,5.809,5.809,0,0,1-.5-2.427,5.919,5.919,0,0,1,.542-2.568,3.981,3.981,0,0,1,1.538-1.748,4.386,4.386,0,0,1,2.324-.605,3.971,3.971,0,0,1,3.325,1.577,6.879,6.879,0,0,1,1.216,4.3v.527q0,4.15-1.641,6.06A6.3,6.3,0,0,1,40.049.01H39.7V-1.514h.381a4.968,4.968,0,0,0,3.438-1.167A5.013,5.013,0,0,0,44.824-6.25Zm-2.783,0a2.79,2.79,0,0,0,1.675-.557,3.281,3.281,0,0,0,1.118-1.377v-.723a4.972,4.972,0,0,0-.771-2.891,2.3,2.3,0,0,0-1.953-1.113A2.32,2.32,0,0,0,40.2-12a3.767,3.767,0,0,0-.723,2.407,3.92,3.92,0,0,0,.7,2.4A2.211,2.211,0,0,0,42.041-6.25Zm16.006.186a8.263,8.263,0,0,1-1.084,4.717A3.855,3.855,0,0,1,53.574.2a3.883,3.883,0,0,1-3.369-1.509A7.843,7.843,0,0,1,49.072-5.82V-8.232a8.079,8.079,0,0,1,1.084-4.658,3.885,3.885,0,0,1,3.4-1.523,3.92,3.92,0,0,1,3.379,1.47,7.8,7.8,0,0,1,1.113,4.536ZM56.24-8.535A6.62,6.62,0,0,0,55.6-11.88a2.218,2.218,0,0,0-2.041-1.05,2.189,2.189,0,0,0-2.021,1.045,6.464,6.464,0,0,0-.654,3.213v2.891a6.726,6.726,0,0,0,.669,3.4,2.214,2.214,0,0,0,2.026,1.1,2.184,2.184,0,0,0,1.987-1.035,6.483,6.483,0,0,0,.679-3.262Zm13.3-4.668L63.652,0H61.758l5.869-12.734h-7.7v-1.484h9.609Z" transform="translate(959 1298.314)"/>
    <path id="Trazado_104156" data-name="Trazado 104156" d="M-3783.227-9975v13.693" transform="translate(4719 11321.314)" fill="none" stroke="#ea7596" stroke-linecap="round" stroke-width="2"/>
    <path id="Trazado_104229" data-name="Trazado 104229" d="M1.039-4.617a12.079,12.079,0,0,1,.473-3.391,9.85,9.85,0,0,1,1.41-2.953,6,6,0,0,1,1.945-1.875l.3.953A6.222,6.222,0,0,0,3.293-9.211a11.583,11.583,0,0,0-.8,4.023l-.008.664A11.643,11.643,0,0,0,3.586.711,6.252,6.252,0,0,0,5.164,2.789l-.3.883A6.192,6.192,0,0,1,2.883,1.734,10.859,10.859,0,0,1,1.039-4.617Zm12.68.484a5.026,5.026,0,0,1-.891,3.113A2.846,2.846,0,0,1,10.438.156,2.947,2.947,0,0,1,7.961-.977L7.891,0H6.563V-12H8.008v4.477a2.93,2.93,0,0,1,2.414-1.086A2.863,2.863,0,0,1,12.84-7.445a5.177,5.177,0,0,1,.879,3.188ZM12.273-4.3a3.906,3.906,0,0,0-.57-2.281,1.888,1.888,0,0,0-1.641-.8A2.122,2.122,0,0,0,8.008-6.055V-2.4a2.181,2.181,0,0,0,2.07,1.328,1.878,1.878,0,0,0,1.617-.8A4.153,4.153,0,0,0,12.273-4.3Zm6.6-.242a12.084,12.084,0,0,1-.457,3.34,9.876,9.876,0,0,1-1.4,2.949,6.127,6.127,0,0,1-1.973,1.922l-.3-.883A6.281,6.281,0,0,0,16.676-.074a12.387,12.387,0,0,0,.746-4.309v-.25a12.861,12.861,0,0,0-.344-3.051,10.3,10.3,0,0,0-.957-2.527,5.838,5.838,0,0,0-1.379-1.742l.3-.883a6.1,6.1,0,0,1,1.965,1.906,9.9,9.9,0,0,1,1.4,2.945A12.363,12.363,0,0,1,18.875-4.539Z" transform="translate(905 1378.314)"/>
    <path id="Trazado_104157" data-name="Trazado 104157" d="M-3827-10013.5h-26.617" transform="translate(4719 11320.314)" fill="none" stroke="#ea7596" stroke-width="2"/>
    <path id="Trazado_104230" data-name="Trazado 104230" d="M8.484-4.148A5.119,5.119,0,0,1,7.617-.98,2.872,2.872,0,0,1,5.2.156,2.639,2.639,0,0,1,3-.9L2.9,0H.867V-12H3.125v4.3A2.571,2.571,0,0,1,5.18-8.609,2.9,2.9,0,0,1,7.605-7.473a5.126,5.126,0,0,1,.879,3.2ZM6.227-4.312A3.363,3.363,0,0,0,5.82-6.184a1.374,1.374,0,0,0-1.211-.59,1.489,1.489,0,0,0-1.484.883v3.336a1.509,1.509,0,0,0,1.5.891A1.394,1.394,0,0,0,6.063-2.742,5.562,5.562,0,0,0,6.227-4.312ZM14.773,0a2.507,2.507,0,0,1-.227-.758,2.732,2.732,0,0,1-2.133.914,3,3,0,0,1-2.059-.719,2.312,2.312,0,0,1-.816-1.812,2.389,2.389,0,0,1,1-2.062,4.915,4.915,0,0,1,2.879-.727h1.039v-.484a1.393,1.393,0,0,0-.3-.937,1.183,1.183,0,0,0-.949-.352,1.345,1.345,0,0,0-.895.273.929.929,0,0,0-.324.75H9.727a2.268,2.268,0,0,1,.453-1.359,3,3,0,0,1,1.281-.98,4.669,4.669,0,0,1,1.859-.355,3.689,3.689,0,0,1,2.48.785,2.747,2.747,0,0,1,.918,2.207v3.664a4.041,4.041,0,0,0,.336,1.82V0ZM12.906-1.57a1.945,1.945,0,0,0,.922-.223,1.462,1.462,0,0,0,.625-.6V-3.844h-.844q-1.7,0-1.8,1.172l-.008.133a.9.9,0,0,0,.3.7A1.153,1.153,0,0,0,12.906-1.57Zm10.125-.766a.727.727,0,0,0-.41-.652A4.659,4.659,0,0,0,21.3-3.414q-3.016-.633-3.016-2.562a2.323,2.323,0,0,1,.934-1.879,3.766,3.766,0,0,1,2.441-.754,4.053,4.053,0,0,1,2.574.758A2.388,2.388,0,0,1,25.2-5.883H22.945a1.092,1.092,0,0,0-.312-.8A1.322,1.322,0,0,0,21.656-7a1.351,1.351,0,0,0-.883.258.814.814,0,0,0-.312.656.7.7,0,0,0,.355.605,3.657,3.657,0,0,0,1.2.4,9.8,9.8,0,0,1,1.422.379A2.336,2.336,0,0,1,25.227-2.43a2.2,2.2,0,0,1-.992,1.871,4.28,4.28,0,0,1-2.562.715,4.47,4.47,0,0,1-1.887-.379,3.166,3.166,0,0,1-1.293-1.039,2.414,2.414,0,0,1-.469-1.426h2.141a1.179,1.179,0,0,0,.445.922,1.766,1.766,0,0,0,1.109.32,1.635,1.635,0,0,0,.98-.246A.766.766,0,0,0,23.031-2.336ZM30.57.156A4.15,4.15,0,0,1,27.543-.984a4.054,4.054,0,0,1-1.168-3.039v-.219a5.106,5.106,0,0,1,.492-2.277,3.612,3.612,0,0,1,1.395-1.547,3.914,3.914,0,0,1,2.059-.543,3.508,3.508,0,0,1,2.73,1.094,4.444,4.444,0,0,1,1,3.1v.922H28.664a2.1,2.1,0,0,0,.66,1.328,2,2,0,0,0,1.395.5,2.437,2.437,0,0,0,2.039-.945l1.109,1.242A3.389,3.389,0,0,1,32.492-.246,4.511,4.511,0,0,1,30.57.156Zm-.258-6.937a1.414,1.414,0,0,0-1.09.453,2.341,2.341,0,0,0-.535,1.3h3.141v-.18a1.669,1.669,0,0,0-.406-1.16A1.459,1.459,0,0,0,30.313-6.781Z" transform="translate(842 1296.314)" fill="#00cca7"/>
  </g>
</svg>
