<svg xmlns="http://www.w3.org/2000/svg" xmlns:xlink="http://www.w3.org/1999/xlink" width="568" height="450" viewBox="0 0 568 450">
  <defs>
    <clipPath id="clip-path">
      <rect id="Rectángulo_34274" data-name="Rectángulo 34274" width="543.713" height="396.05" fill="none"/>
    </clipPath>
  </defs>
  <g id="Grupo_99827" data-name="Grupo 99827" transform="translate(2790 10388)">
    <g id="Rectángulo_34274-2" data-name="Rectángulo 34274" transform="translate(-2790 -10388)" fill="#fff" stroke="#707070" stroke-width="1">
      <rect width="568" height="450" stroke="none"/>
      <rect x="0.5" y="0.5" width="567" height="449" fill="none"/>
    </g>
    <g id="Grupo_99827-2" data-name="Grupo 99827" transform="translate(-2778 -10361)">
      <line id="Línea_150" data-name="Línea 150" x2="52.15" transform="translate(484.402 293.402)" fill="none" stroke="#416e3c" stroke-miterlimit="10" stroke-width="2"/>
      <line id="Línea_151" data-name="Línea 151" x2="52.15" transform="translate(484.402 303.457)" fill="none" stroke="#416e3c" stroke-miterlimit="10" stroke-width="2"/>
      <line id="Línea_152" data-name="Línea 152" x2="20.861" transform="translate(500.215 298.429)" fill="none" stroke="#416e3c" stroke-miterlimit="10" stroke-width="2"/>
      <line id="Línea_153" data-name="Línea 153" x2="20.861" transform="translate(500.047 309.24)" fill="none" stroke="#416e3c" stroke-miterlimit="10" stroke-width="2"/>
      <line id="Línea_154" data-name="Línea 154" x2="20.861" transform="translate(500.047 320.619)" fill="none" stroke="#416e3c" stroke-miterlimit="10" stroke-width="2"/>
      <line id="Línea_155" data-name="Línea 155" x2="52.15" transform="translate(484.402 314.59)" fill="none" stroke="#416e3c" stroke-miterlimit="10" stroke-width="2"/>
      <g id="Grupo_99828" data-name="Grupo 99828">
        <g id="Grupo_99827-3" data-name="Grupo 99827" clip-path="url(#clip-path)">
          <path id="Trazado_104913" data-name="Trazado 104913" d="M490.355,293.324V134.1l6.883-4.869-14.067-6.493,14.067-5.411-14.067-7.575,14.067-7.034-14.067-5.411,7.352-6.493L490.2,1H257.547V103.8" transform="translate(20.122 0.078)" fill="none" stroke="#416e3c" stroke-miterlimit="10" stroke-width="2"/>
          <path id="Trazado_104914" data-name="Trazado 104914" d="M508.588,297.384l.167,74.353H24.186V324.6" transform="translate(1.89 23.235)" fill="none" stroke="#416e3c" stroke-miterlimit="10" stroke-width="2"/>
        </g>
      </g>
      <path id="Trazado_104915" data-name="Trazado 104915" d="M24.185,305.17V204.22h25.43l3.246-6.494,7.575,15.15,6.493-15.15,5.952,15.15,5.41-15.15,8.657,14.609L92.9,204.76l150.957.541" transform="translate(1.89 15.448)" fill="none" stroke="#416e3c" stroke-miterlimit="10" stroke-width="2"/>
      <line id="Línea_156" data-name="Línea 156" x2="93.604" transform="translate(338.809 17.31)" fill="none" stroke="#d80505" stroke-miterlimit="10" stroke-width="2"/>
      <path id="Trazado_104916" data-name="Trazado 104916" d="M327.988,9.418V23.5L312.7,16.575Z" transform="translate(24.431 0.736)" fill="#e0e0d0"/>
      <path id="Trazado_104917" data-name="Trazado 104917" d="M327.988,9.418V23.5L312.7,16.575Z" transform="translate(24.431 0.736)" fill="none" stroke="#d80505" stroke-miterlimit="10" stroke-width="2"/>
      <line id="Línea_157" data-name="Línea 157" x1="71.592" transform="translate(119.115 207.005)" fill="none" stroke="#d80505" stroke-miterlimit="10" stroke-width="2"/>
      <path id="Trazado_104918" data-name="Trazado 104918" d="M164.263,185.366v14.08l15.291-6.924Z" transform="translate(12.834 14.483)" fill="#e0e0d0"/>
      <path id="Trazado_104919" data-name="Trazado 104919" d="M164.263,185.366v14.08l15.291-6.924Z" transform="translate(12.834 14.483)" fill="none" stroke="#d80505" stroke-miterlimit="10" stroke-width="2"/>
      <path id="Trazado_104920" data-name="Trazado 104920" d="M118.225,271.737v0Z" transform="translate(9.237 17.071)" fill="#e0e0d0"/>
      <line id="Línea_158" data-name="Línea 158" y2="53.239" transform="translate(127.462 235.569)" fill="none" stroke="#d80505" stroke-miterlimit="10" stroke-width="2"/>
      <path id="Trazado_104921" data-name="Trazado 104921" d="M111.587,232.229h14.08l-6.924-15.291Z" transform="translate(8.718 16.95)" fill="#e0e0d0"/>
      <path id="Trazado_104922" data-name="Trazado 104922" d="M111.587,232.229h14.08l-6.924-15.291Z" transform="translate(8.718 16.95)" fill="none" stroke="#d80505" stroke-miterlimit="10" stroke-width="2"/>
      <line id="Línea_159" data-name="Línea 159" y1="53.239" transform="translate(127.348 328.741)" fill="none" stroke="#d80505" stroke-miterlimit="10" stroke-width="2"/>
      <path id="Trazado_104923" data-name="Trazado 104923" d="M111.482,341.676h14.08l-6.924,15.291Z" transform="translate(8.71 26.695)" fill="#e0e0d0"/>
      <path id="Trazado_104924" data-name="Trazado 104924" d="M111.482,341.676h14.08l-6.924,15.291Z" transform="translate(8.71 26.695)" fill="none" stroke="#d80505" stroke-miterlimit="10" stroke-width="2"/>
      <line id="Línea_160" data-name="Línea 160" y1="37.079" transform="translate(294.515 350.11)" fill="none" stroke="#d80505" stroke-miterlimit="10" stroke-width="2"/>
      <path id="Trazado_104925" data-name="Trazado 104925" d="M268.549,350.339h9.807l-4.822,10.65Z" transform="translate(20.982 27.372)" fill="#e0e0d0"/>
      <path id="Trazado_104926" data-name="Trazado 104926" d="M268.549,350.339h9.807l-4.822,10.65Z" transform="translate(20.982 27.372)" fill="none" stroke="#d80505" stroke-miterlimit="10" stroke-width="2"/>
      <g id="Grupo_99830" data-name="Grupo 99830">
        <g id="Grupo_99829" data-name="Grupo 99829" clip-path="url(#clip-path)">
          <line id="Línea_161" data-name="Línea 161" x2="52.15" transform="translate(0 320.619)" fill="none" stroke="#416e3c" stroke-miterlimit="10" stroke-width="2"/>
          <line id="Línea_162" data-name="Línea 162" x2="52.15" transform="translate(0 330.674)" fill="none" stroke="#416e3c" stroke-miterlimit="10" stroke-width="2"/>
        </g>
      </g>
      <line id="Línea_163" data-name="Línea 163" x2="20.861" transform="translate(15.812 325.646)" fill="none" stroke="#416e3c" stroke-miterlimit="10" stroke-width="2"/>
      <line id="Línea_164" data-name="Línea 164" x2="20.861" transform="translate(15.645 336.457)" fill="none" stroke="#416e3c" stroke-miterlimit="10" stroke-width="2"/>
      <line id="Línea_165" data-name="Línea 165" x2="20.861" transform="translate(15.645 347.836)" fill="none" stroke="#416e3c" stroke-miterlimit="10" stroke-width="2"/>
      <g id="Grupo_99832" data-name="Grupo 99832">
        <g id="Grupo_99831" data-name="Grupo 99831" clip-path="url(#clip-path)">
          <line id="Línea_166" data-name="Línea 166" x2="52.15" transform="translate(0 341.807)" fill="none" stroke="#416e3c" stroke-miterlimit="10" stroke-width="2"/>
        </g>
      </g>
      <rect id="Rectángulo_34277" data-name="Rectángulo 34277" width="68.061" height="82.241" transform="translate(243.784 97.066)" fill="#e0e0d0"/>
      <rect id="Rectángulo_34278" data-name="Rectángulo 34278" width="68.061" height="82.241" transform="translate(243.784 97.066)" fill="none" stroke="#d80505" stroke-miterlimit="10" stroke-width="2"/>
      <rect id="Rectángulo_34279" data-name="Rectángulo 34279" width="68.061" height="82.24" transform="translate(243.784 179.307)" fill="#e0e0d0"/>
      <rect id="Rectángulo_34280" data-name="Rectángulo 34280" width="68.061" height="82.24" transform="translate(243.784 179.307)" fill="none" stroke="#d80505" stroke-miterlimit="10" stroke-width="2"/>
      <rect id="Rectángulo_34281" data-name="Rectángulo 34281" width="68.061" height="82.24" transform="translate(243.784 261.259)" fill="#e0e0d0"/>
      <rect id="Rectángulo_34282" data-name="Rectángulo 34282" width="68.061" height="82.24" transform="translate(243.784 261.259)" fill="none" stroke="#d80505" stroke-miterlimit="10" stroke-width="2"/>
      <g id="Grupo_99834" data-name="Grupo 99834">
        <g id="Grupo_99833" data-name="Grupo 99833" clip-path="url(#clip-path)">
          <line id="Línea_167" data-name="Línea 167" x2="0.146" y2="51.473" transform="translate(277.669 343.499)" fill="none" stroke="#416e3c" stroke-miterlimit="10" stroke-width="2"/>
        </g>
      </g>
      <text id="IC" transform="translate(383.336 38.942)" font-size="17" font-family="Roboto-Regular, Roboto"><tspan x="0" y="0">IC</tspan></text>
      <text id="C" transform="translate(222.428 113.549)" font-size="16" font-family="Roboto-Regular, Roboto"><tspan x="0" y="0">C</tspan></text>
      <text id="N" transform="translate(271.522 142.064)" font-size="16" font-family="Roboto-Regular, Roboto"><tspan x="0" y="0">N</tspan></text>
      <text id="P" transform="translate(272.367 225.848)" font-size="16" font-family="Roboto-Regular, Roboto"><tspan x="0" y="0">P</tspan></text>
      <text id="N-2" data-name="N" transform="translate(271.66 307.802)" font-size="16" font-family="Roboto-Regular, Roboto"><tspan x="0" y="0">N</tspan></text>
      <text id="B" transform="translate(223.308 205.734)" font-size="16" font-family="Roboto-Regular, Roboto"><tspan x="0" y="0">B</tspan></text>
      <text id="E" transform="translate(224.912 313.444)" font-size="16" font-family="Roboto-Regular, Roboto"><tspan x="0" y="0">E</tspan></text>
      <text id="V_" data-name="V " transform="translate(114.287 317.186)" font-size="17" font-family="Roboto-Regular, Roboto"><tspan x="0" y="0">V </tspan></text>
      <text id="BE" transform="translate(129.537 317.474)" font-size="13" font-family="Roboto-Regular, Roboto"><tspan x="0" y="0">BE</tspan></text>
      <text id="IB" transform="translate(152.351 194.453)" font-size="17" font-family="Roboto-Regular, Roboto"><tspan x="0" y="0">IB</tspan></text>
      <text id="RB" transform="translate(58.786 204.165)" font-size="17" font-family="Roboto-Regular, Roboto"><tspan x="0" y="0">RB</tspan></text>
      <g id="Grupo_99836" data-name="Grupo 99836">
        <g id="Grupo_99835" data-name="Grupo 99835" clip-path="url(#clip-path)">
          <text id="RC" transform="translate(521.865 118.969)" font-size="16" font-family="Roboto-Regular, Roboto"><tspan x="0" y="0">RC</tspan></text>
        </g>
      </g>
      <text id="V_2" data-name="V " transform="translate(443.204 317.161)" font-size="17" font-family="Roboto-Regular, Roboto"><tspan x="0" y="0">V </tspan></text>
      <text id="CC" transform="translate(458.45 317.474)" font-size="13" font-family="Roboto-Regular, Roboto"><tspan x="0" y="0">CC</tspan></text>
      <text id="IE" transform="translate(318.26 372.283)" font-size="17" font-family="Roboto-Regular, Roboto"><tspan x="0" y="0">IE</tspan></text>
    </g>
  </g>
</svg>
