<svg xmlns="http://www.w3.org/2000/svg" width="356" height="168.87" viewBox="0 0 356 168.87">
  <g id="Grupo_99562" data-name="Grupo 99562" transform="translate(-632 -4355)">
    <path id="Trazado_104088" data-name="Trazado 104088" d="M145.6,288.585H52.866V168.655H145.6" transform="translate(599.892 4223.291)" fill="none" stroke="#ea7596" stroke-miterlimit="10" stroke-width="2"/>
    <path id="Trazado_104089" data-name="Trazado 104089" d="M115.69,288.585H224.934V168.655H115.69" transform="translate(694.849 4223.291)" fill="none" stroke="#ea7596" stroke-miterlimit="10" stroke-width="2"/>
    <path id="Trazado_104090" data-name="Trazado 104090" d="M91.172,168.687s14.379-.978,14.379,7.837-14.379,7.018-14.379,7.018" transform="translate(652.313 4223.29)" fill="none" stroke="#ea7596" stroke-miterlimit="10" stroke-width="2"/>
    <path id="Trazado_104091" data-name="Trazado 104091" d="M91.172,175.036s14.379-.978,14.379,7.837-14.379,7.02-14.379,7.02" transform="translate(652.313 4231.979)" fill="none" stroke="#ea7596" stroke-miterlimit="10" stroke-width="2"/>
    <path id="Trazado_104092" data-name="Trazado 104092" d="M91.172,181.386s14.379-.981,14.379,7.835-14.379,7.02-14.379,7.02" transform="translate(652.313 4240.668)" fill="none" stroke="#ea7596" stroke-miterlimit="10" stroke-width="2"/>
    <path id="Trazado_104093" data-name="Trazado 104093" d="M91.172,187.735s14.379-.978,14.379,7.835-14.379,7.02-14.379,7.02" transform="translate(652.313 4249.358)" fill="none" stroke="#ea7596" stroke-miterlimit="10" stroke-width="2"/>
    <path id="Trazado_104094" data-name="Trazado 104094" d="M91.172,194.084s14.379-.978,14.379,7.837-14.379,7.018-14.379,7.018" transform="translate(652.313 4258.046)" fill="none" stroke="#ea7596" stroke-miterlimit="10" stroke-width="2"/>
    <path id="Trazado_104095" data-name="Trazado 104095" d="M91.172,200.434s14.379-.981,14.379,7.835-14.379,7.02-14.379,7.02" transform="translate(652.313 4266.736)" fill="none" stroke="#ea7596" stroke-miterlimit="10" stroke-width="2"/>
    <path id="Trazado_104096" data-name="Trazado 104096" d="M91.172,206.783s14.379-.981,14.379,7.835-14.379,7.02-14.379,7.02" transform="translate(652.313 4275.425)" fill="none" stroke="#ea7596" stroke-miterlimit="10" stroke-width="2"/>
    <path id="Trazado_104097" data-name="Trazado 104097" d="M91.172,212.974s14.379-.978,14.379,7.837-14.379,7.018-14.379,7.018" transform="translate(652.313 4283.897)" fill="none" stroke="#ea7596" stroke-miterlimit="10" stroke-width="2"/>
    <path id="Trazado_104098" data-name="Trazado 104098" d="M124.739,168.687s-14.379-.978-14.379,7.837,14.379,7.018,14.379,7.018" transform="translate(687.555 4223.29)" fill="none" stroke="#ea7596" stroke-miterlimit="10" stroke-width="2"/>
    <path id="Trazado_104099" data-name="Trazado 104099" d="M124.739,175.036s-14.379-.978-14.379,7.837,14.379,7.02,14.379,7.02" transform="translate(687.555 4231.979)" fill="none" stroke="#ea7596" stroke-miterlimit="10" stroke-width="2"/>
    <path id="Trazado_104100" data-name="Trazado 104100" d="M124.739,181.386s-14.379-.981-14.379,7.835,14.379,7.02,14.379,7.02" transform="translate(687.555 4240.668)" fill="none" stroke="#ea7596" stroke-miterlimit="10" stroke-width="2"/>
    <path id="Trazado_104101" data-name="Trazado 104101" d="M124.739,187.735s-14.379-.978-14.379,7.835,14.379,7.02,14.379,7.02" transform="translate(687.555 4249.358)" fill="none" stroke="#ea7596" stroke-miterlimit="10" stroke-width="2"/>
    <path id="Trazado_104102" data-name="Trazado 104102" d="M124.739,208.939s-14.379,1.8-14.379-7.018,14.379-7.837,14.379-7.837h33.548" transform="translate(687.555 4258.046)" fill="none" stroke="#ea7596" stroke-miterlimit="10" stroke-width="2"/>
    <path id="Trazado_104103" data-name="Trazado 104103" d="M124.739,200.434s-14.379-.981-14.379,7.835,14.379,7.02,14.379,7.02" transform="translate(687.555 4266.736)" fill="none" stroke="#ea7596" stroke-miterlimit="10" stroke-width="2"/>
    <path id="Trazado_104104" data-name="Trazado 104104" d="M124.739,206.783s-14.379-.981-14.379,7.835,14.379,7.02,14.379,7.02" transform="translate(687.555 4275.425)" fill="none" stroke="#ea7596" stroke-miterlimit="10" stroke-width="2"/>
    <path id="Trazado_104105" data-name="Trazado 104105" d="M124.739,212.974S110.36,212,110.36,220.811s14.379,7.018,14.379,7.018" transform="translate(687.555 4283.897)" fill="none" stroke="#ea7596" stroke-miterlimit="10" stroke-width="2"/>
    <path id="Trazado_104106" data-name="Trazado 104106" d="M-6682.379-7254.706v-16.89h40.009" transform="translate(7335.137 11663.54)" fill="none" stroke="#00cca7" stroke-width="2"/>
    <path id="Trazado_104107" data-name="Trazado 104107" d="M-6682.379-7271.6v16.89h40.009" transform="translate(7335.137 11766.429)" fill="none" stroke="#00cca7" stroke-width="2"/>
    <path id="Trazado_104108" data-name="Trazado 104108" d="M-6589.51-7285.066v146.23" transform="translate(7358.899 11661.469)" fill="none" stroke="#ea7596" stroke-linecap="round" stroke-width="2"/>
    <path id="Trazado_104109" data-name="Trazado 104109" d="M-6589.51-7285.066v146.23" transform="translate(7366.76 11661.469)" fill="none" stroke="#ea7596" stroke-linecap="round" stroke-width="2"/>
    <path id="Trazado_104110" data-name="Trazado 104110" d="M-6589.51-7285.066v146.23" transform="translate(7375.743 11661.469)" fill="none" stroke="#ea7596" stroke-linecap="round" stroke-width="2"/>
    <path id="Trazado_104111" data-name="Trazado 104111" d="M-6517.418-7271.6h22.064" transform="translate(7364.389 11663.541)" fill="none" stroke="#00cca7" stroke-width="2"/>
    <g id="Polígono_28" data-name="Polígono 28" transform="translate(889 4380) rotate(90)" fill="#e8e8e8">
      <path d="M 20.9732608795166 14 L 2.026739597320557 14 L 11.5 1.643573522567749 L 20.9732608795166 14 Z" stroke="none"/>
      <path d="M 11.5 3.287134170532227 L 4.053468704223633 13 L 18.94653129577637 13 L 11.5 3.287134170532227 M 11.5 0 L 23 15 L 0 15 L 11.5 0 Z" stroke="none" fill="#ea7596"/>
    </g>
    <path id="Trazado_104114" data-name="Trazado 104114" d="M-6480-7282v23.53" transform="translate(7368.987 11661.846)" fill="none" stroke="#ea7596" stroke-width="2"/>
    <text id="TR1" transform="translate(726 4371)" fill="#12263f" font-size="17" font-family="Roboto-Regular, Roboto"><tspan x="0" y="0">TR1</tspan></text>
    <text id="D1" transform="translate(872 4371)" fill="#12263f" font-size="17" font-family="Roboto-Regular, Roboto"><tspan x="0" y="0">D1</tspan></text>
    <text id="R1" transform="translate(966 4454)" fill="#12263f" font-size="18" font-family="Roboto-Regular, Roboto"><tspan x="0" y="0">R1</tspan></text>
    <g id="Elipse_4678" data-name="Elipse 4678" transform="translate(632 4429)" fill="#e0e0e0" stroke="#ea7596" stroke-width="2">
      <circle cx="22.5" cy="22.5" r="22.5" stroke="none"/>
      <circle cx="22.5" cy="22.5" r="21.5" fill="none"/>
    </g>
    <path id="Trazado_104115" data-name="Trazado 104115" d="M0,12.76S.3-4.764,12.092,5.354,26.6,0,26.6,0" transform="translate(642.817 4441.072) rotate(11)" fill="none" stroke="#ea7596" stroke-linecap="round" stroke-width="2"/>
    <path id="Trazado_104116" data-name="Trazado 104116" d="M-6682.379-7271.6v16.89H-6562.6v-15.542" transform="translate(8174.489 -2170.656) rotate(-90)" fill="none" stroke="#00cca7" stroke-width="2"/>
    <path id="Trazado_104117" data-name="Trazado 104117" d="M-5997.5-7308.055h30.88l.048,110.48" transform="translate(6917 11700)" fill="none" stroke="#ea7596" stroke-width="2"/>
    <circle id="Elipse_4679" data-name="Elipse 4679" cx="3.5" cy="3.5" r="3.5" transform="translate(916 4389)" fill="#00cca7"/>
    <g id="Rectángulo_33779" data-name="Rectángulo 33779" transform="translate(943 4428)" fill="#dedede" stroke="#ea7596" stroke-width="2">
      <rect width="15" height="43" stroke="none"/>
      <rect x="1" y="1" width="13" height="41" fill="none"/>
    </g>
    <path id="Trazado_104118" data-name="Trazado 104118" d="M-5997.748-7308.056h31.128v14.718" transform="translate(6917 11700)" fill="none" stroke="#00cca7" stroke-width="2"/>
    <path id="Trazado_104119" data-name="Trazado 104119" d="M-5966.62-7216.33v18.436" transform="translate(6917 11700)" fill="none" stroke="#00cca7" stroke-width="2"/>
    <g id="Polígono_29" data-name="Polígono 29" transform="translate(889 4500.494) rotate(90)" fill="#e0e0e0">
      <path d="M 20.9732608795166 14 L 2.026739597320557 14 L 11.5 1.643573522567749 L 20.9732608795166 14 Z" stroke="none"/>
      <path d="M 11.5 3.287134170532227 L 4.053468704223633 13 L 18.94653129577637 13 L 11.5 3.287134170532227 M 11.5 0 L 23 15 L 0 15 L 11.5 0 Z" stroke="none" fill="#ea7596"/>
    </g>
    <path id="Trazado_104120" data-name="Trazado 104120" d="M-6480-7282v23.53" transform="translate(7368.987 11782.34)" fill="none" stroke="#ea7596" stroke-width="2"/>
    <text id="D2" transform="translate(872 4490)" fill="#12263f" font-size="17" font-family="Roboto-Regular, Roboto"><tspan x="0" y="0">D2</tspan></text>
    <path id="Trazado_104121" data-name="Trazado 104121" d="M-5977.849-7188.006h21.865" transform="translate(6917 11690.111)" fill="none" stroke="#00cca7" stroke-width="2"/>
    <path id="Trazado_104122" data-name="Trazado 104122" d="M-5977.849-7188.006h14.032" transform="translate(6921.213 11695.111)" fill="none" stroke="#00cca7" stroke-width="2"/>
    <path id="Trazado_104123" data-name="Trazado 104123" d="M-5977.849-7188.006h6.9" transform="translate(6924.9 11700.111)" fill="none" stroke="#00cca7" stroke-width="2"/>
    <path id="Trazado_104124" data-name="Trazado 104124" d="M-5966.62-7216.329v31.032" transform="translate(6812.462 11667.473)" fill="none" stroke="#00cca7" stroke-width="2"/>
    <path id="Trazado_104125" data-name="Trazado 104125" d="M-5977.849-7188.006h21.865" transform="translate(6812.349 11670.182)" fill="none" stroke="#00cca7" stroke-width="2"/>
    <path id="Trazado_104126" data-name="Trazado 104126" d="M-5977.849-7188.006h14.032" transform="translate(6816.349 11675.182)" fill="none" stroke="#00cca7" stroke-width="2"/>
    <path id="Trazado_104127" data-name="Trazado 104127" d="M-5977.849-7188.006h6.9" transform="translate(6820.349 11680.182)" fill="none" stroke="#00cca7" stroke-width="2"/>
  </g>
</svg>
