<svg xmlns="http://www.w3.org/2000/svg" xmlns:xlink="http://www.w3.org/1999/xlink" width="488" height="326" viewBox="0 0 488 326">
  <defs>
    <clipPath id="clip-path">
      <rect id="Rectángulo_34184" data-name="Rectángulo 34184" width="421.413" height="268.93" fill="none"/>
    </clipPath>
  </defs>
  <g id="Grupo_99828" data-name="Grupo 99828" transform="translate(-873 -5205)">
    <g id="Rectángulo_34135" data-name="Rectángulo 34135" transform="translate(873 5205)" fill="#fff" stroke="#707070" stroke-width="1">
      <rect width="488" height="326" stroke="none"/>
      <rect x="0.5" y="0.5" width="487" height="325" fill="none"/>
    </g>
    <g id="Grupo_99822" data-name="Grupo 99822" transform="translate(906 5234)">
      <rect id="Rectángulo_34166" data-name="Rectángulo 34166" width="0.825" height="250.93" transform="translate(237.91 17.995)"/>
      <rect id="Rectángulo_34167" data-name="Rectángulo 34167" width="327.704" height="0.824" transform="translate(74.986 181.95)"/>
      <rect id="Rectángulo_34168" data-name="Rectángulo 34168" width="5.578" height="1.649" transform="translate(238.323 30.341)"/>
      <rect id="Rectángulo_34169" data-name="Rectángulo 34169" width="5.578" height="1.649" transform="translate(238.323 68.556)"/>
      <rect id="Rectángulo_34170" data-name="Rectángulo 34170" width="5.578" height="1.649" transform="translate(238.323 106.77)"/>
      <rect id="Rectángulo_34171" data-name="Rectángulo 34171" width="5.578" height="1.649" transform="translate(238.323 144.984)"/>
      <rect id="Rectángulo_34172" data-name="Rectángulo 34172" width="5.578" height="1.649" transform="translate(233.26 201.455)"/>
      <rect id="Rectángulo_34173" data-name="Rectángulo 34173" width="5.578" height="1.649" transform="translate(233.26 221.003)"/>
      <rect id="Rectángulo_34174" data-name="Rectángulo 34174" width="1.649" height="5.578" transform="translate(88.83 176.784)"/>
      <rect id="Rectángulo_34175" data-name="Rectángulo 34175" width="1.649" height="5.578" transform="translate(126.995 176.784)"/>
      <rect id="Rectángulo_34176" data-name="Rectángulo 34176" width="1.649" height="5.578" transform="translate(165.16 176.784)"/>
      <rect id="Rectángulo_34177" data-name="Rectángulo 34177" width="1.649" height="5.578" transform="translate(203.324 176.784)"/>
      <rect id="Rectángulo_34178" data-name="Rectángulo 34178" width="1.649" height="5.578" transform="translate(314.813 182.362)"/>
      <rect id="Rectángulo_34179" data-name="Rectángulo 34179" width="1.649" height="5.578" transform="translate(351.329 182.362)"/>
      <g id="Grupo_99821" data-name="Grupo 99821">
        <g id="Grupo_99820" data-name="Grupo 99820" clip-path="url(#clip-path)">
          <path id="Trazado_104727" data-name="Trazado 104727" d="M363.628,52.828h-8.035V51.234l3.792-4.042A9.336,9.336,0,0,0,360.54,45.7a2.394,2.394,0,0,0,.374-1.208,1.792,1.792,0,0,0-.394-1.228,1.426,1.426,0,0,0-1.127-.446,1.536,1.536,0,0,0-1.244.543,2.157,2.157,0,0,0-.455,1.429H355.36a3.848,3.848,0,0,1,.511-1.956,3.6,3.6,0,0,1,1.446-1.389,4.389,4.389,0,0,1,2.117-.5,4.159,4.159,0,0,1,2.814.869,3.077,3.077,0,0,1,1,2.456,3.941,3.941,0,0,1-.451,1.771,9.864,9.864,0,0,1-1.546,2.1l-2.665,2.809h5.04Z" transform="translate(-140.127 -16.146)"/>
          <path id="Trazado_104728" data-name="Trazado 104728" d="M379.233,47.982a5.937,5.937,0,0,1-1.007,3.719,4.021,4.021,0,0,1-5.877.024,5.765,5.765,0,0,1-1.039-3.623V45.945a5.862,5.862,0,0,1,1.018-3.728,4.03,4.03,0,0,1,5.865-.012,5.749,5.749,0,0,1,1.039,3.619Zm-2.327-2.372a4.291,4.291,0,0,0-.4-2.123,1.347,1.347,0,0,0-1.243-.665,1.323,1.323,0,0,0-1.212.632,4.015,4.015,0,0,0-.414,1.979v2.853a4.508,4.508,0,0,0,.39,2.132,1.33,1.33,0,0,0,1.252.7,1.307,1.307,0,0,0,1.232-.669,4.4,4.4,0,0,0,.394-2.047Z" transform="translate(-146.417 -16.146)"/>
          <path id="Trazado_104729" data-name="Trazado 104729" d="M361.753,114.854h-2.327v-8.969l-2.778.862v-1.892l4.855-1.739h.25Z" transform="translate(-140.636 -40.661)"/>
          <path id="Trazado_104730" data-name="Trazado 104730" d="M371.741,109.1l.676-5.957h6.57v1.94h-4.661l-.29,2.52a3.692,3.692,0,0,1,1.763-.443,3.379,3.379,0,0,1,2.625,1.039,4.151,4.151,0,0,1,.95,2.907,4.251,4.251,0,0,1-.479,2.033,3.381,3.381,0,0,1-1.372,1.392,4.287,4.287,0,0,1-2.11.495,4.542,4.542,0,0,1-1.972-.431A3.488,3.488,0,0,1,372,113.384a3.3,3.3,0,0,1-.56-1.779h2.3a1.72,1.72,0,0,0,.511,1.139,1.622,1.622,0,0,0,1.147.406,1.43,1.43,0,0,0,1.216-.568,2.631,2.631,0,0,0,.427-1.606,2.176,2.176,0,0,0-.491-1.53,1.8,1.8,0,0,0-1.393-.532,2.015,2.015,0,0,0-1.345.435l-.225.21Z" transform="translate(-146.469 -40.672)"/>
          <path id="Trazado_104731" data-name="Trazado 104731" d="M361.753,176.787h-2.327v-8.969l-2.778.861v-1.892l4.855-1.739h.25Z" transform="translate(-140.636 -65.083)"/>
          <path id="Trazado_104732" data-name="Trazado 104732" d="M379.233,171.846a5.937,5.937,0,0,1-1.007,3.719,4.021,4.021,0,0,1-5.877.024,5.765,5.765,0,0,1-1.039-3.623v-2.157a5.862,5.862,0,0,1,1.018-3.728,4.03,4.03,0,0,1,5.865-.012,5.748,5.748,0,0,1,1.039,3.619Zm-2.327-2.372a4.291,4.291,0,0,0-.4-2.123,1.347,1.347,0,0,0-1.243-.665,1.323,1.323,0,0,0-1.212.632,4.015,4.015,0,0,0-.414,1.979v2.853a4.508,4.508,0,0,0,.39,2.132,1.33,1.33,0,0,0,1.252.7,1.307,1.307,0,0,0,1.232-.669,4.4,4.4,0,0,0,.394-2.047Z" transform="translate(-146.417 -64.988)"/>
          <path id="Trazado_104733" data-name="Trazado 104733" d="M371.741,232.964l.676-5.957h6.57v1.94h-4.661l-.29,2.52a3.692,3.692,0,0,1,1.763-.443,3.379,3.379,0,0,1,2.625,1.039,4.151,4.151,0,0,1,.95,2.907,4.251,4.251,0,0,1-.479,2.033,3.381,3.381,0,0,1-1.372,1.392,4.287,4.287,0,0,1-2.11.495,4.542,4.542,0,0,1-1.972-.431A3.488,3.488,0,0,1,372,237.248a3.3,3.3,0,0,1-.56-1.779h2.3a1.72,1.72,0,0,0,.511,1.139,1.622,1.622,0,0,0,1.147.406,1.43,1.43,0,0,0,1.216-.568,2.631,2.631,0,0,0,.427-1.606,2.177,2.177,0,0,0-.491-1.53,1.8,1.8,0,0,0-1.393-.532,2.015,2.015,0,0,0-1.345.435l-.225.21Z" transform="translate(-146.469 -89.515)"/>
          <path id="Trazado_104734" data-name="Trazado 104734" d="M516.843,275.982v-1.517l1.385-1.253c2.341-2.094,3.479-3.3,3.512-4.551,0-.873-.527-1.566-1.764-1.566a3.885,3.885,0,0,0-2.292.89l-.709-1.8a5.932,5.932,0,0,1,3.512-1.1c2.424,0,3.759,1.418,3.759,3.364,0,1.8-1.3,3.231-2.852,4.616l-.989.824v.032h4.039v2.061Z" transform="translate(-203.804 -104.529)"/>
          <path id="Trazado_104735" data-name="Trazado 104735" d="M576.345,273.525a5.9,5.9,0,0,0,2.489.66c1.3,0,1.962-.626,1.962-1.434,0-1.055-1.056-1.534-2.16-1.534h-1.022v-1.8h.973c.841-.016,1.913-.329,1.913-1.236,0-.643-.528-1.122-1.583-1.122a4.891,4.891,0,0,0-2.243.643l-.511-1.814a6.717,6.717,0,0,1,3.314-.808c2.292,0,3.561,1.2,3.561,2.672a2.567,2.567,0,0,1-1.962,2.489v.033a2.663,2.663,0,0,1,2.325,2.6c0,1.9-1.666,3.281-4.386,3.281a6.333,6.333,0,0,1-3.182-.758Z" transform="translate(-227.066 -104.529)"/>
          <rect id="Rectángulo_34180" data-name="Rectángulo 34180" width="4.32" height="1.681" transform="translate(81.043 166.276)"/>
          <path id="Trazado_104736" data-name="Trazado 104736" d="M144.54,270.442a2.6,2.6,0,0,1-1.55-2.342c0-1.813,1.632-3.017,3.776-3.017,2.506,0,3.544,1.451,3.544,2.753a2.612,2.612,0,0,1-1.549,2.358v.049a2.836,2.836,0,0,1,1.962,2.671c0,1.945-1.632,3.248-4.122,3.248-2.721,0-3.974-1.533-3.974-2.984a2.848,2.848,0,0,1,1.913-2.688Zm3.627,2.655c0-.94-.692-1.5-1.682-1.764a1.625,1.625,0,0,0-1.3,1.6,1.467,1.467,0,0,0,1.517,1.5,1.346,1.346,0,0,0,1.468-1.335m-2.819-5.079c0,.726.66,1.187,1.517,1.451a1.469,1.469,0,0,0,1.088-1.369,1.229,1.229,0,0,0-1.3-1.319,1.2,1.2,0,0,0-1.3,1.237" transform="translate(-56.241 -104.529)"/>
          <rect id="Rectángulo_34181" data-name="Rectángulo 34181" width="4.32" height="1.681" transform="translate(155.453 166.276)"/>
          <path id="Trazado_104737" data-name="Trazado 104737" d="M269.984,276.1v-2.555h-4.749v-1.633l4.056-6.529h3.067v6.281h1.286v1.88h-1.286V276.1Zm0-4.435V269.29c0-.643.033-1.3.082-2H270c-.346.693-.626,1.319-.989,2l-1.434,2.342v.033Z" transform="translate(-104.589 -104.647)"/>
          <path id="Trazado_104738" data-name="Trazado 104738" d="M305.557,14.19l.394-1.755h1.417l1.779-7.689h-1.586l.4-1.755h5.652l-.394,1.755H312l-1.779,7.689h1.617l-.411,1.755Z" transform="translate(-120.489 -1.18)"/>
          <path id="Trazado_104739" data-name="Trazado 104739" d="M325,8.245a12.344,12.344,0,0,1,.491-3.51,9.25,9.25,0,0,1,1.449-2.951A5.413,5.413,0,0,1,329.021,0l.451,1.256a5.6,5.6,0,0,0-1.835,2.689,12.445,12.445,0,0,0-.661,4.251v.25a12.686,12.686,0,0,0,.652,4.267,5.712,5.712,0,0,0,1.844,2.729l-.451,1.231a5.41,5.41,0,0,1-2.041-1.735,9.106,9.106,0,0,1-1.445-2.87,12.282,12.282,0,0,1-.531-3.4Z" transform="translate(-128.157 0)"/>
          <path id="Trazado_104740" data-name="Trazado 104740" d="M336.571,6.994l.073.974a3.06,3.06,0,0,1,2.5-1.136,2.324,2.324,0,0,1,2.311,1.329,2.993,2.993,0,0,1,2.617-1.329,2.6,2.6,0,0,1,2.109.826,3.791,3.791,0,0,1,.692,2.483V15.7h-2.334V10.149a1.658,1.658,0,0,0-.29-1.082,1.284,1.284,0,0,0-1.022-.343,1.453,1.453,0,0,0-1.449,1l.008,5.982h-2.327V10.158a1.638,1.638,0,0,0-.3-1.1,1.3,1.3,0,0,0-1.014-.339,1.51,1.51,0,0,0-1.433.821V15.7h-2.326V6.994Z" transform="translate(-131.858 -2.694)"/>
          <path id="Trazado_104741" data-name="Trazado 104741" d="M364.182,11.434h-4.235l-.8,2.415h-2.568l4.363-11.722h2.238l4.388,11.722H365ZM360.6,9.477h2.93L362.057,5.09Z" transform="translate(-140.606 -0.839)"/>
          <path id="Trazado_104742" data-name="Trazado 104742" d="M379.911,8.429a11.718,11.718,0,0,1-.523,3.5,9.506,9.506,0,0,1-1.506,2.971,5.42,5.42,0,0,1-2.1,1.77l-.451-1.231a5.657,5.657,0,0,0,1.8-2.657,12.3,12.3,0,0,0,.684-4.13V8.228a12.572,12.572,0,0,0-.657-4.243,5.9,5.9,0,0,0-1.831-2.753L375.781,0a5.432,5.432,0,0,1,2.065,1.723,9.373,9.373,0,0,1,1.506,2.907,11.628,11.628,0,0,1,.56,3.437Z" transform="translate(-148.002)"/>
          <path id="Trazado_104743" data-name="Trazado 104743" d="M22.021,348.372l2.656-8.816h2.689l-4.082,11.722h-2.52L16.7,339.557h2.681Z" transform="translate(-6.585 -133.896)"/>
          <path id="Trazado_104744" data-name="Trazado 104744" d="M34.671,348.7a5.16,5.16,0,0,1,.5-2.311,3.655,3.655,0,0,1,1.437-1.571,4.2,4.2,0,0,1,2.178-.555,3.965,3.965,0,0,1,2.878,1.079,4.33,4.33,0,0,1,1.244,2.93l.016.6a4.555,4.555,0,0,1-1.119,3.216,4.339,4.339,0,0,1-6.01,0,4.635,4.635,0,0,1-1.123-3.285Zm2.326.165a3.258,3.258,0,0,0,.467,1.9,1.677,1.677,0,0,0,2.657.007,3.563,3.563,0,0,0,.475-2.076,3.23,3.23,0,0,0-.475-1.887,1.545,1.545,0,0,0-1.337-.669,1.519,1.519,0,0,0-1.32.665,3.622,3.622,0,0,0-.467,2.06" transform="translate(-13.672 -135.751)"/>
          <rect id="Rectángulo_34182" data-name="Rectángulo 34182" width="2.335" height="12.366" transform="translate(30.805 205.017)"/>
          <path id="Trazado_104745" data-name="Trazado 104745" d="M60.136,340.993v2.141h1.489v1.707H60.136v4.347a1.036,1.036,0,0,0,.185.693.927.927,0,0,0,.708.21,3.706,3.706,0,0,0,.684-.057V351.8a4.792,4.792,0,0,1-1.409.21,2.222,2.222,0,0,1-2.5-2.471v-4.694H56.536v-1.707h1.272v-2.141Z" transform="translate(-22.294 -134.462)"/>
          <path id="Trazado_104746" data-name="Trazado 104746" d="M71.9,353.135a2.58,2.58,0,0,1-.233-.781,2.818,2.818,0,0,1-2.2.942,3.094,3.094,0,0,1-2.122-.741,2.383,2.383,0,0,1-.841-1.868,2.461,2.461,0,0,1,1.027-2.125,5.068,5.068,0,0,1,2.967-.749H71.57v-.5a1.434,1.434,0,0,0-.31-.966,1.217,1.217,0,0,0-.978-.363,1.387,1.387,0,0,0-.922.282.958.958,0,0,0-.334.773H66.7a2.336,2.336,0,0,1,.467-1.4,3.092,3.092,0,0,1,1.32-1.011,4.825,4.825,0,0,1,1.916-.366,3.8,3.8,0,0,1,2.556.809,2.832,2.832,0,0,1,.946,2.274v3.776A4.158,4.158,0,0,0,74.251,353v.137Zm-1.924-1.618a2,2,0,0,0,.95-.23,1.51,1.51,0,0,0,.644-.616v-1.5H70.7q-1.747,0-1.859,1.208l-.008.137a.931.931,0,0,0,.306.717,1.188,1.188,0,0,0,.837.282" transform="translate(-26.225 -135.751)"/>
          <path id="Trazado_104747" data-name="Trazado 104747" d="M83.057,342.28v9.186a3.116,3.116,0,0,1-.765,2.242,2.906,2.906,0,0,1-2.206.8,4.721,4.721,0,0,1-1.151-.137v-1.843a4.415,4.415,0,0,0,.732.072q1.055,0,1.055-1.119v-9.2Zm-2.52-2.254a1.146,1.146,0,0,1,.35-.861,1.516,1.516,0,0,1,1.908,0,1.234,1.234,0,0,1-.008,1.731,1.492,1.492,0,0,1-1.892,0,1.142,1.142,0,0,1-.359-.87" transform="translate(-31.126 -133.608)"/>
          <path id="Trazado_104748" data-name="Trazado 104748" d="M92.549,353.3a4.276,4.276,0,0,1-3.12-1.175,4.178,4.178,0,0,1-1.2-3.132v-.225a5.266,5.266,0,0,1,.507-2.347,3.719,3.719,0,0,1,1.437-1.594,4.039,4.039,0,0,1,2.122-.56,3.612,3.612,0,0,1,2.813,1.128,4.578,4.578,0,0,1,1.027,3.2v.95H90.585a2.16,2.16,0,0,0,.681,1.369,2.055,2.055,0,0,0,1.437.515,2.511,2.511,0,0,0,2.1-.975l1.143,1.28a3.493,3.493,0,0,1-1.417,1.155,4.654,4.654,0,0,1-1.981.414m-.266-7.157a1.454,1.454,0,0,0-1.123.469,2.429,2.429,0,0,0-.552,1.342h3.237v-.185a1.736,1.736,0,0,0-.419-1.2,1.5,1.5,0,0,0-1.144-.424" transform="translate(-34.79 -135.751)"/>
          <path id="Trazado_104749" data-name="Trazado 104749" d="M2.971,384.031H7.23v1.876H0V384.49l4.1-5.418H.121V377.2H7.1v1.371Z" transform="translate(0 -148.738)"/>
          <path id="Trazado_104750" data-name="Trazado 104750" d="M17.935,385.963a4.276,4.276,0,0,1-3.12-1.175,4.179,4.179,0,0,1-1.2-3.132v-.225a5.266,5.266,0,0,1,.507-2.347,3.72,3.72,0,0,1,1.437-1.594,4.04,4.04,0,0,1,2.122-.56,3.612,3.612,0,0,1,2.813,1.128,4.578,4.578,0,0,1,1.027,3.2v.95H15.97a2.16,2.16,0,0,0,.681,1.369,2.055,2.055,0,0,0,1.437.515,2.511,2.511,0,0,0,2.1-.975l1.143,1.28a3.494,3.494,0,0,1-1.417,1.155,4.654,4.654,0,0,1-1.981.414m-.266-7.157a1.454,1.454,0,0,0-1.123.469,2.429,2.429,0,0,0-.552,1.342h3.237v-.185a1.736,1.736,0,0,0-.419-1.2,1.5,1.5,0,0,0-1.144-.424" transform="translate(-5.368 -148.633)"/>
          <path id="Trazado_104751" data-name="Trazado 104751" d="M30.955,377.091l.073,1.007a3.04,3.04,0,0,1,2.5-1.168,2.527,2.527,0,0,1,2.061.813,3.8,3.8,0,0,1,.693,2.432V385.8H33.958v-5.571a1.507,1.507,0,0,0-.322-1.075,1.44,1.44,0,0,0-1.07-.334,1.6,1.6,0,0,0-1.474.837V385.8H28.765v-8.711Z" transform="translate(-11.343 -148.633)"/>
          <path id="Trazado_104752" data-name="Trazado 104752" d="M47.9,385.963a4.276,4.276,0,0,1-3.12-1.175,4.179,4.179,0,0,1-1.2-3.132v-.225a5.267,5.267,0,0,1,.507-2.347,3.72,3.72,0,0,1,1.437-1.594,4.04,4.04,0,0,1,2.122-.56,3.612,3.612,0,0,1,2.813,1.128,4.578,4.578,0,0,1,1.027,3.2v.95H45.931a2.16,2.16,0,0,0,.681,1.369,2.055,2.055,0,0,0,1.437.515,2.511,2.511,0,0,0,2.1-.975l1.143,1.28a3.494,3.494,0,0,1-1.417,1.155,4.654,4.654,0,0,1-1.981.414m-.266-7.157a1.454,1.454,0,0,0-1.123.469,2.429,2.429,0,0,0-.552,1.342h3.237v-.185a1.736,1.736,0,0,0-.419-1.2,1.5,1.5,0,0,0-1.144-.424" transform="translate(-17.182 -148.633)"/>
          <path id="Trazado_104753" data-name="Trazado 104753" d="M63.7,379.273a6.4,6.4,0,0,0-.837-.064,1.7,1.7,0,0,0-1.731.893v5.7H58.806v-8.711H61l.064,1.039a2.156,2.156,0,0,1,1.941-1.2,2.422,2.422,0,0,1,.724.1Z" transform="translate(-23.189 -148.633)"/>
          <path id="Trazado_104754" data-name="Trazado 104754" d="M75.688,378.342a12.351,12.351,0,0,1,.491-3.51,9.247,9.247,0,0,1,1.449-2.95A5.412,5.412,0,0,1,79.7,370.1l.451,1.256a5.6,5.6,0,0,0-1.835,2.689,12.433,12.433,0,0,0-.661,4.251v.25a12.665,12.665,0,0,0,.653,4.267,5.709,5.709,0,0,0,1.843,2.73l-.451,1.231a5.41,5.41,0,0,1-2.041-1.735,9.1,9.1,0,0,1-1.445-2.871,12.251,12.251,0,0,1-.531-3.4Z" transform="translate(-29.846 -145.939)"/>
          <path id="Trazado_104755" data-name="Trazado 104755" d="M89.277,381.04l2.656-8.816h2.689l-4.082,11.722h-2.52l-4.065-11.722h2.681Z" transform="translate(-33.106 -146.778)"/>
          <path id="Trazado_104756" data-name="Trazado 104756" d="M103.884,395.99h2.769v1.094H102.1v-.716l2.75-3.658h-2.765v-1.094h4.525v.7Z" transform="translate(-40.255 -154.424)"/>
          <path id="Trazado_104757" data-name="Trazado 104757" d="M115.089,378.527a11.719,11.719,0,0,1-.523,3.5A9.506,9.506,0,0,1,113.06,385a5.425,5.425,0,0,1-2.1,1.77l-.451-1.231a5.66,5.66,0,0,0,1.8-2.657,12.3,12.3,0,0,0,.684-4.13v-.426a12.569,12.569,0,0,0-.657-4.243,5.909,5.909,0,0,0-1.831-2.754l.451-1.231a5.421,5.421,0,0,1,2.065,1.723,9.37,9.37,0,0,1,1.506,2.906,11.636,11.636,0,0,1,.56,3.438Z" transform="translate(-43.576 -145.939)"/>
          <path id="Trazado_104758" data-name="Trazado 104758" d="M616.516,348.372l2.656-8.816h2.689l-4.082,11.722h-2.52l-4.065-11.722h2.681Z" transform="translate(-241.01 -133.896)"/>
          <path id="Trazado_104759" data-name="Trazado 104759" d="M629.166,348.7a5.16,5.16,0,0,1,.5-2.311,3.655,3.655,0,0,1,1.437-1.571,4.2,4.2,0,0,1,2.178-.555,3.965,3.965,0,0,1,2.878,1.079,4.33,4.33,0,0,1,1.244,2.93l.016.6a4.555,4.555,0,0,1-1.119,3.216,4.339,4.339,0,0,1-6.01,0,4.635,4.635,0,0,1-1.123-3.285Zm2.326.165a3.258,3.258,0,0,0,.467,1.9,1.677,1.677,0,0,0,2.657.007,3.562,3.562,0,0,0,.475-2.076,3.229,3.229,0,0,0-.475-1.887,1.545,1.545,0,0,0-1.337-.669,1.519,1.519,0,0,0-1.32.665,3.622,3.622,0,0,0-.467,2.06" transform="translate(-248.096 -135.751)"/>
          <rect id="Rectángulo_34183" data-name="Rectángulo 34183" width="2.335" height="12.366" transform="translate(390.875 205.017)"/>
          <path id="Trazado_104760" data-name="Trazado 104760" d="M654.63,340.993v2.141h1.489v1.707H654.63v4.347a1.039,1.039,0,0,0,.185.693.93.93,0,0,0,.709.21,3.706,3.706,0,0,0,.684-.057V351.8a4.8,4.8,0,0,1-1.409.21,2.222,2.222,0,0,1-2.5-2.471v-4.694h-1.272v-1.707H652.3v-2.141Z" transform="translate(-256.718 -134.462)"/>
          <path id="Trazado_104761" data-name="Trazado 104761" d="M666.4,353.135a2.583,2.583,0,0,1-.233-.781,2.818,2.818,0,0,1-2.2.942,3.094,3.094,0,0,1-2.122-.741,2.383,2.383,0,0,1-.841-1.868,2.461,2.461,0,0,1,1.027-2.125,5.068,5.068,0,0,1,2.967-.749h1.071v-.5a1.434,1.434,0,0,0-.31-.966,1.216,1.216,0,0,0-.978-.363,1.387,1.387,0,0,0-.922.282.957.957,0,0,0-.334.773h-2.327a2.335,2.335,0,0,1,.467-1.4,3.093,3.093,0,0,1,1.32-1.011,4.825,4.825,0,0,1,1.916-.366,3.8,3.8,0,0,1,2.556.809,2.832,2.832,0,0,1,.946,2.274v3.776a4.158,4.158,0,0,0,.346,1.876v.137Zm-1.924-1.618a2,2,0,0,0,.95-.23,1.51,1.51,0,0,0,.644-.616v-1.5h-.87q-1.747,0-1.859,1.208l-.008.137a.931.931,0,0,0,.306.717,1.188,1.188,0,0,0,.837.282" transform="translate(-260.65 -135.751)"/>
          <path id="Trazado_104762" data-name="Trazado 104762" d="M677.551,342.28v9.186a3.116,3.116,0,0,1-.765,2.242,2.906,2.906,0,0,1-2.206.8,4.721,4.721,0,0,1-1.151-.137v-1.843a4.415,4.415,0,0,0,.732.072q1.055,0,1.055-1.119v-9.2Zm-2.52-2.254a1.146,1.146,0,0,1,.35-.861,1.516,1.516,0,0,1,1.908,0,1.234,1.234,0,0,1-.008,1.731,1.492,1.492,0,0,1-1.892,0,1.142,1.142,0,0,1-.359-.87" transform="translate(-265.55 -133.608)"/>
          <path id="Trazado_104763" data-name="Trazado 104763" d="M687.044,353.3a4.276,4.276,0,0,1-3.12-1.175,4.178,4.178,0,0,1-1.2-3.132v-.225a5.268,5.268,0,0,1,.507-2.347,3.72,3.72,0,0,1,1.437-1.594,4.039,4.039,0,0,1,2.122-.56,3.612,3.612,0,0,1,2.813,1.128,4.578,4.578,0,0,1,1.027,3.2v.95h-5.547a2.16,2.16,0,0,0,.681,1.369,2.055,2.055,0,0,0,1.437.515,2.511,2.511,0,0,0,2.1-.975l1.143,1.28a3.493,3.493,0,0,1-1.417,1.155,4.654,4.654,0,0,1-1.981.414m-.266-7.157a1.454,1.454,0,0,0-1.123.469,2.429,2.429,0,0,0-.552,1.342h3.237v-.185a1.735,1.735,0,0,0-.419-1.2,1.5,1.5,0,0,0-1.143-.424" transform="translate(-269.214 -135.751)"/>
          <path id="Trazado_104764" data-name="Trazado 104764" d="M68.618,324.858l-2.265-1c4.535-10.326,12.456-14.067,31.393-14.826l.1,2.471c-18,.721-25.106,3.965-29.227,13.35" transform="translate(-26.165 -121.861)" fill="#ea7596"/>
          <path id="Trazado_104765" data-name="Trazado 104765" d="M115.349,313.4l10.524-6.425-10.825-5.9Z" transform="translate(-45.366 -118.72)" fill="#ea7596"/>
          <path id="Trazado_104766" data-name="Trazado 104766" d="M146.284,291.949l-2.061-.01.349-72.5a10.811,10.811,0,0,1,10.657-10.82c26.643-.526,130.068-5.208,173.3-7.2a20.71,20.71,0,0,0,19.457-17.481L367.341,58.376l2.037.314L350.02,184.257a22.776,22.776,0,0,1-21.4,19.226c-43.238,1.99-146.684,6.672-173.352,7.2a8.762,8.762,0,0,0-8.636,8.77Z" transform="translate(-56.871 -23.019)" fill="#00cca7"/>
        </g>
      </g>
    </g>
  </g>
</svg>
