<svg xmlns="http://www.w3.org/2000/svg" width="478.141" height="249" viewBox="0 0 478.141 249">
  <g id="Grupo_99553" data-name="Grupo 99553" transform="translate(-560.93 -2095)">
    <text id="N" transform="translate(696 2114)" fill="#12263f" font-size="20" font-family="Roboto-Bold, Roboto" font-weight="700"><tspan x="0" y="0">N</tspan></text>
    <text id="P" transform="translate(892 2114)" fill="#12263f" font-size="20" font-family="Roboto-Bold, Roboto" font-weight="700"><tspan x="0" y="0">P</tspan></text>
    <rect id="Rect치ngulo_33760" data-name="Rect치ngulo 33760" width="193" height="180" transform="translate(800 2129)" fill="#3c0061"/>
    <g id="Grupo_99479" data-name="Grupo 99479" transform="translate(821.798 2159.535)">
      <g id="Elipse_4674" data-name="Elipse 4674" transform="translate(0.203 0.465)" fill="none" stroke="#fff" stroke-width="3">
        <ellipse cx="15.5" cy="15" rx="15.5" ry="15" stroke="none"/>
        <ellipse cx="15.5" cy="15" rx="14" ry="13.5" fill="none"/>
      </g>
      <path id="Trazado_103986" data-name="Trazado 103986" d="M9.8-21.055H14.91v2.984H9.8v5.821H6.629V-18.07H1.494v-2.984H6.629V-26.5H9.8Z" transform="translate(7.051 34.704)" fill="#fff"/>
    </g>
    <g id="Grupo_99503" data-name="Grupo 99503" transform="translate(607.213 2128.768)">
      <rect id="Rect치ngulo_33759" data-name="Rect치ngulo 33759" width="193" height="180" transform="translate(-0.213 0.232)" fill="#b3009d"/>
      <g id="Grupo_99491" data-name="Grupo 99491" transform="translate(18.934 30.768)">
        <g id="Elipse_4674-2" data-name="Elipse 4674" transform="translate(-0.147 0.465)" fill="none" stroke="#fff" stroke-width="3">
          <ellipse cx="15.5" cy="15" rx="15.5" ry="15" stroke="none"/>
          <ellipse cx="15.5" cy="15" rx="14" ry="13.5" fill="none"/>
        </g>
        <path id="Trazado_103986-2" data-name="Trazado 103986" d="M9.8-17.174H14.91v2.984H1.494v-2.984H9.8Z" transform="translate(7.121 30.823)" fill="#fff"/>
      </g>
      <g id="Grupo_99520" data-name="Grupo 99520" transform="translate(57.934 30.768)">
        <g id="Elipse_4674-3" data-name="Elipse 4674" transform="translate(-0.147 0.465)" fill="none" stroke="#fff" stroke-width="3">
          <ellipse cx="15.5" cy="15" rx="15.5" ry="15" stroke="none"/>
          <ellipse cx="15.5" cy="15" rx="14" ry="13.5" fill="none"/>
        </g>
        <path id="Trazado_103986-3" data-name="Trazado 103986" d="M9.8-17.174H14.91v2.984H1.494v-2.984H9.8Z" transform="translate(7.121 30.823)" fill="#fff"/>
      </g>
      <g id="Grupo_99521" data-name="Grupo 99521" transform="translate(96.934 30.768)">
        <g id="Elipse_4674-4" data-name="Elipse 4674" transform="translate(-0.147 0.465)" fill="none" stroke="#fff" stroke-width="3">
          <ellipse cx="15.5" cy="15" rx="15.5" ry="15" stroke="none"/>
          <ellipse cx="15.5" cy="15" rx="14" ry="13.5" fill="none"/>
        </g>
        <path id="Trazado_103986-4" data-name="Trazado 103986" d="M9.8-17.174H14.91v2.984H1.494v-2.984H9.8Z" transform="translate(7.121 30.823)" fill="#fff"/>
      </g>
      <g id="Grupo_99522" data-name="Grupo 99522" transform="translate(135.934 30.768)">
        <g id="Elipse_4674-5" data-name="Elipse 4674" transform="translate(-0.147 0.465)" fill="none" stroke="#fff" stroke-width="3">
          <ellipse cx="15.5" cy="15" rx="15.5" ry="15" stroke="none"/>
          <ellipse cx="15.5" cy="15" rx="14" ry="13.5" fill="none"/>
        </g>
        <path id="Trazado_103986-5" data-name="Trazado 103986" d="M9.8-17.174H14.91v2.984H1.494v-2.984H9.8Z" transform="translate(7.121 30.823)" fill="#fff"/>
      </g>
      <g id="Grupo_99523" data-name="Grupo 99523" transform="translate(18.934 71.768)">
        <g id="Elipse_4674-6" data-name="Elipse 4674" transform="translate(-0.147 0.465)" fill="none" stroke="#fff" stroke-width="3">
          <ellipse cx="15.5" cy="15" rx="15.5" ry="15" stroke="none"/>
          <ellipse cx="15.5" cy="15" rx="14" ry="13.5" fill="none"/>
        </g>
        <path id="Trazado_103986-6" data-name="Trazado 103986" d="M9.8-17.174H14.91v2.984H1.494v-2.984H9.8Z" transform="translate(7.121 30.823)" fill="#fff"/>
      </g>
      <g id="Grupo_99524" data-name="Grupo 99524" transform="translate(57.934 71.768)">
        <g id="Elipse_4674-7" data-name="Elipse 4674" transform="translate(-0.147 0.465)" fill="none" stroke="#fff" stroke-width="3">
          <ellipse cx="15.5" cy="15" rx="15.5" ry="15" stroke="none"/>
          <ellipse cx="15.5" cy="15" rx="14" ry="13.5" fill="none"/>
        </g>
        <path id="Trazado_103986-7" data-name="Trazado 103986" d="M9.8-17.174H14.91v2.984H1.494v-2.984H9.8Z" transform="translate(7.121 30.823)" fill="#fff"/>
      </g>
      <g id="Grupo_99525" data-name="Grupo 99525" transform="translate(96.934 71.768)">
        <g id="Elipse_4674-8" data-name="Elipse 4674" transform="translate(-0.147 0.465)" fill="none" stroke="#fff" stroke-width="3">
          <ellipse cx="15.5" cy="15" rx="15.5" ry="15" stroke="none"/>
          <ellipse cx="15.5" cy="15" rx="14" ry="13.5" fill="none"/>
        </g>
        <path id="Trazado_103986-8" data-name="Trazado 103986" d="M9.8-17.174H14.91v2.984H1.494v-2.984H9.8Z" transform="translate(7.121 30.823)" fill="#fff"/>
      </g>
      <g id="Grupo_99526" data-name="Grupo 99526" transform="translate(135.934 71.768)">
        <g id="Elipse_4674-9" data-name="Elipse 4674" transform="translate(-0.147 0.465)" fill="none" stroke="#fff" stroke-width="3">
          <ellipse cx="15.5" cy="15" rx="15.5" ry="15" stroke="none"/>
          <ellipse cx="15.5" cy="15" rx="14" ry="13.5" fill="none"/>
        </g>
        <path id="Trazado_103986-9" data-name="Trazado 103986" d="M9.8-17.174H14.91v2.984H1.494v-2.984H9.8Z" transform="translate(7.121 30.823)" fill="#fff"/>
      </g>
      <g id="Grupo_99527" data-name="Grupo 99527" transform="translate(18.934 112.768)">
        <g id="Elipse_4674-10" data-name="Elipse 4674" transform="translate(-0.147 0.465)" fill="none" stroke="#fff" stroke-width="3">
          <ellipse cx="15.5" cy="15" rx="15.5" ry="15" stroke="none"/>
          <ellipse cx="15.5" cy="15" rx="14" ry="13.5" fill="none"/>
        </g>
        <path id="Trazado_103986-10" data-name="Trazado 103986" d="M9.8-17.174H14.91v2.984H1.494v-2.984H9.8Z" transform="translate(7.121 30.823)" fill="#fff"/>
      </g>
      <g id="Grupo_99528" data-name="Grupo 99528" transform="translate(57.934 112.768)">
        <g id="Elipse_4674-11" data-name="Elipse 4674" transform="translate(-0.147 0.465)" fill="none" stroke="#fff" stroke-width="3">
          <ellipse cx="15.5" cy="15" rx="15.5" ry="15" stroke="none"/>
          <ellipse cx="15.5" cy="15" rx="14" ry="13.5" fill="none"/>
        </g>
        <path id="Trazado_103986-11" data-name="Trazado 103986" d="M9.8-17.174H14.91v2.984H1.494v-2.984H9.8Z" transform="translate(7.121 30.823)" fill="#fff"/>
      </g>
      <g id="Grupo_99529" data-name="Grupo 99529" transform="translate(96.934 112.768)">
        <g id="Elipse_4674-12" data-name="Elipse 4674" transform="translate(-0.147 0.465)" fill="none" stroke="#fff" stroke-width="3">
          <ellipse cx="15.5" cy="15" rx="15.5" ry="15" stroke="none"/>
          <ellipse cx="15.5" cy="15" rx="14" ry="13.5" fill="none"/>
        </g>
        <path id="Trazado_103986-12" data-name="Trazado 103986" d="M9.8-17.174H14.91v2.984H1.494v-2.984H9.8Z" transform="translate(7.121 30.823)" fill="#fff"/>
      </g>
      <g id="Grupo_99530" data-name="Grupo 99530" transform="translate(135.934 112.768)">
        <g id="Elipse_4674-13" data-name="Elipse 4674" transform="translate(-0.147 0.465)" fill="none" stroke="#fff" stroke-width="3">
          <ellipse cx="15.5" cy="15" rx="15.5" ry="15" stroke="none"/>
          <ellipse cx="15.5" cy="15" rx="14" ry="13.5" fill="none"/>
        </g>
        <path id="Trazado_103986-13" data-name="Trazado 103986" d="M9.8-17.174H14.91v2.984H1.494v-2.984H9.8Z" transform="translate(7.121 30.823)" fill="#fff"/>
      </g>
    </g>
    <text id="_A_" data-name="(A)" transform="translate(788 2339)" fill="#12263f" font-size="20" font-family="Roboto-Regular, Roboto"><tspan x="0" y="0">(a)</tspan></text>
    <g id="Grupo_99509" data-name="Grupo 99509" transform="translate(860.798 2159.535)">
      <g id="Elipse_4674-14" data-name="Elipse 4674" transform="translate(0.203 0.465)" fill="none" stroke="#fff" stroke-width="3">
        <ellipse cx="15.5" cy="15" rx="15.5" ry="15" stroke="none"/>
        <ellipse cx="15.5" cy="15" rx="14" ry="13.5" fill="none"/>
      </g>
      <path id="Trazado_103986-14" data-name="Trazado 103986" d="M9.8-21.055H14.91v2.984H9.8v5.821H6.629V-18.07H1.494v-2.984H6.629V-26.5H9.8Z" transform="translate(7.051 34.704)" fill="#fff"/>
    </g>
    <g id="Grupo_99510" data-name="Grupo 99510" transform="translate(899.798 2159.535)">
      <g id="Elipse_4674-15" data-name="Elipse 4674" transform="translate(0.203 0.465)" fill="none" stroke="#fff" stroke-width="3">
        <ellipse cx="15.5" cy="15" rx="15.5" ry="15" stroke="none"/>
        <ellipse cx="15.5" cy="15" rx="14" ry="13.5" fill="none"/>
      </g>
      <path id="Trazado_103986-15" data-name="Trazado 103986" d="M9.8-21.055H14.91v2.984H9.8v5.821H6.629V-18.07H1.494v-2.984H6.629V-26.5H9.8Z" transform="translate(7.051 34.704)" fill="#fff"/>
    </g>
    <g id="Grupo_99511" data-name="Grupo 99511" transform="translate(938.798 2159.535)">
      <g id="Elipse_4674-16" data-name="Elipse 4674" transform="translate(0.203 0.465)" fill="none" stroke="#fff" stroke-width="3">
        <ellipse cx="15.5" cy="15" rx="15.5" ry="15" stroke="none"/>
        <ellipse cx="15.5" cy="15" rx="14" ry="13.5" fill="none"/>
      </g>
      <path id="Trazado_103986-16" data-name="Trazado 103986" d="M9.8-21.055H14.91v2.984H9.8v5.821H6.629V-18.07H1.494v-2.984H6.629V-26.5H9.8Z" transform="translate(7.051 34.704)" fill="#fff"/>
    </g>
    <g id="Grupo_99512" data-name="Grupo 99512" transform="translate(821.798 2199.535)">
      <g id="Elipse_4674-17" data-name="Elipse 4674" transform="translate(0.203 0.465)" fill="none" stroke="#fff" stroke-width="3">
        <ellipse cx="15.5" cy="15" rx="15.5" ry="15" stroke="none"/>
        <ellipse cx="15.5" cy="15" rx="14" ry="13.5" fill="none"/>
      </g>
      <path id="Trazado_103986-17" data-name="Trazado 103986" d="M9.8-21.055H14.91v2.984H9.8v5.821H6.629V-18.07H1.494v-2.984H6.629V-26.5H9.8Z" transform="translate(7.051 34.704)" fill="#fff"/>
    </g>
    <g id="Grupo_99513" data-name="Grupo 99513" transform="translate(860.798 2199.535)">
      <g id="Elipse_4674-18" data-name="Elipse 4674" transform="translate(0.203 0.465)" fill="none" stroke="#fff" stroke-width="3">
        <ellipse cx="15.5" cy="15" rx="15.5" ry="15" stroke="none"/>
        <ellipse cx="15.5" cy="15" rx="14" ry="13.5" fill="none"/>
      </g>
      <path id="Trazado_103986-18" data-name="Trazado 103986" d="M9.8-21.055H14.91v2.984H9.8v5.821H6.629V-18.07H1.494v-2.984H6.629V-26.5H9.8Z" transform="translate(7.051 34.704)" fill="#fff"/>
    </g>
    <g id="Grupo_99514" data-name="Grupo 99514" transform="translate(899.798 2199.535)">
      <g id="Elipse_4674-19" data-name="Elipse 4674" transform="translate(0.203 0.465)" fill="none" stroke="#fff" stroke-width="3">
        <ellipse cx="15.5" cy="15" rx="15.5" ry="15" stroke="none"/>
        <ellipse cx="15.5" cy="15" rx="14" ry="13.5" fill="none"/>
      </g>
      <path id="Trazado_103986-19" data-name="Trazado 103986" d="M9.8-21.055H14.91v2.984H9.8v5.821H6.629V-18.07H1.494v-2.984H6.629V-26.5H9.8Z" transform="translate(7.051 34.704)" fill="#fff"/>
    </g>
    <g id="Grupo_99515" data-name="Grupo 99515" transform="translate(938.798 2199.535)">
      <g id="Elipse_4674-20" data-name="Elipse 4674" transform="translate(0.203 0.465)" fill="none" stroke="#fff" stroke-width="3">
        <ellipse cx="15.5" cy="15" rx="15.5" ry="15" stroke="none"/>
        <ellipse cx="15.5" cy="15" rx="14" ry="13.5" fill="none"/>
      </g>
      <path id="Trazado_103986-20" data-name="Trazado 103986" d="M9.8-21.055H14.91v2.984H9.8v5.821H6.629V-18.07H1.494v-2.984H6.629V-26.5H9.8Z" transform="translate(7.051 34.704)" fill="#fff"/>
    </g>
    <g id="Grupo_99516" data-name="Grupo 99516" transform="translate(821.798 2239.535)">
      <g id="Elipse_4674-21" data-name="Elipse 4674" transform="translate(0.203 0.465)" fill="none" stroke="#fff" stroke-width="3">
        <ellipse cx="15.5" cy="15" rx="15.5" ry="15" stroke="none"/>
        <ellipse cx="15.5" cy="15" rx="14" ry="13.5" fill="none"/>
      </g>
      <path id="Trazado_103986-21" data-name="Trazado 103986" d="M9.8-21.055H14.91v2.984H9.8v5.821H6.629V-18.07H1.494v-2.984H6.629V-26.5H9.8Z" transform="translate(7.051 34.704)" fill="#fff"/>
    </g>
    <g id="Grupo_99517" data-name="Grupo 99517" transform="translate(860.798 2239.535)">
      <g id="Elipse_4674-22" data-name="Elipse 4674" transform="translate(0.203 0.465)" fill="none" stroke="#fff" stroke-width="3">
        <ellipse cx="15.5" cy="15" rx="15.5" ry="15" stroke="none"/>
        <ellipse cx="15.5" cy="15" rx="14" ry="13.5" fill="none"/>
      </g>
      <path id="Trazado_103986-22" data-name="Trazado 103986" d="M9.8-21.055H14.91v2.984H9.8v5.821H6.629V-18.07H1.494v-2.984H6.629V-26.5H9.8Z" transform="translate(7.051 34.704)" fill="#fff"/>
    </g>
    <g id="Grupo_99518" data-name="Grupo 99518" transform="translate(899.798 2239.535)">
      <g id="Elipse_4674-23" data-name="Elipse 4674" transform="translate(0.203 0.465)" fill="none" stroke="#fff" stroke-width="3">
        <ellipse cx="15.5" cy="15" rx="15.5" ry="15" stroke="none"/>
        <ellipse cx="15.5" cy="15" rx="14" ry="13.5" fill="none"/>
      </g>
      <path id="Trazado_103986-23" data-name="Trazado 103986" d="M9.8-21.055H14.91v2.984H9.8v5.821H6.629V-18.07H1.494v-2.984H6.629V-26.5H9.8Z" transform="translate(7.051 34.704)" fill="#fff"/>
    </g>
    <g id="Grupo_99519" data-name="Grupo 99519" transform="translate(938.798 2239.535)">
      <g id="Elipse_4674-24" data-name="Elipse 4674" transform="translate(0.203 0.465)" fill="none" stroke="#fff" stroke-width="3">
        <ellipse cx="15.5" cy="15" rx="15.5" ry="15" stroke="none"/>
        <ellipse cx="15.5" cy="15" rx="14" ry="13.5" fill="none"/>
      </g>
      <path id="Trazado_103986-24" data-name="Trazado 103986" d="M9.8-21.055H14.91v2.984H9.8v5.821H6.629V-18.07H1.494v-2.984H6.629V-26.5H9.8Z" transform="translate(7.051 34.704)" fill="#fff"/>
    </g>
    <path id="Trazado_104007" data-name="Trazado 104007" d="M-6366.248-9510h-46.07" transform="translate(6973.248 11725)" fill="none" stroke="#000" stroke-width="2"/>
    <path id="Trazado_104008" data-name="Trazado 104008" d="M-6366.248-9510h-46.07" transform="translate(7405.318 11725)" fill="none" stroke="#000" stroke-width="2"/>
  </g>
</svg>
