<svg xmlns="http://www.w3.org/2000/svg" width="479.83" height="418.561" viewBox="0 0 479.83 418.561">
  <g id="Grupo_54924" data-name="Grupo 54924" transform="translate(-239.011 -252.141)">
    <g id="Grupo_54913" data-name="Grupo 54913" transform="translate(367.215 348.866)">
      <rect id="Rectángulo_7303" data-name="Rectángulo 7303" width="221.874" height="221.874" rx="7.859" transform="translate(0.001)" fill="#00cca7"/>
      <path id="Trazado_103691" data-name="Trazado 103691" d="M315.848,519.315a16.87,16.87,0,0,1-16.872-16.87V314.312a16.87,16.87,0,0,1,16.872-16.87H503.981a16.87,16.87,0,0,1,16.87,16.87V502.445a16.87,16.87,0,0,1-16.87,16.87" transform="translate(-298.976 -297.441)" fill="none" stroke="#3ef1ff" stroke-miterlimit="10" stroke-width="0.901" opacity="0.997"/>
      <rect id="Rectángulo_7304" data-name="Rectángulo 7304" width="204.394" height="204.394" rx="7.859" transform="translate(8.741 8.74)" fill="#ffd947"/>
      <path id="Trazado_103692" data-name="Trazado 103692" d="M308.945,463.811a14.782,14.782,0,0,0,14.781,14.782H473.239a14.782,14.782,0,0,0,14.782-14.782V314.3Z" transform="translate(-287.546 -278.117)" fill="#ffe581"/>
      <path id="Trazado_103693" data-name="Trazado 103693" d="M507.441,309.632V477.513A19.085,19.085,0,0,1,488.356,496.6H322.133a19.085,19.085,0,0,1-19.085-19.085V309.632" transform="translate(-294.307 -283.464)" fill="none" stroke="#3ff" stroke-miterlimit="10" stroke-width="0.901" opacity="0.7"/>
      <rect id="Rectángulo_7305" data-name="Rectángulo 7305" width="179.076" height="179.076" rx="6.886" transform="translate(21.4 21.399)" fill="none" stroke="#fff" stroke-miterlimit="10" stroke-width="0.901" opacity="0.79"/>
    </g>
    <g id="Grupo_54915" data-name="Grupo 54915" transform="translate(239.462 375.725)">
      <path id="Trazado_103694" data-name="Trazado 103694" d="M276.079,356.855a2.331,2.331,0,0,0,0-.934h55.565v.934Z" transform="translate(-197.477 -257.248)" fill="#3ef1ff" stroke="#3ef1ff" stroke-miterlimit="10" stroke-width="0.901"/>
      <path id="Trazado_103695" data-name="Trazado 103695" d="M343.1,350.6H242.831a3.716,3.716,0,0,0,.045-.468,3.8,3.8,0,0,0-.045-.468H343.7l26.062-20.781v1.606Z" transform="translate(-235.599 -288.249)" fill="#3ef1ff" stroke="#3ef1ff" stroke-miterlimit="10" stroke-width="0.901"/>
      <path id="Trazado_103696" data-name="Trazado 103696" d="M261.349,320.137a2.331,2.331,0,0,0,0-.934h87.184v.934Z" transform="translate(-214.366 -299.349)" fill="#3ef1ff" stroke="#3ef1ff" stroke-miterlimit="10" stroke-width="0.901"/>
      <path id="Trazado_103697" data-name="Trazado 103697" d="M280.679,312.438a3.709,3.709,0,0,0,.045-.468,3.788,3.788,0,0,0-.045-.468h45.69v.936Z" transform="translate(-192.203 -308.179)" fill="#3ef1ff" stroke="#3ef1ff" stroke-miterlimit="10" stroke-width="0.901"/>
      <path id="Trazado_103698" data-name="Trazado 103698" d="M261.349,391.475a2.341,2.341,0,0,0,0-.936h87.184v.936Z" transform="translate(-214.366 -217.555)" fill="#3ef1ff" stroke="#3ef1ff" stroke-miterlimit="10" stroke-width="0.901"/>
      <path id="Trazado_103699" data-name="Trazado 103699" d="M280.679,383.773a2.434,2.434,0,0,0,0-.934h45.69v.934Z" transform="translate(-192.203 -226.384)" fill="#3ef1ff" stroke="#3ef1ff" stroke-miterlimit="10" stroke-width="0.901"/>
      <path id="Trazado_103700" data-name="Trazado 103700" d="M251.305,361.694a2.442,2.442,0,0,0,0-.934H360.05v.934Z" transform="translate(-225.883 -251.7)" fill="#3ef1ff" stroke="#3ef1ff" stroke-miterlimit="10" stroke-width="0.901"/>
      <g id="Grupo_54914" data-name="Grupo 54914">
        <path id="Trazado_103701" data-name="Trazado 103701" d="M280.469,316.1a2.86,2.86,0,1,1,2.741-2.857A2.8,2.8,0,0,1,280.469,316.1Z" transform="translate(-195.586 -309.455)" fill="#3ef1ff" stroke="#3ef1ff" stroke-miterlimit="10" stroke-width="0.901"/>
        <path id="Trazado_103702" data-name="Trazado 103702" d="M261.141,323.8a2.858,2.858,0,1,1,2.741-2.857A2.8,2.8,0,0,1,261.141,323.8Z" transform="translate(-217.75 -300.625)" fill="#3ef1ff" stroke="#3ef1ff" stroke-miterlimit="10" stroke-width="0.901"/>
        <path id="Trazado_103703" data-name="Trazado 103703" d="M251.1,365.361a2.86,2.86,0,1,1,2.741-2.857A2.8,2.8,0,0,1,251.1,365.361Z" transform="translate(-229.266 -252.976)" fill="#3ef1ff" stroke="#3ef1ff" stroke-miterlimit="10" stroke-width="0.901"/>
        <path id="Trazado_103704" data-name="Trazado 103704" d="M242.621,343.166a2.86,2.86,0,1,1,2.741-2.857A2.8,2.8,0,0,1,242.621,343.166Z" transform="translate(-238.983 -278.425)" fill="#3ef1ff" stroke="#3ef1ff" stroke-miterlimit="10" stroke-width="0.901"/>
        <path id="Trazado_103705" data-name="Trazado 103705" d="M280.469,387.438a2.858,2.858,0,1,1,2.741-2.855A2.8,2.8,0,0,1,280.469,387.438Z" transform="translate(-195.586 -227.66)" fill="#3ef1ff" stroke="#3ef1ff" stroke-miterlimit="10" stroke-width="0.901"/>
        <path id="Trazado_103706" data-name="Trazado 103706" d="M275.869,360.52a2.858,2.858,0,1,1,2.743-2.855A2.8,2.8,0,0,1,275.869,360.52Z" transform="translate(-200.861 -258.524)" fill="#3ef1ff" stroke="#3ef1ff" stroke-miterlimit="10" stroke-width="0.901"/>
        <path id="Trazado_103707" data-name="Trazado 103707" d="M261.141,395.14a2.86,2.86,0,1,1,2.741-2.857A2.8,2.8,0,0,1,261.141,395.14Z" transform="translate(-217.75 -218.831)" fill="#3ef1ff" stroke="#3ef1ff" stroke-miterlimit="10" stroke-width="0.901"/>
        <path id="Trazado_103708" data-name="Trazado 103708" d="M279.94,357.7h0a3.624,3.624,0,0,0-7.232.468,3.723,3.723,0,0,0,3.638,3.791,3.686,3.686,0,0,0,3.593-3.325h0Zm-.848.468a2.745,2.745,0,1,1-2.743-2.857A2.8,2.8,0,0,1,279.092,358.165Z" transform="translate(-201.34 -259.024)" fill="#3ef1ff" stroke="#3ef1ff" stroke-miterlimit="10" stroke-width="0.901"/>
        <path id="Trazado_103709" data-name="Trazado 103709" d="M276.08,356.855h0v-.934h0a2.331,2.331,0,0,1,0,.934Z" transform="translate(-197.478 -257.248)" fill="#3ef1ff" stroke="#3ef1ff" stroke-miterlimit="10" stroke-width="0.901"/>
        <path id="Trazado_103710" data-name="Trazado 103710" d="M246.29,340.34h.4a3.795,3.795,0,1,0,0,.936h-.4Zm-.449.468a2.744,2.744,0,1,1-2.741-2.857A2.8,2.8,0,0,1,245.842,340.808Z" transform="translate(-239.462 -278.924)" fill="#3ef1ff" stroke="#3ef1ff" stroke-miterlimit="10" stroke-width="0.901"/>
        <path id="Trazado_103711" data-name="Trazado 103711" d="M243.047,339.5h-.4v-.936h.4a3.793,3.793,0,0,1,.045.468A3.713,3.713,0,0,1,243.047,339.5Z" transform="translate(-235.815 -277.149)" fill="#3ef1ff" stroke="#3ef1ff" stroke-miterlimit="10" stroke-width="0.901"/>
        <path id="Trazado_103712" data-name="Trazado 103712" d="M265.21,320.979h0a3.685,3.685,0,0,0-3.591-3.325,3.8,3.8,0,0,0,0,7.584,3.685,3.685,0,0,0,3.591-3.325h0Zm-.848.466a2.744,2.744,0,1,1-2.741-2.855A2.8,2.8,0,0,1,264.362,321.445Z" transform="translate(-218.229 -301.125)" fill="#3ef1ff" stroke="#3ef1ff" stroke-miterlimit="10" stroke-width="0.901"/>
        <path id="Trazado_103713" data-name="Trazado 103713" d="M261.35,320.137h0V319.2h0a2.331,2.331,0,0,1,0,.934Z" transform="translate(-214.368 -299.349)" fill="#3ef1ff" stroke="#3ef1ff" stroke-miterlimit="10" stroke-width="0.901"/>
        <path id="Trazado_103714" data-name="Trazado 103714" d="M284.54,313.277h0a3.795,3.795,0,1,0,0,.936h0Zm-.85.468a2.744,2.744,0,1,1-2.741-2.857A2.8,2.8,0,0,1,283.69,313.745Z" transform="translate(-196.065 -309.954)" fill="#3ef1ff" stroke="#3ef1ff" stroke-miterlimit="10" stroke-width="0.901"/>
        <path id="Trazado_103715" data-name="Trazado 103715" d="M280.68,312.438h0V311.5h0a3.794,3.794,0,0,1,.045.468A3.715,3.715,0,0,1,280.68,312.438Z" transform="translate(-192.204 -308.179)" fill="#3ef1ff" stroke="#3ef1ff" stroke-miterlimit="10" stroke-width="0.901"/>
        <path id="Trazado_103716" data-name="Trazado 103716" d="M265.21,392.314h0a3.795,3.795,0,1,0,0,.936h0Zm-.848.468a2.745,2.745,0,1,1-2.741-2.857A2.8,2.8,0,0,1,264.362,392.782Z" transform="translate(-218.229 -219.33)" fill="#3ef1ff" stroke="#3ef1ff" stroke-miterlimit="10" stroke-width="0.901"/>
        <path id="Trazado_103717" data-name="Trazado 103717" d="M261.35,391.475h0v-.936h0a2.341,2.341,0,0,1,0,.936Z" transform="translate(-214.368 -217.555)" fill="#3ef1ff" stroke="#3ef1ff" stroke-miterlimit="10" stroke-width="0.901"/>
        <path id="Trazado_103718" data-name="Trazado 103718" d="M284.54,384.615h0a3.8,3.8,0,1,0,0,.934h0Zm-.85.468a2.744,2.744,0,1,1-2.741-2.857A2.8,2.8,0,0,1,283.69,385.083Z" transform="translate(-196.065 -228.16)" fill="#3ef1ff" stroke="#3ef1ff" stroke-miterlimit="10" stroke-width="0.901"/>
        <path id="Trazado_103719" data-name="Trazado 103719" d="M280.68,383.773h0v-.934h0a2.434,2.434,0,0,1,0,.934Z" transform="translate(-192.204 -226.384)" fill="#3ef1ff" stroke="#3ef1ff" stroke-miterlimit="10" stroke-width="0.901"/>
        <path id="Trazado_103720" data-name="Trazado 103720" d="M255.166,362.535h0a3.8,3.8,0,1,0,0,.934h0Zm-.85.468a2.744,2.744,0,1,1-2.741-2.857A2.8,2.8,0,0,1,254.316,363Z" transform="translate(-229.746 -253.475)" fill="#3ef1ff" stroke="#3ef1ff" stroke-miterlimit="10" stroke-width="0.901"/>
        <path id="Trazado_103721" data-name="Trazado 103721" d="M251.306,361.694h0v-.934h0a2.442,2.442,0,0,1,0,.934Z" transform="translate(-225.884 -251.7)" fill="#3ef1ff" stroke="#3ef1ff" stroke-miterlimit="10" stroke-width="0.901"/>
      </g>
    </g>
    <g id="Grupo_54917" data-name="Grupo 54917" transform="translate(584.221 375.725)">
      <path id="Trazado_103722" data-name="Trazado 103722" d="M455.634,356.855a2.441,2.441,0,0,1,0-.934H400.069v.934Z" transform="translate(-400.069 -257.248)" fill="#3ef1ff" stroke="#3ef1ff" stroke-miterlimit="10" stroke-width="0.901"/>
      <path id="Trazado_103723" data-name="Trazado 103723" d="M426.734,350.6H527.006a3.711,3.711,0,0,1-.045-.468,3.789,3.789,0,0,1,.045-.468H426.133l-26.064-20.781v1.606Z" transform="translate(-400.069 -288.249)" fill="#3ef1ff" stroke="#3ef1ff" stroke-miterlimit="10" stroke-width="0.901"/>
      <path id="Trazado_103724" data-name="Trazado 103724" d="M487.253,320.137a2.44,2.44,0,0,1,0-.934H400.069v.934Z" transform="translate(-400.069 -299.349)" fill="#3ef1ff" stroke="#3ef1ff" stroke-miterlimit="10" stroke-width="0.901"/>
      <path id="Trazado_103725" data-name="Trazado 103725" d="M445.762,312.438a3.7,3.7,0,0,1-.045-.468,3.782,3.782,0,0,1,.045-.468H400.069v.936Z" transform="translate(-400.069 -308.179)" fill="#3ef1ff" stroke="#3ef1ff" stroke-miterlimit="10" stroke-width="0.901"/>
      <path id="Trazado_103726" data-name="Trazado 103726" d="M487.253,391.475a2.452,2.452,0,0,1,0-.936H400.069v.936Z" transform="translate(-400.069 -217.555)" fill="#3ef1ff" stroke="#3ef1ff" stroke-miterlimit="10" stroke-width="0.901"/>
      <path id="Trazado_103727" data-name="Trazado 103727" d="M445.762,383.773a2.437,2.437,0,0,1,0-.934H400.069v.934Z" transform="translate(-400.069 -226.384)" fill="#3ef1ff" stroke="#3ef1ff" stroke-miterlimit="10" stroke-width="0.901"/>
      <path id="Trazado_103728" data-name="Trazado 103728" d="M508.816,361.694a2.442,2.442,0,0,1,0-.934H400.069v.934Z" transform="translate(-400.069 -251.7)" fill="#3ef1ff" stroke="#3ef1ff" stroke-miterlimit="10" stroke-width="0.901"/>
      <g id="Grupo_54916" data-name="Grupo 54916" transform="translate(45.648)">
        <path id="Trazado_103729" data-name="Trazado 103729" d="M424.494,316.1a2.859,2.859,0,1,0-2.743-2.857A2.8,2.8,0,0,0,424.494,316.1Z" transform="translate(-420.856 -309.455)" fill="#3ef1ff" stroke="#3ef1ff" stroke-miterlimit="10" stroke-width="0.901"/>
        <path id="Trazado_103730" data-name="Trazado 103730" d="M443.822,323.8a2.858,2.858,0,1,0-2.741-2.857A2.8,2.8,0,0,0,443.822,323.8Z" transform="translate(-398.692 -300.625)" fill="#3ef1ff" stroke="#3ef1ff" stroke-miterlimit="10" stroke-width="0.901"/>
        <path id="Trazado_103731" data-name="Trazado 103731" d="M453.867,365.361a2.86,2.86,0,1,0-2.741-2.857A2.8,2.8,0,0,0,453.867,365.361Z" transform="translate(-387.175 -252.976)" fill="#3ef1ff" stroke="#3ef1ff" stroke-miterlimit="10" stroke-width="0.901"/>
        <path id="Trazado_103732" data-name="Trazado 103732" d="M462.342,343.166a2.86,2.86,0,1,0-2.743-2.857A2.8,2.8,0,0,0,462.342,343.166Z" transform="translate(-377.459 -278.425)" fill="#3ef1ff" stroke="#3ef1ff" stroke-miterlimit="10" stroke-width="0.901"/>
        <path id="Trazado_103733" data-name="Trazado 103733" d="M424.494,387.438a2.858,2.858,0,1,0-2.743-2.855A2.8,2.8,0,0,0,424.494,387.438Z" transform="translate(-420.856 -227.66)" fill="#3ef1ff" stroke="#3ef1ff" stroke-miterlimit="10" stroke-width="0.901"/>
        <path id="Trazado_103734" data-name="Trazado 103734" d="M429.092,360.52a2.858,2.858,0,1,0-2.741-2.855A2.8,2.8,0,0,0,429.092,360.52Z" transform="translate(-415.582 -258.524)" fill="#3ef1ff" stroke="#3ef1ff" stroke-miterlimit="10" stroke-width="0.901"/>
        <path id="Trazado_103735" data-name="Trazado 103735" d="M443.822,395.14a2.86,2.86,0,1,0-2.741-2.857A2.8,2.8,0,0,0,443.822,395.14Z" transform="translate(-398.692 -218.831)" fill="#3ef1ff" stroke="#3ef1ff" stroke-miterlimit="10" stroke-width="0.901"/>
        <path id="Trazado_103736" data-name="Trazado 103736" d="M425.958,358.631h0a3.8,3.8,0,1,0,0-.934h0Zm3.589-3.323a2.858,2.858,0,1,1-2.741,2.857A2.8,2.8,0,0,1,429.547,355.308Z" transform="translate(-416.037 -259.024)" fill="#3ef1ff" stroke="#3ef1ff" stroke-miterlimit="10" stroke-width="0.901"/>
        <path id="Trazado_103737" data-name="Trazado 103737" d="M425.978,356.855h0v-.934h0a2.441,2.441,0,0,0,0,.934Z" transform="translate(-416.061 -257.248)" fill="#3ef1ff" stroke="#3ef1ff" stroke-miterlimit="10" stroke-width="0.901"/>
        <path id="Trazado_103738" data-name="Trazado 103738" d="M459.6,341.276h-.4a3.795,3.795,0,1,0,0-.936h.4Zm3.192-3.325a2.86,2.86,0,1,1-2.743,2.857A2.8,2.8,0,0,1,462.8,337.951Z" transform="translate(-377.913 -278.924)" fill="#3ef1ff" stroke="#3ef1ff" stroke-miterlimit="10" stroke-width="0.901"/>
        <path id="Trazado_103739" data-name="Trazado 103739" d="M459.227,339.5h.4v-.936h-.4a3.8,3.8,0,0,0-.045.468A3.716,3.716,0,0,0,459.227,339.5Z" transform="translate(-377.938 -277.149)" fill="#3ef1ff" stroke="#3ef1ff" stroke-miterlimit="10" stroke-width="0.901"/>
        <path id="Trazado_103740" data-name="Trazado 103740" d="M440.688,321.913h0a3.8,3.8,0,1,0,0-.934h0Zm3.589-3.323a2.858,2.858,0,1,1-2.741,2.855A2.8,2.8,0,0,1,444.277,318.59Z" transform="translate(-399.147 -301.125)" fill="#3ef1ff" stroke="#3ef1ff" stroke-miterlimit="10" stroke-width="0.901"/>
        <path id="Trazado_103741" data-name="Trazado 103741" d="M440.708,320.137h0V319.2h0a2.44,2.44,0,0,0,0,.934Z" transform="translate(-399.171 -299.349)" fill="#3ef1ff" stroke="#3ef1ff" stroke-miterlimit="10" stroke-width="0.901"/>
        <path id="Trazado_103742" data-name="Trazado 103742" d="M421.357,314.213h0a3.795,3.795,0,1,0,0-.936h0Zm3.591-3.325a2.859,2.859,0,1,1-2.743,2.857A2.8,2.8,0,0,1,424.948,310.888Z" transform="translate(-421.31 -309.954)" fill="#3ef1ff" stroke="#3ef1ff" stroke-miterlimit="10" stroke-width="0.901"/>
        <path id="Trazado_103743" data-name="Trazado 103743" d="M421.379,312.438h0V311.5h0a3.782,3.782,0,0,0-.045.468A3.7,3.7,0,0,0,421.379,312.438Z" transform="translate(-421.334 -308.179)" fill="#3ef1ff" stroke="#3ef1ff" stroke-miterlimit="10" stroke-width="0.901"/>
        <path id="Trazado_103744" data-name="Trazado 103744" d="M440.688,393.25h0a3.795,3.795,0,1,0,0-.936h0Zm3.589-3.325a2.86,2.86,0,1,1-2.741,2.857A2.8,2.8,0,0,1,444.277,389.925Z" transform="translate(-399.147 -219.33)" fill="#3ef1ff" stroke="#3ef1ff" stroke-miterlimit="10" stroke-width="0.901"/>
        <path id="Trazado_103745" data-name="Trazado 103745" d="M440.708,391.475h0v-.936h0a2.452,2.452,0,0,0,0,.936Z" transform="translate(-399.171 -217.555)" fill="#3ef1ff" stroke="#3ef1ff" stroke-miterlimit="10" stroke-width="0.901"/>
        <path id="Trazado_103746" data-name="Trazado 103746" d="M421.357,385.549h0a3.8,3.8,0,1,0,0-.934h0Zm3.591-3.323a2.858,2.858,0,1,1-2.743,2.857A2.8,2.8,0,0,1,424.948,382.226Z" transform="translate(-421.31 -228.16)" fill="#3ef1ff" stroke="#3ef1ff" stroke-miterlimit="10" stroke-width="0.901"/>
        <path id="Trazado_103747" data-name="Trazado 103747" d="M421.379,383.773h0v-.934h0a2.437,2.437,0,0,0,0,.934Z" transform="translate(-421.334 -226.384)" fill="#3ef1ff" stroke="#3ef1ff" stroke-miterlimit="10" stroke-width="0.901"/>
        <path id="Trazado_103748" data-name="Trazado 103748" d="M450.731,363.469h0a3.794,3.794,0,1,0,0-.934h0Zm3.591-3.323A2.86,2.86,0,1,1,451.581,363,2.8,2.8,0,0,1,454.322,360.146Z" transform="translate(-387.63 -253.475)" fill="#3ef1ff" stroke="#3ef1ff" stroke-miterlimit="10" stroke-width="0.901"/>
        <path id="Trazado_103749" data-name="Trazado 103749" d="M450.753,361.694h0v-.934h0a2.44,2.44,0,0,0,0,.934Z" transform="translate(-387.654 -251.7)" fill="#3ef1ff" stroke="#3ef1ff" stroke-miterlimit="10" stroke-width="0.901"/>
      </g>
    </g>
    <g id="Grupo_54919" data-name="Grupo 54919" transform="translate(390.304 252.592)">
      <path id="Trazado_103750" data-name="Trazado 103750" d="M345.9,289.209a3.728,3.728,0,0,0,.468.045,3.805,3.805,0,0,0,.468-.045v25.738H345.9Z" transform="translate(-268.263 -210.607)" fill="#00cca7" stroke="#3ef1ff" stroke-miterlimit="10" stroke-width="0.901"/>
      <path id="Trazado_103751" data-name="Trazado 103751" d="M363.255,352.361v-96.4a2.441,2.441,0,0,0,.934,0l.453,97.108Z" transform="translate(-248.362 -248.729)" fill="#00cca7" stroke="#3ef1ff" stroke-miterlimit="10" stroke-width="0.901"/>
      <path id="Trazado_103752" data-name="Trazado 103752" d="M382.617,274.479a3.793,3.793,0,0,0,.468.045,3.716,3.716,0,0,0,.468-.045v57.357h-.936Z" transform="translate(-226.162 -227.496)" fill="#00cca7" stroke="#3ef1ff" stroke-miterlimit="10" stroke-width="0.901"/>
      <path id="Trazado_103753" data-name="Trazado 103753" d="M390.318,293.809a2.441,2.441,0,0,0,.934,0v15.863h-.934Z" transform="translate(-217.332 -205.333)" fill="#00cca7" stroke="#3ef1ff" stroke-miterlimit="10" stroke-width="0.901"/>
      <path id="Trazado_103754" data-name="Trazado 103754" d="M311.281,274.479a2.442,2.442,0,0,0,.934,0v57.357h-.934Z" transform="translate(-307.956 -227.496)" fill="#00cca7" stroke="#3ef1ff" stroke-miterlimit="10" stroke-width="0.901"/>
      <path id="Trazado_103755" data-name="Trazado 103755" d="M318.981,293.809a2.44,2.44,0,0,0,.934,0v15.863h-.934Z" transform="translate(-299.127 -205.333)" fill="#00cca7" stroke="#3ef1ff" stroke-miterlimit="10" stroke-width="0.901"/>
      <path id="Trazado_103756" data-name="Trazado 103756" d="M341.06,264.434a2.331,2.331,0,0,0,.934,0v78.92h-.934Z" transform="translate(-273.811 -239.014)" fill="#00cca7" stroke="#3ef1ff" stroke-miterlimit="10" stroke-width="0.901"/>
      <g id="Grupo_54918" data-name="Grupo 54918">
        <path id="Trazado_103757" data-name="Trazado 103757" d="M389.205,293.6a2.858,2.858,0,1,1,2.855,2.741A2.8,2.8,0,0,1,389.205,293.6Z" transform="translate(-218.608 -208.717)" fill="#00cca7" stroke="#3ef1ff" stroke-miterlimit="10" stroke-width="0.901"/>
        <path id="Trazado_103758" data-name="Trazado 103758" d="M381.5,274.269a2.86,2.86,0,1,1,2.857,2.741A2.8,2.8,0,0,1,381.5,274.269Z" transform="translate(-227.438 -230.88)" fill="#00cca7" stroke="#3ef1ff" stroke-miterlimit="10" stroke-width="0.901"/>
        <path id="Trazado_103759" data-name="Trazado 103759" d="M339.947,264.226a2.858,2.858,0,1,1,2.857,2.741A2.8,2.8,0,0,1,339.947,264.226Z" transform="translate(-275.087 -242.398)" fill="#00cca7" stroke="#3ef1ff" stroke-miterlimit="10" stroke-width="0.901"/>
        <path id="Trazado_103760" data-name="Trazado 103760" d="M362.141,255.751A2.86,2.86,0,1,1,365,258.492,2.8,2.8,0,0,1,362.141,255.751Z" transform="translate(-249.64 -252.113)" fill="#00cca7" stroke="#3ef1ff" stroke-miterlimit="10" stroke-width="0.901"/>
        <path id="Trazado_103761" data-name="Trazado 103761" d="M317.868,293.6a2.86,2.86,0,1,1,2.857,2.741A2.8,2.8,0,0,1,317.868,293.6Z" transform="translate(-300.403 -208.717)" fill="#00cca7" stroke="#3ef1ff" stroke-miterlimit="10" stroke-width="0.901"/>
        <path id="Trazado_103762" data-name="Trazado 103762" d="M344.786,289a2.86,2.86,0,1,1,2.857,2.741A2.8,2.8,0,0,1,344.786,289Z" transform="translate(-269.539 -213.991)" fill="#00cca7" stroke="#3ef1ff" stroke-miterlimit="10" stroke-width="0.901"/>
        <path id="Trazado_103763" data-name="Trazado 103763" d="M310.168,274.269a2.858,2.858,0,1,1,2.855,2.741A2.8,2.8,0,0,1,310.168,274.269Z" transform="translate(-309.232 -230.88)" fill="#00cca7" stroke="#3ef1ff" stroke-miterlimit="10" stroke-width="0.901"/>
        <path id="Trazado_103764" data-name="Trazado 103764" d="M348.61,293.07v0a3.795,3.795,0,1,0-.936,0v0Zm-.468-.85A2.744,2.744,0,1,1,351,289.479,2.8,2.8,0,0,1,348.142,292.22Z" transform="translate(-270.038 -214.47)" fill="#00cca7" stroke="#3ef1ff" stroke-miterlimit="10" stroke-width="0.901"/>
        <path id="Trazado_103765" data-name="Trazado 103765" d="M345.9,289.21v0h.936v0a3.805,3.805,0,0,1-.468.045A3.728,3.728,0,0,1,345.9,289.21Z" transform="translate(-268.263 -210.608)" fill="#00cca7" stroke="#3ef1ff" stroke-miterlimit="10" stroke-width="0.901"/>
        <path id="Trazado_103766" data-name="Trazado 103766" d="M365.965,259.42v.4a3.8,3.8,0,1,0-.934,0v-.4Zm-.468-.449a2.744,2.744,0,1,1,2.857-2.741A2.8,2.8,0,0,1,365.5,258.972Z" transform="translate(-250.139 -252.592)" fill="#00cca7" stroke="#3ef1ff" stroke-miterlimit="10" stroke-width="0.901"/>
        <path id="Trazado_103767" data-name="Trazado 103767" d="M363.255,256.177v-.4h.934v.4a2.441,2.441,0,0,1-.934,0Z" transform="translate(-248.362 -248.945)" fill="#00cca7" stroke="#3ef1ff" stroke-miterlimit="10" stroke-width="0.901"/>
        <path id="Trazado_103768" data-name="Trazado 103768" d="M385.328,278.34v0a3.795,3.795,0,1,0-.936,0v0Zm-.468-.85a2.744,2.744,0,1,1,2.857-2.741A2.8,2.8,0,0,1,384.86,277.49Z" transform="translate(-227.937 -231.359)" fill="#00cca7" stroke="#3ef1ff" stroke-miterlimit="10" stroke-width="0.901"/>
        <path id="Trazado_103769" data-name="Trazado 103769" d="M382.617,274.48v0h.936v0a3.716,3.716,0,0,1-.468.045A3.793,3.793,0,0,1,382.617,274.48Z" transform="translate(-226.162 -227.497)" fill="#00cca7" stroke="#3ef1ff" stroke-miterlimit="10" stroke-width="0.901"/>
        <path id="Trazado_103770" data-name="Trazado 103770" d="M393.028,297.668v0a3.8,3.8,0,1,0-.934,0v0Zm-.468-.848a2.745,2.745,0,1,1,2.857-2.741A2.8,2.8,0,0,1,392.56,296.82Z" transform="translate(-219.108 -209.195)" fill="#00cca7" stroke="#3ef1ff" stroke-miterlimit="10" stroke-width="0.901"/>
        <path id="Trazado_103771" data-name="Trazado 103771" d="M390.318,293.811v0h.934v0a2.442,2.442,0,0,1-.934,0Z" transform="translate(-217.332 -205.335)" fill="#00cca7" stroke="#3ef1ff" stroke-miterlimit="10" stroke-width="0.901"/>
        <path id="Trazado_103772" data-name="Trazado 103772" d="M313.991,278.34v0a3.8,3.8,0,1,0-.934,0v0Zm-.468-.85a2.744,2.744,0,1,1,2.857-2.741A2.8,2.8,0,0,1,313.523,277.49Z" transform="translate(-309.732 -231.359)" fill="#00cca7" stroke="#3ef1ff" stroke-miterlimit="10" stroke-width="0.901"/>
        <path id="Trazado_103773" data-name="Trazado 103773" d="M311.281,274.48v0h.934v0a2.442,2.442,0,0,1-.934,0Z" transform="translate(-307.956 -227.497)" fill="#00cca7" stroke="#3ef1ff" stroke-miterlimit="10" stroke-width="0.901"/>
        <path id="Trazado_103774" data-name="Trazado 103774" d="M321.69,297.668v0a3.794,3.794,0,1,0-.934,0v0Zm-.466-.848a2.745,2.745,0,1,1,2.857-2.741A2.8,2.8,0,0,1,321.224,296.82Z" transform="translate(-300.902 -209.195)" fill="#00cca7" stroke="#3ef1ff" stroke-miterlimit="10" stroke-width="0.901"/>
        <path id="Trazado_103775" data-name="Trazado 103775" d="M318.981,293.811v0h.934v0a2.442,2.442,0,0,1-.934,0Z" transform="translate(-299.127 -205.335)" fill="#00cca7" stroke="#3ef1ff" stroke-miterlimit="10" stroke-width="0.901"/>
        <path id="Trazado_103776" data-name="Trazado 103776" d="M343.77,268.295v0a3.8,3.8,0,1,0-.934,0v0Zm-.466-.848a2.745,2.745,0,1,1,2.855-2.741A2.8,2.8,0,0,1,343.3,267.447Z" transform="translate(-275.587 -242.877)" fill="#00cca7" stroke="#3ef1ff" stroke-miterlimit="10" stroke-width="0.901"/>
        <path id="Trazado_103777" data-name="Trazado 103777" d="M341.06,264.435v0h.934v0a2.331,2.331,0,0,1-.934,0Z" transform="translate(-273.811 -239.015)" fill="#00cca7" stroke="#3ef1ff" stroke-miterlimit="10" stroke-width="0.901"/>
      </g>
    </g>
    <g id="Grupo_54921" data-name="Grupo 54921" transform="translate(390.304 565.91)">
      <path id="Trazado_103778" data-name="Trazado 103778" d="M356.635,424.292a3.787,3.787,0,0,0-.468-.047,3.7,3.7,0,0,0-.468.047v-25.74h.936Z" transform="translate(-257.026 -398.552)" fill="#3ef1ff" stroke="#3ef1ff" stroke-miterlimit="10" stroke-width="0.901"/>
      <path id="Trazado_103779" data-name="Trazado 103779" d="M339.52,399.263v96.4a2.441,2.441,0,0,0-.934,0l-.453-97.11Z" transform="translate(-277.167 -398.552)" fill="#3ef1ff" stroke="#3ef1ff" stroke-miterlimit="10" stroke-width="0.901"/>
      <path id="Trazado_103780" data-name="Trazado 103780" d="M319.915,455.911a2.44,2.44,0,0,0-.934,0V398.552h.934Z" transform="translate(-299.127 -398.552)" fill="#3ef1ff" stroke="#3ef1ff" stroke-miterlimit="10" stroke-width="0.901"/>
      <path id="Trazado_103781" data-name="Trazado 103781" d="M312.215,414.418a2.442,2.442,0,0,0-.934,0V398.552h.934Z" transform="translate(-307.956 -398.552)" fill="#3ef1ff" stroke="#3ef1ff" stroke-miterlimit="10" stroke-width="0.901"/>
      <path id="Trazado_103782" data-name="Trazado 103782" d="M391.252,455.911a2.441,2.441,0,0,0-.934,0V398.552h.934Z" transform="translate(-217.332 -398.552)" fill="#3ef1ff" stroke="#3ef1ff" stroke-miterlimit="10" stroke-width="0.901"/>
      <path id="Trazado_103783" data-name="Trazado 103783" d="M383.553,414.418a3.716,3.716,0,0,0-.468-.045,3.793,3.793,0,0,0-.468.045V398.552h.936Z" transform="translate(-226.162 -398.552)" fill="#3ef1ff" stroke="#3ef1ff" stroke-miterlimit="10" stroke-width="0.901"/>
      <path id="Trazado_103784" data-name="Trazado 103784" d="M361.474,477.472a4.153,4.153,0,0,0-.468-.045,4.2,4.2,0,0,0-.468.045v-78.92h.936Z" transform="translate(-251.478 -398.552)" fill="#3ef1ff" stroke="#3ef1ff" stroke-miterlimit="10" stroke-width="0.901"/>
      <g id="Grupo_54920" data-name="Grupo 54920" transform="translate(0 15.82)">
        <path id="Trazado_103785" data-name="Trazado 103785" d="M315.88,409.081a2.858,2.858,0,1,1-2.857-2.741A2.8,2.8,0,0,1,315.88,409.081Z" transform="translate(-309.232 -405.443)" fill="#3ef1ff" stroke="#3ef1ff" stroke-miterlimit="10" stroke-width="0.901"/>
        <path id="Trazado_103786" data-name="Trazado 103786" d="M323.582,428.412a2.859,2.859,0,1,1-2.857-2.743A2.8,2.8,0,0,1,323.582,428.412Z" transform="translate(-300.403 -383.28)" fill="#3ef1ff" stroke="#3ef1ff" stroke-miterlimit="10" stroke-width="0.901"/>
        <path id="Trazado_103787" data-name="Trazado 103787" d="M365.139,438.455a2.86,2.86,0,1,1-2.857-2.741A2.806,2.806,0,0,1,365.139,438.455Z" transform="translate(-252.754 -371.762)" fill="#3ef1ff" stroke="#3ef1ff" stroke-miterlimit="10" stroke-width="0.901"/>
        <path id="Trazado_103788" data-name="Trazado 103788" d="M342.943,446.929a2.858,2.858,0,1,1-2.857-2.741A2.8,2.8,0,0,1,342.943,446.929Z" transform="translate(-278.202 -362.046)" fill="#3ef1ff" stroke="#3ef1ff" stroke-miterlimit="10" stroke-width="0.901"/>
        <path id="Trazado_103789" data-name="Trazado 103789" d="M387.218,409.081a2.86,2.86,0,1,1-2.857-2.741A2.8,2.8,0,0,1,387.218,409.081Z" transform="translate(-227.438 -405.443)" fill="#3ef1ff" stroke="#3ef1ff" stroke-miterlimit="10" stroke-width="0.901"/>
        <path id="Trazado_103790" data-name="Trazado 103790" d="M360.3,413.682a2.858,2.858,0,1,1-2.855-2.743A2.8,2.8,0,0,1,360.3,413.682Z" transform="translate(-258.302 -400.169)" fill="#3ef1ff" stroke="#3ef1ff" stroke-miterlimit="10" stroke-width="0.901"/>
        <path id="Trazado_103791" data-name="Trazado 103791" d="M394.917,428.412a2.858,2.858,0,1,1-2.857-2.743A2.8,2.8,0,0,1,394.917,428.412Z" transform="translate(-218.608 -383.28)" fill="#3ef1ff" stroke="#3ef1ff" stroke-miterlimit="10" stroke-width="0.901"/>
        <path id="Trazado_103792" data-name="Trazado 103792" d="M357.475,410.545v0a3.795,3.795,0,1,0,.936,0v0Zm.468.848a2.745,2.745,0,1,1-2.857,2.743A2.8,2.8,0,0,1,357.943,411.393Z" transform="translate(-258.802 -400.624)" fill="#3ef1ff" stroke="#3ef1ff" stroke-miterlimit="10" stroke-width="0.901"/>
        <path id="Trazado_103793" data-name="Trazado 103793" d="M356.635,410.568v0H355.7v0a3.7,3.7,0,0,1,.468-.047A3.787,3.787,0,0,1,356.635,410.568Z" transform="translate(-257.026 -400.649)" fill="#3ef1ff" stroke="#3ef1ff" stroke-miterlimit="10" stroke-width="0.901"/>
        <path id="Trazado_103794" data-name="Trazado 103794" d="M340.12,444.195v-.4a3.8,3.8,0,1,0,.934,0v.4Zm.466.449a2.743,2.743,0,1,1-2.855,2.741A2.8,2.8,0,0,1,340.586,444.643Z" transform="translate(-278.702 -362.501)" fill="#3ef1ff" stroke="#3ef1ff" stroke-miterlimit="10" stroke-width="0.901"/>
        <path id="Trazado_103795" data-name="Trazado 103795" d="M339.278,443.815v.4h-.934v-.4a2.44,2.44,0,0,1,.934,0Z" transform="translate(-276.926 -362.525)" fill="#3ef1ff" stroke="#3ef1ff" stroke-miterlimit="10" stroke-width="0.901"/>
        <path id="Trazado_103796" data-name="Trazado 103796" d="M320.756,425.275v0a3.8,3.8,0,1,0,.934,0v0Zm.468.848a2.745,2.745,0,1,1-2.857,2.743A2.8,2.8,0,0,1,321.224,426.123Z" transform="translate(-300.902 -383.734)" fill="#3ef1ff" stroke="#3ef1ff" stroke-miterlimit="10" stroke-width="0.901"/>
        <path id="Trazado_103797" data-name="Trazado 103797" d="M319.915,425.3v0h-.934v0a2.44,2.44,0,0,1,.934,0Z" transform="translate(-299.127 -383.758)" fill="#3ef1ff" stroke="#3ef1ff" stroke-miterlimit="10" stroke-width="0.901"/>
        <path id="Trazado_103798" data-name="Trazado 103798" d="M313.057,405.945v0a3.8,3.8,0,1,0,.934,0v0Zm.466.85a2.744,2.744,0,1,1-2.855,2.741A2.8,2.8,0,0,1,313.523,406.8Z" transform="translate(-309.732 -405.898)" fill="#3ef1ff" stroke="#3ef1ff" stroke-miterlimit="10" stroke-width="0.901"/>
        <path id="Trazado_103799" data-name="Trazado 103799" d="M312.215,405.967v0h-.934v0a2.44,2.44,0,0,1,.934,0Z" transform="translate(-307.956 -405.922)" fill="#3ef1ff" stroke="#3ef1ff" stroke-miterlimit="10" stroke-width="0.901"/>
        <path id="Trazado_103800" data-name="Trazado 103800" d="M392.094,425.275v0a3.8,3.8,0,1,0,.934,0v0Zm.466.848a2.745,2.745,0,1,1-2.855,2.743A2.8,2.8,0,0,1,392.56,426.123Z" transform="translate(-219.108 -383.734)" fill="#3ef1ff" stroke="#3ef1ff" stroke-miterlimit="10" stroke-width="0.901"/>
        <path id="Trazado_103801" data-name="Trazado 103801" d="M391.252,425.3v0h-.934v0a2.441,2.441,0,0,1,.934,0Z" transform="translate(-217.332 -383.758)" fill="#3ef1ff" stroke="#3ef1ff" stroke-miterlimit="10" stroke-width="0.901"/>
        <path id="Trazado_103802" data-name="Trazado 103802" d="M384.392,405.945v0a3.795,3.795,0,1,0,.936,0v0Zm.468.85A2.744,2.744,0,1,1,382,409.536,2.8,2.8,0,0,1,384.86,406.8Z" transform="translate(-227.937 -405.898)" fill="#3ef1ff" stroke="#3ef1ff" stroke-miterlimit="10" stroke-width="0.901"/>
        <path id="Trazado_103803" data-name="Trazado 103803" d="M383.553,405.967v0h-.936v0a3.793,3.793,0,0,1,.468-.045A3.716,3.716,0,0,1,383.553,405.967Z" transform="translate(-226.162 -405.922)" fill="#3ef1ff" stroke="#3ef1ff" stroke-miterlimit="10" stroke-width="0.901"/>
        <path id="Trazado_103804" data-name="Trazado 103804" d="M362.313,435.319v0a3.795,3.795,0,1,0,.936,0v0Zm.468.85a2.745,2.745,0,1,1-2.857,2.741A2.8,2.8,0,0,1,362.781,436.169Z" transform="translate(-253.253 -372.218)" fill="#3ef1ff" stroke="#3ef1ff" stroke-miterlimit="10" stroke-width="0.901"/>
        <path id="Trazado_103805" data-name="Trazado 103805" d="M361.474,435.341v0h-.936v0a4.212,4.212,0,0,1,.468-.045A4.16,4.16,0,0,1,361.474,435.341Z" transform="translate(-251.478 -372.242)" fill="#3ef1ff" stroke="#3ef1ff" stroke-miterlimit="10" stroke-width="0.901"/>
      </g>
    </g>
    <g id="Grupo_54922" data-name="Grupo 54922" transform="translate(472.658 385.046)">
      <path id="Trazado_103806" data-name="Trazado 103806" d="M378.744,356.389a2.176,2.176,0,1,1,2.086-2.174A2.134,2.134,0,0,1,378.744,356.389Z" transform="translate(-315.35 -271.019)" fill="#fff" stroke="#fff" stroke-miterlimit="10" stroke-width="0.901"/>
      <path id="Trazado_103807" data-name="Trazado 103807" d="M382.728,335.787a2.177,2.177,0,1,1,2.087-2.174A2.137,2.137,0,0,1,382.728,335.787Z" transform="translate(-310.784 -294.643)" fill="#fff" stroke="#fff" stroke-miterlimit="10" stroke-width="0.901"/>
      <path id="Trazado_103808" data-name="Trazado 103808" d="M350.5,341.648a2.176,2.176,0,1,1,2.087-2.174A2.134,2.134,0,0,1,350.5,341.648Z" transform="translate(-347.732 -287.921)" fill="#fff" stroke="#fff" stroke-miterlimit="10" stroke-width="0.901"/>
      <path id="Trazado_103809" data-name="Trazado 103809" d="M353.042,387.072a2.177,2.177,0,1,1,2.086-2.177A2.136,2.136,0,0,1,353.042,387.072Z" transform="translate(-344.82 -235.84)" fill="#fff" stroke="#fff" stroke-miterlimit="10" stroke-width="0.901"/>
      <path id="Trazado_103810" data-name="Trazado 103810" d="M361.319,318.977a2.176,2.176,0,1,1,2.086-2.175A2.135,2.135,0,0,1,361.319,318.977Z" transform="translate(-335.33 -313.915)" fill="#fff" stroke="#fff" stroke-miterlimit="10" stroke-width="0.901"/>
      <path id="Trazado_103811" data-name="Trazado 103811" d="M387.5,381.727a2.176,2.176,0,1,1,2.087-2.174A2.134,2.134,0,0,1,387.5,381.727Z" transform="translate(-305.308 -241.966)" fill="#fff" stroke="#fff" stroke-miterlimit="10" stroke-width="0.901"/>
      <path id="Trazado_103812" data-name="Trazado 103812" d="M362.988,369.6a2.176,2.176,0,1,1,2.089-2.174A2.135,2.135,0,0,1,362.988,369.6Z" transform="translate(-333.415 -255.869)" fill="#fff" stroke="#fff" stroke-miterlimit="10" stroke-width="0.901"/>
      <path id="Trazado_103813" data-name="Trazado 103813" d="M363.149,366.813a1.863,1.863,0,0,0,0-.713h61.436v.713Z" transform="translate(-330.838 -254.897)" fill="#fff" stroke="#fff" stroke-miterlimit="10" stroke-width="0.901"/>
      <path id="Trazado_103814" data-name="Trazado 103814" d="M366.088,367.452h0a2.888,2.888,0,1,0,0,.713h0Zm-.646.356a2.089,2.089,0,1,1-2.089-2.174A2.135,2.135,0,0,1,365.442,367.808Z" transform="translate(-333.779 -256.249)" fill="#fff" stroke="#fff" stroke-miterlimit="10" stroke-width="0.901"/>
      <path id="Trazado_103815" data-name="Trazado 103815" d="M363.15,366.813h0V366.1h0a1.861,1.861,0,0,1,0,.713Z" transform="translate(-330.839 -254.897)" fill="#fff" stroke="#fff" stroke-miterlimit="10" stroke-width="0.901"/>
      <path id="Trazado_103816" data-name="Trazado 103816" d="M386.221,362.05H378.9a1.866,1.866,0,0,0,0-.713h7.775l19.843-15.82v1.221Z" transform="translate(-312.775 -278.498)" fill="#fff" stroke="#fff" stroke-miterlimit="10" stroke-width="0.901"/>
      <path id="Trazado_103817" data-name="Trazado 103817" d="M381.537,354.239h.307a2.89,2.89,0,1,0,0,.713h-.307Zm-.341.356a2.088,2.088,0,1,1-2.087-2.175A2.134,2.134,0,0,1,381.2,354.6Z" transform="translate(-315.716 -271.399)" fill="#fff" stroke="#fff" stroke-miterlimit="10" stroke-width="0.901"/>
      <path id="Trazado_103818" data-name="Trazado 103818" d="M379.067,353.6h-.307v-.713h.307a1.865,1.865,0,0,1,0,.713Z" transform="translate(-312.939 -270.048)" fill="#fff" stroke="#fff" stroke-miterlimit="10" stroke-width="0.901"/>
      <path id="Trazado_103819" data-name="Trazado 103819" d="M350.661,338.859a1.865,1.865,0,0,0,0-.713H438.9v.713Z" transform="translate(-345.157 -286.95)" fill="#fff" stroke="#fff" stroke-miterlimit="10" stroke-width="0.901"/>
      <path id="Trazado_103820" data-name="Trazado 103820" d="M353.6,339.5h0a2.89,2.89,0,1,0,0,.713h0Zm-.646.356a2.088,2.088,0,1,1-2.086-2.174A2.134,2.134,0,0,1,352.953,339.854Z" transform="translate(-348.097 -288.301)" fill="#fff" stroke="#fff" stroke-miterlimit="10" stroke-width="0.901"/>
      <path id="Trazado_103821" data-name="Trazado 103821" d="M350.662,338.859h0v-.713h0a1.866,1.866,0,0,1,0,.713Z" transform="translate(-345.158 -286.95)" fill="#fff" stroke="#fff" stroke-miterlimit="10" stroke-width="0.901"/>
      <path id="Trazado_103822" data-name="Trazado 103822" d="M382.886,332.995a1.852,1.852,0,0,0,0-.711h19.068v.711Z" transform="translate(-308.208 -293.671)" fill="#fff" stroke="#fff" stroke-miterlimit="10" stroke-width="0.901"/>
      <path id="Trazado_103823" data-name="Trazado 103823" d="M385.825,333.636h0a2.889,2.889,0,1,0,0,.711h0Zm-.646.356a2.089,2.089,0,1,1-2.087-2.177A2.135,2.135,0,0,1,385.179,333.992Z" transform="translate(-311.149 -295.023)" fill="#fff" stroke="#fff" stroke-miterlimit="10" stroke-width="0.901"/>
      <path id="Trazado_103824" data-name="Trazado 103824" d="M382.887,332.995h0v-.711h0a1.852,1.852,0,0,1,0,.711Z" transform="translate(-308.209 -293.671)" fill="#fff" stroke="#fff" stroke-miterlimit="10" stroke-width="0.901"/>
      <path id="Trazado_103825" data-name="Trazado 103825" d="M361.478,316.186a1.746,1.746,0,0,0,0-.711H426.5v.711Z" transform="translate(-332.754 -312.944)" fill="#fff" stroke="#fff" stroke-miterlimit="10" stroke-width="0.901"/>
      <path id="Trazado_103826" data-name="Trazado 103826" d="M364.417,316.827h0a2.889,2.889,0,1,0,0,.711h0Zm-.646.356a2.088,2.088,0,1,1-2.087-2.175A2.135,2.135,0,0,1,363.771,317.183Z" transform="translate(-335.695 -314.296)" fill="#fff" stroke="#fff" stroke-miterlimit="10" stroke-width="0.901"/>
      <path id="Trazado_103827" data-name="Trazado 103827" d="M361.479,316.186h0v-.711h0a1.747,1.747,0,0,1,0,.711Z" transform="translate(-332.755 -312.944)" fill="#fff" stroke="#fff" stroke-miterlimit="10" stroke-width="0.901"/>
      <path id="Trazado_103828" data-name="Trazado 103828" d="M353.2,384.28a1.749,1.749,0,0,0,0-.711h82.79v.711Z" transform="translate(-342.245 -234.867)" fill="#fff" stroke="#fff" stroke-miterlimit="10" stroke-width="0.901"/>
      <path id="Trazado_103829" data-name="Trazado 103829" d="M356.14,384.921h0a2.889,2.889,0,1,0,0,.711h0Zm-.646.354a2.088,2.088,0,1,1-2.086-2.174A2.135,2.135,0,0,1,355.494,385.275Z" transform="translate(-345.186 -236.219)" fill="#fff" stroke="#fff" stroke-miterlimit="10" stroke-width="0.901"/>
      <path id="Trazado_103830" data-name="Trazado 103830" d="M353.2,384.28h0v-.711h0a1.749,1.749,0,0,1,0,.711Z" transform="translate(-342.246 -234.867)" fill="#fff" stroke="#fff" stroke-miterlimit="10" stroke-width="0.901"/>
      <path id="Trazado_103831" data-name="Trazado 103831" d="M390.6,379.578h0a2.9,2.9,0,1,0,0,.711h0Zm-.648.354a2.088,2.088,0,1,1-2.087-2.175A2.134,2.134,0,0,1,389.953,379.932Z" transform="translate(-305.673 -242.346)" fill="#fff" stroke="#fff" stroke-miterlimit="10" stroke-width="0.901"/>
    </g>
    <g id="Grupo_54923" data-name="Grupo 54923" transform="translate(390.553 385.046)">
      <path id="Trazado_103832" data-name="Trazado 103832" d="M325.1,345.309a2.176,2.176,0,1,1-2.089,2.177A2.136,2.136,0,0,1,325.1,345.309Z" transform="translate(-294.751 -278.736)" fill="#fff" stroke="#fff" stroke-miterlimit="10" stroke-width="0.901"/>
      <path id="Trazado_103833" data-name="Trazado 103833" d="M321.12,365.913a2.176,2.176,0,1,1-2.087,2.175A2.134,2.134,0,0,1,321.12,365.913Z" transform="translate(-299.316 -255.112)" fill="#fff" stroke="#fff" stroke-miterlimit="10" stroke-width="0.901"/>
      <path id="Trazado_103834" data-name="Trazado 103834" d="M353.346,360.05a2.176,2.176,0,1,1-2.089,2.177A2.136,2.136,0,0,1,353.346,360.05Z" transform="translate(-262.368 -261.834)" fill="#fff" stroke="#fff" stroke-miterlimit="10" stroke-width="0.901"/>
      <path id="Trazado_103835" data-name="Trazado 103835" d="M350.806,314.628a2.176,2.176,0,1,1-2.089,2.174A2.134,2.134,0,0,1,350.806,314.628Z" transform="translate(-265.281 -313.915)" fill="#fff" stroke="#fff" stroke-miterlimit="10" stroke-width="0.901"/>
      <path id="Trazado_103836" data-name="Trazado 103836" d="M342.529,382.721a2.177,2.177,0,1,1-2.089,2.177A2.135,2.135,0,0,1,342.529,382.721Z" transform="translate(-274.771 -235.84)" fill="#fff" stroke="#fff" stroke-miterlimit="10" stroke-width="0.901"/>
      <path id="Trazado_103837" data-name="Trazado 103837" d="M316.346,319.971a2.176,2.176,0,1,1-2.089,2.174A2.135,2.135,0,0,1,316.346,319.971Z" transform="translate(-304.793 -307.789)" fill="#fff" stroke="#fff" stroke-miterlimit="10" stroke-width="0.901"/>
      <path id="Trazado_103838" data-name="Trazado 103838" d="M340.857,332.1a2.177,2.177,0,1,1-2.086,2.177A2.136,2.136,0,0,1,340.857,332.1Z" transform="translate(-276.686 -293.886)" fill="#fff" stroke="#fff" stroke-miterlimit="10" stroke-width="0.901"/>
      <path id="Trazado_103839" data-name="Trazado 103839" d="M371.284,332.944a1.855,1.855,0,0,0,0,.711H309.848v-.711Z" transform="translate(-309.848 -292.914)" fill="#fff" stroke="#fff" stroke-miterlimit="10" stroke-width="0.901"/>
      <path id="Trazado_103840" data-name="Trazado 103840" d="M338.47,335.006h0a2.889,2.889,0,1,0,0-.711h0Zm.646-.354a2.089,2.089,0,1,1,2.087,2.175A2.136,2.136,0,0,1,339.116,334.652Z" transform="translate(-277.032 -294.266)" fill="#fff" stroke="#fff" stroke-miterlimit="10" stroke-width="0.901"/>
      <path id="Trazado_103841" data-name="Trazado 103841" d="M338.486,332.944h0v.711h0a1.855,1.855,0,0,1,0-.711Z" transform="translate(-277.051 -292.914)" fill="#fff" stroke="#fff" stroke-miterlimit="10" stroke-width="0.901"/>
      <path id="Trazado_103842" data-name="Trazado 103842" d="M330.146,346.157h7.318a1.855,1.855,0,0,0,0,.71h-7.775L309.848,362.69v-1.224Z" transform="translate(-309.848 -277.764)" fill="#fff" stroke="#fff" stroke-miterlimit="10" stroke-width="0.901"/>
      <path id="Trazado_103843" data-name="Trazado 103843" d="M323.02,348.219h-.307a2.889,2.889,0,1,0,0-.711h.307Zm.341-.354a2.089,2.089,0,1,1,2.089,2.172A2.137,2.137,0,0,1,323.361,347.865Z" transform="translate(-295.097 -279.116)" fill="#fff" stroke="#fff" stroke-miterlimit="10" stroke-width="0.901"/>
      <path id="Trazado_103844" data-name="Trazado 103844" d="M322.731,346.157h.307v.71h-.307a1.855,1.855,0,0,1,0-.71Z" transform="translate(-295.115 -277.764)" fill="#fff" stroke="#fff" stroke-miterlimit="10" stroke-width="0.901"/>
      <path id="Trazado_103845" data-name="Trazado 103845" d="M398.088,360.9a1.858,1.858,0,0,0,0,.71h-88.24v-.71Z" transform="translate(-309.848 -260.862)" fill="#fff" stroke="#fff" stroke-miterlimit="10" stroke-width="0.901"/>
      <path id="Trazado_103846" data-name="Trazado 103846" d="M350.957,362.96h0a2.889,2.889,0,1,0,0-.711h0Zm.646-.354a2.089,2.089,0,1,1,2.089,2.172A2.137,2.137,0,0,1,351.6,362.606Z" transform="translate(-262.715 -262.214)" fill="#fff" stroke="#fff" stroke-miterlimit="10" stroke-width="0.901"/>
      <path id="Trazado_103847" data-name="Trazado 103847" d="M350.973,360.9h0v.71h0a1.857,1.857,0,0,1,0-.71Z" transform="translate(-262.733 -260.862)" fill="#fff" stroke="#fff" stroke-miterlimit="10" stroke-width="0.901"/>
      <path id="Trazado_103848" data-name="Trazado 103848" d="M328.914,366.76a1.863,1.863,0,0,0,0,.713H309.848v-.713Z" transform="translate(-309.848 -254.141)" fill="#fff" stroke="#fff" stroke-miterlimit="10" stroke-width="0.901"/>
      <path id="Trazado_103849" data-name="Trazado 103849" d="M318.732,368.825h0a2.89,2.89,0,1,0,0-.713h0Zm.648-.356a2.088,2.088,0,1,1,2.087,2.175A2.134,2.134,0,0,1,319.38,368.468Z" transform="translate(-299.664 -255.493)" fill="#fff" stroke="#fff" stroke-miterlimit="10" stroke-width="0.901"/>
      <path id="Trazado_103850" data-name="Trazado 103850" d="M318.748,366.76h0v.713h0a1.863,1.863,0,0,1,0-.713Z" transform="translate(-299.682 -254.141)" fill="#fff" stroke="#fff" stroke-miterlimit="10" stroke-width="0.901"/>
      <path id="Trazado_103851" data-name="Trazado 103851" d="M374.869,383.569a1.854,1.854,0,0,0,0,.711H309.848v-.711Z" transform="translate(-309.848 -234.867)" fill="#fff" stroke="#fff" stroke-miterlimit="10" stroke-width="0.901"/>
      <path id="Trazado_103852" data-name="Trazado 103852" d="M340.14,385.631h0a2.889,2.889,0,1,0,0-.711h0Zm.646-.354a2.089,2.089,0,1,1,2.089,2.174A2.137,2.137,0,0,1,340.786,385.277Z" transform="translate(-275.117 -236.219)" fill="#fff" stroke="#fff" stroke-miterlimit="10" stroke-width="0.901"/>
      <path id="Trazado_103853" data-name="Trazado 103853" d="M340.156,383.569h0v.711h0a1.855,1.855,0,0,1,0-.711Z" transform="translate(-275.136 -234.867)" fill="#fff" stroke="#fff" stroke-miterlimit="10" stroke-width="0.901"/>
      <path id="Trazado_103854" data-name="Trazado 103854" d="M392.636,315.475a1.862,1.862,0,0,0,0,.713H309.848v-.713Z" transform="translate(-309.848 -312.944)" fill="#fff" stroke="#fff" stroke-miterlimit="10" stroke-width="0.901"/>
      <path id="Trazado_103855" data-name="Trazado 103855" d="M348.417,317.54h0a2.89,2.89,0,1,0,0-.713h0Zm.646-.356a2.089,2.089,0,1,1,2.089,2.174A2.135,2.135,0,0,1,349.063,317.183Z" transform="translate(-265.627 -314.296)" fill="#fff" stroke="#fff" stroke-miterlimit="10" stroke-width="0.901"/>
      <path id="Trazado_103856" data-name="Trazado 103856" d="M348.433,315.475h0v.713h0a1.862,1.862,0,0,1,0-.713Z" transform="translate(-265.645 -312.944)" fill="#fff" stroke="#fff" stroke-miterlimit="10" stroke-width="0.901"/>
      <path id="Trazado_103857" data-name="Trazado 103857" d="M313.957,322.881h0a2.888,2.888,0,1,0,0-.713h0Zm.646-.356a2.089,2.089,0,1,1,2.089,2.174A2.137,2.137,0,0,1,314.6,322.525Z" transform="translate(-305.139 -308.169)" fill="#fff" stroke="#fff" stroke-miterlimit="10" stroke-width="0.901"/>
    </g>
  </g>
</svg>
