<svg xmlns="http://www.w3.org/2000/svg" width="330" height="310" viewBox="0 0 330 310">
  <g id="Grupo_99503" data-name="Grupo 99503" transform="translate(-433 -608)">
    <rect id="Rectángulo_33759" data-name="Rectángulo 33759" width="330" height="310" transform="translate(433 608)" fill="#b3009d"/>
    <g id="Grupo_99491" data-name="Grupo 99491" transform="translate(-348 5)">
      <g id="Elipse_4674" data-name="Elipse 4674" transform="translate(814 656)" fill="none" stroke="#fff" stroke-width="4">
        <circle cx="26" cy="26" r="26" stroke="none"/>
        <circle cx="26" cy="26" r="24" fill="none"/>
      </g>
      <path id="Trazado_103986" data-name="Trazado 103986" d="M15.724-17.174h8.75v5.112H1.494v-5.112h14.23Z" transform="translate(826.694 696.254)" fill="#fff"/>
    </g>
    <g id="Grupo_99492" data-name="Grupo 99492" transform="translate(-280 5)">
      <g id="Elipse_4674-2" data-name="Elipse 4674" transform="translate(814 656)" fill="none" stroke="#fff" stroke-width="4">
        <circle cx="26" cy="26" r="26" stroke="none"/>
        <circle cx="26" cy="26" r="24" fill="none"/>
      </g>
      <path id="Trazado_103986-2" data-name="Trazado 103986" d="M15.724-17.174h8.75v5.112H1.494v-5.112h14.23Z" transform="translate(826.694 696.254)" fill="#fff"/>
    </g>
    <g id="Grupo_99493" data-name="Grupo 99493" transform="translate(-212 5)">
      <g id="Elipse_4674-3" data-name="Elipse 4674" transform="translate(814 656)" fill="none" stroke="#fff" stroke-width="4">
        <circle cx="26" cy="26" r="26" stroke="none"/>
        <circle cx="26" cy="26" r="24" fill="none"/>
      </g>
      <path id="Trazado_103986-3" data-name="Trazado 103986" d="M15.724-17.174h8.75v5.112H1.494v-5.112h14.23Z" transform="translate(826.694 696.254)" fill="#fff"/>
    </g>
    <g id="Grupo_99494" data-name="Grupo 99494" transform="translate(-144 5)">
      <g id="Elipse_4674-4" data-name="Elipse 4674" transform="translate(814 656)" fill="none" stroke="#fff" stroke-width="4">
        <circle cx="26" cy="26" r="26" stroke="none"/>
        <circle cx="26" cy="26" r="24" fill="none"/>
      </g>
      <path id="Trazado_103986-4" data-name="Trazado 103986" d="M15.724-17.174h8.75v5.112H1.494v-5.112h14.23Z" transform="translate(826.694 696.254)" fill="#fff"/>
    </g>
    <g id="Grupo_99495" data-name="Grupo 99495" transform="translate(-348 75)">
      <g id="Elipse_4674-5" data-name="Elipse 4674" transform="translate(814 656)" fill="none" stroke="#fff" stroke-width="4">
        <circle cx="26" cy="26" r="26" stroke="none"/>
        <circle cx="26" cy="26" r="24" fill="none"/>
      </g>
      <path id="Trazado_103986-5" data-name="Trazado 103986" d="M15.724-17.174h8.75v5.112H1.494v-5.112h14.23Z" transform="translate(826.694 696.254)" fill="#fff"/>
    </g>
    <g id="Grupo_99496" data-name="Grupo 99496" transform="translate(-280 75)">
      <g id="Elipse_4674-6" data-name="Elipse 4674" transform="translate(814 656)" fill="none" stroke="#fff" stroke-width="4">
        <circle cx="26" cy="26" r="26" stroke="none"/>
        <circle cx="26" cy="26" r="24" fill="none"/>
      </g>
      <path id="Trazado_103986-6" data-name="Trazado 103986" d="M15.724-17.174h8.75v5.112H1.494v-5.112h14.23Z" transform="translate(826.694 696.254)" fill="#fff"/>
    </g>
    <g id="Grupo_99497" data-name="Grupo 99497" transform="translate(-212 75)">
      <g id="Elipse_4674-7" data-name="Elipse 4674" transform="translate(814 656)" fill="none" stroke="#fff" stroke-width="4">
        <circle cx="26" cy="26" r="26" stroke="none"/>
        <circle cx="26" cy="26" r="24" fill="none"/>
      </g>
      <path id="Trazado_103986-7" data-name="Trazado 103986" d="M15.724-17.174h8.75v5.112H1.494v-5.112h14.23Z" transform="translate(826.694 696.254)" fill="#fff"/>
    </g>
    <g id="Grupo_99498" data-name="Grupo 99498" transform="translate(-144 75)">
      <g id="Elipse_4674-8" data-name="Elipse 4674" transform="translate(814 656)" fill="none" stroke="#fff" stroke-width="4">
        <circle cx="26" cy="26" r="26" stroke="none"/>
        <circle cx="26" cy="26" r="24" fill="none"/>
      </g>
      <path id="Trazado_103986-8" data-name="Trazado 103986" d="M15.724-17.174h8.75v5.112H1.494v-5.112h14.23Z" transform="translate(826.694 696.254)" fill="#fff"/>
    </g>
    <g id="Grupo_99499" data-name="Grupo 99499" transform="translate(-348 145)">
      <g id="Elipse_4674-9" data-name="Elipse 4674" transform="translate(814 656)" fill="none" stroke="#fff" stroke-width="4">
        <circle cx="26" cy="26" r="26" stroke="none"/>
        <circle cx="26" cy="26" r="24" fill="none"/>
      </g>
      <path id="Trazado_103986-9" data-name="Trazado 103986" d="M15.724-17.174h8.75v5.112H1.494v-5.112h14.23Z" transform="translate(826.694 696.254)" fill="#fff"/>
    </g>
    <g id="Grupo_99500" data-name="Grupo 99500" transform="translate(-280 145)">
      <g id="Elipse_4674-10" data-name="Elipse 4674" transform="translate(814 656)" fill="none" stroke="#fff" stroke-width="4">
        <circle cx="26" cy="26" r="26" stroke="none"/>
        <circle cx="26" cy="26" r="24" fill="none"/>
      </g>
      <path id="Trazado_103986-10" data-name="Trazado 103986" d="M15.724-17.174h8.75v5.112H1.494v-5.112h14.23Z" transform="translate(826.694 696.254)" fill="#fff"/>
    </g>
    <g id="Grupo_99501" data-name="Grupo 99501" transform="translate(-212 145)">
      <g id="Elipse_4674-11" data-name="Elipse 4674" transform="translate(814 656)" fill="none" stroke="#fff" stroke-width="4">
        <circle cx="26" cy="26" r="26" stroke="none"/>
        <circle cx="26" cy="26" r="24" fill="none"/>
      </g>
      <path id="Trazado_103986-11" data-name="Trazado 103986" d="M15.724-17.174h8.75v5.112H1.494v-5.112h14.23Z" transform="translate(826.694 696.254)" fill="#fff"/>
    </g>
    <g id="Grupo_99502" data-name="Grupo 99502" transform="translate(-144 145)">
      <g id="Elipse_4674-12" data-name="Elipse 4674" transform="translate(814 656)" fill="none" stroke="#fff" stroke-width="4">
        <circle cx="26" cy="26" r="26" stroke="none"/>
        <circle cx="26" cy="26" r="24" fill="none"/>
      </g>
      <path id="Trazado_103986-12" data-name="Trazado 103986" d="M15.724-17.174h8.75v5.112H1.494v-5.112h14.23Z" transform="translate(826.694 696.254)" fill="#fff"/>
    </g>
  </g>
</svg>
