<svg xmlns="http://www.w3.org/2000/svg" width="497.406" height="339.47" viewBox="0 0 497.406 339.47">
  <g id="Grupo_99588" data-name="Grupo 99588" transform="translate(-551.797 -1284.436)">
    <path id="Trazado_103858" data-name="Trazado 103858" d="M1585.762,665.62h-23.342V425.093l11.671-30.6,11.671,30.6Z" transform="translate(-773.919 943.279)" fill="#00cca7"/>
    <path id="Trazado_104173" data-name="Trazado 104173" d="M0,0H322.733V7.239H0Z" transform="matrix(0.966, -0.259, 0.259, 0.966, 643.367, 1377.945)" fill="#3c0061"/>
    <path id="Trazado_104174" data-name="Trazado 104174" d="M0,0H184.864A29.459,29.459,0,0,1,155.4,29.459H29.459A29.459,29.459,0,0,1,0,0Z" transform="translate(551.797 1538.06)" fill="#00cca7"/>
    <g id="Grupo_99466" data-name="Grupo 99466" transform="translate(553.725 1397.404)">
      <path id="Trazado_103859" data-name="Trazado 103859" d="M421.643,676.163l-1.763-1.14L510.4,532.883l90.49,142.153-1.779,1.115L510.37,536.792Z" transform="translate(-419.88 -532.883)" fill="#00cca7"/>
    </g>
    <path id="Trazado_104175" data-name="Trazado 104175" d="M0,0H4.154V22.762H0Z" transform="translate(642.152 1378.895)" fill="#3c0061"/>
    <path id="Trazado_104176" data-name="Trazado 104176" d="M0,0H184.864a32.136,32.136,0,0,1-32.136,32.136H32.136A32.136,32.136,0,0,1,0,0Z" transform="translate(864.339 1451.573)" fill="#00cca7"/>
    <g id="Grupo_99467" data-name="Grupo 99467" transform="translate(866.268 1310.918)">
      <path id="Trazado_103860" data-name="Trazado 103860" d="M1950.163,676.163l-1.763-1.14,90.518-142.14,90.49,142.153-1.779,1.115L2038.89,536.792Z" transform="translate(-1948.4 -532.883)" fill="#00cca7"/>
    </g>
    <path id="Trazado_104177" data-name="Trazado 104177" d="M0,0H4.154V22.762H0Z" transform="translate(954.694 1294.416)" fill="#3c0061"/>
    <path id="Trazado_103861" data-name="Trazado 103861" d="M1601.845,366.741H1590V346.3a5.923,5.923,0,0,1,5.923-5.923h0a5.923,5.923,0,0,1,5.923,5.923Z" transform="translate(-795.75 986.119)" fill="#3c0061"/>
    <path id="Trazado_104178" data-name="Trazado 104178" d="M15.006,0H225.229a15.006,15.006,0,0,1,15.006,15.006H0A15.006,15.006,0,0,1,15.006,0Z" transform="translate(680.054 1608.9)" fill="#3c0061"/>
    <path id="Trazado_104179" data-name="Trazado 104179" d="M8.643-3.73A1.5,1.5,0,0,0,8.057-5a7.685,7.685,0,0,0-2.109-.937,14.953,14.953,0,0,1-2.412-.972,3.941,3.941,0,0,1-2.422-3.525A3.434,3.434,0,0,1,1.763-12.5a4.236,4.236,0,0,1,1.865-1.411,7.02,7.02,0,0,1,2.729-.508,6.39,6.39,0,0,1,2.715.552A4.323,4.323,0,0,1,10.923-12.3a4.076,4.076,0,0,1,.659,2.285H8.652a1.917,1.917,0,0,0-.615-1.519,2.529,2.529,0,0,0-1.729-.542,2.7,2.7,0,0,0-1.67.454,1.432,1.432,0,0,0-.6,1.2,1.372,1.372,0,0,0,.7,1.162A7.889,7.889,0,0,0,6.8-8.389a8.882,8.882,0,0,1,3.643,1.865A3.715,3.715,0,0,1,11.582-3.75a3.422,3.422,0,0,1-1.4,2.9A6.113,6.113,0,0,1,6.426.2a7.26,7.26,0,0,1-2.988-.6A4.729,4.729,0,0,1,1.382-2.051,4.214,4.214,0,0,1,.674-4.473H3.613q0,2.354,2.813,2.354a2.736,2.736,0,0,0,1.631-.425A1.382,1.382,0,0,0,8.643-3.73ZM18.242.2A5.187,5.187,0,0,1,14.458-1.23,5.068,5.068,0,0,1,13-5.029V-5.3a6.383,6.383,0,0,1,.615-2.847,4.515,4.515,0,0,1,1.743-1.934,4.893,4.893,0,0,1,2.573-.679,4.385,4.385,0,0,1,3.413,1.367,5.555,5.555,0,0,1,1.245,3.877v1.152H15.859a2.622,2.622,0,0,0,.825,1.66,2.5,2.5,0,0,0,1.743.625,3.046,3.046,0,0,0,2.549-1.182l1.387,1.553a4.237,4.237,0,0,1-1.719,1.4A5.639,5.639,0,0,1,18.242.2ZM17.92-8.477a1.767,1.767,0,0,0-1.362.566,2.926,2.926,0,0,0-.669,1.621h3.926v-.225a2.086,2.086,0,0,0-.508-1.45A1.824,1.824,0,0,0,17.92-8.477Zm8.916-2.09.088,1.182a3.713,3.713,0,0,1,3.037-1.377,2.818,2.818,0,0,1,2.8,1.611,3.628,3.628,0,0,1,3.174-1.611,3.152,3.152,0,0,1,2.559,1,4.6,4.6,0,0,1,.84,3.013V0H36.5V-6.738a2.012,2.012,0,0,0-.352-1.313,1.558,1.558,0,0,0-1.24-.415,1.761,1.761,0,0,0-1.758,1.211L33.164,0H30.342V-6.729a1.988,1.988,0,0,0-.361-1.328,1.573,1.573,0,0,0-1.23-.41,1.829,1.829,0,0,0-1.738,1V0H24.189V-10.566ZM44.482,0H41.65V-10.566h2.832Zm-3-13.3a1.39,1.39,0,0,1,.425-1.045,1.6,1.6,0,0,1,1.157-.41,1.6,1.6,0,0,1,1.152.41,1.382,1.382,0,0,1,.43,1.045,1.386,1.386,0,0,1-.435,1.055,1.6,1.6,0,0,1-1.147.41,1.6,1.6,0,0,1-1.147-.41A1.386,1.386,0,0,1,41.484-13.3ZM51.2-2.08a1.851,1.851,0,0,0,1.27-.43,1.506,1.506,0,0,0,.508-1.143h2.646a3.62,3.62,0,0,1-.586,1.968A3.866,3.866,0,0,1,53.462-.3,4.936,4.936,0,0,1,51.25.2a4.587,4.587,0,0,1-3.574-1.44,5.7,5.7,0,0,1-1.309-3.979V-5.41a5.635,5.635,0,0,1,1.3-3.9,4.534,4.534,0,0,1,3.564-1.455,4.444,4.444,0,0,1,3.179,1.128,3.994,3.994,0,0,1,1.216,3H52.979a1.923,1.923,0,0,0-.508-1.333,1.7,1.7,0,0,0-1.289-.513,1.7,1.7,0,0,0-1.489.718,4.155,4.155,0,0,0-.5,2.329v.293a4.207,4.207,0,0,0,.5,2.344A1.722,1.722,0,0,0,51.2-2.08Zm5.6-3.3a6.267,6.267,0,0,1,.605-2.8,4.432,4.432,0,0,1,1.743-1.9,5.086,5.086,0,0,1,2.642-.674,4.812,4.812,0,0,1,3.491,1.309A5.252,5.252,0,0,1,66.787-5.9l.02.723a5.523,5.523,0,0,1-1.357,3.9A4.718,4.718,0,0,1,61.807.2,4.742,4.742,0,0,1,58.159-1.27,5.62,5.62,0,0,1,56.8-5.254Zm2.822.205a3.939,3.939,0,0,0,.566,2.3,1.869,1.869,0,0,0,1.621.8,1.874,1.874,0,0,0,1.6-.786,4.31,4.31,0,0,0,.576-2.515,3.9,3.9,0,0,0-.576-2.285,1.874,1.874,0,0,0-1.621-.811,1.843,1.843,0,0,0-1.6.806A4.383,4.383,0,0,0,59.619-5.176Zm11.523-5.391.088,1.221a3.689,3.689,0,0,1,3.037-1.416,3.066,3.066,0,0,1,2.5.986,4.6,4.6,0,0,1,.84,2.949V0H74.785V-6.758a1.831,1.831,0,0,0-.391-1.3,1.749,1.749,0,0,0-1.3-.405,1.942,1.942,0,0,0-1.787,1.016V0H68.486V-10.566Zm8.164,5.205A6.368,6.368,0,0,1,80.415-9.3a3.6,3.6,0,0,1,3.032-1.465A3.236,3.236,0,0,1,86-9.609V-15h2.832V0H86.279l-.137-1.123A3.321,3.321,0,0,1,83.428.2a3.587,3.587,0,0,1-2.993-1.47A6.573,6.573,0,0,1,79.307-5.361Zm2.822.205a4.16,4.16,0,0,0,.518,2.275,1.687,1.687,0,0,0,1.5.791A1.889,1.889,0,0,0,86-3.193v-4.17a1.862,1.862,0,0,0-1.826-1.1Q82.129-8.467,82.129-5.156ZM97.344-1.074A3.539,3.539,0,0,1,94.453.2,3.338,3.338,0,0,1,91.86-.781a4.169,4.169,0,0,1-.913-2.861v-6.924H93.77V-3.74q0,1.65,1.5,1.65a2.038,2.038,0,0,0,1.973-1v-7.48h2.832V0H97.422ZM106.6-2.08a1.851,1.851,0,0,0,1.27-.43,1.506,1.506,0,0,0,.508-1.143h2.646a3.62,3.62,0,0,1-.586,1.968A3.866,3.866,0,0,1,108.862-.3,4.936,4.936,0,0,1,106.65.2a4.587,4.587,0,0,1-3.574-1.44,5.7,5.7,0,0,1-1.309-3.979V-5.41a5.635,5.635,0,0,1,1.3-3.9,4.534,4.534,0,0,1,3.564-1.455,4.444,4.444,0,0,1,3.179,1.128,3.994,3.994,0,0,1,1.216,3h-2.646a1.923,1.923,0,0,0-.508-1.333,1.7,1.7,0,0,0-1.289-.513,1.7,1.7,0,0,0-1.489.718,4.155,4.155,0,0,0-.5,2.329v.293a4.207,4.207,0,0,0,.5,2.344A1.722,1.722,0,0,0,106.6-2.08Zm9.414-11.084v2.6h1.807V-8.5h-1.807v5.273a1.259,1.259,0,0,0,.225.84,1.128,1.128,0,0,0,.859.254,4.5,4.5,0,0,0,.83-.068V-.059A5.81,5.81,0,0,1,116.221.2q-2.969,0-3.027-3V-8.5H111.65v-2.07h1.543v-2.6Zm2.646,7.783a6.266,6.266,0,0,1,.605-2.8,4.432,4.432,0,0,1,1.743-1.9,5.086,5.086,0,0,1,2.642-.674,4.812,4.812,0,0,1,3.491,1.309A5.252,5.252,0,0,1,128.652-5.9l.02.723a5.523,5.523,0,0,1-1.357,3.9A4.718,4.718,0,0,1,123.672.2a4.742,4.742,0,0,1-3.647-1.465,5.62,5.62,0,0,1-1.362-3.984Zm2.822.205a3.939,3.939,0,0,0,.566,2.3,1.869,1.869,0,0,0,1.621.8,1.874,1.874,0,0,0,1.6-.786,4.31,4.31,0,0,0,.576-2.515,3.9,3.9,0,0,0-.576-2.285,1.874,1.874,0,0,0-1.621-.811,1.843,1.843,0,0,0-1.6.806A4.383,4.383,0,0,0,121.484-5.176ZM136.348-7.92A7.667,7.667,0,0,0,135.332-8a2.067,2.067,0,0,0-2.1,1.084V0H130.41V-10.566h2.666l.078,1.26a2.615,2.615,0,0,1,2.354-1.455,2.957,2.957,0,0,1,.879.127Z" transform="matrix(0.966, -0.259, 0.259, 0.966, 734.817, 1334.225)" fill="#12263f"/>
    <path id="Trazado_104180" data-name="Trazado 104180" d="M12.432-4.736a5.031,5.031,0,0,1-1.694,3.613A5.951,5.951,0,0,1,6.709.2a5.351,5.351,0,0,1-4.3-1.841A7.548,7.548,0,0,1,.84-6.7v-.869a8.523,8.523,0,0,1,.723-3.613,5.416,5.416,0,0,1,2.065-2.4,5.786,5.786,0,0,1,3.12-.835A5.8,5.8,0,0,1,10.713-13.1a5.407,5.407,0,0,1,1.738,3.7H9.521a2.97,2.97,0,0,0-.767-2,2.839,2.839,0,0,0-2.007-.62,2.489,2.489,0,0,0-2.192,1.05,5.883,5.883,0,0,0-.747,3.257v1.074a6.3,6.3,0,0,0,.7,3.369A2.443,2.443,0,0,0,6.709-2.2a2.892,2.892,0,0,0,2.026-.62A2.8,2.8,0,0,0,9.5-4.736Zm1.3-.645a6.267,6.267,0,0,1,.605-2.8,4.432,4.432,0,0,1,1.743-1.9,5.086,5.086,0,0,1,2.642-.674,4.812,4.812,0,0,1,3.491,1.309A5.252,5.252,0,0,1,23.721-5.9l.02.723a5.523,5.523,0,0,1-1.357,3.9A4.718,4.718,0,0,1,18.74.2,4.742,4.742,0,0,1,15.093-1.27,5.62,5.62,0,0,1,13.73-5.254Zm2.822.205a3.939,3.939,0,0,0,.566,2.3,1.869,1.869,0,0,0,1.621.8,1.874,1.874,0,0,0,1.6-.786,4.31,4.31,0,0,0,.576-2.515,3.9,3.9,0,0,0-.576-2.285,1.874,1.874,0,0,0-1.621-.811,1.843,1.843,0,0,0-1.6.806A4.383,4.383,0,0,0,16.553-5.176Zm11.523-5.391.088,1.221A3.689,3.689,0,0,1,31.2-10.762a3.066,3.066,0,0,1,2.5.986,4.6,4.6,0,0,1,.84,2.949V0H31.719V-6.758a1.831,1.831,0,0,0-.391-1.3,1.749,1.749,0,0,0-1.3-.405,1.942,1.942,0,0,0-1.787,1.016V0H25.42V-10.566ZM36.24-5.361A6.368,6.368,0,0,1,37.349-9.3a3.6,3.6,0,0,1,3.032-1.465A3.236,3.236,0,0,1,42.93-9.609V-15h2.832V0H43.213l-.137-1.123A3.321,3.321,0,0,1,40.361.2a3.587,3.587,0,0,1-2.993-1.47A6.573,6.573,0,0,1,36.24-5.361Zm2.822.205a4.16,4.16,0,0,0,.518,2.275,1.687,1.687,0,0,0,1.5.791,1.889,1.889,0,0,0,1.846-1.1v-4.17a1.862,1.862,0,0,0-1.826-1.1Q39.063-8.467,39.063-5.156ZM54.277-1.074A3.539,3.539,0,0,1,51.387.2a3.338,3.338,0,0,1-2.593-.977,4.169,4.169,0,0,1-.913-2.861v-6.924H50.7V-3.74q0,1.65,1.5,1.65a2.038,2.038,0,0,0,1.973-1v-7.48h2.832V0H54.355ZM63.535-2.08a1.851,1.851,0,0,0,1.27-.43,1.506,1.506,0,0,0,.508-1.143h2.646a3.62,3.62,0,0,1-.586,1.968A3.866,3.866,0,0,1,65.8-.3,4.936,4.936,0,0,1,63.584.2a4.587,4.587,0,0,1-3.574-1.44A5.7,5.7,0,0,1,58.7-5.225V-5.41a5.635,5.635,0,0,1,1.3-3.9,4.534,4.534,0,0,1,3.564-1.455,4.444,4.444,0,0,1,3.179,1.128,3.994,3.994,0,0,1,1.216,3H65.313A1.923,1.923,0,0,0,64.8-7.964a1.7,1.7,0,0,0-1.289-.513,1.7,1.7,0,0,0-1.489.718,4.155,4.155,0,0,0-.5,2.329v.293a4.207,4.207,0,0,0,.5,2.344A1.722,1.722,0,0,0,63.535-2.08Zm9.414-11.084v2.6h1.807V-8.5H72.949v5.273a1.259,1.259,0,0,0,.225.84,1.128,1.128,0,0,0,.859.254,4.5,4.5,0,0,0,.83-.068V-.059A5.81,5.81,0,0,1,73.154.2q-2.969,0-3.027-3V-8.5H68.584v-2.07h1.543v-2.6ZM75.6-5.381a6.266,6.266,0,0,1,.605-2.8,4.432,4.432,0,0,1,1.743-1.9,5.086,5.086,0,0,1,2.642-.674,4.812,4.812,0,0,1,3.491,1.309A5.252,5.252,0,0,1,85.586-5.9l.02.723a5.523,5.523,0,0,1-1.357,3.9A4.718,4.718,0,0,1,80.605.2,4.742,4.742,0,0,1,76.958-1.27,5.62,5.62,0,0,1,75.6-5.254Zm2.822.205a3.939,3.939,0,0,0,.566,2.3,1.869,1.869,0,0,0,1.621.8,1.874,1.874,0,0,0,1.6-.786,4.31,4.31,0,0,0,.576-2.515,3.9,3.9,0,0,0-.576-2.285,1.874,1.874,0,0,0-1.621-.811,1.843,1.843,0,0,0-1.6.806A4.383,4.383,0,0,0,78.418-5.176ZM93.281-7.92A7.667,7.667,0,0,0,92.266-8a2.067,2.067,0,0,0-2.1,1.084V0H87.344V-10.566H90.01l.078,1.26a2.615,2.615,0,0,1,2.354-1.455,2.957,2.957,0,0,1,.879.127Z" transform="translate(596.152 1525.946)" fill="#12263f"/>
    <path id="Trazado_104181" data-name="Trazado 104181" d="M9.3-2.93H4.16L3.184,0H.068L5.361-14.219H8.076L13.4,0H10.283ZM4.951-5.3H8.506L6.719-10.625ZM17.52,0H14.688V-10.566H17.52Zm-3-13.3a1.39,1.39,0,0,1,.425-1.045,1.6,1.6,0,0,1,1.157-.41,1.6,1.6,0,0,1,1.152.41,1.382,1.382,0,0,1,.43,1.045,1.386,1.386,0,0,1-.435,1.055,1.6,1.6,0,0,1-1.147.41,1.6,1.6,0,0,1-1.147-.41A1.386,1.386,0,0,1,14.521-13.3ZM25.566-2.92a.909.909,0,0,0-.513-.815,5.824,5.824,0,0,0-1.646-.532q-3.77-.791-3.77-3.2a2.9,2.9,0,0,1,1.167-2.349,4.707,4.707,0,0,1,3.052-.942,5.067,5.067,0,0,1,3.218.947,2.985,2.985,0,0,1,1.206,2.461H25.459a1.366,1.366,0,0,0-.391-1,1.653,1.653,0,0,0-1.221-.4,1.689,1.689,0,0,0-1.1.322,1.017,1.017,0,0,0-.391.82.87.87,0,0,0,.444.757,4.571,4.571,0,0,0,1.5.5,12.244,12.244,0,0,1,1.777.474,2.92,2.92,0,0,1,2.236,2.842A2.756,2.756,0,0,1,27.07-.7a5.35,5.35,0,0,1-3.2.894,5.588,5.588,0,0,1-2.358-.474,3.957,3.957,0,0,1-1.616-1.3,3.018,3.018,0,0,1-.586-1.782h2.676a1.473,1.473,0,0,0,.557,1.152,2.208,2.208,0,0,0,1.387.4,2.044,2.044,0,0,0,1.226-.308A.957.957,0,0,0,25.566-2.92ZM33.105,0H30.273V-15h2.832Zm8.447,0a3.134,3.134,0,0,1-.283-.947A3.415,3.415,0,0,1,38.6.2,3.752,3.752,0,0,1,36.03-.7,2.89,2.89,0,0,1,35.01-2.969a2.986,2.986,0,0,1,1.245-2.578,6.144,6.144,0,0,1,3.6-.908h1.3v-.605a1.741,1.741,0,0,0-.376-1.172,1.479,1.479,0,0,0-1.187-.439,1.682,1.682,0,0,0-1.118.342,1.161,1.161,0,0,0-.405.938H35.244a2.835,2.835,0,0,1,.566-1.7,3.744,3.744,0,0,1,1.6-1.226,5.837,5.837,0,0,1,2.324-.444,4.611,4.611,0,0,1,3.1.981,3.433,3.433,0,0,1,1.147,2.759v4.58A5.052,5.052,0,0,0,44.4-.166V0ZM39.219-1.963a2.431,2.431,0,0,0,1.152-.278,1.828,1.828,0,0,0,.781-.747V-4.8H40.1q-2.119,0-2.256,1.465l-.01.166A1.13,1.13,0,0,0,38.2-2.3,1.441,1.441,0,0,0,39.219-1.963Zm9.531-8.6.088,1.221a3.689,3.689,0,0,1,3.037-1.416,3.066,3.066,0,0,1,2.5.986,4.6,4.6,0,0,1,.84,2.949V0H52.393V-6.758A1.831,1.831,0,0,0,52-8.062a1.749,1.749,0,0,0-1.3-.405,1.942,1.942,0,0,0-1.787,1.016V0H46.094V-10.566Zm11.982-2.6v2.6h1.807V-8.5H60.732v5.273a1.259,1.259,0,0,0,.225.84,1.128,1.128,0,0,0,.859.254,4.5,4.5,0,0,0,.83-.068V-.059A5.81,5.81,0,0,1,60.938.2q-2.969,0-3.027-3V-8.5H56.367v-2.07H57.91v-2.6ZM68.975.2A5.187,5.187,0,0,1,65.19-1.23a5.068,5.068,0,0,1-1.46-3.8V-5.3a6.383,6.383,0,0,1,.615-2.847,4.515,4.515,0,0,1,1.743-1.934,4.893,4.893,0,0,1,2.573-.679,4.385,4.385,0,0,1,3.413,1.367A5.555,5.555,0,0,1,73.32-5.518v1.152H66.592a2.622,2.622,0,0,0,.825,1.66,2.5,2.5,0,0,0,1.743.625,3.046,3.046,0,0,0,2.549-1.182L73.1-1.709a4.237,4.237,0,0,1-1.719,1.4A5.639,5.639,0,0,1,68.975.2Zm-.322-8.672a1.767,1.767,0,0,0-1.362.566,2.926,2.926,0,0,0-.669,1.621h3.926v-.225a2.086,2.086,0,0,0-.508-1.45A1.824,1.824,0,0,0,68.652-8.477Z" transform="translate(925.092 1439.611)" fill="#12263f"/>
    <path id="Trazado_104182" data-name="Trazado 104182" d="M6.7-7.822H10.41v2.168H6.7v4.229h-2.3V-5.654H.664V-7.822h3.73v-3.955H6.7ZM28.418-4.629a5.134,5.134,0,0,1-1.68,3.55A5.726,5.726,0,0,1,22.842.2,5.545,5.545,0,0,1,19.849-.61a5.288,5.288,0,0,1-2-2.29,8.264,8.264,0,0,1-.732-3.447V-7.676a8.324,8.324,0,0,1,.713-3.545,5.373,5.373,0,0,1,2.046-2.363,5.707,5.707,0,0,1,3.081-.83,5.483,5.483,0,0,1,3.789,1.279,5.344,5.344,0,0,1,1.67,3.613H25.957a3.512,3.512,0,0,0-.894-2.212,2.953,2.953,0,0,0-2.1-.679,2.886,2.886,0,0,0-2.476,1.177A5.877,5.877,0,0,0,19.6-7.783v1.26a6.235,6.235,0,0,0,.825,3.516A2.739,2.739,0,0,0,22.842-1.8a3.194,3.194,0,0,0,2.188-.654,3.412,3.412,0,0,0,.928-2.178Zm1.533-.752a6.231,6.231,0,0,1,.615-2.8,4.493,4.493,0,0,1,1.729-1.914,4.87,4.87,0,0,1,2.559-.669,4.615,4.615,0,0,1,3.472,1.377,5.416,5.416,0,0,1,1.44,3.652l.01.557a6.286,6.286,0,0,1-.6,2.793,4.439,4.439,0,0,1-1.719,1.9A4.906,4.906,0,0,1,34.873.2a4.584,4.584,0,0,1-3.579-1.489,5.7,5.7,0,0,1-1.343-3.97Zm2.373.205A4.258,4.258,0,0,0,33-2.622a2.191,2.191,0,0,0,1.875.923,2.167,2.167,0,0,0,1.87-.937,4.7,4.7,0,0,0,.669-2.744,4.2,4.2,0,0,0-.688-2.539,2.2,2.2,0,0,0-1.87-.937,2.178,2.178,0,0,0-1.846.923A4.614,4.614,0,0,0,32.324-5.176ZM47.314-8.4a5.872,5.872,0,0,0-.967-.078,2.177,2.177,0,0,0-2.2,1.25V0H41.777V-10.566h2.266L44.1-9.385a2.674,2.674,0,0,1,2.383-1.377,2.222,2.222,0,0,1,.84.137Zm7.031,0a5.872,5.872,0,0,0-.967-.078,2.177,2.177,0,0,0-2.2,1.25V0H48.809V-10.566h2.266l.059,1.182a2.674,2.674,0,0,1,2.383-1.377,2.222,2.222,0,0,1,.84.137ZM58.369,0H56V-10.566h2.373ZM55.85-13.311a1.259,1.259,0,0,1,.347-.908,1.309,1.309,0,0,1,.991-.361,1.326,1.326,0,0,1,1,.361,1.25,1.25,0,0,1,.352.908,1.221,1.221,0,0,1-.352.894,1.336,1.336,0,0,1-1,.356,1.32,1.32,0,0,1-.991-.356A1.23,1.23,0,0,1,55.85-13.311ZM65.605.2a4.91,4.91,0,0,1-3.657-1.421,5.154,5.154,0,0,1-1.4-3.784V-5.3a6.34,6.34,0,0,1,.61-2.827,4.646,4.646,0,0,1,1.714-1.938,4.531,4.531,0,0,1,2.461-.693,4.147,4.147,0,0,1,3.335,1.377,5.822,5.822,0,0,1,1.177,3.9v.957h-6.9a3.173,3.173,0,0,0,.874,2.07,2.624,2.624,0,0,0,1.929.762A3.213,3.213,0,0,0,68.4-3.018L69.678-1.8a4.272,4.272,0,0,1-1.694,1.47A5.3,5.3,0,0,1,65.605.2Zm-.283-9.053a2,2,0,0,0-1.577.684,3.543,3.543,0,0,0-.767,1.9H67.5v-.176a2.884,2.884,0,0,0-.635-1.8A1.983,1.983,0,0,0,65.322-8.857Zm8.564-1.709.068,1.221a3.8,3.8,0,0,1,3.076-1.416q3.3,0,3.359,3.779V0H78.018V-6.846a2.176,2.176,0,0,0-.435-1.489,1.828,1.828,0,0,0-1.421-.483,2.287,2.287,0,0,0-2.139,1.3V0H71.65V-10.566Zm11.895-2.568v2.568h1.865v1.758H85.781v5.9a1.3,1.3,0,0,0,.239.874,1.109,1.109,0,0,0,.854.269,3.656,3.656,0,0,0,.83-.1V-.029A5.845,5.845,0,0,1,86.143.2q-2.734,0-2.734-3.018V-8.809H81.67v-1.758h1.738v-2.568ZM94.111.2a4.91,4.91,0,0,1-3.657-1.421,5.154,5.154,0,0,1-1.4-3.784V-5.3a6.34,6.34,0,0,1,.61-2.827,4.645,4.645,0,0,1,1.714-1.938,4.531,4.531,0,0,1,2.461-.693,4.147,4.147,0,0,1,3.335,1.377,5.822,5.822,0,0,1,1.177,3.9v.957h-6.9a3.173,3.173,0,0,0,.874,2.07,2.624,2.624,0,0,0,1.929.762A3.213,3.213,0,0,0,96.9-3.018L98.184-1.8a4.272,4.272,0,0,1-1.694,1.47A5.3,5.3,0,0,1,94.111.2Zm-.283-9.053a2,2,0,0,0-1.577.684,3.543,3.543,0,0,0-.767,1.9h4.521v-.176a2.884,2.884,0,0,0-.635-1.8A1.983,1.983,0,0,0,93.828-8.857Z" transform="translate(590.652 1558.744)" fill="#fff"/>
    <path id="Trazado_104183" data-name="Trazado 104183" d="M5.82-5.088H.693V-7H5.82Zm18.018.459a5.134,5.134,0,0,1-1.68,3.55A5.726,5.726,0,0,1,18.262.2,5.545,5.545,0,0,1,15.269-.61a5.288,5.288,0,0,1-2-2.29,8.264,8.264,0,0,1-.732-3.447V-7.676a8.324,8.324,0,0,1,.713-3.545A5.373,5.373,0,0,1,15.3-13.584a5.707,5.707,0,0,1,3.081-.83,5.483,5.483,0,0,1,3.789,1.279,5.344,5.344,0,0,1,1.67,3.613H21.377a3.512,3.512,0,0,0-.894-2.212,2.953,2.953,0,0,0-2.1-.679A2.886,2.886,0,0,0,15.9-11.235a5.877,5.877,0,0,0-.884,3.452v1.26a6.235,6.235,0,0,0,.825,3.516A2.739,2.739,0,0,0,18.262-1.8a3.194,3.194,0,0,0,2.188-.654,3.412,3.412,0,0,0,.928-2.178Zm1.533-.752a6.231,6.231,0,0,1,.615-2.8,4.493,4.493,0,0,1,1.729-1.914,4.87,4.87,0,0,1,2.559-.669,4.615,4.615,0,0,1,3.472,1.377,5.416,5.416,0,0,1,1.44,3.652l.01.557a6.286,6.286,0,0,1-.6,2.793,4.439,4.439,0,0,1-1.719,1.9A4.906,4.906,0,0,1,30.293.2a4.584,4.584,0,0,1-3.579-1.489,5.7,5.7,0,0,1-1.343-3.97Zm2.373.205a4.258,4.258,0,0,0,.674,2.554,2.191,2.191,0,0,0,1.875.923,2.167,2.167,0,0,0,1.87-.937,4.7,4.7,0,0,0,.669-2.744,4.2,4.2,0,0,0-.688-2.539,2.2,2.2,0,0,0-1.87-.937,2.178,2.178,0,0,0-1.846.923A4.614,4.614,0,0,0,27.744-5.176ZM42.734-8.4a5.872,5.872,0,0,0-.967-.078,2.177,2.177,0,0,0-2.2,1.25V0H37.2V-10.566h2.266l.059,1.182A2.674,2.674,0,0,1,41.9-10.762a2.222,2.222,0,0,1,.84.137Zm7.031,0a5.872,5.872,0,0,0-.967-.078,2.177,2.177,0,0,0-2.2,1.25V0H44.229V-10.566h2.266l.059,1.182a2.674,2.674,0,0,1,2.383-1.377,2.222,2.222,0,0,1,.84.137ZM53.789,0H51.416V-10.566h2.373ZM51.27-13.311a1.259,1.259,0,0,1,.347-.908,1.309,1.309,0,0,1,.991-.361,1.326,1.326,0,0,1,1,.361,1.25,1.25,0,0,1,.352.908,1.221,1.221,0,0,1-.352.894,1.336,1.336,0,0,1-1,.356,1.32,1.32,0,0,1-.991-.356A1.23,1.23,0,0,1,51.27-13.311ZM61.025.2a4.91,4.91,0,0,1-3.657-1.421,5.154,5.154,0,0,1-1.4-3.784V-5.3a6.34,6.34,0,0,1,.61-2.827,4.646,4.646,0,0,1,1.714-1.938,4.531,4.531,0,0,1,2.461-.693,4.147,4.147,0,0,1,3.335,1.377,5.822,5.822,0,0,1,1.177,3.9v.957h-6.9a3.173,3.173,0,0,0,.874,2.07,2.624,2.624,0,0,0,1.929.762,3.213,3.213,0,0,0,2.656-1.318L65.1-1.8A4.272,4.272,0,0,1,63.4-.327,5.3,5.3,0,0,1,61.025.2Zm-.283-9.053a2,2,0,0,0-1.577.684,3.543,3.543,0,0,0-.767,1.9H62.92v-.176a2.884,2.884,0,0,0-.635-1.8A1.983,1.983,0,0,0,60.742-8.857Zm8.564-1.709.068,1.221a3.8,3.8,0,0,1,3.076-1.416q3.3,0,3.359,3.779V0H73.438V-6.846A2.176,2.176,0,0,0,73-8.335a1.828,1.828,0,0,0-1.421-.483,2.287,2.287,0,0,0-2.139,1.3V0H67.07V-10.566ZM81.2-13.135v2.568h1.865v1.758H81.2v5.9a1.3,1.3,0,0,0,.239.874,1.109,1.109,0,0,0,.854.269,3.656,3.656,0,0,0,.83-.1V-.029A5.845,5.845,0,0,1,81.563.2q-2.734,0-2.734-3.018V-8.809H77.09v-1.758h1.738v-2.568ZM89.531.2a4.91,4.91,0,0,1-3.657-1.421,5.154,5.154,0,0,1-1.4-3.784V-5.3a6.34,6.34,0,0,1,.61-2.827A4.645,4.645,0,0,1,86.8-10.068a4.531,4.531,0,0,1,2.461-.693,4.147,4.147,0,0,1,3.335,1.377,5.822,5.822,0,0,1,1.177,3.9v.957h-6.9a3.173,3.173,0,0,0,.874,2.07,2.624,2.624,0,0,0,1.929.762,3.213,3.213,0,0,0,2.656-1.318L93.6-1.8a4.272,4.272,0,0,1-1.694,1.47A5.3,5.3,0,0,1,89.531.2Zm-.283-9.053a2,2,0,0,0-1.577.684,3.543,3.543,0,0,0-.767,1.9h4.521v-.176a2.884,2.884,0,0,0-.635-1.8A1.983,1.983,0,0,0,89.248-8.857Z" transform="translate(909.976 1474.281)" fill="#fff"/>
  </g>
</svg>
