<svg xmlns="http://www.w3.org/2000/svg" width="339" height="258" viewBox="0 0 339 258">
  <g id="Grupo_99595" data-name="Grupo 99595" transform="translate(-892 -3872)">
    <path id="Trazado_104234" data-name="Trazado 104234" d="M10,0H329a10,10,0,0,1,10,10V248a10,10,0,0,1-10,10H10A10,10,0,0,1,0,248V10A10,10,0,0,1,10,0Z" transform="translate(892 3872)" fill="#fff"/>
    <path id="Trazado_104158" data-name="Trazado 104158" d="M-3972.09-7733.256h-55.588v-3h52.588v-52.277h3Z" transform="translate(4958 11761)" fill="#ea7596"/>
    <path id="Trazado_104159" data-name="Trazado 104159" d="M-3894-7786.365h-53.748v-3H-3897V-7840.1h3Z" transform="translate(4958 11761)" fill="#ea7596"/>
    <path id="Trazado_104160" data-name="Trazado 104160" d="M-3884.345-7759.99h-3V-7838.6h-51.27v-3h54.27Z" transform="translate(4948.345 11840.229)" fill="#ea7596"/>
    <path id="Trazado_104235" data-name="Trazado 104235" d="M0,0H14V85H0Z" transform="translate(996 3958)" fill="#ddd"/>
    <path id="Rectángulo_33808_-_Contorno" data-name="Rectángulo 33808 - Contorno" d="M3,3V82h8V3H3M0,0H14V85H0Z" transform="translate(996 3958)" fill="#ea7596"/>
    <path id="Trazado_104161" data-name="Trazado 104161" d="M-3895.5-7733.256h-52.77v-3h52.77Z" transform="translate(4958 11761)" fill="#ea7596"/>
    <path id="Trazado_104236" data-name="Trazado 104236" d="M19.7-10.225a12.6,12.6,0,0,1-.981,5.164,8.975,8.975,0,0,1-2.71,3.538L19.453,1.2,16.274,3.9,11.689.205A9.53,9.53,0,0,1,10.4.293,9.245,9.245,0,0,1,5.566-.967a8.568,8.568,0,0,1-3.289-3.6A12.239,12.239,0,0,1,1.055-9.961v-1.128A12.621,12.621,0,0,1,2.2-16.626a8.57,8.57,0,0,1,3.281-3.691,9.172,9.172,0,0,1,4.885-1.3,9.131,9.131,0,0,1,4.834,1.289,8.685,8.685,0,0,1,3.3,3.669A12.27,12.27,0,0,1,19.7-11.206Zm-5.229-.894a8.969,8.969,0,0,0-1.062-4.827,3.406,3.406,0,0,0-3.04-1.648A3.383,3.383,0,0,0,7.31-15.967a9.085,9.085,0,0,0-1.04,4.761v.981A9.218,9.218,0,0,0,7.31-5.4,3.4,3.4,0,0,0,10.4-3.721a3.356,3.356,0,0,0,3.01-1.655,9.024,9.024,0,0,0,1.062-4.761ZM36.9,0H22.017V-3.223l6.855-7.207q2.534-2.886,2.534-4.585a3.189,3.189,0,0,0-.6-2.095,2.144,2.144,0,0,0-1.743-.718,2.171,2.171,0,0,0-1.831.959,3.943,3.943,0,0,0-.7,2.4H21.577a7,7,0,0,1,.981-3.625,6.882,6.882,0,0,1,2.725-2.6,8.094,8.094,0,0,1,3.9-.937,7.962,7.962,0,0,1,5.325,1.6,5.7,5.7,0,0,1,1.868,4.585A6.658,6.658,0,0,1,35.9-13a10.76,10.76,0,0,1-1.458,2.5A36.715,36.715,0,0,1,31.26-6.987L28.506-3.809H36.9Z" transform="translate(1080 3971)"/>
    <path id="Trazado_104237" data-name="Trazado 104237" d="M10.5,0,21,23.664H0Z" transform="translate(1046.376 3990) rotate(90)" fill="#ebebeb"/>
    <path id="Polígono_36_-_Contorno" data-name="Polígono 36 - Contorno" d="M10.5,7.4,4.613,20.664H16.387L10.5,7.4m0-7.4L21,23.664H0Z" transform="translate(1046.376 3990) rotate(90)" fill="#ea7596"/>
    <path id="Trazado_104238" data-name="Trazado 104238" d="M13.123,0H1.477V-1.624L7.629-8.459A14.616,14.616,0,0,0,9.515-10.98a4.207,4.207,0,0,0,.519-2.008,3.189,3.189,0,0,0-.842-2.283,2.945,2.945,0,0,0-2.246-.891,3.488,3.488,0,0,0-2.618.958,3.66,3.66,0,0,0-.934,2.667H1.135A5.242,5.242,0,0,1,2.716-16.5a5.86,5.86,0,0,1,4.23-1.514,5.631,5.631,0,0,1,3.918,1.3,4.435,4.435,0,0,1,1.44,3.461q0,2.625-3.345,6.25L4.2-1.843h8.923Zm8.215-7.922a11.021,11.021,0,0,1-4.388-2.13,4.07,4.07,0,0,1-1.373-3.119,4.3,4.3,0,0,1,1.678-3.473,6.671,6.671,0,0,1,4.364-1.373,7.281,7.281,0,0,1,3.265.708,5.369,5.369,0,0,1,2.222,1.953,4.994,4.994,0,0,1,.787,2.722H25.537a3.233,3.233,0,0,0-1.025-2.533,4.179,4.179,0,0,0-2.893-.922,4.275,4.275,0,0,0-2.7.763,2.543,2.543,0,0,0-.97,2.118,2.288,2.288,0,0,0,.922,1.837A9.047,9.047,0,0,0,22-10,14.528,14.528,0,0,1,25.47-8.624a5.261,5.261,0,0,1,1.855,1.752,4.471,4.471,0,0,1,.6,2.356,4.153,4.153,0,0,1-1.685,3.461,7.183,7.183,0,0,1-4.5,1.3,8.354,8.354,0,0,1-3.418-.7A5.752,5.752,0,0,1,15.875-2.38a4.692,4.692,0,0,1-.861-2.771h2.356a3.061,3.061,0,0,0,1.19,2.545,5.011,5.011,0,0,0,3.18.934,4.607,4.607,0,0,0,2.844-.757,2.458,2.458,0,0,0,.989-2.063,2.413,2.413,0,0,0-.916-2.02A10.555,10.555,0,0,0,21.338-7.922Zm17.041-9.851h2.356V-5.188A5.213,5.213,0,0,1,39.2-1.2,5.719,5.719,0,0,1,35.12.244a5.878,5.878,0,0,1-4.126-1.355,4.893,4.893,0,0,1-1.477-3.8H31.86a3.259,3.259,0,0,0,.836,2.38,3.24,3.24,0,0,0,2.423.854,3.143,3.143,0,0,0,2.35-.916,3.547,3.547,0,0,0,.909-2.563ZM51.563,0H49.292V-15.051l-4.553,1.672V-15.43l6.47-2.429h.354ZM67.041-17.786v1.917h-.415a5.946,5.946,0,0,0-4.2,1.563,6.5,6.5,0,0,0-1.807,4.26,4.82,4.82,0,0,1,3.833-1.611,4.609,4.609,0,0,1,3.7,1.636A6.309,6.309,0,0,1,69.543-5.8a6.289,6.289,0,0,1-1.5,4.395A5.149,5.149,0,0,1,64.038.244,5.073,5.073,0,0,1,59.9-1.715a7.765,7.765,0,0,1-1.587-5.048v-.867q0-4.907,2.094-7.5a7.689,7.689,0,0,1,6.232-2.655ZM64.075-9.778a3.6,3.6,0,0,0-2.136.7,3.626,3.626,0,0,0-1.355,1.746v.83a5.83,5.83,0,0,0,.989,3.54,2.963,2.963,0,0,0,2.466,1.343,2.871,2.871,0,0,0,2.4-1.123,4.66,4.66,0,0,0,.873-2.942,4.662,4.662,0,0,0-.885-2.96A2.837,2.837,0,0,0,64.075-9.778ZM83.862,0H72.217V-1.624l6.152-6.836a14.616,14.616,0,0,0,1.886-2.521,4.207,4.207,0,0,0,.519-2.008,3.189,3.189,0,0,0-.842-2.283,2.945,2.945,0,0,0-2.246-.891,3.488,3.488,0,0,0-2.618.958,3.66,3.66,0,0,0-.934,2.667H71.875A5.242,5.242,0,0,1,73.456-16.5a5.86,5.86,0,0,1,4.23-1.514,5.631,5.631,0,0,1,3.918,1.3,4.435,4.435,0,0,1,1.44,3.461q0,2.625-3.345,6.25L74.939-1.843h8.923Z" transform="translate(1078 4004)"/>
  </g>
</svg>
