<svg xmlns="http://www.w3.org/2000/svg" xmlns:xlink="http://www.w3.org/1999/xlink" width="820" height="299" viewBox="0 0 820 299">
  <defs>
    <clipPath id="clip-path">
      <rect id="Rectángulo_34273" data-name="Rectángulo 34273" width="784.251" height="225.053" fill="none"/>
    </clipPath>
  </defs>
  <g id="Grupo_99826" data-name="Grupo 99826" transform="translate(-390 -4565)">
    <g id="Rectángulo_34229" data-name="Rectángulo 34229" transform="translate(390 4565)" fill="#fff" stroke="#707070" stroke-width="1">
      <rect width="820" height="299" stroke="none"/>
      <rect x="0.5" y="0.5" width="819" height="298" fill="none"/>
    </g>
    <g id="Grupo_99825" data-name="Grupo 99825" transform="translate(407.647 4601.855)">
      <rect id="Rectángulo_34230" data-name="Rectángulo 34230" width="19.001" height="76.059" transform="translate(277.94 99.011)" fill="#e9f1dc"/>
      <g id="Grupo_99824" data-name="Grupo 99824">
        <g id="Grupo_99823" data-name="Grupo 99823" clip-path="url(#clip-path)">
          <path id="Trazado_104767" data-name="Trazado 104767" d="M162.463,119.98a23.33,23.33,0,1,1-23.33-23.33,23.331,23.331,0,0,1,23.33,23.33" transform="translate(11.475 9.577)" fill="#b1bddc"/>
          <path id="Trazado_104768" data-name="Trazado 104768" d="M139.182,143.91a23.88,23.88,0,1,1,23.88-23.88,23.907,23.907,0,0,1-23.88,23.88m0-46.661a22.781,22.781,0,1,0,22.781,22.781,22.807,22.807,0,0,0-22.781-22.781" transform="translate(11.425 9.528)" fill="#1d1d1b"/>
          <rect id="Rectángulo_34231" data-name="Rectángulo 34231" width="62.05" height="1.099" transform="translate(140.125 17.951)"/>
          <rect id="Rectángulo_34232" data-name="Rectángulo 34232" width="62.05" height="1.099" transform="translate(139.829 179.516)"/>
          <path id="Trazado_104769" data-name="Trazado 104769" d="M153.318,116.61H138.638v-1.1h13.581V77.621l-9.31-4.452,15.832-7-16.093-5.989,16.16-6.014-15.946-7.786,15.947-6.3-7.147-3.324V17.439h1.1V36.052l8.83,4.107-16.007,6.329,16.008,7.818L145.8,60.183l15.859,5.9-16.12,7.123,7.78,3.722Z" transform="translate(13.738 1.728)"/>
          <path id="Trazado_104770" data-name="Trazado 104770" d="M153.319,168.425h-1.1V118.757l-13.589-.18.015-1.1,14.673.195Z" transform="translate(13.737 11.641)"/>
          <path id="Trazado_104771" data-name="Trazado 104771" d="M154.887,17.129a3.286,3.286,0,1,1-3.285-3.285,3.285,3.285,0,0,1,3.285,3.285" transform="translate(14.697 1.372)"/>
          <path id="Trazado_104772" data-name="Trazado 104772" d="M154.887,26.314a3.286,3.286,0,1,1-3.285-3.285,3.285,3.285,0,0,1,3.285,3.285" transform="translate(14.697 2.282)" fill="#d80000"/>
          <path id="Trazado_104773" data-name="Trazado 104773" d="M151.337,118.274a3.286,3.286,0,1,1-3.285-3.285,3.285,3.285,0,0,1,3.285,3.285" transform="translate(14.345 11.394)"/>
          <path id="Trazado_104774" data-name="Trazado 104774" d="M154.569,164.127a3.286,3.286,0,1,1-3.285-3.285,3.285,3.285,0,0,1,3.285,3.285" transform="translate(14.665 15.938)"/>
          <rect id="Rectángulo_34233" data-name="Rectángulo 34233" width="25.63" height="1.099" transform="translate(167.903 93.606)" fill="#6b6b6b"/>
          <path id="Trazado_104775" data-name="Trazado 104775" d="M184.811,86.16a5.459,5.459,0,1,1-5.459-5.459,5.459,5.459,0,0,1,5.459,5.459" transform="translate(17.231 7.997)" fill="#6c6c6c"/>
          <path id="Trazado_104776" data-name="Trazado 104776" d="M179.4,92.22a6.009,6.009,0,1,1,6.009-6.009A6.016,6.016,0,0,1,179.4,92.22m0-10.919a4.91,4.91,0,1,0,4.91,4.911A4.916,4.916,0,0,0,179.4,81.3" transform="translate(17.182 7.947)" fill="#1d1d1b"/>
          <path id="Trazado_104777" data-name="Trazado 104777" d="M32.47,128.713a5.459,5.459,0,1,1-5.459-5.459,5.459,5.459,0,0,1,5.459,5.459" transform="translate(2.136 12.213)" fill="#6c6c6c"/>
          <path id="Trazado_104778" data-name="Trazado 104778" d="M27.061,134.771a6.009,6.009,0,1,1,6.009-6.009,6.016,6.016,0,0,1-6.009,6.009m0-10.918a4.91,4.91,0,1,0,4.91,4.91,4.915,4.915,0,0,0-4.91-4.91" transform="translate(2.086 12.164)" fill="#1d1d1b"/>
          <path id="Trazado_104779" data-name="Trazado 104779" d="M93.29,139.736l-6.346-16.307-6.7,16.259L73.3,124.1,66.144,139.72l-.466-1.232c-.051-.135-4.547-12.03-5.842-15.418-.663,1.368-1.854,4.505-2.852,7.392l-.129.369H31.487v-1.1H56.073c2.888-8.308,3.448-8.321,3.858-8.331l.381-.009.217.421c.314.783,4.319,11.371,5.712,15.055l7.067-15.438L80.2,136.9l6.769-16.426,6.375,16.378,3.166-7.278h49.2V107.426h1.1v23.246H97.234Z" transform="translate(3.12 10.645)"/>
          <rect id="Rectángulo_34234" data-name="Rectángulo 34234" width="1.099" height="7.671" transform="translate(151.826 113.954)"/>
          <rect id="Rectángulo_34235" data-name="Rectángulo 34235" width="1.099" height="7.671" transform="translate(151.826 125.833)"/>
          <rect id="Rectángulo_34236" data-name="Rectángulo 34236" width="1.099" height="7.671" transform="translate(151.826 136.881)"/>
          <rect id="Rectángulo_34237" data-name="Rectángulo 34237" width="13.472" height="1.099" transform="translate(152.376 140.167)"/>
          <path id="Trazado_104780" data-name="Trazado 104780" d="M44.438,134.9l-.1-109.384h114.28v1.1H45.439l.1,108.285Z" transform="translate(4.394 2.529)" fill="#d80000"/>
          <rect id="Rectángulo_34238" data-name="Rectángulo 34238" width="62.05" height="1.099" transform="translate(261.807 18.284)"/>
          <rect id="Rectángulo_34239" data-name="Rectángulo 34239" width="62.05" height="1.099" transform="translate(261.51 179.849)"/>
          <path id="Trazado_104781" data-name="Trazado 104781" d="M263.111,176.264h-1.1V130.93l-6.643-3.05,11.157-4.045-10.319-5.09,9.889-4.318-10.539-5.481,11.562-3.9-4.758-2.609V98.191l.2-20.269-9.306-4.45,15.832-7L253,60.486l16.16-6.014-15.944-7.786,15.946-6.3-7.146-3.324V17.742h1.1V36.355l8.83,4.107-16.007,6.329,16.008,7.818-15.793,5.877,15.859,5.9-16.12,7.123,7.784,3.723-.212,24.554,6.384,3.5-11.489,3.875,10.29,5.35-9.83,4.293,10.511,5.183L258.262,128l4.848,2.226Z" transform="translate(25.07 1.758)"/>
          <path id="Trazado_104782" data-name="Trazado 104782" d="M265.6,17.432a3.286,3.286,0,1,1-3.285-3.285,3.285,3.285,0,0,1,3.285,3.285" transform="translate(25.667 1.402)"/>
          <path id="Trazado_104783" data-name="Trazado 104783" d="M265.28,164.43A3.286,3.286,0,1,1,262,161.145a3.285,3.285,0,0,1,3.285,3.285" transform="translate(25.636 15.968)"/>
          <rect id="Rectángulo_34240" data-name="Rectángulo 34240" width="25.63" height="1.099" transform="translate(289.584 93.939)" fill="#6b6b6b"/>
          <path id="Trazado_104784" data-name="Trazado 104784" d="M295.522,86.463A5.46,5.46,0,1,1,290.062,81a5.46,5.46,0,0,1,5.46,5.459" transform="translate(28.202 8.027)" fill="#6c6c6c"/>
          <path id="Trazado_104785" data-name="Trazado 104785" d="M290.113,92.521a6.009,6.009,0,1,1,6.009-6.009,6.016,6.016,0,0,1-6.009,6.009m0-10.918a4.91,4.91,0,1,0,4.91,4.91,4.915,4.915,0,0,0-4.91-4.91" transform="translate(28.152 7.977)" fill="#1d1d1b"/>
          <path id="Trazado_104786" data-name="Trazado 104786" d="M154.887,85.963a3.286,3.286,0,1,1-3.285-3.285,3.285,3.285,0,0,1,3.285,3.285" transform="translate(14.697 8.193)"/>
          <path id="Trazado_104787" data-name="Trazado 104787" d="M265.6,86.266a3.286,3.286,0,1,1-3.285-3.285,3.285,3.285,0,0,1,3.285,3.285" transform="translate(25.667 8.223)"/>
          <path id="Trazado_104788" data-name="Trazado 104788" d="M265.28,127.239A3.286,3.286,0,1,1,262,123.954a3.285,3.285,0,0,1,3.285,3.285" transform="translate(25.636 12.283)" fill="#d80000"/>
          <path id="Trazado_104789" data-name="Trazado 104789" d="M265.28,150.454A3.286,3.286,0,1,1,262,147.169a3.285,3.285,0,0,1,3.285,3.285" transform="translate(25.636 14.583)" fill="#d80000"/>
          <rect id="Rectángulo_34241" data-name="Rectángulo 34241" width="1.099" height="21.208" transform="translate(287.082 142.064)" fill="#d80000"/>
          <rect id="Rectángulo_34242" data-name="Rectángulo 34242" width="1.099" height="11.046" transform="translate(276.803 99.011)" fill="#6b6b6b"/>
          <rect id="Rectángulo_34243" data-name="Rectángulo 34243" width="1.099" height="11.047" transform="translate(276.803 115.019)" fill="#6b6b6b"/>
          <rect id="Rectángulo_34244" data-name="Rectángulo 34244" width="1.099" height="11.047" transform="translate(276.803 131.029)" fill="#6b6b6b"/>
          <rect id="Rectángulo_34245" data-name="Rectángulo 34245" width="1.099" height="11.047" transform="translate(276.803 147.039)" fill="#6b6b6b"/>
          <rect id="Rectángulo_34246" data-name="Rectángulo 34246" width="1.099" height="11.047" transform="translate(276.803 163.049)" fill="#6b6b6b"/>
          <rect id="Rectángulo_34247" data-name="Rectángulo 34247" width="1.099" height="11.046" transform="translate(297.003 99.011)" fill="#6b6b6b"/>
          <rect id="Rectángulo_34248" data-name="Rectángulo 34248" width="1.099" height="11.047" transform="translate(297.003 115.019)" fill="#6b6b6b"/>
          <rect id="Rectángulo_34249" data-name="Rectángulo 34249" width="1.099" height="11.047" transform="translate(297.003 131.029)" fill="#6b6b6b"/>
          <rect id="Rectángulo_34250" data-name="Rectángulo 34250" width="1.099" height="11.047" transform="translate(297.003 147.039)" fill="#6b6b6b"/>
          <rect id="Rectángulo_34251" data-name="Rectángulo 34251" width="1.099" height="11.047" transform="translate(297.003 163.049)" fill="#6b6b6b"/>
          <rect id="Rectángulo_34252" data-name="Rectángulo 34252" width="11.09" height="1.099" transform="translate(281.666 174.396)" fill="#6b6b6b"/>
          <rect id="Rectángulo_34253" data-name="Rectángulo 34253" width="10.14" height="1.099" transform="translate(282.616 98.461)" fill="#6b6b6b"/>
          <rect id="Rectángulo_34254" data-name="Rectángulo 34254" width="16.361" height="1.099" transform="translate(249.043 90.654)" fill="#7994c3"/>
          <rect id="Rectángulo_34255" data-name="Rectángulo 34255" width="16.361" height="1.099" transform="translate(249.043 96.118)" fill="#7994c3"/>
          <rect id="Rectángulo_34256" data-name="Rectángulo 34256" width="16.361" height="1.099" transform="translate(249.043 101.582)" fill="#7994c3"/>
          <path id="Trazado_104790" data-name="Trazado 104790" d="M48.51,128.325a3.286,3.286,0,1,1-3.285-3.285,3.285,3.285,0,0,1,3.285,3.285" transform="translate(4.156 12.39)" fill="#d80000"/>
          <path id="Trazado_104791" data-name="Trazado 104791" d="M5.349,130.456l3.572-10.313h1.8l-4.637,12.5H4.628L0,120.144H1.8Z" transform="translate(0 11.905)"/>
          <path id="Trazado_104792" data-name="Trazado 104792" d="M10.649,124.886a.592.592,0,0,1,.148-.408.553.553,0,0,1,.437-.166.562.562,0,0,1,.44.166.588.588,0,0,1,.151.408.565.565,0,0,1-.151.4.572.572,0,0,1-.44.162.562.562,0,0,1-.437-.162.568.568,0,0,1-.148-.4m1.074,7.347H10.73v-5.806h.992Z" transform="translate(1.055 12.318)"/>
          <path id="Trazado_104793" data-name="Trazado 104793" d="M14.011,126.246l.032.73a2.116,2.116,0,0,1,1.739-.838q1.842,0,1.857,2.077v3.837h-.994V128.21a1.335,1.335,0,0,0-.287-.929,1.152,1.152,0,0,0-.877-.3,1.438,1.438,0,0,0-.848.257,1.752,1.752,0,0,0-.568.677v4.137h-.992v-5.806Z" transform="translate(1.295 12.499)"/>
          <path id="Trazado_104794" data-name="Trazado 104794" d="M161.289,10.312,164.861,0h1.8l-4.637,12.5h-1.46L155.94,0h1.795Z" transform="translate(15.452 0)"/>
          <path id="Trazado_104795" data-name="Trazado 104795" d="M169.366,12.22V2.844h2.647a4.263,4.263,0,0,1,2.164.541,3.654,3.654,0,0,1,1.452,1.54,5,5,0,0,1,.519,2.293v.6a5.024,5.024,0,0,1-.512,2.325,3.6,3.6,0,0,1-1.462,1.532,4.525,4.525,0,0,1-2.212.547ZM170.6,3.855v7.354h1.3a2.827,2.827,0,0,0,2.225-.889,3.677,3.677,0,0,0,.8-2.533V7.239a3.733,3.733,0,0,0-.751-2.485,2.67,2.67,0,0,0-2.129-.9Z" transform="translate(16.783 0.282)"/>
          <path id="Trazado_104796" data-name="Trazado 104796" d="M177.235,12.22V2.844h2.647a4.263,4.263,0,0,1,2.164.541,3.654,3.654,0,0,1,1.452,1.54,5,5,0,0,1,.519,2.293v.6a5.024,5.024,0,0,1-.512,2.325,3.6,3.6,0,0,1-1.462,1.532,4.525,4.525,0,0,1-2.212.547Zm1.236-8.365v7.354h1.3A2.827,2.827,0,0,0,182,10.32a3.677,3.677,0,0,0,.8-2.533V7.239a3.733,3.733,0,0,0-.751-2.485,2.67,2.67,0,0,0-2.129-.9Z" transform="translate(17.562 0.282)"/>
          <path id="Trazado_104797" data-name="Trazado 104797" d="M194.6,87.594l3.572-10.313h1.8l-4.637,12.5h-1.46l-4.628-12.5h1.795Z" transform="translate(18.753 7.658)"/>
          <path id="Trazado_104798" data-name="Trazado 104798" d="M202.128,86.234a3.422,3.422,0,0,1,.335-1.535,2.505,2.505,0,0,1,.934-1.052,2.534,2.534,0,0,1,1.365-.37,2.45,2.45,0,0,1,1.919.821,3.16,3.16,0,0,1,.732,2.185v.069a3.457,3.457,0,0,1-.324,1.521,2.473,2.473,0,0,1-.929,1.05,2.579,2.579,0,0,1-1.387.376,2.445,2.445,0,0,1-1.914-.821,3.146,3.146,0,0,1-.732-2.174Zm1,.118a2.483,2.483,0,0,0,.448,1.551,1.518,1.518,0,0,0,2.4-.009,2.714,2.714,0,0,0,.445-1.66,2.486,2.486,0,0,0-.454-1.55,1.441,1.441,0,0,0-1.2-.592,1.424,1.424,0,0,0-1.186.586,2.7,2.7,0,0,0-.451,1.674" transform="translate(20.029 8.252)"/>
          <path id="Trazado_104799" data-name="Trazado 104799" d="M211.656,88.606a2.112,2.112,0,0,1-1.7.681,1.8,1.8,0,0,1-1.413-.54,2.331,2.331,0,0,1-.491-1.6V83.373h.992v3.751q0,1.321,1.074,1.321a1.487,1.487,0,0,0,1.513-.848V83.373h.992v5.806h-.944Z" transform="translate(20.616 8.262)"/>
          <path id="Trazado_104800" data-name="Trazado 104800" d="M214.993,82.094V83.5h1.084v.768h-1.084v3.605a.8.8,0,0,0,.145.523.607.607,0,0,0,.493.176,2.417,2.417,0,0,0,.473-.065v.8a2.844,2.844,0,0,1-.763.108,1.237,1.237,0,0,1-1-.4A1.73,1.73,0,0,1,214,87.869v-3.6h-1.057V83.5H214V82.094Z" transform="translate(21.101 8.135)"/>
          <path id="Trazado_104801" data-name="Trazado 104801" d="M195.438,156.956a7.262,7.262,0,0,1-.953,4.147,3.961,3.961,0,0,1-5.942.03,6.879,6.879,0,0,1-1-3.962v-2.121a7.1,7.1,0,0,1,.953-4.1,4.031,4.031,0,0,1,5.959-.047,6.853,6.853,0,0,1,.978,3.989Zm-1.588-2.173a5.821,5.821,0,0,0-.567-2.941,1.951,1.951,0,0,0-1.794-.923,1.929,1.929,0,0,0-1.778.919,5.689,5.689,0,0,0-.575,2.826V157.2a5.911,5.911,0,0,0,.588,2.993,1.947,1.947,0,0,0,1.782.966,1.921,1.921,0,0,0,1.748-.91,5.71,5.71,0,0,0,.6-2.869Z" transform="translate(18.584 14.825)"/>
          <path id="Trazado_104802" data-name="Trazado 104802" d="M201.589,160.481l2.232-6.445h1.128l-2.9,7.813h-.912l-2.893-7.813h1.122Z" transform="translate(19.644 15.264)"/>
          <path id="Trazado_104803" data-name="Trazado 104803" d="M306.011,87.9l3.572-10.313h1.8l-4.637,12.5h-1.46l-4.628-12.5h1.795Z" transform="translate(29.793 7.688)"/>
          <path id="Trazado_104804" data-name="Trazado 104804" d="M313.543,86.536A3.421,3.421,0,0,1,313.878,85a2.505,2.505,0,0,1,.934-1.052,2.534,2.534,0,0,1,1.365-.37,2.45,2.45,0,0,1,1.919.821,3.16,3.16,0,0,1,.732,2.185v.069a3.457,3.457,0,0,1-.324,1.521,2.474,2.474,0,0,1-.929,1.05,2.579,2.579,0,0,1-1.387.376,2.445,2.445,0,0,1-1.914-.821,3.146,3.146,0,0,1-.732-2.174Zm1,.118a2.483,2.483,0,0,0,.448,1.551,1.518,1.518,0,0,0,2.4-.009,2.714,2.714,0,0,0,.445-1.66,2.486,2.486,0,0,0-.454-1.55,1.441,1.441,0,0,0-1.2-.592,1.424,1.424,0,0,0-1.186.586,2.7,2.7,0,0,0-.451,1.674" transform="translate(31.069 8.282)"/>
          <path id="Trazado_104805" data-name="Trazado 104805" d="M323.072,88.909a2.112,2.112,0,0,1-1.7.681,1.8,1.8,0,0,1-1.413-.54,2.331,2.331,0,0,1-.491-1.6V83.676h.992v3.751q0,1.321,1.074,1.321a1.487,1.487,0,0,0,1.513-.849V83.676h.992v5.806h-.944Z" transform="translate(31.656 8.292)"/>
          <path id="Trazado_104806" data-name="Trazado 104806" d="M326.408,82.4V83.8h1.084v.768h-1.084v3.605a.8.8,0,0,0,.145.523.607.607,0,0,0,.493.176,2.417,2.417,0,0,0,.473-.065v.8a2.844,2.844,0,0,1-.763.108,1.237,1.237,0,0,1-1-.4,1.729,1.729,0,0,1-.337-1.143v-3.6h-1.057V83.8h1.057V82.4Z" transform="translate(32.141 8.165)"/>
          <path id="Trazado_104807" data-name="Trazado 104807" d="M273.342,10.312,276.914,0h1.8l-4.637,12.5h-1.46L267.993,0h1.795Z" transform="translate(26.556 0)"/>
          <path id="Trazado_104808" data-name="Trazado 104808" d="M281.419,12.22V2.844h2.647a4.263,4.263,0,0,1,2.164.541,3.654,3.654,0,0,1,1.452,1.54,5,5,0,0,1,.519,2.293v.6a5.024,5.024,0,0,1-.512,2.325,3.6,3.6,0,0,1-1.462,1.532,4.525,4.525,0,0,1-2.212.547Zm1.236-8.365v7.354h1.3a2.827,2.827,0,0,0,2.225-.889,3.677,3.677,0,0,0,.8-2.533V7.239a3.733,3.733,0,0,0-.751-2.485,2.67,2.67,0,0,0-2.129-.9Z" transform="translate(27.886 0.282)"/>
          <path id="Trazado_104809" data-name="Trazado 104809" d="M289.289,12.22V2.844h2.647a4.263,4.263,0,0,1,2.164.541,3.654,3.654,0,0,1,1.452,1.54,5,5,0,0,1,.519,2.293v.6a5.024,5.024,0,0,1-.512,2.325,3.6,3.6,0,0,1-1.462,1.532,4.525,4.525,0,0,1-2.212.547Zm1.236-8.365v7.354h1.3a2.827,2.827,0,0,0,2.225-.889,3.677,3.677,0,0,0,.8-2.533V7.239a3.733,3.733,0,0,0-.751-2.485,2.67,2.67,0,0,0-2.129-.9Z" transform="translate(28.666 0.282)"/>
          <path id="Trazado_104810" data-name="Trazado 104810" d="M66.937,111.059H64v5.057H62.343v-12.5h4.139a4.9,4.9,0,0,1,3.25.962,3.462,3.462,0,0,1,1.138,2.8,3.365,3.365,0,0,1-.631,2.037,3.767,3.767,0,0,1-1.756,1.3l2.937,5.306v.1H69.651ZM64,109.71h2.533a2.852,2.852,0,0,0,1.953-.635,2.152,2.152,0,0,0,.725-1.7,2.269,2.269,0,0,0-.691-1.781,2.94,2.94,0,0,0-2-.629H64Z" transform="translate(6.178 10.267)"/>
          <path id="Trazado_104811" data-name="Trazado 104811" d="M75.531,108.356a.592.592,0,0,1,.148-.408.552.552,0,0,1,.436-.166.563.563,0,0,1,.441.166.588.588,0,0,1,.151.408.538.538,0,0,1-.591.564.561.561,0,0,1-.436-.162.57.57,0,0,1-.148-.4M76.6,115.7h-.992V109.9H76.6Z" transform="translate(7.484 10.68)"/>
          <path id="Trazado_104812" data-name="Trazado 104812" d="M78.893,109.715l.032.73a2.116,2.116,0,0,1,1.739-.838q1.842,0,1.857,2.077v3.837h-.994v-3.842a1.337,1.337,0,0,0-.287-.929,1.156,1.156,0,0,0-.877-.3,1.438,1.438,0,0,0-.849.257,1.752,1.752,0,0,0-.568.677v4.137h-.992v-5.806Z" transform="translate(7.725 10.861)"/>
          <path id="Trazado_104813" data-name="Trazado 104813" d="M110.284,120.47a3.808,3.808,0,0,1-1.773,1.361,7.155,7.155,0,0,1-2.649.451,5.135,5.135,0,0,1-2.714-.717,4.773,4.773,0,0,1-1.833-2.039,7.041,7.041,0,0,1-.666-3.065v-1.091a6.571,6.571,0,0,1,1.319-4.379,4.593,4.593,0,0,1,3.705-1.554,4.749,4.749,0,0,1,3.151,1,4.362,4.362,0,0,1,1.46,2.838h-1.649a2.726,2.726,0,0,0-2.953-2.491,2.92,2.92,0,0,0-2.513,1.165,5.685,5.685,0,0,0-.863,3.372v1.023a5.332,5.332,0,0,0,.962,3.348,3.117,3.117,0,0,0,2.6,1.242,5.734,5.734,0,0,0,1.623-.207,2.517,2.517,0,0,0,1.151-.692v-2.8H105.75v-1.349h4.534Z" transform="translate(9.973 10.844)" fill="#7994c3"/>
          <path id="Trazado_104814" data-name="Trazado 104814" d="M163.329,138.857a7.74,7.74,0,0,1-3.087-1.5,2.862,2.862,0,0,1-.966-2.194,3.023,3.023,0,0,1,1.182-2.443,4.691,4.691,0,0,1,3.07-.966,5.128,5.128,0,0,1,2.3.5,3.79,3.79,0,0,1,1.562,1.374,3.512,3.512,0,0,1,.554,1.915h-1.656a2.287,2.287,0,0,0-.722-1.788,2.933,2.933,0,0,0-2.034-.65,3,3,0,0,0-1.9.537,1.794,1.794,0,0,0-.683,1.493,1.612,1.612,0,0,0,.648,1.295,6.368,6.368,0,0,0,2.207.967,10.278,10.278,0,0,1,2.439.967,3.706,3.706,0,0,1,1.3,1.232,3.146,3.146,0,0,1,.425,1.657,2.924,2.924,0,0,1-1.185,2.434,5.058,5.058,0,0,1-3.169.914,5.871,5.871,0,0,1-2.4-.495,4.029,4.029,0,0,1-1.721-1.352,3.3,3.3,0,0,1-.606-1.95h1.657a2.152,2.152,0,0,0,.837,1.79,3.519,3.519,0,0,0,2.237.657,3.241,3.241,0,0,0,2-.532,1.73,1.73,0,0,0,.7-1.452,1.7,1.7,0,0,0-.644-1.421,7.452,7.452,0,0,0-2.336-.991" transform="translate(15.744 13.056)" fill="#7994c3"/>
          <path id="Trazado_104815" data-name="Trazado 104815" d="M285.312,129.215a7.741,7.741,0,0,1-3.087-1.5,2.862,2.862,0,0,1-.966-2.194,3.023,3.023,0,0,1,1.182-2.443,4.691,4.691,0,0,1,3.07-.966,5.128,5.128,0,0,1,2.3.5,3.79,3.79,0,0,1,1.562,1.374,3.512,3.512,0,0,1,.554,1.915h-1.656a2.287,2.287,0,0,0-.722-1.788,2.933,2.933,0,0,0-2.034-.65,3,3,0,0,0-1.9.537,1.794,1.794,0,0,0-.683,1.493,1.612,1.612,0,0,0,.648,1.295,6.367,6.367,0,0,0,2.207.967,10.276,10.276,0,0,1,2.439.967,3.706,3.706,0,0,1,1.3,1.232,3.147,3.147,0,0,1,.425,1.657,2.924,2.924,0,0,1-1.185,2.434,5.058,5.058,0,0,1-3.169.914,5.871,5.871,0,0,1-2.4-.495,4.03,4.03,0,0,1-1.721-1.352,3.3,3.3,0,0,1-.606-1.95h1.657a2.152,2.152,0,0,0,.837,1.79,3.519,3.519,0,0,0,2.237.657,3.241,3.241,0,0,0,2-.532,1.73,1.73,0,0,0,.7-1.452,1.7,1.7,0,0,0-.644-1.421,7.454,7.454,0,0,0-2.336-.991" transform="translate(27.831 12.1)"/>
          <path id="Trazado_104816" data-name="Trazado 104816" d="M299.126,132.293l1.786-7.1H302.5l-2.7,9.291h-1.287l-2.259-7.041-2.2,7.041h-1.288l-2.7-9.291h1.579l1.829,6.955,2.164-6.955h1.279Z" transform="translate(28.743 12.405)"/>
          <path id="Trazado_104817" data-name="Trazado 104817" d="M302.856,123.033a.945.945,0,0,1,.236-.653.887.887,0,0,1,.7-.266.9.9,0,0,1,.7.266.938.938,0,0,1,.241.653.94.94,0,1,1-1.881,0m1.717,11.755h-1.588V125.5h1.588Z" transform="translate(30.01 12.1)"/>
          <path id="Trazado_104818" data-name="Trazado 104818" d="M308.988,123.145v2.25h1.734v1.228h-1.734v5.769a1.289,1.289,0,0,0,.232.839.978.978,0,0,0,.79.279,3.9,3.9,0,0,0,.755-.1v1.28a4.654,4.654,0,0,1-1.219.17,1.977,1.977,0,0,1-1.606-.644,2.765,2.765,0,0,1-.541-1.829v-5.761h-1.692v-1.228H307.4v-2.25Z" transform="translate(30.293 12.203)"/>
          <path id="Trazado_104819" data-name="Trazado 104819" d="M315.721,133.373a2.287,2.287,0,0,0,1.486-.515,1.813,1.813,0,0,0,.7-1.288h1.5a2.871,2.871,0,0,1-.549,1.52,3.607,3.607,0,0,1-1.352,1.151,3.9,3.9,0,0,1-1.79.43A3.825,3.825,0,0,1,312.7,133.4a5.038,5.038,0,0,1-1.121-3.464v-.266a5.594,5.594,0,0,1,.5-2.413,3.8,3.8,0,0,1,1.43-1.641,4.072,4.072,0,0,1,2.2-.584,3.723,3.723,0,0,1,2.6.936,3.344,3.344,0,0,1,1.1,2.43h-1.5a2.192,2.192,0,0,0-.683-1.482,2.121,2.121,0,0,0-1.516-.579,2.222,2.222,0,0,0-1.876.872,4.09,4.09,0,0,0-.665,2.519v.3a4.007,4.007,0,0,0,.661,2.473,2.234,2.234,0,0,0,1.889.867" transform="translate(30.875 12.39)"/>
          <path id="Trazado_104820" data-name="Trazado 104820" d="M321.921,126.668a3.38,3.38,0,0,1,2.748-1.3q2.944,0,2.971,3.324v6.14h-1.588v-6.148a2.148,2.148,0,0,0-.459-1.486,1.844,1.844,0,0,0-1.4-.48,2.294,2.294,0,0,0-1.357.412,2.8,2.8,0,0,0-.91,1.082v6.621h-1.588V121.645h1.588Z" transform="translate(31.742 12.054)"/>
          <path id="Trazado_104821" data-name="Trazado 104821" d="M281.833,141l.91.618a4.057,4.057,0,0,0-.824,2.353v1.168h-1.579v-1a3.934,3.934,0,0,1,.417-1.734A4.153,4.153,0,0,1,281.833,141m2.7,0,.91.618a4.057,4.057,0,0,0-.824,2.353v1.168h-1.579v-1a3.934,3.934,0,0,1,.417-1.734A4.153,4.153,0,0,1,284.538,141" transform="translate(27.779 13.972)"/>
          <path id="Trazado_104822" data-name="Trazado 104822" d="M289.579,152.875a2.287,2.287,0,0,0,1.486-.515,1.813,1.813,0,0,0,.7-1.288h1.5a2.871,2.871,0,0,1-.55,1.52,3.617,3.617,0,0,1-1.352,1.151,3.909,3.909,0,0,1-1.79.43,3.825,3.825,0,0,1-3.018-1.267,5.042,5.042,0,0,1-1.121-3.464v-.266a5.591,5.591,0,0,1,.5-2.412,3.8,3.8,0,0,1,1.43-1.641,4.062,4.062,0,0,1,2.2-.584,3.723,3.723,0,0,1,2.6.936,3.342,3.342,0,0,1,1.1,2.43h-1.5a2.192,2.192,0,0,0-.683-1.482,2.12,2.12,0,0,0-1.516-.579,2.222,2.222,0,0,0-1.876.872,4.088,4.088,0,0,0-.665,2.519v.3a4.012,4.012,0,0,0,.661,2.473,2.234,2.234,0,0,0,1.889.867" transform="translate(28.285 14.322)"/>
          <rect id="Rectángulo_34257" data-name="Rectángulo 34257" width="1.588" height="13.189" transform="translate(323.48 155.133)"/>
          <path id="Trazado_104823" data-name="Trazado 104823" d="M297.691,149.269a5.478,5.478,0,0,1,.536-2.455,4,4,0,0,1,1.495-1.684,4.067,4.067,0,0,1,2.185-.592,3.918,3.918,0,0,1,3.07,1.315,5.052,5.052,0,0,1,1.172,3.494v.112a5.551,5.551,0,0,1-.519,2.434,3.951,3.951,0,0,1-1.486,1.678,4.12,4.12,0,0,1-2.22.6,3.907,3.907,0,0,1-3.061-1.313,5.029,5.029,0,0,1-1.172-3.478Zm1.6.189a3.976,3.976,0,0,0,.717,2.482,2.43,2.43,0,0,0,3.842-.013,4.341,4.341,0,0,0,.713-2.658,3.968,3.968,0,0,0-.725-2.477,2.31,2.31,0,0,0-1.928-.949,2.283,2.283,0,0,0-1.9.935,4.319,4.319,0,0,0-.721,2.68" transform="translate(29.499 14.322)"/>
          <path id="Trazado_104824" data-name="Trazado 104824" d="M312.643,151.536a1.169,1.169,0,0,0-.485-1,4.7,4.7,0,0,0-1.691-.614,7.985,7.985,0,0,1-1.916-.618,2.736,2.736,0,0,1-1.047-.859,2.047,2.047,0,0,1-.339-1.185,2.409,2.409,0,0,1,.966-1.931,3.764,3.764,0,0,1,2.469-.79,3.883,3.883,0,0,1,2.563.816,2.592,2.592,0,0,1,.983,2.086h-1.6a1.434,1.434,0,0,0-.554-1.124,2.077,2.077,0,0,0-1.395-.473,2.173,2.173,0,0,0-1.357.378,1.189,1.189,0,0,0-.489.987.965.965,0,0,0,.455.868,5.616,5.616,0,0,0,1.644.557,8.662,8.662,0,0,1,1.928.635,2.812,2.812,0,0,1,1.095.889,2.187,2.187,0,0,1,.356,1.266,2.38,2.38,0,0,1-1,2,4.175,4.175,0,0,1-2.584.751,4.683,4.683,0,0,1-1.975-.395,3.2,3.2,0,0,1-1.344-1.1,2.66,2.66,0,0,1-.485-1.532h1.588a1.645,1.645,0,0,0,.64,1.266,2.482,2.482,0,0,0,1.576.468,2.566,2.566,0,0,0,1.446-.365,1.124,1.124,0,0,0,.545-.975" transform="translate(30.406 14.322)"/>
          <path id="Trazado_104825" data-name="Trazado 104825" d="M319.34,154.172a4.058,4.058,0,0,1-3.074-1.241,4.6,4.6,0,0,1-1.185-3.318v-.292a5.578,5.578,0,0,1,.528-2.469,4.111,4.111,0,0,1,1.477-1.7,3.714,3.714,0,0,1,2.056-.613,3.484,3.484,0,0,1,2.817,1.193,5.172,5.172,0,0,1,1,3.418v.661h-6.294a3.306,3.306,0,0,0,.8,2.22,2.524,2.524,0,0,0,1.954.845,2.774,2.774,0,0,0,1.426-.343,3.562,3.562,0,0,0,1.021-.91l.97.755a3.9,3.9,0,0,1-3.5,1.795m-.2-8.329a2.119,2.119,0,0,0-1.615.7,3.4,3.4,0,0,0-.807,1.962h4.654v-.12a3.025,3.025,0,0,0-.653-1.877,2,2,0,0,0-1.579-.665" transform="translate(31.222 14.322)"/>
          <path id="Trazado_104826" data-name="Trazado 104826" d="M323.574,149.613a5.44,5.44,0,0,1,1.013-3.439,3.446,3.446,0,0,1,5.237-.185v-4.843h1.588v13.189h-1.46l-.077-1a3.236,3.236,0,0,1-2.653,1.167,3.176,3.176,0,0,1-2.632-1.322,5.506,5.506,0,0,1-1.017-3.452Zm1.588.18a4.121,4.121,0,0,0,.653,2.473,2.107,2.107,0,0,0,1.8.894,2.318,2.318,0,0,0,2.207-1.357v-4.268a2.334,2.334,0,0,0-2.189-1.313,2.118,2.118,0,0,0-1.82.9,4.537,4.537,0,0,0-.653,2.671" transform="translate(32.063 13.986)"/>
          <path id="Trazado_104827" data-name="Trazado 104827" d="M333.225,145.354l-.9-.618a4.125,4.125,0,0,0,.824-2.353v-1.236h1.572v1.116a4.248,4.248,0,0,1-1.494,3.092m2.636,0-.9-.618a4.14,4.14,0,0,0,.824-2.353v-1.236h1.571v1.116a4.237,4.237,0,0,1-1.494,3.092" transform="translate(32.93 13.986)"/>
          <path id="Trazado_104828" data-name="Trazado 104828" d="M158.577,104.807v-12.5h3.529a5.679,5.679,0,0,1,2.885.722,4.873,4.873,0,0,1,1.937,2.052,6.689,6.689,0,0,1,.691,3.057v.8a6.691,6.691,0,0,1-.684,3.1,4.8,4.8,0,0,1-1.949,2.043,6.033,6.033,0,0,1-2.95.73Zm1.649-11.154v9.806h1.734a3.771,3.771,0,0,0,2.966-1.186,4.9,4.9,0,0,0,1.061-3.378v-.732a4.982,4.982,0,0,0-1-3.312,3.562,3.562,0,0,0-2.838-1.2Z" transform="translate(15.714 9.147)" fill="#7994c3"/>
          <path id="Trazado_104829" data-name="Trazado 104829" d="M173.226,50.831h-2.937v5.057h-1.657v-12.5h4.139a4.9,4.9,0,0,1,3.25.962,3.461,3.461,0,0,1,1.138,2.8,3.368,3.368,0,0,1-.631,2.036,3.767,3.767,0,0,1-1.756,1.3l2.937,5.306v.1H175.94Zm-2.937-1.349h2.533a2.858,2.858,0,0,0,1.953-.636,2.155,2.155,0,0,0,.725-1.7,2.269,2.269,0,0,0-.691-1.781,2.923,2.923,0,0,0-2-.628h-2.525Z" transform="translate(16.71 4.299)"/>
          <path id="Trazado_104830" data-name="Trazado 104830" d="M181.1,57.125h4.814V58.22h-6.16V48.062H181.1Z" transform="translate(17.812 4.763)"/>
          <path id="Trazado_104831" data-name="Trazado 104831" d="M284.831,107.778h-2.937v5.057h-1.657v-12.5h4.139a4.9,4.9,0,0,1,3.25.962,3.462,3.462,0,0,1,1.138,2.8,3.364,3.364,0,0,1-.631,2.036,3.767,3.767,0,0,1-1.756,1.3l2.937,5.306v.1h-1.768Zm-2.937-1.349h2.533a2.852,2.852,0,0,0,1.953-.636,2.152,2.152,0,0,0,.725-1.7,2.269,2.269,0,0,0-.691-1.781,2.935,2.935,0,0,0-2-.628h-2.525Z" transform="translate(27.769 9.942)"/>
          <path id="Trazado_104832" data-name="Trazado 104832" d="M291.355,115.167V105.009h2.867a4.622,4.622,0,0,1,2.344.586,3.967,3.967,0,0,1,1.574,1.668,5.425,5.425,0,0,1,.561,2.483v.648a5.44,5.44,0,0,1-.555,2.519,3.9,3.9,0,0,1-1.583,1.661,4.907,4.907,0,0,1-2.4.592Zm1.34-9.062v7.967H294.1a3.063,3.063,0,0,0,2.41-.964,3.979,3.979,0,0,0,.862-2.744v-.594a4.046,4.046,0,0,0-.812-2.692,2.891,2.891,0,0,0-2.306-.974Z" transform="translate(28.871 10.405)"/>
          <path id="Trazado_104833" data-name="Trazado 104833" d="M302.929,110.652a6.308,6.308,0,0,1-2.508-1.218,2.326,2.326,0,0,1-.785-1.782,2.457,2.457,0,0,1,.96-1.986,3.81,3.81,0,0,1,2.494-.785,4.167,4.167,0,0,1,1.866.4,3.065,3.065,0,0,1,1.269,1.117,2.852,2.852,0,0,1,.451,1.556h-1.346a1.856,1.856,0,0,0-.587-1.453,2.38,2.38,0,0,0-1.653-.529,2.432,2.432,0,0,0-1.545.437,1.453,1.453,0,0,0-.555,1.211,1.312,1.312,0,0,0,.528,1.053,5.15,5.15,0,0,0,1.793.786,8.3,8.3,0,0,1,1.981.786,2.98,2.98,0,0,1,1.061,1,2.549,2.549,0,0,1,.346,1.346,2.373,2.373,0,0,1-.963,1.977,4.1,4.1,0,0,1-2.575.743,4.763,4.763,0,0,1-1.953-.4,3.291,3.291,0,0,1-1.4-1.1,2.686,2.686,0,0,1-.491-1.585h1.346a1.752,1.752,0,0,0,.68,1.455,2.863,2.863,0,0,0,1.817.534,2.632,2.632,0,0,0,1.626-.433,1.4,1.4,0,0,0,.566-1.179,1.383,1.383,0,0,0-.523-1.155,6.065,6.065,0,0,0-1.9-.8" transform="translate(29.659 10.393)"/>
          <path id="Trazado_104834" data-name="Trazado 104834" d="M307.364,111.162a10.784,10.784,0,0,1,.422-3.028,8.761,8.761,0,0,1,1.26-2.637,5.35,5.35,0,0,1,1.737-1.675l.266.852a5.537,5.537,0,0,0-1.671,2.386,10.319,10.319,0,0,0-.716,3.592l-.008.593a10.41,10.41,0,0,0,.984,4.674,5.592,5.592,0,0,0,1.41,1.856l-.266.787a5.516,5.516,0,0,1-1.772-1.73,9.7,9.7,0,0,1-1.646-5.671" transform="translate(30.457 10.288)"/>
          <path id="Trazado_104835" data-name="Trazado 104835" d="M319.882,110.429a6.275,6.275,0,0,1-.5,2.6,3.8,3.8,0,0,1-1.423,1.7,3.924,3.924,0,0,1-5.716-1.686,6.015,6.015,0,0,1-.528-2.528v-.732a6.214,6.214,0,0,1,.51-2.589,3.769,3.769,0,0,1,3.572-2.316,3.944,3.944,0,0,1,2.152.589,3.792,3.792,0,0,1,1.433,1.71,6.3,6.3,0,0,1,.5,2.606Zm-1.332-.656a4.552,4.552,0,0,0-.725-2.773,2.393,2.393,0,0,0-2.03-.966,2.368,2.368,0,0,0-2,.966,4.455,4.455,0,0,0-.75,2.682v.747a4.568,4.568,0,0,0,.735,2.752,2.578,2.578,0,0,0,4.036.055,4.531,4.531,0,0,0,.733-2.709Z" transform="translate(30.888 10.393)"/>
          <path id="Trazado_104836" data-name="Trazado 104836" d="M328.781,115.167h-1.346l-5.114-7.828v7.828h-1.346V105.009h1.346l5.128,7.863v-7.863h1.332Z" transform="translate(31.806 10.405)"/>
          <path id="Trazado_104837" data-name="Trazado 104837" d="M333.1,111.232a10.77,10.77,0,0,1-.409,2.982,8.8,8.8,0,0,1-1.247,2.633,5.483,5.483,0,0,1-1.762,1.717l-.273-.788a5.613,5.613,0,0,0,1.727-2.558,11.035,11.035,0,0,0,.666-3.847v-.223a11.515,11.515,0,0,0-.307-2.726,9.134,9.134,0,0,0-.855-2.255,5.187,5.187,0,0,0-1.231-1.556l.273-.788a5.445,5.445,0,0,1,1.754,1.7,8.831,8.831,0,0,1,1.25,2.629,11.077,11.077,0,0,1,.414,3.077" transform="translate(32.642 10.288)"/>
          <path id="Trazado_104838" data-name="Trazado 104838" d="M284.119,49.559h-2.937v5.057h-1.657v-12.5h4.139a4.9,4.9,0,0,1,3.25.962,3.461,3.461,0,0,1,1.138,2.8,3.369,3.369,0,0,1-.631,2.036,3.767,3.767,0,0,1-1.756,1.3l2.937,5.306v.1h-1.768Zm-2.937-1.349h2.533a2.858,2.858,0,0,0,1.953-.636,2.155,2.155,0,0,0,.725-1.7,2.269,2.269,0,0,0-.691-1.781,2.924,2.924,0,0,0-2-.628h-2.525Z" transform="translate(27.698 4.173)"/>
          <path id="Trazado_104839" data-name="Trazado 104839" d="M291.99,55.854H296.8v1.095h-6.16V46.79h1.346Z" transform="translate(28.8 4.637)"/>
          <path id="Trazado_104840" data-name="Trazado 104840" d="M170.325,195.528a13.168,13.168,0,0,1,.524-3.744,9.878,9.878,0,0,1,1.545-3.148,5.76,5.76,0,0,1,2.215-1.9l.481,1.34a5.961,5.961,0,0,0-1.957,2.868,13.253,13.253,0,0,0-.7,4.534v.266a13.535,13.535,0,0,0,.7,4.551,6.1,6.1,0,0,0,1.966,2.91l-.481,1.314a5.786,5.786,0,0,1-2.176-1.851,9.7,9.7,0,0,1-1.541-3.061,13.061,13.061,0,0,1-.567-3.624Z" transform="translate(16.878 18.504)"/>
          <path id="Trazado_104841" data-name="Trazado 104841" d="M181.258,200.212a2.735,2.735,0,0,1-.248-.833,3,3,0,0,1-2.344,1.006,3.3,3.3,0,0,1-2.263-.79,2.542,2.542,0,0,1-.9-1.993,2.625,2.625,0,0,1,1.095-2.266,5.392,5.392,0,0,1,3.164-.8h1.142V194a1.536,1.536,0,0,0-.331-1.031,1.3,1.3,0,0,0-1.043-.386,1.482,1.482,0,0,0-.984.3,1.023,1.023,0,0,0-.356.824h-2.482a2.494,2.494,0,0,1,.5-1.494,3.3,3.3,0,0,1,1.409-1.078,5.127,5.127,0,0,1,2.043-.39,4.06,4.06,0,0,1,2.727.863,3.023,3.023,0,0,1,1.009,2.426v4.027a4.434,4.434,0,0,0,.368,2v.146Zm-2.052-1.726a2.131,2.131,0,0,0,1.013-.245,1.608,1.608,0,0,0,.687-.656v-1.6h-.928q-1.863,0-1.984,1.287l-.008.146a.991.991,0,0,0,.326.765,1.265,1.265,0,0,0,.892.3" transform="translate(17.391 18.902)"/>
          <path id="Trazado_104842" data-name="Trazado 104842" d="M188.749,195.725a12.482,12.482,0,0,1-.558,3.735,10.152,10.152,0,0,1-1.606,3.169,5.79,5.79,0,0,1-2.241,1.889l-.48-1.313a6.056,6.056,0,0,0,1.923-2.833,13.168,13.168,0,0,0,.73-4.405v-.455a13.424,13.424,0,0,0-.7-4.525,6.3,6.3,0,0,0-1.953-2.937l.48-1.315a5.8,5.8,0,0,1,2.2,1.838,10.02,10.02,0,0,1,1.606,3.1,12.449,12.449,0,0,1,.6,3.667Z" transform="translate(18.219 18.504)"/>
          <rect id="Rectángulo_34258" data-name="Rectángulo 34258" width="62.154" height="1.099" transform="translate(680.089 17.957)"/>
          <rect id="Rectángulo_34259" data-name="Rectángulo 34259" width="62.154" height="1.099" transform="translate(679.791 179.793)"/>
          <path id="Trazado_104843" data-name="Trazado 104843" d="M645.9,17.135a3.291,3.291,0,1,1-3.291-3.291,3.291,3.291,0,0,1,3.291,3.291" transform="translate(63.35 1.372)"/>
          <path id="Trazado_104844" data-name="Trazado 104844" d="M645.438,164.38a3.291,3.291,0,1,1-3.291-3.291,3.291,3.291,0,0,1,3.291,3.291" transform="translate(63.305 15.962)"/>
          <rect id="Rectángulo_34260" data-name="Rectángulo 34260" width="25.673" height="1.099" transform="translate(707.913 93.738)" fill="#6b6b6b"/>
          <path id="Trazado_104845" data-name="Trazado 104845" d="M676.188,86.282a5.469,5.469,0,1,1-5.468-5.468,5.468,5.468,0,0,1,5.468,5.468" transform="translate(65.92 8.008)" fill="#6c6c6c"/>
          <path id="Trazado_104846" data-name="Trazado 104846" d="M670.77,92.349a6.018,6.018,0,1,1,6.018-6.018,6.024,6.024,0,0,1-6.018,6.018m0-10.936a4.918,4.918,0,1,0,4.919,4.918,4.924,4.924,0,0,0-4.919-4.918" transform="translate(65.871 7.958)" fill="#1d1d1b"/>
          <path id="Trazado_104847" data-name="Trazado 104847" d="M645.106,86.084a3.291,3.291,0,1,1-3.291-3.29,3.291,3.291,0,0,1,3.291,3.29" transform="translate(63.272 8.204)"/>
          <path id="Trazado_104848" data-name="Trazado 104848" d="M543.074,120.543A23.144,23.144,0,1,1,519.931,97.4a23.144,23.144,0,0,1,23.144,23.144" transform="translate(49.227 9.651)" fill="#b1bddc"/>
          <path id="Trazado_104849" data-name="Trazado 104849" d="M519.98,144.285a23.693,23.693,0,1,1,23.694-23.692,23.719,23.719,0,0,1-23.694,23.692m0-46.287a22.594,22.594,0,1,0,22.6,22.6A22.62,22.62,0,0,0,519.98,98" transform="translate(49.178 9.602)" fill="#1d1d1b"/>
          <rect id="Rectángulo_34261" data-name="Rectángulo 34261" width="61.551" height="1.099" transform="translate(558.762 19.479)"/>
          <rect id="Rectángulo_34262" data-name="Rectángulo 34262" width="61.551" height="1.099" transform="translate(558.468 179.748)"/>
          <path id="Trazado_104850" data-name="Trazado 104850" d="M534.008,117.2H519.44v-1.1h13.469V78.527l-9.242-4.421,15.7-6.94-15.965-5.942,16.031-5.965-15.817-7.726,15.818-6.253-7.083-3.294V18.824h1.1V37.286l8.766,4.078-15.88,6.277L542.223,55.4l-15.665,5.827,15.731,5.854L526.3,74.145l7.712,3.689Z" transform="translate(51.472 1.865)"/>
          <path id="Trazado_104851" data-name="Trazado 104851" d="M534.009,168.6h-1.1V119.333l-13.477-.178.015-1.1,14.561.192Z" transform="translate(51.471 11.698)"/>
          <path id="Trazado_104852" data-name="Trazado 104852" d="M535.56,18.517a3.259,3.259,0,1,1-3.259-3.259,3.259,3.259,0,0,1,3.259,3.259" transform="translate(52.423 1.512)"/>
          <path id="Trazado_104853" data-name="Trazado 104853" d="M532.038,118.85a3.259,3.259,0,1,1-3.259-3.259,3.259,3.259,0,0,1,3.259,3.259" transform="translate(52.074 11.454)"/>
          <path id="Trazado_104854" data-name="Trazado 104854" d="M535.245,164.336a3.259,3.259,0,1,1-3.259-3.259,3.259,3.259,0,0,1,3.259,3.259" transform="translate(52.392 15.961)"/>
          <rect id="Rectángulo_34263" data-name="Rectángulo 34263" width="25.424" height="1.099" transform="translate(586.315 94.526)" fill="#6b6b6b"/>
          <path id="Trazado_104855" data-name="Trazado 104855" d="M565.243,86.994a5.415,5.415,0,1,1-5.415-5.415,5.415,5.415,0,0,1,5.415,5.415" transform="translate(54.937 8.084)" fill="#6c6c6c"/>
          <path id="Trazado_104856" data-name="Trazado 104856" d="M559.877,93.008a5.965,5.965,0,1,1,5.966-5.964,5.971,5.971,0,0,1-5.966,5.964m0-10.83a4.866,4.866,0,1,0,4.867,4.867,4.871,4.871,0,0,0-4.867-4.867" transform="translate(54.888 8.034)" fill="#1d1d1b"/>
          <path id="Trazado_104857" data-name="Trazado 104857" d="M414.125,129.206a5.415,5.415,0,1,1-5.415-5.415,5.415,5.415,0,0,1,5.415,5.415" transform="translate(39.963 12.267)" fill="#6c6c6c"/>
          <path id="Trazado_104858" data-name="Trazado 104858" d="M408.759,135.22a5.965,5.965,0,1,1,5.966-5.964,5.971,5.971,0,0,1-5.966,5.964m0-10.83a4.866,4.866,0,1,0,4.867,4.867,4.871,4.871,0,0,0-4.867-4.867" transform="translate(39.913 12.217)" fill="#1d1d1b"/>
          <path id="Trazado_104859" data-name="Trazado 104859" d="M474.456,140.151l-6.3-16.176L461.513,140.1l-6.892-15.462-7.094,15.494-.466-1.232c-.051-.134-4.5-11.911-5.792-15.284-.657,1.361-1.837,4.466-2.825,7.323l-.128.37H413.149v-1.1h24.386c2.864-8.242,3.421-8.256,3.829-8.265l.381-.009.217.421c.311.776,4.278,11.26,5.663,14.923l7.01-15.314,6.84,15.344,6.717-16.3,6.322,16.247,3.137-7.213h48.805V108.088h1.1v23.063H478.371Z" transform="translate(40.939 10.711)"/>
          <rect id="Rectángulo_34264" data-name="Rectángulo 34264" width="1.099" height="7.609" transform="translate(570.362 114.715)"/>
          <rect id="Rectángulo_34265" data-name="Rectángulo 34265" width="1.099" height="7.609" transform="translate(570.362 126.5)"/>
          <rect id="Rectángulo_34266" data-name="Rectángulo 34266" width="1.099" height="7.609" transform="translate(570.362 137.459)"/>
          <rect id="Rectángulo_34267" data-name="Rectángulo 34267" width="13.364" height="1.099" transform="translate(570.912 140.714)"/>
          <path id="Trazado_104860" data-name="Trazado 104860" d="M535.56,86.8A3.259,3.259,0,1,1,532.3,83.54,3.259,3.259,0,0,1,535.56,86.8" transform="translate(52.423 8.278)"/>
          <path id="Trazado_104861" data-name="Trazado 104861" d="M430.036,128.821a3.259,3.259,0,1,1-3.259-3.259,3.259,3.259,0,0,1,3.259,3.259" transform="translate(41.967 12.442)" fill="#d80000"/>
          <path id="Trazado_104862" data-name="Trazado 104862" d="M535.748,154.72a3.259,3.259,0,1,1-3.259-3.259,3.259,3.259,0,0,1,3.259,3.259" transform="translate(52.442 15.008)" fill="#d80000"/>
          <path id="Trazado_104863" data-name="Trazado 104863" d="M542.72,157.542H425.983V128.528h1.1v27.915H542.72Z" transform="translate(42.211 12.736)" fill="#d80000"/>
          <path id="Trazado_104864" data-name="Trazado 104864" d="M643.216,112.26h-1.1V78.485l-8.493-3.852L649.009,67.8,633.635,61l15.4-7.144-15.425-6.837,15.449-6.848-6.44-3.126V18.223h1.1V36.353l7.951,3.859-15.348,6.8L651.7,53.83l-15.4,7.144L651.721,67.8l-15.413,6.844,6.908,3.134Z" transform="translate(62.785 1.806)"/>
          <rect id="Rectángulo_34268" data-name="Rectángulo 34268" width="1.099" height="30.143" transform="translate(704.902 150.549)"/>
          <path id="Trazado_104865" data-name="Trazado 104865" d="M645.438,105.137a3.291,3.291,0,1,1-3.291-3.291,3.291,3.291,0,0,1,3.291,3.291" transform="translate(63.305 10.092)" fill="#d80000"/>
          <path id="Trazado_104866" data-name="Trazado 104866" d="M645.438,136.816a3.291,3.291,0,1,1-3.291-3.291,3.291,3.291,0,0,1,3.291,3.291" transform="translate(63.305 13.231)" fill="#d80000"/>
          <rect id="Rectángulo_34269" data-name="Rectángulo 34269" width="1.098" height="33.892" transform="translate(704.941 115.43) rotate(-21.527)" fill="#d80000"/>
          <rect id="Rectángulo_34270" data-name="Rectángulo 34270" width="15.76" height="1.099" transform="translate(667.764 90.513)" fill="#7994c3"/>
          <rect id="Rectángulo_34271" data-name="Rectángulo 34271" width="15.76" height="1.099" transform="translate(667.764 95.777)" fill="#7994c3"/>
          <rect id="Rectángulo_34272" data-name="Rectángulo 34272" width="15.76" height="1.099" transform="translate(667.764 101.041)" fill="#7994c3"/>
          <path id="Trazado_104867" data-name="Trazado 104867" d="M386.5,131.7l3.572-10.313h1.8l-4.637,12.5h-1.46l-4.628-12.5h1.795Z" transform="translate(37.769 12.029)"/>
          <path id="Trazado_104868" data-name="Trazado 104868" d="M391.8,126.131a.6.6,0,0,1,.147-.408.553.553,0,0,1,.437-.166.561.561,0,0,1,.44.166.583.583,0,0,1,.151.408.565.565,0,0,1-.151.4.574.574,0,0,1-.44.16.565.565,0,0,1-.437-.16.577.577,0,0,1-.147-.4m1.073,7.347h-.992v-5.806h.992Z" transform="translate(38.824 12.442)"/>
          <path id="Trazado_104869" data-name="Trazado 104869" d="M395.161,127.491l.032.73a2.116,2.116,0,0,1,1.739-.838q1.841,0,1.857,2.077V133.3H397.8v-3.842a1.335,1.335,0,0,0-.287-.929,1.152,1.152,0,0,0-.877-.3,1.438,1.438,0,0,0-.849.257,1.752,1.752,0,0,0-.568.677V133.3h-.992v-5.807Z" transform="translate(39.064 12.623)"/>
          <path id="Trazado_104870" data-name="Trazado 104870" d="M542.439,11.557l3.572-10.313h1.8l-4.637,12.5h-1.46l-4.628-12.5h1.795Z" transform="translate(53.221 0.123)"/>
          <path id="Trazado_104871" data-name="Trazado 104871" d="M550.516,13.464V4.088h2.647a4.263,4.263,0,0,1,2.164.541,3.653,3.653,0,0,1,1.452,1.54,5,5,0,0,1,.519,2.293v.6a5.023,5.023,0,0,1-.512,2.325,3.6,3.6,0,0,1-1.462,1.532,4.525,4.525,0,0,1-2.212.547ZM551.753,5.1v7.354h1.3a2.827,2.827,0,0,0,2.225-.889,3.677,3.677,0,0,0,.8-2.533V8.483A3.733,3.733,0,0,0,555.323,6a2.67,2.67,0,0,0-2.129-.9Z" transform="translate(54.551 0.405)"/>
          <path id="Trazado_104872" data-name="Trazado 104872" d="M558.385,13.464V4.088h2.647a4.263,4.263,0,0,1,2.164.541,3.654,3.654,0,0,1,1.452,1.54,5,5,0,0,1,.519,2.293v.6a5.023,5.023,0,0,1-.512,2.325,3.6,3.6,0,0,1-1.462,1.532,4.525,4.525,0,0,1-2.212.547ZM559.622,5.1v7.354h1.3a2.827,2.827,0,0,0,2.225-.889,3.677,3.677,0,0,0,.8-2.533V8.483A3.732,3.732,0,0,0,563.192,6a2.67,2.67,0,0,0-2.129-.9Z" transform="translate(55.331 0.405)"/>
          <path id="Trazado_104873" data-name="Trazado 104873" d="M575.747,88.838l3.572-10.313h1.8l-4.637,12.5h-1.46l-4.628-12.5h1.795Z" transform="translate(56.521 7.781)"/>
          <path id="Trazado_104874" data-name="Trazado 104874" d="M583.278,87.478a3.425,3.425,0,0,1,.335-1.535,2.468,2.468,0,0,1,2.3-1.422,2.448,2.448,0,0,1,1.919.821,3.157,3.157,0,0,1,.732,2.185V87.6a3.461,3.461,0,0,1-.324,1.522,2.468,2.468,0,0,1-.928,1.049,2.57,2.57,0,0,1-1.388.376,2.441,2.441,0,0,1-1.912-.821,3.141,3.141,0,0,1-.733-2.174Zm1,.118a2.481,2.481,0,0,0,.448,1.551,1.519,1.519,0,0,0,2.4-.008,2.717,2.717,0,0,0,.445-1.661,2.487,2.487,0,0,0-.453-1.549,1.507,1.507,0,0,0-2.392-.008,2.7,2.7,0,0,0-.451,1.674" transform="translate(57.798 8.375)"/>
          <path id="Trazado_104875" data-name="Trazado 104875" d="M592.807,89.85a2.107,2.107,0,0,1-1.7.681,1.8,1.8,0,0,1-1.413-.539,2.338,2.338,0,0,1-.491-1.6V84.617h.992v3.751q0,1.321,1.074,1.321a1.486,1.486,0,0,0,1.513-.849V84.617h.992v5.807h-.944Z" transform="translate(58.385 8.385)"/>
          <path id="Trazado_104876" data-name="Trazado 104876" d="M596.143,83.338v1.406h1.084v.768h-1.084v3.605a.806.806,0,0,0,.145.524.61.61,0,0,0,.493.175,2.407,2.407,0,0,0,.473-.065v.8a2.886,2.886,0,0,1-.763.107,1.238,1.238,0,0,1-1-.4,1.729,1.729,0,0,1-.337-1.143v-3.6h-1.057v-.768h1.057V83.338Z" transform="translate(58.869 8.258)"/>
          <path id="Trazado_104877" data-name="Trazado 104877" d="M576.588,158.2a7.266,7.266,0,0,1-.953,4.147,3.961,3.961,0,0,1-5.942.03,6.88,6.88,0,0,1-1-3.962v-2.121a7.1,7.1,0,0,1,.953-4.1,4.031,4.031,0,0,1,5.959-.047,6.85,6.85,0,0,1,.978,3.989ZM575,156.028a5.818,5.818,0,0,0-.567-2.941,1.951,1.951,0,0,0-1.794-.923,1.925,1.925,0,0,0-1.778.919,5.688,5.688,0,0,0-.575,2.826v2.541a5.912,5.912,0,0,0,.588,2.993,1.947,1.947,0,0,0,1.782.966,1.924,1.924,0,0,0,1.747-.91,5.71,5.71,0,0,0,.6-2.869Z" transform="translate(56.353 14.949)"/>
          <path id="Trazado_104878" data-name="Trazado 104878" d="M582.739,161.726l2.232-6.445H586.1l-2.9,7.813h-.912l-2.893-7.813h1.122Z" transform="translate(57.413 15.387)"/>
          <path id="Trazado_104879" data-name="Trazado 104879" d="M684.112,157.783a7.267,7.267,0,0,1-.953,4.147,3.961,3.961,0,0,1-5.942.03,6.889,6.889,0,0,1-1-3.962v-2.121a7.1,7.1,0,0,1,.953-4.1,4.031,4.031,0,0,1,5.959-.047,6.851,6.851,0,0,1,.978,3.989Zm-1.588-2.173a5.819,5.819,0,0,0-.567-2.941,1.95,1.95,0,0,0-1.794-.923,1.927,1.927,0,0,0-1.778.919,5.7,5.7,0,0,0-.575,2.826v2.541a5.923,5.923,0,0,0,.588,2.993,1.948,1.948,0,0,0,1.782.966,1.923,1.923,0,0,0,1.748-.91,5.7,5.7,0,0,0,.6-2.869Z" transform="translate(67.008 14.907)"/>
          <path id="Trazado_104880" data-name="Trazado 104880" d="M690.264,161.308l2.232-6.445h1.128l-2.9,7.813h-.912l-2.893-7.813h1.122Z" transform="translate(68.068 15.346)"/>
          <path id="Trazado_104881" data-name="Trazado 104881" d="M448.087,112.3H445.15v5.057h-1.657v-12.5h4.139a4.9,4.9,0,0,1,3.25.962,3.464,3.464,0,0,1,1.138,2.8,3.369,3.369,0,0,1-.631,2.036,3.767,3.767,0,0,1-1.756,1.3l2.937,5.306v.1H450.8Zm-2.937-1.349h2.533a2.858,2.858,0,0,0,1.953-.636,2.158,2.158,0,0,0,.725-1.7,2.269,2.269,0,0,0-.691-1.781,2.926,2.926,0,0,0-2-.628H445.15Z" transform="translate(43.946 10.391)"/>
          <path id="Trazado_104882" data-name="Trazado 104882" d="M456.682,109.6a.6.6,0,0,1,.147-.408.552.552,0,0,1,.437-.166.561.561,0,0,1,.441.166.587.587,0,0,1,.149.408.565.565,0,0,1-.149.4.574.574,0,0,1-.441.162.565.565,0,0,1-.437-.162.572.572,0,0,1-.147-.4m1.074,7.347h-.992v-5.807h.992Z" transform="translate(45.253 10.804)"/>
          <path id="Trazado_104883" data-name="Trazado 104883" d="M460.043,110.961l.032.73a2.116,2.116,0,0,1,1.739-.838q1.842,0,1.857,2.077v3.837h-.994v-3.842a1.335,1.335,0,0,0-.287-.929,1.151,1.151,0,0,0-.877-.3,1.435,1.435,0,0,0-.849.257,1.753,1.753,0,0,0-.568.677v4.137H459.1v-5.807Z" transform="translate(45.493 10.985)"/>
          <path id="Trazado_104884" data-name="Trazado 104884" d="M491.435,121.714a3.807,3.807,0,0,1-1.773,1.361,7.155,7.155,0,0,1-2.649.451,5.125,5.125,0,0,1-2.714-.717,4.76,4.76,0,0,1-1.833-2.039,7.025,7.025,0,0,1-.666-3.065v-1.091a6.573,6.573,0,0,1,1.319-4.379,4.591,4.591,0,0,1,3.705-1.554,4.751,4.751,0,0,1,3.151,1,4.365,4.365,0,0,1,1.46,2.838h-1.649a2.727,2.727,0,0,0-2.953-2.491,2.92,2.92,0,0,0-2.513,1.165,5.686,5.686,0,0,0-.863,3.373v1.023a5.324,5.324,0,0,0,.962,3.347,3.114,3.114,0,0,0,2.6,1.242,5.777,5.777,0,0,0,1.623-.206,2.528,2.528,0,0,0,1.151-.694v-2.8H486.9v-1.349h4.534Z" transform="translate(47.742 10.967)" fill="#7994c3"/>
          <path id="Trazado_104885" data-name="Trazado 104885" d="M544.48,140.1a7.755,7.755,0,0,1-3.087-1.5,2.862,2.862,0,0,1-.966-2.194,3.023,3.023,0,0,1,1.182-2.443,4.688,4.688,0,0,1,3.07-.966,5.132,5.132,0,0,1,2.3.5,3.782,3.782,0,0,1,1.562,1.374,3.511,3.511,0,0,1,.554,1.915h-1.656a2.286,2.286,0,0,0-.722-1.788,2.933,2.933,0,0,0-2.034-.65,3,3,0,0,0-1.9.537,1.792,1.792,0,0,0-.683,1.491,1.606,1.606,0,0,0,.648,1.295,6.345,6.345,0,0,0,2.207.968,10.3,10.3,0,0,1,2.439.967,3.706,3.706,0,0,1,1.3,1.232,3.144,3.144,0,0,1,.425,1.657,2.924,2.924,0,0,1-1.185,2.434,5.058,5.058,0,0,1-3.169.914,5.886,5.886,0,0,1-2.4-.495A4.046,4.046,0,0,1,540.638,144a3.3,3.3,0,0,1-.606-1.95h1.657a2.152,2.152,0,0,0,.838,1.79,3.517,3.517,0,0,0,2.237.657,3.241,3.241,0,0,0,2-.532,1.731,1.731,0,0,0,.7-1.452,1.7,1.7,0,0,0-.644-1.421,7.464,7.464,0,0,0-2.336-.991" transform="translate(53.512 13.179)" fill="#7994c3"/>
          <path id="Trazado_104886" data-name="Trazado 104886" d="M539.727,106.052V93.55h3.529a5.679,5.679,0,0,1,2.885.722,4.873,4.873,0,0,1,1.937,2.052,6.689,6.689,0,0,1,.691,3.057v.8a6.69,6.69,0,0,1-.684,3.1,4.794,4.794,0,0,1-1.949,2.043,6.033,6.033,0,0,1-2.95.73ZM541.376,94.9V104.7h1.734a3.771,3.771,0,0,0,2.966-1.186,4.9,4.9,0,0,0,1.061-3.378v-.732a4.982,4.982,0,0,0-1-3.312,3.562,3.562,0,0,0-2.838-1.2Z" transform="translate(53.482 9.27)" fill="#7994c3"/>
          <path id="Trazado_104887" data-name="Trazado 104887" d="M554.377,52.076h-2.937v5.057h-1.659v-12.5h4.14a4.9,4.9,0,0,1,3.249.962,3.461,3.461,0,0,1,1.139,2.8,3.369,3.369,0,0,1-.632,2.036,3.767,3.767,0,0,1-1.756,1.3l2.938,5.306v.1h-1.768Zm-2.937-1.349h2.533a2.857,2.857,0,0,0,1.952-.636,2.155,2.155,0,0,0,.725-1.7,2.268,2.268,0,0,0-.69-1.781,2.927,2.927,0,0,0-2-.628h-2.525Z" transform="translate(54.479 4.423)"/>
          <path id="Trazado_104888" data-name="Trazado 104888" d="M562.248,58.369h4.814v1.1H560.9V49.307h1.347Z" transform="translate(55.58 4.886)"/>
          <path id="Trazado_104889" data-name="Trazado 104889" d="M688.034,88.314,691.606,78h1.8l-4.637,12.5h-1.46L682.684,78h1.795Z" transform="translate(67.648 7.729)"/>
          <path id="Trazado_104890" data-name="Trazado 104890" d="M695.565,86.953a3.435,3.435,0,0,1,.334-1.535,2.505,2.505,0,0,1,.934-1.052A2.537,2.537,0,0,1,698.2,84a2.448,2.448,0,0,1,1.919.821A3.155,3.155,0,0,1,700.849,87v.069a3.442,3.442,0,0,1-.324,1.521,2.472,2.472,0,0,1-.928,1.05,2.58,2.58,0,0,1-1.388.376A2.441,2.441,0,0,1,696.3,89.2a3.141,3.141,0,0,1-.732-2.174Zm1,.118a2.482,2.482,0,0,0,.447,1.551,1.518,1.518,0,0,0,2.4-.009,2.713,2.713,0,0,0,.446-1.66,2.493,2.493,0,0,0-.454-1.55,1.443,1.443,0,0,0-1.206-.592,1.423,1.423,0,0,0-1.185.586,2.7,2.7,0,0,0-.451,1.674" transform="translate(68.924 8.323)"/>
          <path id="Trazado_104891" data-name="Trazado 104891" d="M705.093,89.326a2.109,2.109,0,0,1-1.7.681,1.808,1.808,0,0,1-1.415-.54,2.337,2.337,0,0,1-.491-1.6V84.093h.994v3.751q0,1.321,1.074,1.321a1.489,1.489,0,0,0,1.513-.849V84.093h.991V89.9h-.944Z" transform="translate(69.511 8.333)"/>
          <path id="Trazado_104892" data-name="Trazado 104892" d="M708.43,82.814V84.22h1.084v.768H708.43v3.605a.8.8,0,0,0,.146.523.605.605,0,0,0,.494.176,2.429,2.429,0,0,0,.473-.065v.8a2.85,2.85,0,0,1-.763.108,1.238,1.238,0,0,1-1-.4,1.73,1.73,0,0,1-.336-1.143v-3.6H706.38V84.22h1.058V82.814Z" transform="translate(69.996 8.206)"/>
          <path id="Trazado_104893" data-name="Trazado 104893" d="M655.364,10.729,658.936.417h1.8l-4.637,12.5h-1.46L650.014.417h1.795Z" transform="translate(64.411 0.041)"/>
          <path id="Trazado_104894" data-name="Trazado 104894" d="M663.441,12.637V3.26h2.647a4.252,4.252,0,0,1,2.164.542,3.653,3.653,0,0,1,1.452,1.54,5,5,0,0,1,.519,2.293v.6a5.024,5.024,0,0,1-.512,2.325,3.605,3.605,0,0,1-1.462,1.532,4.525,4.525,0,0,1-2.212.547Zm1.237-8.366v7.355h1.3a2.827,2.827,0,0,0,2.225-.889A3.679,3.679,0,0,0,669,8.2V7.656a3.732,3.732,0,0,0-.751-2.485,2.674,2.674,0,0,0-2.129-.9Z" transform="translate(65.741 0.323)"/>
          <path id="Trazado_104895" data-name="Trazado 104895" d="M671.31,12.637V3.26h2.647a4.252,4.252,0,0,1,2.164.542,3.654,3.654,0,0,1,1.452,1.54,5,5,0,0,1,.519,2.293v.6a5.023,5.023,0,0,1-.512,2.325,3.6,3.6,0,0,1-1.462,1.532,4.525,4.525,0,0,1-2.212.547Zm1.236-8.366v7.355h1.3a2.827,2.827,0,0,0,2.225-.889,3.679,3.679,0,0,0,.8-2.533V7.656a3.733,3.733,0,0,0-.751-2.485,2.674,2.674,0,0,0-2.129-.9Z" transform="translate(66.521 0.323)"/>
          <path id="Trazado_104896" data-name="Trazado 104896" d="M671.876,114.8a7.74,7.74,0,0,1-3.087-1.5,2.862,2.862,0,0,1-.966-2.194A3.023,3.023,0,0,1,669,108.66a4.687,4.687,0,0,1,3.07-.966,5.131,5.131,0,0,1,2.3.5,3.79,3.79,0,0,1,1.562,1.374,3.512,3.512,0,0,1,.554,1.915H674.83a2.287,2.287,0,0,0-.722-1.788,2.933,2.933,0,0,0-2.034-.65,3,3,0,0,0-1.9.537,1.794,1.794,0,0,0-.683,1.493,1.609,1.609,0,0,0,.649,1.295,6.368,6.368,0,0,0,2.207.967,10.3,10.3,0,0,1,2.439.967,3.706,3.706,0,0,1,1.3,1.232,3.147,3.147,0,0,1,.425,1.657,2.924,2.924,0,0,1-1.185,2.434,5.059,5.059,0,0,1-3.169.914,5.867,5.867,0,0,1-2.4-.495,4.029,4.029,0,0,1-1.721-1.352,3.3,3.3,0,0,1-.606-1.95h1.657a2.152,2.152,0,0,0,.838,1.79,3.517,3.517,0,0,0,2.237.657,3.24,3.24,0,0,0,2-.532,1.729,1.729,0,0,0,.7-1.452,1.7,1.7,0,0,0-.644-1.421,7.462,7.462,0,0,0-2.336-.991" transform="translate(66.136 10.672)"/>
          <path id="Trazado_104897" data-name="Trazado 104897" d="M685.69,117.873l1.786-7.1h1.588l-2.7,9.291h-1.287l-2.259-7.041-2.2,7.041h-1.288l-2.7-9.291h1.579l1.829,6.955,2.164-6.955h1.279Z" transform="translate(67.048 10.976)"/>
          <path id="Trazado_104898" data-name="Trazado 104898" d="M689.42,108.613a.945.945,0,0,1,.236-.653.889.889,0,0,1,.7-.266.905.905,0,0,1,.7.266.947.947,0,0,1,.24.653.858.858,0,0,1-.944.9.9.9,0,0,1-.7-.257.916.916,0,0,1-.236-.644m1.718,11.755H689.55v-9.291h1.588Z" transform="translate(68.315 10.672)"/>
          <path id="Trazado_104899" data-name="Trazado 104899" d="M695.552,108.725v2.25h1.734V112.2h-1.734v5.769a1.289,1.289,0,0,0,.232.839.976.976,0,0,0,.79.279,3.908,3.908,0,0,0,.755-.1v1.28a4.659,4.659,0,0,1-1.219.17,1.975,1.975,0,0,1-1.606-.644,2.766,2.766,0,0,1-.541-1.829V112.2h-1.691v-1.228h1.691v-2.25Z" transform="translate(68.598 10.774)"/>
          <path id="Trazado_104900" data-name="Trazado 104900" d="M702.286,118.953a2.288,2.288,0,0,0,1.486-.514,1.822,1.822,0,0,0,.7-1.288h1.5a2.889,2.889,0,0,1-.549,1.52,3.623,3.623,0,0,1-1.352,1.151,3.9,3.9,0,0,1-1.79.43,3.824,3.824,0,0,1-3.018-1.267,5.039,5.039,0,0,1-1.121-3.465v-.265a5.594,5.594,0,0,1,.5-2.413,3.786,3.786,0,0,1,1.43-1.641,4.072,4.072,0,0,1,2.2-.584,3.727,3.727,0,0,1,2.6.936,3.352,3.352,0,0,1,1.1,2.43h-1.5a2.2,2.2,0,0,0-.683-1.482,2.122,2.122,0,0,0-1.516-.579,2.222,2.222,0,0,0-1.876.872,4.09,4.09,0,0,0-.665,2.519v.3a4,4,0,0,0,.661,2.473,2.232,2.232,0,0,0,1.889.866" transform="translate(69.18 10.961)"/>
          <path id="Trazado_104901" data-name="Trazado 104901" d="M708.485,112.248a3.378,3.378,0,0,1,2.748-1.3q2.943,0,2.971,3.324v6.14h-1.588v-6.148a2.148,2.148,0,0,0-.459-1.486,1.844,1.844,0,0,0-1.4-.48,2.294,2.294,0,0,0-1.357.412,2.782,2.782,0,0,0-.91,1.081v6.621H706.9V107.225h1.588Z" transform="translate(70.047 10.625)"/>
          <path id="Trazado_104902" data-name="Trazado 104902" d="M669.4,126.578l.91.618a4.057,4.057,0,0,0-.824,2.353v1.168H667.9v-1a3.935,3.935,0,0,1,.417-1.734,4.167,4.167,0,0,1,1.077-1.408m2.7,0,.91.618a4.057,4.057,0,0,0-.824,2.353v1.168h-1.579v-1a3.935,3.935,0,0,1,.417-1.734,4.154,4.154,0,0,1,1.077-1.408" transform="translate(66.183 12.543)"/>
          <path id="Trazado_104903" data-name="Trazado 104903" d="M672.981,134.849a5.492,5.492,0,0,1,.536-2.455,4,4,0,0,1,1.495-1.684,4.07,4.07,0,0,1,2.185-.592,3.918,3.918,0,0,1,3.07,1.315,5.052,5.052,0,0,1,1.172,3.494v.112a5.535,5.535,0,0,1-.519,2.434,3.95,3.95,0,0,1-1.486,1.678,4.12,4.12,0,0,1-2.22.6,3.909,3.909,0,0,1-3.061-1.313,5.029,5.029,0,0,1-1.172-3.478Zm1.6.189a3.983,3.983,0,0,0,.717,2.482,2.43,2.43,0,0,0,3.842-.013,4.341,4.341,0,0,0,.713-2.658,3.968,3.968,0,0,0-.725-2.477,2.309,2.309,0,0,0-1.928-.949,2.283,2.283,0,0,0-1.9.935,4.318,4.318,0,0,0-.721,2.68" transform="translate(66.686 12.893)"/>
          <path id="Trazado_104904" data-name="Trazado 104904" d="M690.337,135.038a5.558,5.558,0,0,1-.971,3.417,3.107,3.107,0,0,1-2.627,1.3,3.408,3.408,0,0,1-2.662-1.073v4.473h-1.588V130.289h1.451l.077,1.03a3.274,3.274,0,0,1,2.7-1.2,3.167,3.167,0,0,1,2.65,1.262,5.632,5.632,0,0,1,.974,3.512Zm-1.588-.18a4.108,4.108,0,0,0-.669-2.482,2.159,2.159,0,0,0-1.838-.91,2.335,2.335,0,0,0-2.164,1.279v4.439a2.34,2.34,0,0,0,2.181,1.271,2.147,2.147,0,0,0,1.817-.906,4.481,4.481,0,0,0,.674-2.692" transform="translate(67.629 12.894)"/>
          <path id="Trazado_104905" data-name="Trazado 104905" d="M695.358,139.752a4.058,4.058,0,0,1-3.074-1.241,4.6,4.6,0,0,1-1.185-3.318V134.9a5.577,5.577,0,0,1,.526-2.469,4.118,4.118,0,0,1,1.477-1.7,3.715,3.715,0,0,1,2.057-.613,3.486,3.486,0,0,1,2.817,1.193,5.172,5.172,0,0,1,1,3.418v.661h-6.294a3.311,3.311,0,0,0,.8,2.22,2.526,2.526,0,0,0,1.955.845,2.775,2.775,0,0,0,1.426-.343,3.544,3.544,0,0,0,1.02-.91l.971.755a3.9,3.9,0,0,1-3.5,1.795m-.2-8.329a2.121,2.121,0,0,0-1.616.7,3.415,3.415,0,0,0-.806,1.962h4.652v-.12a3.018,3.018,0,0,0-.653-1.877,2,2,0,0,0-1.578-.665" transform="translate(68.482 12.894)"/>
          <path id="Trazado_104906" data-name="Trazado 104906" d="M701.445,130.289l.052,1.167a3.384,3.384,0,0,1,2.782-1.339q2.944,0,2.971,3.323v6.14h-1.588v-6.148a2.14,2.14,0,0,0-.459-1.485,1.838,1.838,0,0,0-1.4-.481,2.3,2.3,0,0,0-1.357.412,2.8,2.8,0,0,0-.91,1.083v6.62h-1.588v-9.291Z" transform="translate(69.358 12.894)"/>
          <path id="Trazado_104907" data-name="Trazado 104907" d="M708.234,130.934l-.9-.618a4.124,4.124,0,0,0,.824-2.353v-1.236h1.572v1.116a4.248,4.248,0,0,1-1.494,3.092m2.636,0-.9-.618a4.141,4.141,0,0,0,.824-2.353v-1.236h1.571v1.116a4.237,4.237,0,0,1-1.494,3.092" transform="translate(70.09 12.558)"/>
          <path id="Trazado_104908" data-name="Trazado 104908" d="M666.14,49.976H663.2v5.057h-1.657v-12.5h4.139a4.9,4.9,0,0,1,3.25.962,3.463,3.463,0,0,1,1.138,2.8,3.364,3.364,0,0,1-.631,2.036,3.762,3.762,0,0,1-1.756,1.3l2.937,5.306v.1h-1.768ZM663.2,48.628h2.533a2.856,2.856,0,0,0,1.953-.636,2.153,2.153,0,0,0,.725-1.7,2.269,2.269,0,0,0-.691-1.781,2.927,2.927,0,0,0-2-.628H663.2Z" transform="translate(65.553 4.214)"/>
          <path id="Trazado_104909" data-name="Trazado 104909" d="M674.011,56.271h4.814v1.095h-6.16V47.207h1.346Z" transform="translate(66.655 4.678)"/>
          <path id="Trazado_104910" data-name="Trazado 104910" d="M548.3,197.376a13.168,13.168,0,0,1,.524-3.743,9.878,9.878,0,0,1,1.545-3.148,5.775,5.775,0,0,1,2.215-1.9l.481,1.34a5.961,5.961,0,0,0-1.957,2.868,13.279,13.279,0,0,0-.7,4.534v.266a13.536,13.536,0,0,0,.7,4.551,6.1,6.1,0,0,0,1.966,2.91l-.481,1.315a5.786,5.786,0,0,1-2.176-1.851,9.719,9.719,0,0,1-1.541-3.061,13.062,13.062,0,0,1-.567-3.624Z" transform="translate(54.331 18.687)"/>
          <path id="Trazado_104911" data-name="Trazado 104911" d="M562.185,197.838a5.626,5.626,0,0,1-.953,3.482,3.159,3.159,0,0,1-2.662,1.25,2.9,2.9,0,0,1-2.414-1.16l-.111.987h-2.232V189.209h2.481v4.73a2.828,2.828,0,0,1,2.259-1,3.184,3.184,0,0,1,2.666,1.25,5.633,5.633,0,0,1,.966,3.516Zm-2.482-.18a3.7,3.7,0,0,0-.446-2.056,1.509,1.509,0,0,0-1.331-.648,1.637,1.637,0,0,0-1.632.97v3.667a1.66,1.66,0,0,0,1.649.978,1.532,1.532,0,0,0,1.581-1.185,6.122,6.122,0,0,0,.18-1.726" transform="translate(54.878 18.749)"/>
          <path id="Trazado_104912" data-name="Trazado 104912" d="M567.151,197.574a12.482,12.482,0,0,1-.558,3.735,10.151,10.151,0,0,1-1.606,3.169,5.791,5.791,0,0,1-2.241,1.889l-.48-1.313a6.048,6.048,0,0,0,1.923-2.833,13.168,13.168,0,0,0,.73-4.405v-.455a13.4,13.4,0,0,0-.7-4.525,6.3,6.3,0,0,0-1.953-2.937l.48-1.315a5.8,5.8,0,0,1,2.2,1.838,10.019,10.019,0,0,1,1.606,3.1,12.412,12.412,0,0,1,.6,3.667Z" transform="translate(55.716 18.687)"/>
        </g>
      </g>
    </g>
  </g>
</svg>
