<svg xmlns="http://www.w3.org/2000/svg" width="364.49" height="169.776" viewBox="0 0 364.49 169.776">
  <g id="Grupo_99596" data-name="Grupo 99596" transform="translate(-202 -4353.856)">
    <path id="Trazado_104059" data-name="Trazado 104059" d="M145.6,288.585H52.866V168.655H145.6" transform="translate(169.892 4223.291)" fill="none" stroke="#ea7596" stroke-miterlimit="10" stroke-width="2"/>
    <path id="Trazado_104060" data-name="Trazado 104060" d="M115.69,288.585H266.94V168.655H115.69" transform="translate(264.849 4223.291)" fill="none" stroke="#ea7596" stroke-miterlimit="10" stroke-width="2"/>
    <path id="Trazado_104062" data-name="Trazado 104062" d="M91.172,168.687s14.379-.978,14.379,7.837-14.379,7.018-14.379,7.018" transform="translate(222.313 4223.29)" fill="none" stroke="#ea7596" stroke-miterlimit="10" stroke-width="2"/>
    <path id="Trazado_104063" data-name="Trazado 104063" d="M91.172,175.036s14.379-.978,14.379,7.837-14.379,7.02-14.379,7.02" transform="translate(222.313 4231.979)" fill="none" stroke="#ea7596" stroke-miterlimit="10" stroke-width="2"/>
    <path id="Trazado_104064" data-name="Trazado 104064" d="M91.172,181.386s14.379-.981,14.379,7.835-14.379,7.02-14.379,7.02" transform="translate(222.313 4240.668)" fill="none" stroke="#ea7596" stroke-miterlimit="10" stroke-width="2"/>
    <path id="Trazado_104065" data-name="Trazado 104065" d="M91.172,187.735s14.379-.978,14.379,7.835-14.379,7.02-14.379,7.02" transform="translate(222.313 4249.358)" fill="none" stroke="#ea7596" stroke-miterlimit="10" stroke-width="2"/>
    <path id="Trazado_104066" data-name="Trazado 104066" d="M91.172,194.084s14.379-.978,14.379,7.837-14.379,7.018-14.379,7.018" transform="translate(222.313 4258.046)" fill="none" stroke="#ea7596" stroke-miterlimit="10" stroke-width="2"/>
    <path id="Trazado_104067" data-name="Trazado 104067" d="M91.172,200.434s14.379-.981,14.379,7.835-14.379,7.02-14.379,7.02" transform="translate(222.313 4266.736)" fill="none" stroke="#ea7596" stroke-miterlimit="10" stroke-width="2"/>
    <path id="Trazado_104068" data-name="Trazado 104068" d="M91.172,206.783s14.379-.981,14.379,7.835-14.379,7.02-14.379,7.02" transform="translate(222.313 4275.425)" fill="none" stroke="#ea7596" stroke-miterlimit="10" stroke-width="2"/>
    <path id="Trazado_104069" data-name="Trazado 104069" d="M91.172,212.974s14.379-.978,14.379,7.837-14.379,7.018-14.379,7.018" transform="translate(222.313 4283.897)" fill="none" stroke="#ea7596" stroke-miterlimit="10" stroke-width="2"/>
    <path id="Trazado_104070" data-name="Trazado 104070" d="M124.739,168.687s-14.379-.978-14.379,7.837,14.379,7.018,14.379,7.018" transform="translate(257.555 4223.29)" fill="none" stroke="#ea7596" stroke-miterlimit="10" stroke-width="2"/>
    <path id="Trazado_104071" data-name="Trazado 104071" d="M124.739,175.036s-14.379-.978-14.379,7.837,14.379,7.02,14.379,7.02" transform="translate(257.555 4231.979)" fill="none" stroke="#ea7596" stroke-miterlimit="10" stroke-width="2"/>
    <path id="Trazado_104072" data-name="Trazado 104072" d="M124.739,181.386s-14.379-.981-14.379,7.835,14.379,7.02,14.379,7.02" transform="translate(257.555 4240.668)" fill="none" stroke="#ea7596" stroke-miterlimit="10" stroke-width="2"/>
    <path id="Trazado_104073" data-name="Trazado 104073" d="M124.739,187.735s-14.379-.978-14.379,7.835,14.379,7.02,14.379,7.02" transform="translate(257.555 4249.358)" fill="none" stroke="#ea7596" stroke-miterlimit="10" stroke-width="2"/>
    <path id="Trazado_104074" data-name="Trazado 104074" d="M124.739,194.084s-14.379-.978-14.379,7.837,14.379,7.018,14.379,7.018" transform="translate(257.555 4258.046)" fill="none" stroke="#ea7596" stroke-miterlimit="10" stroke-width="2"/>
    <path id="Trazado_104075" data-name="Trazado 104075" d="M124.739,200.434s-14.379-.981-14.379,7.835,14.379,7.02,14.379,7.02" transform="translate(257.555 4266.736)" fill="none" stroke="#ea7596" stroke-miterlimit="10" stroke-width="2"/>
    <path id="Trazado_104076" data-name="Trazado 104076" d="M124.739,206.783s-14.379-.981-14.379,7.835,14.379,7.02,14.379,7.02" transform="translate(257.555 4275.425)" fill="none" stroke="#ea7596" stroke-miterlimit="10" stroke-width="2"/>
    <path id="Trazado_104077" data-name="Trazado 104077" d="M124.739,212.974S110.36,212,110.36,220.811s14.379,7.018,14.379,7.018" transform="translate(257.555 4283.897)" fill="none" stroke="#ea7596" stroke-miterlimit="10" stroke-width="2"/>
    <path id="Trazado_104078" data-name="Trazado 104078" d="M-6682.379-7254.706v-16.89h40.009" transform="translate(6905.137 11663.54)" fill="none" stroke="#00cca7" stroke-width="2"/>
    <path id="Trazado_104079" data-name="Trazado 104079" d="M-6682.379-7271.6v16.89h40.009" transform="translate(6905.137 11766.429)" fill="none" stroke="#00cca7" stroke-width="2"/>
    <path id="Trazado_104080" data-name="Trazado 104080" d="M-6589.51-7285.066v146.23" transform="translate(6928.899 11661.469)" fill="none" stroke="#ea7596" stroke-linecap="round" stroke-width="2"/>
    <path id="Trazado_104081" data-name="Trazado 104081" d="M-6589.51-7285.066v146.23" transform="translate(6936.76 11661.469)" fill="none" stroke="#ea7596" stroke-linecap="round" stroke-width="2"/>
    <path id="Trazado_104082" data-name="Trazado 104082" d="M-6589.51-7285.066v146.23" transform="translate(6945.743 11661.469)" fill="none" stroke="#ea7596" stroke-linecap="round" stroke-width="2"/>
    <path id="Trazado_104083" data-name="Trazado 104083" d="M-6517.418-7271.6h22.064" transform="translate(6934.389 11663.541)" fill="none" stroke="#00cca7" stroke-width="2"/>
    <path id="Trazado_104084" data-name="Trazado 104084" d="M-6642.37-7254.706v-16.89h-40.008" transform="translate(7174.159 11663.54)" fill="none" stroke="#00cca7" stroke-width="2"/>
    <path id="Trazado_104085" data-name="Trazado 104085" d="M-6633.4-7280.721v27.136h-121.985" transform="translate(7165.188 11765.461)" fill="none" stroke="#00cca7" stroke-width="2"/>
    <g id="Trazado_104205" data-name="Trazado 104205" transform="translate(459 4380) rotate(90)" fill="#fff">
      <path d="M 20.9732608795166 14 L 2.026739597320557 14 L 11.5 1.643573522567749 L 20.9732608795166 14 Z" stroke="none"/>
      <path d="M 11.5 3.287134170532227 L 4.053468704223633 13 L 18.94653129577637 13 L 11.5 3.287134170532227 M 11.5 0 L 23 15 L 0 15 L 11.5 0 Z" stroke="none" fill="#ea7596"/>
    </g>
    <path id="Trazado_104086" data-name="Trazado 104086" d="M-6480-7282v23.53" transform="translate(6938.987 11661.846)" fill="none" stroke="#ea7596" stroke-width="2"/>
    <g id="Trazado_104207" data-name="Trazado 104207" transform="translate(525 4428)" fill="#dedede">
      <path d="M 14 42 L 1 42 L 1 1 L 14 1 L 14 42 Z" stroke="none"/>
      <path d="M 2 2 L 2 41 L 13 41 L 13 2 L 2 2 M 0 0 L 15 0 L 15 43 L 0 43 L 0 0 Z" stroke="none" fill="#ea7596"/>
    </g>
    <path id="Trazado_104204" data-name="Trazado 104204" d="M9.753-10.774H5.869V0H4.283V-10.774H.407v-1.312H9.753Zm6.226,5.885H13.14V0h-1.6V-12.086h4a4.736,4.736,0,0,1,3.142.93,3.345,3.345,0,0,1,1.1,2.706,3.254,3.254,0,0,1-.61,1.967,3.642,3.642,0,0,1-1.7,1.253L20.312-.1V0H18.6Zm-2.839-1.3h2.449a2.765,2.765,0,0,0,1.888-.614,2.075,2.075,0,0,0,.7-1.644,2.185,2.185,0,0,0-.668-1.718,2.833,2.833,0,0,0-1.93-.606H13.14ZM26.662,0H25.118V-10.235L22.022-9.1v-1.395l4.4-1.652h.241Z" transform="translate(296 4366)" fill="#12263f"/>
    <path id="Trazado_104206" data-name="Trazado 104206" d="M1.4,0V-12.086H4.814a5.492,5.492,0,0,1,2.789.7A4.716,4.716,0,0,1,9.475-9.4a6.457,6.457,0,0,1,.668,2.955v.772a6.48,6.48,0,0,1-.66,3A4.642,4.642,0,0,1,7.6-.706,5.842,5.842,0,0,1,4.748,0ZM3-10.774V-1.3H4.673A3.65,3.65,0,0,0,7.541-2.449,4.73,4.73,0,0,0,8.566-5.711v-.706a4.8,4.8,0,0,0-.967-3.2,3.443,3.443,0,0,0-2.743-1.158ZM17.2,0H15.655V-10.235L12.559-9.1v-1.395l4.4-1.652H17.2Z" transform="translate(442 4366)" fill="#12263f"/>
    <path id="Trazado_104210" data-name="Trazado 104210" d="M6.179-5.177H3.173V0h-1.7V-12.8H5.713a5.014,5.014,0,0,1,3.327.984A3.542,3.542,0,0,1,10.2-8.947a3.445,3.445,0,0,1-.646,2.083,3.856,3.856,0,0,1-1.8,1.327L10.767-.105V0H8.956ZM3.173-6.557H5.766a2.928,2.928,0,0,0,2-.65,2.2,2.2,0,0,0,.743-1.74A2.314,2.314,0,0,0,7.8-10.767a3,3,0,0,0-2.043-.642H3.173ZM17.49,0H15.855V-10.837l-3.278,1.2v-1.477l4.658-1.749h.255Z" transform="translate(549 4454)" fill="#12263f"/>
    <g id="Trazado_104208" data-name="Trazado 104208" transform="translate(202 4429)" fill="#e0e0e0">
      <path d="M 22.5 44 C 19.59708023071289 44 16.78152084350586 43.43167877197266 14.13154029846191 42.31082916259766 C 11.57145023345947 41.22800827026367 9.272049903869629 39.67763900756836 7.297200202941895 37.70280075073242 C 5.322360038757324 35.72795104980469 3.771990060806274 33.42855072021484 2.689169883728027 30.86845970153809 C 1.568320035934448 28.21847915649414 1 25.40291976928711 1 22.5 C 1 19.59708023071289 1.568320035934448 16.78152084350586 2.689169883728027 14.13154029846191 C 3.771990060806274 11.57145023345947 5.322360038757324 9.272049903869629 7.297200202941895 7.297200202941895 C 9.272049903869629 5.322360038757324 11.57145023345947 3.771990060806274 14.13154029846191 2.689169883728027 C 16.78152084350586 1.568320035934448 19.59708023071289 1 22.5 1 C 25.40291976928711 1 28.21847915649414 1.568320035934448 30.86845970153809 2.689169883728027 C 33.42855072021484 3.771990060806274 35.72795104980469 5.322360038757324 37.70280075073242 7.297200202941895 C 39.67763900756836 9.272049903869629 41.22800827026367 11.57145023345947 42.31082916259766 14.13154029846191 C 43.43167877197266 16.78152084350586 44 19.59708023071289 44 22.5 C 44 25.40291976928711 43.43167877197266 28.21847915649414 42.31082916259766 30.86845970153809 C 41.22800827026367 33.42855072021484 39.67763900756836 35.72795104980469 37.70280075073242 37.70280075073242 C 35.72795104980469 39.67763900756836 33.42855072021484 41.22800827026367 30.86845970153809 42.31082916259766 C 28.21847915649414 43.43167877197266 25.40291976928711 44 22.5 44 Z" stroke="none"/>
      <path d="M 22.5 2 C 19.73163986206055 2 17.04714012145996 2.541740417480469 14.52108955383301 3.61016845703125 C 12.0802001953125 4.642578125 9.887641906738281 6.120979309082031 8.004310607910156 8.004310607910156 C 6.120979309082031 9.887641906738281 4.642578125 12.0802001953125 3.61016845703125 14.52108955383301 C 2.541740417480469 17.04714012145996 2 19.73163986206055 2 22.5 C 2 25.26836013793945 2.541740417480469 27.95285987854004 3.61016845703125 30.47891044616699 C 4.642578125 32.9197998046875 6.120979309082031 35.11235809326172 8.004310607910156 36.99568939208984 C 9.887641906738281 38.87902069091797 12.0802001953125 40.357421875 14.52108955383301 41.38983154296875 C 17.04714012145996 42.45825958251953 19.73163986206055 43 22.5 43 C 25.26836013793945 43 27.95285987854004 42.45825958251953 30.47891044616699 41.38983154296875 C 32.9197998046875 40.357421875 35.11235809326172 38.87902069091797 36.99568939208984 36.99568939208984 C 38.87902069091797 35.11235809326172 40.357421875 32.9197998046875 41.38983154296875 30.47891044616699 C 42.45825958251953 27.95285987854004 43 25.26836013793945 43 22.5 C 43 19.73163986206055 42.45825958251953 17.04714012145996 41.38983154296875 14.52108955383301 C 40.357421875 12.0802001953125 38.87902069091797 9.887641906738281 36.99568939208984 8.004310607910156 C 35.11235809326172 6.120979309082031 32.9197998046875 4.642578125 30.47891044616699 3.61016845703125 C 27.95285987854004 2.541740417480469 25.26836013793945 2 22.5 2 M 22.5 0 C 34.92641067504883 0 45 10.07358932495117 45 22.5 C 45 34.92641067504883 34.92641067504883 45 22.5 45 C 10.07358932495117 45 0 34.92641067504883 0 22.5 C 0 10.07358932495117 10.07358932495117 0 22.5 0 Z" stroke="none" fill="#ea7596"/>
    </g>
    <path id="Trazado_104087" data-name="Trazado 104087" d="M0,12.76S.3-4.764,12.092,5.354,26.6,0,26.6,0" transform="translate(212.817 4441.072) rotate(11)" fill="none" stroke="#ea7596" stroke-linecap="round" stroke-width="2"/>
  </g>
</svg>
