<svg xmlns="http://www.w3.org/2000/svg" width="370" height="180" viewBox="0 0 370 180">
  <g id="Grupo_99563" data-name="Grupo 99563" transform="translate(-1036 -4355)">
    <path id="Trazado_104088" data-name="Trazado 104088" d="M145.6,288.585H52.866V168.655H145.6" transform="translate(1003.892 4223.291)" fill="none" stroke="#ea7596" stroke-miterlimit="10" stroke-width="2"/>
    <path id="Trazado_104089" data-name="Trazado 104089" d="M115.69,288.585H224.934V168.655H115.69" transform="translate(1098.849 4223.291)" fill="none" stroke="#ea7596" stroke-miterlimit="10" stroke-width="2"/>
    <path id="Trazado_104090" data-name="Trazado 104090" d="M91.172,168.687s14.379-.978,14.379,7.837-14.379,7.018-14.379,7.018" transform="translate(1056.313 4223.29)" fill="none" stroke="#ea7596" stroke-miterlimit="10" stroke-width="2"/>
    <path id="Trazado_104091" data-name="Trazado 104091" d="M91.172,175.036s14.379-.978,14.379,7.837-14.379,7.02-14.379,7.02" transform="translate(1056.313 4231.979)" fill="none" stroke="#ea7596" stroke-miterlimit="10" stroke-width="2"/>
    <path id="Trazado_104092" data-name="Trazado 104092" d="M91.172,181.386s14.379-.981,14.379,7.835-14.379,7.02-14.379,7.02" transform="translate(1056.313 4240.668)" fill="none" stroke="#ea7596" stroke-miterlimit="10" stroke-width="2"/>
    <path id="Trazado_104093" data-name="Trazado 104093" d="M91.172,187.735s14.379-.978,14.379,7.835-14.379,7.02-14.379,7.02" transform="translate(1056.313 4249.358)" fill="none" stroke="#ea7596" stroke-miterlimit="10" stroke-width="2"/>
    <path id="Trazado_104094" data-name="Trazado 104094" d="M91.172,194.084s14.379-.978,14.379,7.837-14.379,7.018-14.379,7.018" transform="translate(1056.313 4258.046)" fill="none" stroke="#ea7596" stroke-miterlimit="10" stroke-width="2"/>
    <path id="Trazado_104095" data-name="Trazado 104095" d="M91.172,200.434s14.379-.981,14.379,7.835-14.379,7.02-14.379,7.02" transform="translate(1056.313 4266.736)" fill="none" stroke="#ea7596" stroke-miterlimit="10" stroke-width="2"/>
    <path id="Trazado_104096" data-name="Trazado 104096" d="M91.172,206.783s14.379-.981,14.379,7.835-14.379,7.02-14.379,7.02" transform="translate(1056.313 4275.425)" fill="none" stroke="#ea7596" stroke-miterlimit="10" stroke-width="2"/>
    <path id="Trazado_104097" data-name="Trazado 104097" d="M91.172,212.974s14.379-.978,14.379,7.837-14.379,7.018-14.379,7.018" transform="translate(1056.313 4283.897)" fill="none" stroke="#ea7596" stroke-miterlimit="10" stroke-width="2"/>
    <path id="Trazado_104098" data-name="Trazado 104098" d="M124.739,168.687s-14.379-.978-14.379,7.837,14.379,7.018,14.379,7.018" transform="translate(1091.555 4223.29)" fill="none" stroke="#ea7596" stroke-miterlimit="10" stroke-width="2"/>
    <path id="Trazado_104099" data-name="Trazado 104099" d="M124.739,175.036s-14.379-.978-14.379,7.837,14.379,7.02,14.379,7.02" transform="translate(1091.555 4231.979)" fill="none" stroke="#ea7596" stroke-miterlimit="10" stroke-width="2"/>
    <path id="Trazado_104100" data-name="Trazado 104100" d="M124.739,181.386s-14.379-.981-14.379,7.835,14.379,7.02,14.379,7.02" transform="translate(1091.555 4240.668)" fill="none" stroke="#ea7596" stroke-miterlimit="10" stroke-width="2"/>
    <path id="Trazado_104101" data-name="Trazado 104101" d="M124.739,187.735s-14.379-.978-14.379,7.835,14.379,7.02,14.379,7.02" transform="translate(1091.555 4249.358)" fill="none" stroke="#ea7596" stroke-miterlimit="10" stroke-width="2"/>
    <path id="Trazado_104102" data-name="Trazado 104102" d="M124.739,208.939s-14.379,1.8-14.379-7.018,14.379-7.837,14.379-7.837" transform="translate(1091.555 4258.046)" fill="none" stroke="#ea7596" stroke-miterlimit="10" stroke-width="2"/>
    <path id="Trazado_104103" data-name="Trazado 104103" d="M124.739,200.434s-14.379-.981-14.379,7.835,14.379,7.02,14.379,7.02" transform="translate(1091.555 4266.736)" fill="none" stroke="#ea7596" stroke-miterlimit="10" stroke-width="2"/>
    <path id="Trazado_104104" data-name="Trazado 104104" d="M124.739,206.783s-14.379-.981-14.379,7.835,14.379,7.02,14.379,7.02" transform="translate(1091.555 4275.425)" fill="none" stroke="#ea7596" stroke-miterlimit="10" stroke-width="2"/>
    <path id="Trazado_104105" data-name="Trazado 104105" d="M124.739,212.974S110.36,212,110.36,220.811s14.379,7.018,14.379,7.018" transform="translate(1091.555 4283.897)" fill="none" stroke="#ea7596" stroke-miterlimit="10" stroke-width="2"/>
    <path id="Trazado_104106" data-name="Trazado 104106" d="M-6682.379-7254.706v-16.89h40.009" transform="translate(7739.137 11663.54)" fill="none" stroke="#00cca7" stroke-width="2"/>
    <path id="Trazado_104107" data-name="Trazado 104107" d="M-6682.379-7271.6v16.89h40.009" transform="translate(7739.137 11766.429)" fill="none" stroke="#00cca7" stroke-width="2"/>
    <path id="Trazado_104108" data-name="Trazado 104108" d="M-6589.51-7285.066v146.23" transform="translate(7762.899 11661.469)" fill="none" stroke="#ea7596" stroke-linecap="round" stroke-width="2"/>
    <path id="Trazado_104109" data-name="Trazado 104109" d="M-6589.51-7285.066v146.23" transform="translate(7770.76 11661.469)" fill="none" stroke="#ea7596" stroke-linecap="round" stroke-width="2"/>
    <path id="Trazado_104110" data-name="Trazado 104110" d="M-6589.51-7285.066v146.23" transform="translate(7779.743 11661.469)" fill="none" stroke="#ea7596" stroke-linecap="round" stroke-width="2"/>
    <path id="Trazado_104111" data-name="Trazado 104111" d="M-6517.419-7271.6h72.813" transform="translate(7768.389 11663.541)" fill="none" stroke="#00cca7" stroke-width="2"/>
    <text id="TR1" transform="translate(1130 4371)" fill="#12263f" font-size="17" font-family="Roboto-Regular, Roboto"><tspan x="0" y="0">TR1</tspan></text>
    <g id="Elipse_4678" data-name="Elipse 4678" transform="translate(1036 4429)" fill="#e0e0e0" stroke="#ea7596" stroke-width="2">
      <circle cx="22.5" cy="22.5" r="22.5" stroke="none"/>
      <circle cx="22.5" cy="22.5" r="21.5" fill="none"/>
    </g>
    <path id="Trazado_104115" data-name="Trazado 104115" d="M0,12.76S.3-4.764,12.092,5.354,26.6,0,26.6,0" transform="translate(1046.817 4441.072) rotate(11)" fill="none" stroke="#ea7596" stroke-linecap="round" stroke-width="2"/>
    <path id="Trazado_104120" data-name="Trazado 104120" d="M-6480-7258.469" transform="translate(7772.987 11782.34)" fill="none" stroke="#ea7596" stroke-width="2"/>
    <path id="Trazado_104128" data-name="Trazado 104128" d="M-6517.419-7271.6h72.813" transform="translate(7768.389 11783.318)" fill="none" stroke="#00cca7" stroke-width="2"/>
    <g id="Rectángulo_33781" data-name="Rectángulo 33781" transform="translate(1266 4454)" fill="none" stroke="#ea7596" stroke-width="2">
      <rect width="134" height="81" stroke="none"/>
      <rect x="1" y="1" width="132" height="79" fill="none"/>
    </g>
    <path id="Trazado_104129" data-name="Trazado 104129" d="M-5678.008-7246v79.965h118.958" transform="translate(6945.021 11700)" fill="none" stroke="#00cca7" stroke-width="2"/>
    <path id="Trazado_104130" data-name="Trazado 104130" d="M-6642.37-7254.706v-16.89h-40.009" transform="translate(8041.32 11726.596)" fill="none" stroke="#00cca7" stroke-width="2"/>
    <g id="Rectángulo_33782" data-name="Rectángulo 33782" transform="translate(1391 4481)" fill="#dedede" stroke="#ea7596" stroke-width="2">
      <rect width="15" height="43" stroke="none"/>
      <rect x="1" y="1" width="13" height="41" fill="none"/>
    </g>
    <g id="Rectángulo_33783" data-name="Rectángulo 33783" transform="translate(1323 4411.985) rotate(45)" fill="#f0f0f0" stroke="#ea7596" stroke-width="2">
      <rect width="60" height="60" stroke="none"/>
      <rect x="1" y="1" width="58" height="58" fill="none"/>
    </g>
    <g id="Polígono_30" data-name="Polígono 30" transform="translate(1300.593 4419.027) rotate(45)" fill="#e0e0e0">
      <path d="M 20.9732608795166 14 L 2.026739597320557 14 L 11.5 1.643573522567749 L 20.9732608795166 14 Z" stroke="none"/>
      <path d="M 11.5 3.287134170532227 L 4.053468704223633 13 L 18.94653129577637 13 L 11.5 3.287134170532227 M 11.5 0 L 23 15 L 0 15 L 11.5 0 Z" stroke="none" fill="#ea7596"/>
    </g>
    <path id="Trazado_104131" data-name="Trazado 104131" d="M-6480-7282v23.53" transform="translate(11031.678 4986.027) rotate(-45)" fill="none" stroke="#ea7596" stroke-width="2"/>
    <g id="Polígono_31" data-name="Polígono 31" transform="translate(1358.841 4432.609) rotate(135)" fill="#e0e0e0">
      <path d="M 20.9732608795166 14 L 2.026739597320557 14 L 11.5 1.643573522567749 L 20.9732608795166 14 Z" stroke="none"/>
      <path d="M 11.5 3.287134170532227 L 4.053468704223633 13 L 18.94653129577637 13 L 11.5 3.287134170532227 M 11.5 0 L 23 15 L 0 15 L 11.5 0 Z" stroke="none" fill="#ea7596"/>
    </g>
    <path id="Trazado_104132" data-name="Trazado 104132" d="M-6480-7282v23.53" transform="translate(791.841 14163.694) rotate(45)" fill="none" stroke="#ea7596" stroke-width="2"/>
    <g id="Polígono_32" data-name="Polígono 32" transform="translate(1349.287 4485.275) rotate(-135)" fill="#e0e0e0">
      <path d="M 20.9732608795166 14 L 2.026739597320557 14 L 11.5 1.643573522567749 L 20.9732608795166 14 Z" stroke="none"/>
      <path d="M 11.5 3.287134170532227 L 4.053468704223633 13 L 18.94653129577637 13 L 11.5 3.287134170532227 M 11.5 0 L 23 15 L 0 15 L 11.5 0 Z" stroke="none" fill="#ea7596"/>
    </g>
    <path id="Trazado_104133" data-name="Trazado 104133" d="M-6480-7282v23.53" transform="translate(-8381.799 3918.275) rotate(135)" fill="none" stroke="#ea7596" stroke-width="2"/>
    <g id="Polígono_33" data-name="Polígono 33" transform="translate(1290.243 4479.364) rotate(-45)" fill="#e0e0e0">
      <path d="M 20.9732608795166 14 L 2.026739597320557 14 L 11.5 1.643573522567749 L 20.9732608795166 14 Z" stroke="none"/>
      <path d="M 11.5 3.287134170532227 L 4.053468704223633 13 L 18.94653129577637 13 L 11.5 3.287134170532227 M 11.5 0 L 23 15 L 0 15 L 11.5 0 Z" stroke="none" fill="#ea7596"/>
    </g>
    <path id="Trazado_104134" data-name="Trazado 104134" d="M-6480-7282v23.53" transform="translate(1857.243 -5251.721) rotate(-135)" fill="none" stroke="#ea7596" stroke-width="2"/>
    <text id="BRIDGE" transform="translate(1335 4413)" fill="#12263f" font-size="17" font-family="Roboto-Regular, Roboto"><tspan x="0" y="0">BRIDGE</tspan></text>
    <text id="BR1" transform="translate(1363 4371)" fill="#12263f" font-size="17" font-family="Roboto-Regular, Roboto"><tspan x="0" y="0">BR1</tspan></text>
  </g>
</svg>
