<svg xmlns="http://www.w3.org/2000/svg" xmlns:xlink="http://www.w3.org/1999/xlink" width="922" height="282" viewBox="0 0 922 282">
  <defs>
    <clipPath id="clip-path">
      <rect id="Rectángulo_34346" data-name="Rectángulo 34346" width="884.757" height="235.369" fill="none"/>
    </clipPath>
  </defs>
  <g id="Grupo_99890" data-name="Grupo 99890" transform="translate(2724 7636)">
    <g id="Rectángulo_34345" data-name="Rectángulo 34345" transform="translate(-2724 -7636)" fill="#fff" stroke="#707070" stroke-width="1">
      <rect width="922" height="282" stroke="none"/>
      <rect x="0.5" y="0.5" width="921" height="281" fill="none"/>
    </g>
    <g id="Grupo_99889" data-name="Grupo 99889" transform="translate(-2705 -7613)">
      <path id="Trazado_105273" data-name="Trazado 105273" d="M197.619,84.616V7.055H6.8V168.144H71.509l33.773-32.774-.27-128.4" transform="translate(1.292 1.324)" fill="none" stroke="#416e3c" stroke-miterlimit="10" stroke-width="2"/>
      <g id="Grupo_99878" data-name="Grupo 99878">
        <g id="Grupo_99877" data-name="Grupo 99877" clip-path="url(#clip-path)">
          <path id="Trazado_105274" data-name="Trazado 105274" d="M89.555,172.861v33.961h92.337V143.948" transform="translate(17.019 27.356)" fill="none" stroke="#416e3c" stroke-miterlimit="10" stroke-width="2"/>
        </g>
      </g>
      <line id="Línea_226" data-name="Línea 226" x2="45.078" transform="translate(176.981 86.501)" fill="none" stroke="#d80505" stroke-miterlimit="10" stroke-width="2"/>
      <line id="Línea_227" data-name="Línea 227" x2="16.521" transform="translate(190.477 93.743)" fill="none" stroke="#d80505" stroke-miterlimit="10" stroke-width="2"/>
      <line id="Línea_228" data-name="Línea 228" y2="7.14" transform="translate(199.928 104.817)" fill="none" stroke="#d80505" stroke-miterlimit="10" stroke-width="2"/>
      <line id="Línea_229" data-name="Línea 229" y2="18.53" transform="translate(199.928 124.311)" fill="none" stroke="#d80505" stroke-miterlimit="10" stroke-width="2" stroke-dasharray="10.381 10.381"/>
      <line id="Línea_230" data-name="Línea 230" y2="7.14" transform="translate(199.928 149.019)" fill="none" stroke="#d80505" stroke-miterlimit="10" stroke-width="2"/>
      <line id="Línea_231" data-name="Línea 231" x2="45.078" transform="translate(176.082 163.043)" fill="none" stroke="#d80505" stroke-miterlimit="10" stroke-width="2"/>
      <line id="Línea_232" data-name="Línea 232" x2="16.521" transform="translate(190.768 170.285)" fill="none" stroke="#d80505" stroke-miterlimit="10" stroke-width="2"/>
      <line id="Línea_233" data-name="Línea 233" x2="16.521" transform="translate(54.166 169.468)" fill="none" stroke="#d80505" stroke-miterlimit="10" stroke-width="2"/>
      <line id="Línea_234" data-name="Línea 234" y2="16.521" transform="translate(8.09 120.301)" fill="none" stroke="#d80505" stroke-miterlimit="10" stroke-width="2"/>
      <line id="Línea_235" data-name="Línea 235" y2="16.521" transform="translate(8.09 55.27)" fill="none" stroke="#d80505" stroke-miterlimit="10" stroke-width="2"/>
      <line id="Línea_236" data-name="Línea 236" y2="16.521" transform="translate(106.256 23.239)" fill="none" stroke="#d80505" stroke-miterlimit="10" stroke-width="2"/>
      <line id="Línea_237" data-name="Línea 237" y2="16.521" transform="translate(106.506 87.301)" fill="none" stroke="#d80505" stroke-miterlimit="10" stroke-width="2"/>
      <line id="Línea_238" data-name="Línea 238" y2="16.521" transform="translate(106.506 200.254)" fill="none" stroke="#d80505" stroke-miterlimit="10" stroke-width="2"/>
      <line id="Línea_239" data-name="Línea 239" y2="16.521" transform="translate(199.029 171.101)" fill="none" stroke="#d80505" stroke-miterlimit="10" stroke-width="2"/>
      <line id="Línea_240" data-name="Línea 240" y2="16.521" transform="translate(199.029 69.979)" fill="none" stroke="#d80505" stroke-miterlimit="10" stroke-width="2"/>
      <rect id="Rectángulo_34347" data-name="Rectángulo 34347" width="12.995" height="48.319" transform="translate(1.19 71.981)" fill="#e0e0d0"/>
      <g id="Grupo_99880" data-name="Grupo 99880">
        <g id="Grupo_99879" data-name="Grupo 99879" clip-path="url(#clip-path)">
          <rect id="Rectángulo_34348" data-name="Rectángulo 34348" width="12.995" height="48.319" transform="translate(1.19 71.981)" fill="none" stroke="#d80505" stroke-miterlimit="10" stroke-width="2"/>
        </g>
      </g>
      <rect id="Rectángulo_34350" data-name="Rectángulo 34350" width="12.995" height="48.319" transform="translate(99.758 39.371)" fill="#e0e0d0"/>
      <rect id="Rectángulo_34351" data-name="Rectángulo 34351" width="12.995" height="48.319" transform="translate(99.758 39.371)" fill="none" stroke="#d80505" stroke-miterlimit="10" stroke-width="2"/>
      <path id="Trazado_105275" data-name="Trazado 105275" d="M73.375,163.837l8.828-9.551,7.352,15.485Z" transform="translate(13.945 29.321)" fill="#e0e0d0"/>
      <path id="Trazado_105276" data-name="Trazado 105276" d="M73.375,163.837l8.828-9.551,7.352,15.485Z" transform="translate(13.945 29.321)" fill="none" stroke="#d80505" stroke-miterlimit="10" stroke-width="2"/>
      <line id="Línea_241" data-name="Línea 241" x2="10.837" y2="11.186" transform="translate(80.859 177.238)" fill="#e0e0d0"/>
      <line id="Línea_242" data-name="Línea 242" x2="10.837" y2="11.186" transform="translate(80.859 177.238)" fill="none" stroke="#d80505" stroke-miterlimit="10" stroke-width="2"/>
      <text id="RB" transform="translate(25.908 88.031)" font-size="18" font-family="Roboto-Regular, Roboto"><tspan x="0" y="0">RB</tspan></text>
      <text id="RC" transform="translate(122.235 55.3)" font-size="18" font-family="Roboto-Regular, Roboto"><tspan x="0" y="0">RC</tspan></text>
      <text id="B1" transform="translate(234.461 103.968)" font-size="18" font-family="Roboto-Regular, Roboto"><tspan x="0" y="0">B1</tspan></text>
      <g id="Grupo_99882" data-name="Grupo 99882">
        <g id="Grupo_99881" data-name="Grupo 99881" clip-path="url(#clip-path)">
          <path id="Trazado_105277" data-name="Trazado 105277" d="M96.288,9.03a5.658,5.658,0,1,1-5.659-5.659A5.659,5.659,0,0,1,96.288,9.03" transform="translate(16.148 0.641)" fill="#416e3c"/>
          <line id="Línea_243" data-name="Línea 243" y1="143.46" x2="0.258" transform="translate(419.156 7.077)" fill="none" stroke="#416e3c" stroke-miterlimit="10" stroke-width="2"/>
          <line id="Línea_244" data-name="Línea 244" y2="39.317" transform="translate(321.458 96.407)" fill="#e0e0d0"/>
          <line id="Línea_245" data-name="Línea 245" y2="39.317" transform="translate(321.458 96.407)" fill="none" stroke="#d80505" stroke-miterlimit="10" stroke-width="2"/>
          <path id="Trazado_105278" data-name="Trazado 105278" d="M460.943,83.58V6.019H270.122V74.868" transform="translate(51.335 1.144)" fill="none" stroke="#416e3c" stroke-miterlimit="10" stroke-width="2"/>
          <path id="Trazado_105279" data-name="Trazado 105279" d="M352.248,171.839V205.8h93.088V142.926" transform="translate(66.943 27.162)" fill="none" stroke="#416e3c" stroke-miterlimit="10" stroke-width="2"/>
          <line id="Línea_246" data-name="Línea 246" x2="45.078" transform="translate(490.349 85.284)" fill="none" stroke="#d80505" stroke-miterlimit="10" stroke-width="2"/>
          <line id="Línea_247" data-name="Línea 247" x2="16.523" transform="translate(503.845 92.526)" fill="none" stroke="#d80505" stroke-miterlimit="10" stroke-width="2"/>
          <line id="Línea_248" data-name="Línea 248" y2="7.14" transform="translate(513.296 103.601)" fill="none" stroke="#d80505" stroke-miterlimit="10" stroke-width="2"/>
          <line id="Línea_249" data-name="Línea 249" y2="18.53" transform="translate(513.296 123.095)" fill="none" stroke="#d80505" stroke-miterlimit="10" stroke-width="2" stroke-dasharray="10.381 10.381"/>
          <line id="Línea_250" data-name="Línea 250" y2="7.14" transform="translate(513.296 147.802)" fill="none" stroke="#d80505" stroke-miterlimit="10" stroke-width="2"/>
          <line id="Línea_251" data-name="Línea 251" x2="45.078" transform="translate(489.45 161.827)" fill="none" stroke="#d80505" stroke-miterlimit="10" stroke-width="2"/>
          <line id="Línea_252" data-name="Línea 252" x2="16.523" transform="translate(504.136 169.068)" fill="none" stroke="#d80505" stroke-miterlimit="10" stroke-width="2"/>
          <rect id="Rectángulo_34352" data-name="Rectángulo 34352" width="12.995" height="48.319" transform="translate(314.559 70.765)" fill="#e0e0d0"/>
          <rect id="Rectángulo_34353" data-name="Rectángulo 34353" width="12.995" height="48.319" transform="translate(314.559 70.765)" fill="none" stroke="#d80505" stroke-miterlimit="10" stroke-width="2"/>
          <rect id="Rectángulo_34354" data-name="Rectángulo 34354" width="12.995" height="48.319" transform="translate(412.916 38.155)" fill="#e0e0d0"/>
          <rect id="Rectángulo_34355" data-name="Rectángulo 34355" width="12.995" height="48.319" transform="translate(412.916 38.155)" fill="none" stroke="#d80505" stroke-miterlimit="10" stroke-width="2"/>
        </g>
      </g>
      <text id="RB-2" data-name="RB" transform="translate(339.276 86.814)" font-size="18" font-family="Roboto-Regular, Roboto"><tspan x="0" y="0">RB</tspan></text>
      <text id="RC-2" data-name="RC" transform="translate(435.603 54.083)" font-size="18" font-family="Roboto-Regular, Roboto"><tspan x="0" y="0">RC</tspan></text>
      <text id="B1-2" data-name="B1" transform="translate(551.389 102.751)" font-size="18" font-family="Roboto-Regular, Roboto"><tspan x="0" y="0">B1</tspan></text>
      <g id="Grupo_99884" data-name="Grupo 99884">
        <g id="Grupo_99883" data-name="Grupo 99883" clip-path="url(#clip-path)">
          <path id="Trazado_105280" data-name="Trazado 105280" d="M358.889,8.008a5.658,5.658,0,1,1-5.659-5.659,5.659,5.659,0,0,1,5.659,5.659" transform="translate(66.054 0.446)" fill="#416e3c"/>
          <path id="Trazado_105281" data-name="Trazado 105281" d="M358,131.456a4.959,4.959,0,1,1-4.959-4.959A4.959,4.959,0,0,1,358,131.456" transform="translate(66.151 24.04)" fill="#e0e0d0"/>
          <circle id="Elipse_4696" data-name="Elipse 4696" cx="4.959" cy="4.959" r="4.959" transform="translate(414.232 150.537)" fill="none" stroke="#d80505" stroke-miterlimit="10" stroke-width="2"/>
          <line id="Línea_253" data-name="Línea 253" x2="20.099" y2="33.333" transform="translate(396.77 160.455)" fill="#e0e0d0"/>
          <line id="Línea_254" data-name="Línea 254" x2="20.099" y2="33.333" transform="translate(396.77 160.455)" fill="none" stroke="#d80505" stroke-miterlimit="10" stroke-width="2"/>
          <path id="Trazado_105282" data-name="Trazado 105282" d="M358,163.633a4.959,4.959,0,1,1-4.959-4.959A4.959,4.959,0,0,1,358,163.633" transform="translate(66.151 30.155)" fill="#e0e0d0"/>
          <circle id="Elipse_4697" data-name="Elipse 4697" cx="4.959" cy="4.959" r="4.959" transform="translate(414.232 188.83)" fill="none" stroke="#d80505" stroke-miterlimit="10" stroke-width="2"/>
          <line id="Línea_255" data-name="Línea 255" y1="143.46" x2="0.515" transform="translate(729.963 4.281)" fill="none" stroke="#416e3c" stroke-miterlimit="10" stroke-width="2"/>
          <path id="Trazado_105283" data-name="Trazado 105283" d="M722.116,81.231V3.67H531.295V179.287h65.237" transform="translate(100.97 0.697)" fill="none" stroke="#416e3c" stroke-miterlimit="10" stroke-width="2"/>
          <path id="Trazado_105284" data-name="Trazado 105284" d="M613.391,169.489v33.962h93.122V140.576" transform="translate(116.572 26.716)" fill="none" stroke="#416e3c" stroke-miterlimit="10" stroke-width="2"/>
          <line id="Línea_256" data-name="Línea 256" x2="45.078" transform="translate(801.156 82.488)" fill="none" stroke="#d80505" stroke-miterlimit="10" stroke-width="2"/>
          <line id="Línea_257" data-name="Línea 257" x2="16.521" transform="translate(814.652 89.73)" fill="none" stroke="#d80505" stroke-miterlimit="10" stroke-width="2"/>
          <line id="Línea_258" data-name="Línea 258" y2="7.14" transform="translate(824.103 100.805)" fill="none" stroke="#d80505" stroke-miterlimit="10" stroke-width="2"/>
          <line id="Línea_259" data-name="Línea 259" y2="18.53" transform="translate(824.103 120.299)" fill="none" stroke="#d80505" stroke-miterlimit="10" stroke-width="2" stroke-dasharray="10.381 10.381"/>
          <line id="Línea_260" data-name="Línea 260" y2="7.14" transform="translate(824.103 145.006)" fill="none" stroke="#d80505" stroke-miterlimit="10" stroke-width="2"/>
          <line id="Línea_261" data-name="Línea 261" x2="45.078" transform="translate(800.257 159.031)" fill="none" stroke="#d80505" stroke-miterlimit="10" stroke-width="2"/>
          <line id="Línea_262" data-name="Línea 262" x2="16.521" transform="translate(814.943 166.272)" fill="none" stroke="#d80505" stroke-miterlimit="10" stroke-width="2"/>
          <rect id="Rectángulo_34357" data-name="Rectángulo 34357" width="12.995" height="48.319" transform="translate(625.365 67.969)" fill="#e0e0d0"/>
          <rect id="Rectángulo_34358" data-name="Rectángulo 34358" width="12.995" height="48.319" transform="translate(625.365 67.969)" fill="none" stroke="#d80505" stroke-miterlimit="10" stroke-width="2"/>
          <rect id="Rectángulo_34359" data-name="Rectángulo 34359" width="12.995" height="48.319" transform="translate(723.115 35.359)" fill="#e0e0d0"/>
          <rect id="Rectángulo_34360" data-name="Rectángulo 34360" width="12.995" height="48.319" transform="translate(723.115 35.359)" fill="none" stroke="#d80505" stroke-miterlimit="10" stroke-width="2"/>
        </g>
      </g>
      <text id="RB-3" data-name="RB" transform="translate(650.083 84.018)" font-size="18" font-family="Roboto-Regular, Roboto"><tspan x="0" y="0">RB</tspan></text>
      <text id="RC-3" data-name="RC" transform="translate(746.41 51.287)" font-size="18" font-family="Roboto-Regular, Roboto"><tspan x="0" y="0">RC</tspan></text>
      <g id="Grupo_99886" data-name="Grupo 99886">
        <g id="Grupo_99885" data-name="Grupo 99885" clip-path="url(#clip-path)">
          <text id="B1-3" data-name="B1" transform="translate(862.211 99.954)" font-size="18" font-family="Roboto-Regular, Roboto"><tspan x="0" y="0">B1</tspan></text>
          <path id="Trazado_105285" data-name="Trazado 105285" d="M620.17,5.658A5.659,5.659,0,1,1,614.512,0a5.659,5.659,0,0,1,5.659,5.659" transform="translate(115.709 0)" fill="#416e3c"/>
          <path id="Trazado_105286" data-name="Trazado 105286" d="M592.675,152.146a5.658,5.658,0,1,1-5.659-5.659,5.659,5.659,0,0,1,5.659,5.659" transform="translate(110.484 27.839)" fill="#416e3c"/>
          <path id="Trazado_105287" data-name="Trazado 105287" d="M619.172,129.107a4.959,4.959,0,1,1-4.959-4.959,4.959,4.959,0,0,1,4.959,4.959" transform="translate(115.785 23.594)" fill="#e0e0d0"/>
          <circle id="Elipse_4698" data-name="Elipse 4698" cx="4.959" cy="4.959" r="4.959" transform="translate(725.039 147.741)" fill="none" stroke="#d80505" stroke-miterlimit="10" stroke-width="2"/>
          <line id="Línea_263" data-name="Línea 263" x2="4.924" y2="37.655" transform="translate(725.039 152.7)" fill="#e0e0d0"/>
          <line id="Línea_264" data-name="Línea 264" x2="4.924" y2="37.655" transform="translate(725.039 152.7)" fill="none" stroke="#d80505" stroke-miterlimit="10" stroke-width="2"/>
          <path id="Trazado_105288" data-name="Trazado 105288" d="M619.142,161.284a4.959,4.959,0,1,1-4.959-4.959,4.959,4.959,0,0,1,4.959,4.959" transform="translate(115.78 29.709)" fill="#e0e0d0"/>
          <circle id="Elipse_4699" data-name="Elipse 4699" cx="4.959" cy="4.959" r="4.959" transform="translate(725.004 186.034)" fill="none" stroke="#d80505" stroke-miterlimit="10" stroke-width="2"/>
          <line id="Línea_265" data-name="Línea 265" x2="27.319" transform="translate(703.16 179.984)" fill="#e0e0d0"/>
          <line id="Línea_266" data-name="Línea 266" x2="27.319" transform="translate(703.16 179.984)" fill="none" stroke="#d80505" stroke-miterlimit="10" stroke-width="2"/>
          <path id="Trazado_105289" data-name="Trazado 105289" d="M93.853,99.742l.038,18L66.739,144.087" transform="translate(12.683 18.956)" fill="none" stroke="#d80505" stroke-miterlimit="10" stroke-width="2"/>
          <rect id="Rectángulo_34362" data-name="Rectángulo 34362" width="10.17" height="48.319" transform="translate(70.689 143.961)" fill="#e0e0d0"/>
          <rect id="Rectángulo_34363" data-name="Rectángulo 34363" width="10.17" height="48.319" transform="translate(70.689 143.961)" fill="none" stroke="#d80505" stroke-miterlimit="10" stroke-width="2"/>
          <line id="Línea_267" data-name="Línea 267" y2="16.521" transform="translate(321.458 54.054)" fill="none" stroke="#d80505" stroke-miterlimit="10" stroke-width="2"/>
          <line id="Línea_268" data-name="Línea 268" y2="16.521" transform="translate(419.414 21.633)" fill="none" stroke="#d80505" stroke-miterlimit="10" stroke-width="2"/>
          <line id="Línea_269" data-name="Línea 269" y2="16.521" transform="translate(419.285 86.085)" fill="none" stroke="#d80505" stroke-miterlimit="10" stroke-width="2"/>
          <line id="Línea_270" data-name="Línea 270" y2="16.521" transform="translate(419.156 134.348)" fill="none" stroke="#d80505" stroke-miterlimit="10" stroke-width="2"/>
          <line id="Línea_271" data-name="Línea 271" y2="16.521" transform="translate(512.397 170.088)" fill="none" stroke="#d80505" stroke-miterlimit="10" stroke-width="2"/>
          <line id="Línea_272" data-name="Línea 272" y2="16.521" transform="translate(823.086 166.065)" fill="none" stroke="#d80505" stroke-miterlimit="10" stroke-width="2"/>
          <line id="Línea_273" data-name="Línea 273" y2="16.521" transform="translate(729.963 195.952)" fill="none" stroke="#d80505" stroke-miterlimit="10" stroke-width="2"/>
          <line id="Línea_274" data-name="Línea 274" y2="16.521" transform="translate(729.963 131.553)" fill="none" stroke="#d80505" stroke-miterlimit="10" stroke-width="2"/>
          <line id="Línea_275" data-name="Línea 275" y2="16.521" transform="translate(730.221 83.678)" fill="none" stroke="#d80505" stroke-miterlimit="10" stroke-width="2"/>
          <line id="Línea_276" data-name="Línea 276" y2="16.521" transform="translate(730.221 18.837)" fill="none" stroke="#d80505" stroke-miterlimit="10" stroke-width="2"/>
          <line id="Línea_277" data-name="Línea 277" y2="16.521" transform="translate(632.265 52.135)" fill="none" stroke="#d80505" stroke-miterlimit="10" stroke-width="2"/>
          <line id="Línea_278" data-name="Línea 278" y2="16.521" transform="translate(632.265 116.288)" fill="none" stroke="#d80505" stroke-miterlimit="10" stroke-width="2"/>
          <line id="Línea_279" data-name="Línea 279" y2="16.521" transform="translate(823.086 65.966)" fill="none" stroke="#d80505" stroke-miterlimit="10" stroke-width="2"/>
          <line id="Línea_280" data-name="Línea 280" y2="16.521" transform="translate(512.397 68.762)" fill="none" stroke="#d80505" stroke-miterlimit="10" stroke-width="2"/>
        </g>
      </g>
      <g id="Grupo_99888" data-name="Grupo 99888">
        <g id="Grupo_99887" data-name="Grupo 99887" clip-path="url(#clip-path)">
          <path id="Trazado_105290" data-name="Trazado 105290" d="M339.091,127.587a6.684,6.684,0,1,1,6.684-6.684,6.685,6.685,0,0,1-6.684,6.684" transform="translate(63.172 21.707)"/>
          <circle id="Elipse_4700" data-name="Elipse 4700" cx="6.684" cy="6.684" r="6.684" transform="translate(395.579 135.925)" fill="none" stroke="#d80505" stroke-miterlimit="10" stroke-width="2"/>
          <line id="Línea_281" data-name="Línea 281" x1="7.435" transform="translate(398.546 142.609)" fill="none" stroke="#d80505" stroke-miterlimit="10" stroke-width="1"/>
          <path id="Trazado_105291" data-name="Trazado 105291" d="M336.613,117.544l-1.712,2.728L336.613,123" transform="translate(63.646 22.339)" fill="none" stroke="#d80505" stroke-miterlimit="10" stroke-width="1"/>
          <path id="Trazado_105292" data-name="Trazado 105292" d="M339.709,117.544l1.712,2.728L339.709,123" transform="translate(64.56 22.339)" fill="none" stroke="#d80505" stroke-miterlimit="10" stroke-width="1"/>
          <path id="Trazado_105293" data-name="Trazado 105293" d="M600.265,125.238a6.684,6.684,0,1,1,6.684-6.684,6.685,6.685,0,0,1-6.684,6.684" transform="translate(112.807 21.26)"/>
          <circle id="Elipse_4701" data-name="Elipse 4701" cx="6.684" cy="6.684" r="6.684" transform="matrix(0.851, -0.526, 0.526, 0.851, 703.87, 137.642)" fill="none" stroke="#d80505" stroke-miterlimit="10" stroke-width="2"/>
          <line id="Línea_282" data-name="Línea 282" x1="7.435" transform="translate(709.353 139.813)" fill="none" stroke="#d80505" stroke-miterlimit="10" stroke-width="1"/>
          <path id="Trazado_105294" data-name="Trazado 105294" d="M597.785,115.194l-1.713,2.728,1.713,2.726" transform="translate(113.28 21.892)" fill="none" stroke="#d80505" stroke-miterlimit="10" stroke-width="1"/>
          <path id="Trazado_105295" data-name="Trazado 105295" d="M600.881,115.194l1.712,2.728-1.712,2.726" transform="translate(114.194 21.892)" fill="none" stroke="#d80505" stroke-miterlimit="10" stroke-width="1"/>
        </g>
      </g>
    </g>
  </g>
</svg>
