<svg xmlns="http://www.w3.org/2000/svg" xmlns:xlink="http://www.w3.org/1999/xlink" width="486" height="304.667" viewBox="0 0 486 304.667">
  <defs>
    <clipPath id="clip-path">
      <rect id="Rectángulo_34143" data-name="Rectángulo 34143" width="485.714" height="303.667" fill="none"/>
    </clipPath>
  </defs>
  <g id="Grupo_99819" data-name="Grupo 99819" transform="translate(5297 6467)">
    <g id="Trazado_104726" data-name="Trazado 104726" transform="translate(-5297 -6467)" fill="#fff">
      <path d="M 485.5 303.5 L 0.5 303.5 L 0.5 0.5 L 485.5 0.5 L 485.5 303.5 Z" stroke="none"/>
      <path d="M 1 1 L 1 303 L 485 303 L 485 1 L 1 1 M 0 0 L 486 0 L 486 304 L 0 304 L 0 0 Z" stroke="none" fill="#707070"/>
    </g>
    <g id="Grupo_99818" data-name="Grupo 99818" transform="translate(-5297 -6466)">
      <rect id="Rectángulo_34144" data-name="Rectángulo 34144" width="0.588" height="10.817" transform="matrix(0.322, -0.947, 0.947, 0.322, 242.762, 95.306)" fill="#7d6529"/>
      <g id="Grupo_99817" data-name="Grupo 99817">
        <g id="Grupo_99816" data-name="Grupo 99816" clip-path="url(#clip-path)">
          <path id="Trazado_104526" data-name="Trazado 104526" d="M333.292,214.513h0c-21.379,0-38.71-10.4-38.71-21.218V125.842a38.71,38.71,0,0,1,77.42,0v67.452c0,9.711-17.331,21.218-38.71,21.218" transform="translate(-121.359 -35.896)" fill="#c8eea5"/>
          <path id="Trazado_104527" data-name="Trazado 104527" d="M308.445,222.878c-7.679,2.21-14.146,5.671-18.629,9.94-4.319,4.092-6.808,8.942-6.808,14.12a16.829,16.829,0,0,0,1.693,7.275C288.224,261.6,296.977,267.7,308.445,271a61.124,61.124,0,0,0,6.744,1.566q2.292.417,4.7.682a75.068,75.068,0,0,0,8.349.455,74.169,74.169,0,0,0,8.651-.505c.72-.076,1.44-.177,2.147-.278l1.338-.771,2.109-1.225,5.583-3.246,23.605-13.691.265-.151a16.777,16.777,0,0,0,1.528-6.9c0-4.951-2.273-9.586-6.227-13.552-5.57-5.6-14.449-9.877-25.058-11.91h-.025" transform="translate(-116.59 -91.241)" fill="#c8eea5"/>
          <path id="Trazado_104528" data-name="Trazado 104528" d="M348.041,248.581c8.007,2.312,14.688,5.974,19.2,10.508a23.068,23.068,0,0,1,4.433,6.063c.088.189.189.392.265.581a16.351,16.351,0,0,1,0,13.8L348.078,293.38l-5.6,3.246-3.448,2c-.707.1-1.427.2-2.16.278a73.97,73.97,0,0,1-8.639.505c-2.286,0-4.534-.1-6.719-.291-.556-.051-1.1-.1-1.629-.164-.392-.038-.783-.088-1.175-.139H318.7c-1.2-.152-2.362-.329-3.511-.543a62.542,62.542,0,0,1-6.454-1.478,2.606,2.606,0,0,1-.29-.088c-.29-.076-.593-.164-.884-.265h-.025a.74.74,0,0,1-.215-.076h-.013c-14.449-4.458-24.3-13.413-24.3-23.719a16.815,16.815,0,0,1,1.692-7.262,23.316,23.316,0,0,1,5.115-6.858c4.484-4.269,10.95-7.73,18.629-9.94" transform="translate(-116.591 -102.408)" fill="#c8eea5"/>
          <path id="Trazado_104529" data-name="Trazado 104529" d="M332.85,214.7c-20.957,0-39.341-10.21-39.341-21.849V125.4a39.341,39.341,0,0,1,78.683,0v67.452c0,5-4.356,10.536-11.651,14.8A55.654,55.654,0,0,1,332.85,214.7m0-127.381A38.121,38.121,0,0,0,294.772,125.4v67.452c0,10.967,17.793,20.586,38.078,20.586,21.093,0,38.079-11.262,38.079-20.586V125.4A38.121,38.121,0,0,0,332.85,87.322" transform="translate(-120.916 -35.454)"/>
          <path id="Trazado_104530" data-name="Trazado 104530" d="M333.1,180.288c-31.494,0-38.9-19.109-38.969-19.3a.277.277,0,1,1,.52-.192c.07.189,7.363,18.939,38.45,18.939s38.38-18.751,38.45-18.939a.277.277,0,0,1,.52.192c-.071.193-7.475,19.3-38.97,19.3" transform="translate(-121.165 -66.168)" fill="#7d6529"/>
          <path id="Trazado_104531" data-name="Trazado 104531" d="M331.581,200.649a.275.275,0,0,1-.144-.041l-5.509-3.348a.278.278,0,0,1,.005-.477l5.563-3.229a.276.276,0,0,1,.278,0l5.563,3.229a.277.277,0,0,1,0,.478l-5.617,3.348a.277.277,0,0,1-.142.039m-4.967-3.62,4.968,3.02,5.069-3.022-5.017-2.911Z" transform="translate(-134.217 -79.723)" fill="#7d6529"/>
          <path id="Trazado_104532" data-name="Trazado 104532" d="M381.1,232.79a.277.277,0,0,1-.232-.125l-4.073-6.176a.277.277,0,0,1,.093-.392l5.563-3.229a.278.278,0,0,1,.37.087l4.073,6.176a.277.277,0,0,1,.039.216.283.283,0,0,1-.131.176l-5.563,3.228a.275.275,0,0,1-.139.038m-3.68-6.36,3.768,5.712,5.084-2.95-3.768-5.713Z" transform="translate(-155.207 -91.799)" fill="#7d6529"/>
          <path id="Trazado_104533" data-name="Trazado 104533" d="M383.949,310.322a.278.278,0,0,1-.277-.278v-73.2a.277.277,0,0,1,.138-.24l5.563-3.229a.278.278,0,0,1,.416.239l.054,73.15a.277.277,0,0,1-.138.239l-5.617,3.284a.282.282,0,0,1-.141.038M384.227,237v72.563l5.062-2.96-.053-72.51Z" transform="translate(-158.061 -96.126)" fill="#7d6529"/>
          <path id="Trazado_104534" data-name="Trazado 104534" d="M335.441,207.064a.278.278,0,0,1-.277-.278v-4.153a.277.277,0,0,1,.135-.238l5.617-3.349a.278.278,0,0,1,.419.238v4.153a.276.276,0,0,1-.136.238l-5.617,3.349a.275.275,0,0,1-.142.039m.278-4.273V206.3l5.062-3.018v-3.508Z" transform="translate(-138.077 -81.985)" fill="#7d6529"/>
          <path id="Trazado_104535" data-name="Trazado 104535" d="M368.348,300.794a.272.272,0,0,1-.139-.038l-5.621-3.258a.278.278,0,0,1-.138-.24l.038-49.918-6.1-3.532a.276.276,0,0,1-.122-.146l-10.458-29.2a.267.267,0,0,1-.016-.093v-3.89a.277.277,0,0,1,.418-.239l4.761,2.792a.277.277,0,0,1-.28.478l-4.344-2.547v3.358l10.407,29.06,6.151,3.561a.278.278,0,0,1,.139.24L363,297.1l5.066,2.937V227.4l-4-6.053-3.9-2.279a.277.277,0,1,1,.28-.479l3.954,2.312a.291.291,0,0,1,.091.086l4.08,6.176a.281.281,0,0,1,.046.153v73.2a.278.278,0,0,1-.278.278" transform="translate(-142.455 -86.596)" fill="#7d6529"/>
          <path id="Trazado_104536" data-name="Trazado 104536" d="M364.276,219.144a.266.266,0,0,1-.136-.036l-3.875-2.265a13.337,13.337,0,0,1-1.987.151c-4.433,0-8.04-2.143-8.04-4.778a2.975,2.975,0,0,1,.256-1.1l-4.555-2.668a.27.27,0,0,1,0-.466l5.563-3.229a.269.269,0,0,1,.271,0l4.814,2.794c5.139-.649,9.727,1.707,9.727,4.67a2.951,2.951,0,0,1-.155.926l3.816,2.272a.271.271,0,0,1,0,.466l-5.563,3.229a.265.265,0,0,1-.136.036m-3.957-2.853a.269.269,0,0,1,.136.036l3.822,2.234,5.03-2.92-3.615-2.152a.269.269,0,0,1-.112-.334,2.489,2.489,0,0,0,.2-.941c0-2.651-4.356-4.771-9.208-4.122a.263.263,0,0,1-.171-.034L351.64,205.3l-5.028,2.918,4.361,2.554a.27.27,0,0,1,.109.345,2.831,2.831,0,0,0-.3,1.1c0,2.337,3.365,4.239,7.5,4.239a12.852,12.852,0,0,0,2-.159.25.25,0,0,1,.042,0" transform="translate(-142.462 -84.336)" fill="#7d6529"/>
          <path id="Trazado_104537" data-name="Trazado 104537" d="M367.92,214.882c0,1.7-2.165,3.074-4.835,3.074s-4.835-1.376-4.835-3.074,2.165-3.074,4.835-3.074,4.835,1.376,4.835,3.074" transform="translate(-147.587 -87.258)" fill="#fffb00"/>
          <path id="Trazado_104538" data-name="Trazado 104538" d="M362.9,218.036c-2.815,0-5.105-1.5-5.105-3.343s2.29-3.344,5.105-3.344,5.105,1.5,5.105,3.344-2.29,3.343-5.105,3.343m0-6.147c-2.517,0-4.565,1.258-4.565,2.8s2.048,2.8,4.565,2.8,4.565-1.257,4.565-2.8-2.048-2.8-4.565-2.8" transform="translate(-147.398 -87.069)" fill="#7d6529"/>
          <path id="Trazado_104539" data-name="Trazado 104539" d="M332.817,280.725a.278.278,0,0,1-.278-.277v-50.47a.278.278,0,0,1,.416-.24l9.493,5.512-11.127-28.36a.278.278,0,0,1-.019-.1v-4l-4.952-3.01v76.752a.277.277,0,0,1-.555,0V199.288a.277.277,0,0,1,.421-.237l5.507,3.346a.279.279,0,0,1,.133.237v4.1l11.4,29.051a.277.277,0,0,1-.4.341l-9.763-5.669v49.988a.278.278,0,0,1-.278.277" transform="translate(-134.217 -81.986)" fill="#7d6529"/>
          <path id="Trazado_104540" data-name="Trazado 104540" d="M332.817,381.777a.272.272,0,0,1-.139-.038l-6.745-3.915a.276.276,0,0,1-.138-.239V352.021a.277.277,0,0,1,.555,0v25.405l6.19,3.592V355.937a.278.278,0,0,1,.555,0V381.5a.278.278,0,0,1-.278.278" transform="translate(-134.217 -144.907)" fill="#7d6529"/>
          <path id="Trazado_104541" data-name="Trazado 104541" d="M337.542,339.03a.272.272,0,0,1-.278-.271v-.013a.278.278,0,0,1,.555,0,.283.283,0,0,1-.278.283" transform="translate(-138.942 -139.439)" fill="#7d6529"/>
          <path id="Trazado_104542" data-name="Trazado 104542" d="M337.542,339.03a.272.272,0,0,1-.278-.271v-.013a.278.278,0,0,1,.555,0,.283.283,0,0,1-.278.283" transform="translate(-138.942 -139.439)" fill="#7d6529"/>
          <path id="Trazado_104543" data-name="Trazado 104543" d="M337.542,302.227a.278.278,0,0,1-.278-.277V251.48a.278.278,0,0,1,.555,0v50.47a.278.278,0,0,1-.278.277" transform="translate(-138.942 -103.488)" fill="#7d6529"/>
          <path id="Trazado_104544" data-name="Trazado 104544" d="M332.954,348.09a.277.277,0,0,1-.139-.037l-9.958-5.78a.276.276,0,0,1-.138-.239V330.316a.278.278,0,0,1,.416-.24l9.958,5.78a.276.276,0,0,1,.139.239v11.718a.278.278,0,0,1-.278.276m-9.681-6.217,9.4,5.459V336.256l-9.4-5.458Z" transform="translate(-132.95 -135.966)" fill="#7d6529"/>
          <path id="Trazado_104545" data-name="Trazado 104545" d="M332.953,336.083a.277.277,0,0,1-.138-.037l-1.4-.808a.278.278,0,0,1-.061-.048l-.671-.382-6.7-3.9a.268.268,0,0,1-.051-.022l-1.073-.632a.277.277,0,0,1,0-.478l.67-.392a.257.257,0,0,1,.1-.035.338.338,0,0,1,.249.013l.142.088a.282.282,0,0,1,.166.25.267.267,0,0,1-.265.276H323.9a.277.277,0,0,1-.146-.041l-.032-.02-.171.1.629.371a.208.208,0,0,1,.048.02l7.463,4.331a.283.283,0,0,1,.062.049l1.2.692.594-.348a.277.277,0,1,1,.28.477l-.733.43a.276.276,0,0,1-.14.038" transform="translate(-132.952 -135.677)" fill="#7d6529"/>
          <path id="Trazado_104546" data-name="Trazado 104546" d="M332.817,334.842a.281.281,0,0,1-.139-.037l-6.745-3.916a.277.277,0,1,1,.278-.479l6.744,3.915a.277.277,0,0,1-.139.517" transform="translate(-134.217 -136.103)" fill="#7d6529"/>
          <path id="Trazado_104547" data-name="Trazado 104547" d="M339.93,349.941a.277.277,0,0,1-.277-.277V337.948a.276.276,0,0,1,.138-.24l5.405-3.138a.278.278,0,0,1,.416.24v11.716a.276.276,0,0,1-.138.239l-5.405,3.138a.276.276,0,0,1-.139.038m.278-11.834v11.076l4.851-2.816V335.291Z" transform="translate(-139.926 -137.817)" fill="#7d6529"/>
          <path id="Trazado_104548" data-name="Trazado 104548" d="M338.431,337.323a.277.277,0,0,1-.138-.037l-1.4-.808a.277.277,0,0,1-.061-.048l-.671-.382a.277.277,0,0,1,.275-.482l.733.417a.267.267,0,0,1,.062.049l1.2.692,4.864-2.817-1.568-.96-1.031.61a.308.308,0,0,1-.055.025l-3.47,2.034a.277.277,0,0,1-.28-.478l3.511-2.059a.27.27,0,0,1,.053-.024l1.133-.67a.281.281,0,0,1,.286,0l2.108,1.288a.277.277,0,0,1,0,.476l-5.4,3.132a.276.276,0,0,1-.14.038" transform="translate(-138.429 -136.917)" fill="#7d6529"/>
          <path id="Trazado_104549" data-name="Trazado 104549" d="M324.087,330.48a.324.324,0,0,1-.153-.038l-1.073-.632a.277.277,0,0,1,0-.478l.67-.392a.28.28,0,0,1,.056-.025l1.079-.631a.277.277,0,1,1,.282.477l-1.073.632-.068.034a.239.239,0,0,1-.038.016l-.22.129.65.382a.279.279,0,0,1,.159.249.272.272,0,0,1-.271.277" transform="translate(-132.952 -135.227)" fill="#7d6529"/>
          <path id="Trazado_104550" data-name="Trazado 104550" d="M326.072,330.812a.277.277,0,0,1-.136-.518l.29-.165a.277.277,0,0,1,.272.483l-.291.164a.276.276,0,0,1-.136.036" transform="translate(-134.217 -135.988)" fill="#7d6529"/>
          <path id="Trazado_104551" data-name="Trazado 104551" d="M379.367,374.375a.272.272,0,0,1-.139-.038l-9.959-5.78a.276.276,0,0,1-.138-.24V356.6a.277.277,0,0,1,.416-.24l9.958,5.78a.276.276,0,0,1,.139.239V374.1a.278.278,0,0,1-.278.277m-9.681-6.217,9.4,5.458V362.541l-9.4-5.458Z" transform="translate(-152.07 -146.794)" fill="#7d6529"/>
          <path id="Trazado_104552" data-name="Trazado 104552" d="M379.368,362.657a.272.272,0,0,1-.139-.038l-9.953-5.784a.277.277,0,1,1,.279-.479l9.812,5.7.593-.347a.277.277,0,1,1,.28.477l-.733.429a.277.277,0,0,1-.14.038" transform="translate(-152.074 -146.792)" fill="#7d6529"/>
          <path id="Trazado_104553" data-name="Trazado 104553" d="M380.017,361.585a.275.275,0,0,1-.139-.038l-5.621-3.258a.275.275,0,0,1-.057-.044.283.283,0,0,1-.006-.4.269.269,0,0,1,.385-.007l5.576,3.227a.277.277,0,0,1-.139.517" transform="translate(-154.124 -147.387)" fill="#7d6529"/>
          <path id="Trazado_104554" data-name="Trazado 104554" d="M371.6,356.945a.277.277,0,0,1-.139-.038l-2.185-1.276a.277.277,0,0,1,0-.479l2.93-1.718a.277.277,0,1,1,.28.478l-2.521,1.478,1.776,1.037a.277.277,0,0,1-.139.517" transform="translate(-152.074 -145.588)" fill="#7d6529"/>
          <path id="Trazado_104555" data-name="Trazado 104555" d="M374.389,358.313h-.012a.277.277,0,1,1,0-.555.283.283,0,0,1,.283.277.273.273,0,0,1-.271.278" transform="translate(-154.117 -147.385)" fill="#7d6529"/>
          <path id="Trazado_104556" data-name="Trazado 104556" d="M337.542,383.75a.278.278,0,0,1-.278-.278V357.91a.278.278,0,1,1,.555,0v25.082l4.144-2.405V356.811a.277.277,0,1,1,.555,0v23.936a.277.277,0,0,1-.138.239l-4.7,2.727a.272.272,0,0,1-.139.038" transform="translate(-138.942 -146.88)" fill="#7d6529"/>
          <path id="Trazado_104557" data-name="Trazado 104557" d="M337.542,302.226a.278.278,0,0,1-.278-.277V251.48a.278.278,0,0,1,.416-.24l4.7,2.728a.277.277,0,0,1,.138.239V299.2a.277.277,0,0,1-.555,0V254.368l-4.144-2.406v49.988a.278.278,0,0,1-.278.277" transform="translate(-138.942 -103.488)" fill="#7d6529"/>
          <path id="Trazado_104558" data-name="Trazado 104558" d="M337.542,339.03a.272.272,0,0,1-.278-.271v-.013a.278.278,0,0,1,.555,0,.283.283,0,0,1-.278.283" transform="translate(-138.942 -139.439)" fill="#7d6529"/>
          <path id="Trazado_104559" data-name="Trazado 104559" d="M386.343,375.853a.277.277,0,0,1-.277-.278V363.86a.277.277,0,0,1,.138-.24l6.321-3.669a.277.277,0,0,1,.416.239v11.717a.277.277,0,0,1-.138.239l-6.321,3.67a.276.276,0,0,1-.139.038m.278-11.834v11.076l5.767-3.348V360.671Z" transform="translate(-159.047 -148.273)" fill="#7d6529"/>
          <path id="Trazado_104560" data-name="Trazado 104560" d="M384.845,363.241a.272.272,0,0,1-.139-.038l-2.135-1.238a.277.277,0,1,1,.278-.479l2,1.156,5.783-3.359-1.579-.949-5.466,3.2a.277.277,0,0,1-.28-.478l5.607-3.284a.277.277,0,0,1,.283,0l2.122,1.275a.278.278,0,0,1,0,.478l-6.327,3.675a.277.277,0,0,1-.14.038" transform="translate(-157.551 -147.376)" fill="#7d6529"/>
          <path id="Trazado_104561" data-name="Trazado 104561" d="M380.021,408.906a.272.272,0,0,1-.139-.038l-5.607-3.254a.277.277,0,0,1-.138-.24V379.431a.277.277,0,0,1,.416-.239l5.607,3.254a.278.278,0,0,1,.138.24v25.944a.277.277,0,0,1-.278.277m-5.329-3.691,5.052,2.933v-25.3l-5.052-2.932Z" transform="translate(-154.133 -156.199)" fill="#7d6529"/>
          <path id="Trazado_104562" data-name="Trazado 104562" d="M383.949,410.051a.279.279,0,0,1-.278-.278V383.829a.277.277,0,0,1,.416-.239l1.27.736,4.064-2.359a.277.277,0,0,1,.416.239v24.31a.276.276,0,0,1-.139.239l-5.611,3.257a.273.273,0,0,1-.139.038m.278-25.74v24.982l5.056-2.935V382.688l-3.786,2.2a.274.274,0,0,1-.278,0Zm5.333,22.206h0Z" transform="translate(-158.06 -157.343)" fill="#7d6529"/>
          <path id="Trazado_104563" data-name="Trazado 104563" d="M360.743,219.38h-.012a.318.318,0,1,1,0-.635.323.323,0,0,1,.323.318.312.312,0,0,1-.311.318" transform="translate(-148.479 -90.116)" fill="#7d6529"/>
          <path id="Trazado_104564" data-name="Trazado 104564" d="M327.793,273.89a75.779,75.779,0,0,1-8.418-.459c-1.613-.178-3.208-.409-4.741-.688a62.1,62.1,0,0,1-6.809-1.582c-11.762-3.381-20.561-9.62-24.138-17.119a17.5,17.5,0,0,1-1.754-7.547c0-5.2,2.422-10.238,7.005-14.579,4.58-4.361,11.112-7.85,18.889-10.088a.631.631,0,1,1,.349,1.214c-7.582,2.182-13.934,5.568-18.369,9.79-4.326,4.1-6.611,8.822-6.611,13.664a16.227,16.227,0,0,0,1.631,7c3.421,7.172,11.931,13.168,23.349,16.449a60.694,60.694,0,0,0,6.677,1.551c1.509.275,3.076.5,4.661.676a75.26,75.26,0,0,0,16.857-.05c.664-.07,1.308-.158,2.011-.258l8.923-5.179L371,252.947a16.1,16.1,0,0,0,1.391-6.451c0-4.609-2.089-9.141-6.043-13.107-5.547-5.573-14.324-9.74-24.716-11.733a.64.64,0,0,1-.539-.623.621.621,0,0,1,.619-.632.908.908,0,0,1,.144.011c10.643,2.04,19.66,6.332,25.386,12.085,4.194,4.207,6.411,9.048,6.411,14a17.41,17.41,0,0,1-1.584,7.154.636.636,0,0,1-.262.29l-.265.152-32.635,18.931a.622.622,0,0,1-.226.078c-.736.1-1.455.205-2.17.28a75.3,75.3,0,0,1-8.718.509" transform="translate(-116.148 -90.799)"/>
          <path id="Trazado_104565" data-name="Trazado 104565" d="M355.633,244.144h-.012a.318.318,0,1,1,0-.635.323.323,0,0,1,.323.318.312.312,0,0,1-.311.318" transform="translate(-146.373 -100.318)" fill="#7d6529"/>
          <path id="Trazado_104566" data-name="Trazado 104566" d="M327.794,299.593c-2.253,0-4.532-.1-6.774-.293-.565-.051-1.114-.1-1.649-.166-.375-.036-.764-.086-1.154-.136l-.038,0c-1.266-.159-2.427-.339-3.548-.549a63.349,63.349,0,0,1-6.512-1.491,2.933,2.933,0,0,1-.306-.092c-.272-.071-.553-.153-.826-.246a1.262,1.262,0,0,1-.314-.1c-15.259-4.711-24.739-14.03-24.739-24.32a17.453,17.453,0,0,1,1.754-7.533,23.959,23.959,0,0,1,5.251-7.045c4.581-4.361,11.113-7.85,18.889-10.089a.632.632,0,1,1,.349,1.214c-7.581,2.182-13.933,5.567-18.368,9.79a22.711,22.711,0,0,0-4.98,6.671A16.194,16.194,0,0,0,283.2,272.2c0,9.709,9.124,18.559,23.815,23.1a.645.645,0,0,1,.149.051v.012a.742.742,0,0,1,.165.032c.275.1.561.179.836.25a.6.6,0,0,1,.062.021,2,2,0,0,0,.222.066,62.462,62.462,0,0,0,6.41,1.469c1.095.2,2.223.379,3.454.535l.041,0c.385.049.77.1,1.155.136.538.064,1.076.114,1.625.164a75.456,75.456,0,0,0,15.227-.213c.674-.07,1.32-.159,2.023-.259L371,278.652a15.7,15.7,0,0,0-.081-13.1c-.063-.156-.128-.293-.192-.427l-.069-.146a22.467,22.467,0,0,0-4.307-5.883c-4.457-4.483-11-8.061-18.926-10.348a.631.631,0,1,1,.35-1.213c8.13,2.346,14.863,6.036,19.47,10.669a23.758,23.758,0,0,1,4.552,6.228l.072.152c.075.158.152.32.213.475a16.967,16.967,0,0,1-.011,14.3.628.628,0,0,1-.259.288l-32.9,19.085a.624.624,0,0,1-.228.078c-.765.109-1.457.206-2.184.281a74.828,74.828,0,0,1-8.7.508m43.7-20.5h0Z" transform="translate(-116.148 -101.965)"/>
          <path id="Trazado_104567" data-name="Trazado 104567" d="M282.787,279.408a.318.318,0,0,1-.318-.318V264.555a.318.318,0,1,1,.635,0v14.536a.318.318,0,0,1-.318.318" transform="translate(-116.368 -108.857)" fill="#7d6529"/>
          <path id="Trazado_104568" data-name="Trazado 104568" d="M436.609,278.072a.317.317,0,0,1-.318-.317v-13.2a.318.318,0,1,1,.635,0v13.2a.317.317,0,0,1-.318.317" transform="translate(-179.738 -108.857)" fill="#7d6529"/>
          <path id="Trazado_104569" data-name="Trazado 104569" d="M433.8,291.223a.631.631,0,0,1-.632-.632V276.056a.632.632,0,0,1,1.263,0v14.536a.631.631,0,0,1-.632.632" transform="translate(-178.452 -113.466)"/>
          <path id="Trazado_104570" data-name="Trazado 104570" d="M353.581,209.477a.883.883,0,0,1-.833-.59c-.191-.544-4.816-13.274-16.962-10.055a.882.882,0,1,1-.451-1.705c13.725-3.639,19.027,11.029,19.079,11.177a.881.881,0,0,1-.833,1.173" transform="translate(-137.877 -80.971)" fill="#7d6529"/>
          <path id="Trazado_104571" data-name="Trazado 104571" d="M346.858,239.069a.276.276,0,0,1-.258-.176l-11.417-29.1a.277.277,0,0,1,.116-.339l5.617-3.349a.277.277,0,0,1,.4.137l1.047,2.666a.277.277,0,0,1-.393.343v3.367l8.6,24.016a.275.275,0,0,1-.119.331L347,239.031a.275.275,0,0,1-.142.039m-11.073-29.255L347,238.387l2.98-1.776-8.544-23.846a.268.268,0,0,1-.017-.094v-3.9a.277.277,0,0,1,.14-.24.312.312,0,0,1,.053-.024l-.689-1.755Z" transform="translate(-138.077 -84.895)" fill="#7d6529"/>
          <path id="Trazado_104572" data-name="Trazado 104572" d="M332.814,278.82a.28.28,0,0,1-.144-.04l-6.742-4.1a.277.277,0,0,1,.288-.474l6.6,4.013,4.558-2.646a.277.277,0,0,1,.278.479l-4.7,2.728a.277.277,0,0,1-.139.037" transform="translate(-134.217 -112.948)" fill="#7d6529"/>
          <path id="Trazado_104573" data-name="Trazado 104573" d="M379.891,307.435a.28.28,0,0,1-.144-.04l-5.793-3.521a.277.277,0,0,1,.289-.473l5.651,3.435,5.474-3.2a.277.277,0,0,1,.28.478l-5.617,3.287a.278.278,0,0,1-.14.038" transform="translate(-154.003 -124.975)" fill="#7d6529"/>
          <path id="Trazado_104574" data-name="Trazado 104574" d="M377.845,323.684a.631.631,0,0,1-.632-.632V308.516a.632.632,0,1,1,1.263,0v14.537a.631.631,0,0,1-.632.632" transform="translate(-155.4 -126.839)"/>
          <path id="Trazado_104575" data-name="Trazado 104575" d="M117.264,103.516H114v2.667h3.788v.811h-4.78V99.469h4.729v.811H114V102.7h3.261Z" transform="translate(-46.557 -40.978)"/>
          <path id="Trazado_104576" data-name="Trazado 104576" d="M123.89,102.683l.031.7a2.037,2.037,0,0,1,1.674-.806q1.773,0,1.788,2v3.7h-.956v-3.7a1.284,1.284,0,0,0-.276-.894,1.107,1.107,0,0,0-.845-.289,1.38,1.38,0,0,0-.816.248,1.682,1.682,0,0,0-.548.651v3.985h-.956v-5.592Z" transform="translate(-50.666 -42.26)"/>
          <path id="Trazado_104577" data-name="Trazado 104577" d="M134.987,107.6a1.38,1.38,0,0,0,.894-.31,1.093,1.093,0,0,0,.423-.776h.9a1.731,1.731,0,0,1-.33.915,2.183,2.183,0,0,1-.814.693,2.346,2.346,0,0,1-1.077.258,2.306,2.306,0,0,1-1.817-.762,3.039,3.039,0,0,1-.674-2.086v-.16a3.375,3.375,0,0,1,.3-1.452,2.287,2.287,0,0,1,.86-.987,2.448,2.448,0,0,1,1.326-.351,2.243,2.243,0,0,1,1.564.563,2.016,2.016,0,0,1,.664,1.462h-.9a1.321,1.321,0,0,0-.41-.891,1.282,1.282,0,0,0-.913-.349,1.338,1.338,0,0,0-1.13.525,2.463,2.463,0,0,0-.4,1.517v.181a2.413,2.413,0,0,0,.4,1.488,1.345,1.345,0,0,0,1.137.522" transform="translate(-54.584 -42.26)"/>
          <path id="Trazado_104578" data-name="Trazado 104578" d="M145.679,108.276a1.99,1.99,0,0,1-.134-.589,2.134,2.134,0,0,1-1.592.693,1.973,1.973,0,0,1-1.357-.467,1.512,1.512,0,0,1-.53-1.186,1.58,1.58,0,0,1,.664-1.357,3.132,3.132,0,0,1,1.868-.483h.93v-.439a1.075,1.075,0,0,0-.3-.8,1.2,1.2,0,0,0-.884-.3,1.394,1.394,0,0,0-.858.259.76.76,0,0,0-.346.625h-.961a1.318,1.318,0,0,1,.3-.809,2.027,2.027,0,0,1,.806-.618,2.721,2.721,0,0,1,1.119-.227,2.215,2.215,0,0,1,1.515.483,1.743,1.743,0,0,1,.568,1.331v2.574a3.155,3.155,0,0,0,.2,1.225v.082Zm-1.587-.729a1.678,1.678,0,0,0,.853-.233,1.4,1.4,0,0,0,.584-.6v-1.147h-.749q-1.757,0-1.757,1.028a.871.871,0,0,0,.3.7,1.154,1.154,0,0,0,.77.253" transform="translate(-58.527 -42.26)"/>
          <path id="Trazado_104579" data-name="Trazado 104579" d="M156.855,105.542a3.349,3.349,0,0,1-.584,2.057,1.873,1.873,0,0,1-1.582.78,2.049,2.049,0,0,1-1.6-.646v2.693h-.956v-7.742H153l.046.62a1.97,1.97,0,0,1,1.623-.724,1.907,1.907,0,0,1,1.594.76,3.387,3.387,0,0,1,.587,2.114Zm-.956-.109a2.471,2.471,0,0,0-.4-1.494,1.3,1.3,0,0,0-1.105-.548,1.405,1.405,0,0,0-1.3.77v2.672a1.408,1.408,0,0,0,1.312.765,1.292,1.292,0,0,0,1.093-.546,2.7,2.7,0,0,0,.406-1.62" transform="translate(-62.673 -42.26)"/>
          <path id="Trazado_104580" data-name="Trazado 104580" d="M165.322,106.793a.705.705,0,0,0-.292-.6,2.811,2.811,0,0,0-1.019-.369,4.8,4.8,0,0,1-1.151-.372,1.631,1.631,0,0,1-.631-.517,1.234,1.234,0,0,1-.2-.713,1.452,1.452,0,0,1,.581-1.163,2.269,2.269,0,0,1,1.486-.476,2.335,2.335,0,0,1,1.542.491,1.56,1.56,0,0,1,.592,1.256h-.961a.862.862,0,0,0-.333-.677,1.249,1.249,0,0,0-.84-.284,1.3,1.3,0,0,0-.816.228.714.714,0,0,0-.295.594.58.58,0,0,0,.273.522,3.362,3.362,0,0,0,.99.336,5.17,5.17,0,0,1,1.16.383,1.7,1.7,0,0,1,.659.535,1.322,1.322,0,0,1,.214.763,1.43,1.43,0,0,1-.6,1.2,2.512,2.512,0,0,1-1.555.452,2.822,2.822,0,0,1-1.189-.238,1.939,1.939,0,0,1-.809-.664,1.6,1.6,0,0,1-.292-.923h.956a.989.989,0,0,0,.385.762,1.5,1.5,0,0,0,.949.282,1.54,1.54,0,0,0,.87-.219.676.676,0,0,0,.329-.587" transform="translate(-66.67 -42.26)"/>
          <path id="Trazado_104581" data-name="Trazado 104581" d="M174.949,107.8a2.034,2.034,0,0,1-1.639.656,1.738,1.738,0,0,1-1.362-.519,2.247,2.247,0,0,1-.473-1.538v-3.638h.956v3.612q0,1.272,1.034,1.271a1.431,1.431,0,0,0,1.457-.816v-4.067h.956v5.592h-.91Z" transform="translate(-70.642 -42.333)"/>
          <rect id="Rectángulo_34145" data-name="Rectángulo 34145" width="0.956" height="7.938" transform="translate(106.771 58.078)"/>
          <path id="Trazado_104582" data-name="Trazado 104582" d="M189.141,108.276a1.99,1.99,0,0,1-.134-.589,2.134,2.134,0,0,1-1.592.693,1.973,1.973,0,0,1-1.357-.467,1.512,1.512,0,0,1-.53-1.186,1.58,1.58,0,0,1,.664-1.357,3.132,3.132,0,0,1,1.868-.483h.93v-.439a1.075,1.075,0,0,0-.3-.8,1.2,1.2,0,0,0-.884-.3,1.394,1.394,0,0,0-.858.259.76.76,0,0,0-.346.625h-.961a1.318,1.318,0,0,1,.3-.809,2.027,2.027,0,0,1,.806-.618,2.721,2.721,0,0,1,1.119-.227,2.215,2.215,0,0,1,1.515.483,1.743,1.743,0,0,1,.568,1.331v2.574a3.155,3.155,0,0,0,.2,1.225v.082Zm-1.587-.729a1.678,1.678,0,0,0,.853-.233,1.4,1.4,0,0,0,.584-.6v-1.147h-.749q-1.757,0-1.757,1.028a.871.871,0,0,0,.3.7,1.154,1.154,0,0,0,.77.253" transform="translate(-76.432 -42.26)"/>
          <path id="Trazado_104583" data-name="Trazado 104583" d="M195.2,103.862a3.278,3.278,0,0,1,.61-2.07,2.075,2.075,0,0,1,3.152-.111V98.766h.956V106.7h-.879l-.046-.6a1.946,1.946,0,0,1-1.6.7,1.909,1.909,0,0,1-1.584-.8,3.312,3.312,0,0,1-.613-2.078Zm.956.109a2.481,2.481,0,0,0,.393,1.488,1.269,1.269,0,0,0,1.086.537,1.394,1.394,0,0,0,1.328-.816v-2.569a1.405,1.405,0,0,0-1.318-.79,1.274,1.274,0,0,0-1.1.543,2.731,2.731,0,0,0-.393,1.607" transform="translate(-80.415 -40.688)"/>
          <path id="Trazado_104584" data-name="Trazado 104584" d="M205.313,105.429a3.3,3.3,0,0,1,.323-1.478,2.4,2.4,0,0,1,.9-1.013,2.449,2.449,0,0,1,1.315-.356,2.358,2.358,0,0,1,1.848.791,3.043,3.043,0,0,1,.705,2.1v.067a3.337,3.337,0,0,1-.312,1.465,2.374,2.374,0,0,1-.894,1.01,2.475,2.475,0,0,1-1.336.362,2.35,2.35,0,0,1-1.842-.791,3.026,3.026,0,0,1-.706-2.093Zm.961.113a2.393,2.393,0,0,0,.431,1.494,1.463,1.463,0,0,0,2.313-.008,2.618,2.618,0,0,0,.429-1.6,2.389,2.389,0,0,0-.437-1.491,1.388,1.388,0,0,0-1.16-.571,1.373,1.373,0,0,0-1.143.563,2.6,2.6,0,0,0-.434,1.612" transform="translate(-84.582 -42.26)"/>
          <path id="Trazado_104585" data-name="Trazado 104585" d="M221.868,106.947l1.3-4.191h1.023l-2.248,6.455q-.522,1.4-1.659,1.4l-.181-.016-.357-.067v-.775l.259.021a1.273,1.273,0,0,0,.757-.2,1.416,1.416,0,0,0,.447-.719l.212-.569-1.995-5.53h1.044Z" transform="translate(-90.398 -42.332)"/>
          <rect id="Rectángulo_34146" data-name="Rectángulo 34146" width="0.956" height="7.938" transform="translate(69.544 70.779)"/>
          <path id="Trazado_104586" data-name="Trazado 104586" d="M124.644,129.979a2.441,2.441,0,0,1-1.85-.746,2.773,2.773,0,0,1-.713-2v-.175a3.357,3.357,0,0,1,.318-1.486,2.483,2.483,0,0,1,.889-1.024,2.238,2.238,0,0,1,1.238-.369,2.094,2.094,0,0,1,1.7.719,3.111,3.111,0,0,1,.6,2.057v.4h-3.788a1.983,1.983,0,0,0,.483,1.335,1.515,1.515,0,0,0,1.175.509,1.667,1.667,0,0,0,.858-.206,2.164,2.164,0,0,0,.615-.548l.584.455a2.348,2.348,0,0,1-2.109,1.08m-.119-5.013a1.276,1.276,0,0,0-.971.421,2.048,2.048,0,0,0-.486,1.181h2.8V126.5a1.819,1.819,0,0,0-.393-1.13,1.2,1.2,0,0,0-.951-.4" transform="translate(-50.294 -51.158)"/>
          <path id="Trazado_104587" data-name="Trazado 104587" d="M132.934,124.283l.031.7a2.037,2.037,0,0,1,1.674-.806q1.773,0,1.788,2v3.7h-.956v-3.7a1.284,1.284,0,0,0-.276-.894,1.107,1.107,0,0,0-.845-.289,1.38,1.38,0,0,0-.816.248,1.682,1.682,0,0,0-.548.651v3.985h-.956v-5.592Z" transform="translate(-54.392 -51.158)"/>
          <path id="Trazado_104588" data-name="Trazado 104588" d="M142.785,122.053v1.354h1.044v.739h-1.044v3.472a.775.775,0,0,0,.139.5.588.588,0,0,0,.476.168,2.324,2.324,0,0,0,.455-.062V129a2.77,2.77,0,0,1-.734.1,1.189,1.189,0,0,1-.966-.388,1.665,1.665,0,0,1-.326-1.1v-3.468h-1.018v-.739h1.018v-1.354Z" transform="translate(-58.01 -50.282)"/>
          <path id="Trazado_104589" data-name="Trazado 104589" d="M149.992,129.979a2.441,2.441,0,0,1-1.85-.746,2.773,2.773,0,0,1-.713-2v-.175a3.358,3.358,0,0,1,.318-1.486,2.483,2.483,0,0,1,.889-1.024,2.238,2.238,0,0,1,1.238-.369,2.094,2.094,0,0,1,1.7.719,3.111,3.111,0,0,1,.6,2.057v.4h-3.788a1.983,1.983,0,0,0,.483,1.335,1.515,1.515,0,0,0,1.175.509,1.667,1.667,0,0,0,.858-.206,2.164,2.164,0,0,0,.615-.548l.584.455a2.348,2.348,0,0,1-2.109,1.08m-.119-5.013a1.276,1.276,0,0,0-.971.421,2.048,2.048,0,0,0-.486,1.181h2.8V126.5a1.819,1.819,0,0,0-.393-1.13,1.2,1.2,0,0,0-.951-.4" transform="translate(-60.736 -51.158)"/>
          <path id="Trazado_104590" data-name="Trazado 104590" d="M161.438,125.461a3.278,3.278,0,0,1,.61-2.07,2.075,2.075,0,0,1,3.152-.111v-2.915h.956V128.3h-.879l-.046-.6a1.946,1.946,0,0,1-1.6.7,1.909,1.909,0,0,1-1.584-.8,3.312,3.312,0,0,1-.613-2.078Zm.956.109a2.481,2.481,0,0,0,.393,1.488,1.269,1.269,0,0,0,1.086.537,1.394,1.394,0,0,0,1.328-.816V124.21a1.405,1.405,0,0,0-1.318-.79,1.274,1.274,0,0,0-1.1.543,2.731,2.731,0,0,0-.393,1.607" transform="translate(-66.507 -49.587)"/>
          <path id="Trazado_104591" data-name="Trazado 104591" d="M174.135,129.979a2.441,2.441,0,0,1-1.85-.746,2.773,2.773,0,0,1-.713-2v-.175a3.357,3.357,0,0,1,.318-1.486,2.483,2.483,0,0,1,.889-1.024,2.238,2.238,0,0,1,1.238-.369,2.094,2.094,0,0,1,1.7.719,3.111,3.111,0,0,1,.6,2.057v.4h-3.788a1.983,1.983,0,0,0,.483,1.335,1.515,1.515,0,0,0,1.175.509,1.667,1.667,0,0,0,.858-.206,2.164,2.164,0,0,0,.615-.548l.584.455a2.348,2.348,0,0,1-2.109,1.08m-.119-5.013a1.276,1.276,0,0,0-.971.421,2.048,2.048,0,0,0-.486,1.181h2.8V126.5a1.819,1.819,0,0,0-.393-1.13,1.2,1.2,0,0,0-.951-.4" transform="translate(-70.682 -51.158)"/>
          <path id="Trazado_104592" data-name="Trazado 104592" d="M188.127,129.979a2.441,2.441,0,0,1-1.85-.746,2.773,2.773,0,0,1-.713-2v-.175a3.357,3.357,0,0,1,.318-1.486,2.483,2.483,0,0,1,.889-1.024,2.238,2.238,0,0,1,1.238-.369,2.094,2.094,0,0,1,1.7.719,3.111,3.111,0,0,1,.6,2.057v.4H186.52a1.983,1.983,0,0,0,.483,1.335,1.515,1.515,0,0,0,1.175.509,1.667,1.667,0,0,0,.858-.206,2.165,2.165,0,0,0,.615-.548l.584.455a2.348,2.348,0,0,1-2.109,1.08m-.119-5.013a1.276,1.276,0,0,0-.971.421,2.048,2.048,0,0,0-.486,1.181h2.8V126.5a1.819,1.819,0,0,0-.393-1.13,1.2,1.2,0,0,0-.951-.4" transform="translate(-76.447 -51.158)"/>
          <path id="Trazado_104593" data-name="Trazado 104593" d="M200.238,127.142a3.349,3.349,0,0,1-.584,2.057,1.873,1.873,0,0,1-1.582.78,2.049,2.049,0,0,1-1.6-.646v2.693h-.956v-7.742h.873l.046.62a1.97,1.97,0,0,1,1.623-.724,1.907,1.907,0,0,1,1.594.76,3.387,3.387,0,0,1,.587,2.114Zm-.956-.109a2.471,2.471,0,0,0-.4-1.494,1.3,1.3,0,0,0-1.105-.548,1.405,1.405,0,0,0-1.3.77v2.672a1.408,1.408,0,0,0,1.312.765,1.293,1.293,0,0,0,1.093-.545,2.7,2.7,0,0,0,.406-1.621" transform="translate(-80.546 -51.158)"/>
          <path id="Trazado_104594" data-name="Trazado 104594" d="M205.181,127.028a3.3,3.3,0,0,1,.323-1.478,2.406,2.406,0,0,1,.9-1.013,2.449,2.449,0,0,1,1.315-.356,2.358,2.358,0,0,1,1.848.791,3.043,3.043,0,0,1,.705,2.1v.067a3.331,3.331,0,0,1-.312,1.465,2.369,2.369,0,0,1-.894,1.011,2.474,2.474,0,0,1-1.336.362,2.351,2.351,0,0,1-1.842-.791,3.026,3.026,0,0,1-.706-2.093Zm.961.113a2.393,2.393,0,0,0,.431,1.494,1.463,1.463,0,0,0,2.313-.008,2.613,2.613,0,0,0,.429-1.6,2.389,2.389,0,0,0-.437-1.491,1.388,1.388,0,0,0-1.16-.571,1.373,1.373,0,0,0-1.143.563,2.6,2.6,0,0,0-.434,1.612" transform="translate(-84.528 -51.158)"/>
          <path id="Trazado_104595" data-name="Trazado 104595" d="M217.21,126.4l1.24-2.042h1.117l-1.83,2.765,1.886,2.827h-1.105l-1.293-2.093-1.292,2.093h-1.111l1.886-2.827-1.829-2.765h1.106Z" transform="translate(-88.5 -51.231)"/>
          <path id="Trazado_104596" data-name="Trazado 104596" d="M224.623,121.446a.572.572,0,0,1,.142-.393.535.535,0,0,1,.422-.16.542.542,0,0,1,.423.16.566.566,0,0,1,.145.393.566.566,0,1,1-1.132,0m1.034,7.076H224.7v-5.592h.956Z" transform="translate(-92.538 -49.804)"/>
          <path id="Trazado_104597" data-name="Trazado 104597" d="M116.062,169.334a2.768,2.768,0,0,1-.881,1.842,2.888,2.888,0,0,1-1.972.649,2.652,2.652,0,0,1-2.137-.956,3.847,3.847,0,0,1-.8-2.558v-.724a4.276,4.276,0,0,1,.375-1.845,2.8,2.8,0,0,1,1.062-1.223,2.963,2.963,0,0,1,1.592-.426,2.718,2.718,0,0,1,1.922.67,2.8,2.8,0,0,1,.843,1.852h-1a2.166,2.166,0,0,0-.561-1.307,1.7,1.7,0,0,0-1.207-.4,1.775,1.775,0,0,0-1.491.7,3.228,3.228,0,0,0-.54,2v.73a3.321,3.321,0,0,0,.512,1.95,1.652,1.652,0,0,0,1.431.724,1.908,1.908,0,0,0,1.27-.375,2.08,2.08,0,0,0,.586-1.3Z" transform="translate(-45.427 -67.601)"/>
          <path id="Trazado_104598" data-name="Trazado 104598" d="M125.508,173.076a1.99,1.99,0,0,1-.134-.589,2.134,2.134,0,0,1-1.592.693,1.973,1.973,0,0,1-1.357-.467,1.511,1.511,0,0,1-.53-1.186,1.579,1.579,0,0,1,.664-1.357,3.127,3.127,0,0,1,1.868-.483h.93v-.439a1.077,1.077,0,0,0-.3-.8,1.207,1.207,0,0,0-.884-.3,1.394,1.394,0,0,0-.858.259.76.76,0,0,0-.346.625h-.961a1.32,1.32,0,0,1,.3-.809,2.033,2.033,0,0,1,.806-.618,2.721,2.721,0,0,1,1.119-.227,2.212,2.212,0,0,1,1.515.483,1.742,1.742,0,0,1,.568,1.331v2.574a3.155,3.155,0,0,0,.2,1.225v.082Zm-1.587-.729a1.678,1.678,0,0,0,.853-.233,1.4,1.4,0,0,0,.584-.6v-1.147h-.749q-1.757,0-1.757,1.028a.871.871,0,0,0,.3.7,1.154,1.154,0,0,0,.77.253" transform="translate(-50.217 -68.956)"/>
          <path id="Trazado_104599" data-name="Trazado 104599" d="M136.693,168.771a3.326,3.326,0,0,1-.589,2.06,1.883,1.883,0,0,1-1.581.777,1.95,1.95,0,0,1-1.639-.75l-.046.646h-.879v-7.938h.956v2.961a1.939,1.939,0,0,1,1.6-.719,1.9,1.9,0,0,1,1.6.77,3.429,3.429,0,0,1,.581,2.109Zm-.956-.109a2.582,2.582,0,0,0-.378-1.509,1.248,1.248,0,0,0-1.085-.533,1.4,1.4,0,0,0-1.36.879v2.419a1.443,1.443,0,0,0,1.37.879,1.243,1.243,0,0,0,1.07-.532,2.752,2.752,0,0,0,.382-1.6" transform="translate(-54.363 -67.384)"/>
          <rect id="Rectángulo_34147" data-name="Rectángulo 34147" width="0.956" height="7.938" transform="translate(83.617 96.182)"/>
          <path id="Trazado_104600" data-name="Trazado 104600" d="M148.577,173.179a2.441,2.441,0,0,1-1.85-.746,2.773,2.773,0,0,1-.713-2v-.175a3.357,3.357,0,0,1,.318-1.486,2.481,2.481,0,0,1,.889-1.023,2.234,2.234,0,0,1,1.238-.37,2.094,2.094,0,0,1,1.7.719,3.111,3.111,0,0,1,.6,2.057v.4H146.97a1.983,1.983,0,0,0,.483,1.335,1.515,1.515,0,0,0,1.175.509,1.667,1.667,0,0,0,.858-.206,2.164,2.164,0,0,0,.615-.548l.584.455a2.348,2.348,0,0,1-2.109,1.08m-.119-5.013a1.274,1.274,0,0,0-.971.422,2.044,2.044,0,0,0-.486,1.181h2.8V169.7a1.818,1.818,0,0,0-.393-1.129,1.2,1.2,0,0,0-.951-.4" transform="translate(-60.153 -68.955)"/>
          <path id="Trazado_104601" data-name="Trazado 104601" d="M160.023,168.661a3.275,3.275,0,0,1,.61-2.069,2.075,2.075,0,0,1,3.152-.112v-2.915h.956V171.5h-.879l-.046-.6a1.946,1.946,0,0,1-1.6.7,1.909,1.909,0,0,1-1.584-.8,3.312,3.312,0,0,1-.613-2.078Zm.956.109a2.481,2.481,0,0,0,.393,1.488,1.269,1.269,0,0,0,1.085.537,1.394,1.394,0,0,0,1.328-.816V167.41a1.405,1.405,0,0,0-1.318-.79,1.274,1.274,0,0,0-1.1.543,2.731,2.731,0,0,0-.393,1.607" transform="translate(-65.924 -67.384)"/>
          <path id="Trazado_104602" data-name="Trazado 104602" d="M172.72,173.179a2.441,2.441,0,0,1-1.85-.746,2.773,2.773,0,0,1-.713-2v-.175a3.357,3.357,0,0,1,.318-1.486,2.481,2.481,0,0,1,.889-1.023,2.234,2.234,0,0,1,1.238-.37,2.094,2.094,0,0,1,1.7.719,3.111,3.111,0,0,1,.6,2.057v.4h-3.788a1.983,1.983,0,0,0,.483,1.335,1.515,1.515,0,0,0,1.175.509,1.667,1.667,0,0,0,.858-.206,2.164,2.164,0,0,0,.615-.548l.584.455a2.348,2.348,0,0,1-2.109,1.08m-.119-5.013a1.274,1.274,0,0,0-.971.422,2.044,2.044,0,0,0-.486,1.181h2.8V169.7a1.818,1.818,0,0,0-.393-1.129,1.2,1.2,0,0,0-.951-.4" transform="translate(-70.099 -68.955)"/>
          <path id="Trazado_104603" data-name="Trazado 104603" d="M188,172.595a2.032,2.032,0,0,1-1.638.656,1.74,1.74,0,0,1-1.362-.519,2.247,2.247,0,0,1-.473-1.538v-3.638h.956v3.612q0,1.272,1.034,1.271a1.431,1.431,0,0,0,1.457-.816v-4.067h.956v5.592h-.91Z" transform="translate(-76.019 -69.028)"/>
          <path id="Trazado_104604" data-name="Trazado 104604" d="M195.389,167.483l.031.7a2.037,2.037,0,0,1,1.674-.806q1.773,0,1.788,2v3.7h-.956v-3.7a1.284,1.284,0,0,0-.276-.894,1.107,1.107,0,0,0-.845-.289,1.38,1.38,0,0,0-.816.248,1.682,1.682,0,0,0-.548.651v3.985h-.956v-5.592Z" transform="translate(-80.122 -68.955)"/>
          <path id="Trazado_104605" data-name="Trazado 104605" d="M204.425,164.646a.57.57,0,0,1,.142-.393.533.533,0,0,1,.421-.161.541.541,0,0,1,.424.161.564.564,0,0,1,.145.393.592.592,0,0,1-.99.388.553.553,0,0,1-.142-.388m1.034,7.075H204.5v-5.592h.956Z" transform="translate(-84.217 -67.601)"/>
          <path id="Trazado_104606" data-name="Trazado 104606" d="M208.354,168.657a3.3,3.3,0,0,1,.323-1.478,2.4,2.4,0,0,1,.9-1.013,2.45,2.45,0,0,1,1.315-.357,2.359,2.359,0,0,1,1.848.791,3.045,3.045,0,0,1,.706,2.1v.068a3.335,3.335,0,0,1-.313,1.465,2.376,2.376,0,0,1-.894,1.011,2.474,2.474,0,0,1-1.336.362,2.351,2.351,0,0,1-1.842-.791,3.026,3.026,0,0,1-.706-2.093Zm.961.114a2.394,2.394,0,0,0,.431,1.494,1.463,1.463,0,0,0,2.313-.008,2.616,2.616,0,0,0,.429-1.6,2.391,2.391,0,0,0-.437-1.491,1.389,1.389,0,0,0-1.16-.571,1.375,1.375,0,0,0-1.143.563,2.6,2.6,0,0,0-.434,1.613m2.01-5.2h1.158l-1.385,1.519-.77,0Z" transform="translate(-85.835 -67.384)"/>
          <path id="Trazado_104607" data-name="Trazado 104607" d="M219.955,167.483l.031.7a2.037,2.037,0,0,1,1.674-.806q1.773,0,1.788,2v3.7h-.956v-3.7a1.281,1.281,0,0,0-.276-.894,1.107,1.107,0,0,0-.845-.289,1.381,1.381,0,0,0-.816.248,1.682,1.682,0,0,0-.548.651v3.985h-.956v-5.592Z" transform="translate(-90.242 -68.955)"/>
          <path id="Trazado_104608" data-name="Trazado 104608" d="M76.057,211.567a4.667,4.667,0,0,1-1.858-.9,1.724,1.724,0,0,1-.581-1.32,1.819,1.819,0,0,1,.711-1.471,2.824,2.824,0,0,1,1.847-.582,3.082,3.082,0,0,1,1.382.3,2.273,2.273,0,0,1,.94.827,2.11,2.11,0,0,1,.334,1.153h-1A1.377,1.377,0,0,0,77.4,208.5a1.764,1.764,0,0,0-1.225-.392,1.8,1.8,0,0,0-1.144.324,1.077,1.077,0,0,0-.411.9.97.97,0,0,0,.39.78,3.816,3.816,0,0,0,1.328.582,6.16,6.16,0,0,1,1.468.582,2.22,2.22,0,0,1,.786.742,1.887,1.887,0,0,1,.256,1,1.759,1.759,0,0,1-.713,1.465,3.043,3.043,0,0,1-1.907.55,3.537,3.537,0,0,1-1.447-.3,2.434,2.434,0,0,1-1.037-.814,1.991,1.991,0,0,1-.364-1.173h1a1.3,1.3,0,0,0,.5,1.077,2.121,2.121,0,0,0,1.347.4,1.952,1.952,0,0,0,1.2-.32,1.04,1.04,0,0,0,.419-.873,1.023,1.023,0,0,0-.388-.856,4.487,4.487,0,0,0-1.406-.6" transform="translate(-30.23 -85.398)"/>
          <path id="Trazado_104609" data-name="Trazado 104609" d="M86.737,216.379a2.441,2.441,0,0,1-1.85-.746,2.773,2.773,0,0,1-.713-2v-.175a3.357,3.357,0,0,1,.318-1.486,2.481,2.481,0,0,1,.889-1.023,2.234,2.234,0,0,1,1.238-.37,2.094,2.094,0,0,1,1.7.719,3.111,3.111,0,0,1,.6,2.057v.4H85.13a1.983,1.983,0,0,0,.483,1.335,1.515,1.515,0,0,0,1.175.509,1.667,1.667,0,0,0,.858-.206,2.164,2.164,0,0,0,.615-.548l.584.455a2.348,2.348,0,0,1-2.109,1.08m-.119-5.013a1.274,1.274,0,0,0-.971.422,2.044,2.044,0,0,0-.486,1.181h2.8V212.9a1.817,1.817,0,0,0-.393-1.129,1.2,1.2,0,0,0-.951-.4" transform="translate(-34.677 -86.752)"/>
          <path id="Trazado_104610" data-name="Trazado 104610" d="M95.018,210.684l.026.62a2.064,2.064,0,0,1,1.659-.724,1.6,1.6,0,0,1,1.6.9,2.109,2.109,0,0,1,.726-.652,2.145,2.145,0,0,1,1.057-.248q1.84,0,1.871,1.949v3.747H101v-3.69a1.285,1.285,0,0,0-.274-.9,1.208,1.208,0,0,0-.92-.3,1.271,1.271,0,0,0-.884.318,1.292,1.292,0,0,0-.409.856v3.711h-.961v-3.665a1.067,1.067,0,0,0-1.194-1.22,1.279,1.279,0,0,0-1.287.8v4.083h-.956v-5.592Z" transform="translate(-38.772 -86.752)"/>
          <path id="Trazado_104611" data-name="Trazado 104611" d="M109.908,207.846a.57.57,0,0,1,.142-.393.533.533,0,0,1,.422-.161.542.542,0,0,1,.424.161.564.564,0,0,1,.145.393.592.592,0,0,1-.99.388.553.553,0,0,1-.142-.388m1.034,7.075h-.956v-5.592h.956Z" transform="translate(-45.279 -85.398)"/>
          <path id="Trazado_104612" data-name="Trazado 104612" d="M116.337,215.6a1.38,1.38,0,0,0,.894-.31,1.093,1.093,0,0,0,.423-.776h.9a1.731,1.731,0,0,1-.33.915,2.183,2.183,0,0,1-.814.693,2.346,2.346,0,0,1-1.077.258,2.3,2.3,0,0,1-1.817-.763,3.036,3.036,0,0,1-.674-2.085v-.16a3.375,3.375,0,0,1,.3-1.452,2.288,2.288,0,0,1,.86-.987,2.448,2.448,0,0,1,1.326-.351,2.243,2.243,0,0,1,1.564.563,2.016,2.016,0,0,1,.664,1.462h-.9a1.317,1.317,0,0,0-.41-.891,1.277,1.277,0,0,0-.913-.349,1.34,1.34,0,0,0-1.13.525,2.463,2.463,0,0,0-.4,1.517v.181a2.413,2.413,0,0,0,.4,1.488,1.345,1.345,0,0,0,1.137.522" transform="translate(-46.901 -86.753)"/>
          <path id="Trazado_104613" data-name="Trazado 104613" d="M123.258,213.429a3.3,3.3,0,0,1,.323-1.478,2.4,2.4,0,0,1,.9-1.013,2.449,2.449,0,0,1,1.315-.356,2.358,2.358,0,0,1,1.848.791,3.043,3.043,0,0,1,.705,2.1v.067a3.331,3.331,0,0,1-.312,1.465,2.369,2.369,0,0,1-.894,1.011,2.474,2.474,0,0,1-1.336.362,2.351,2.351,0,0,1-1.842-.791,3.026,3.026,0,0,1-.706-2.093Zm.961.113a2.393,2.393,0,0,0,.431,1.494,1.463,1.463,0,0,0,2.313-.008,2.613,2.613,0,0,0,.429-1.6,2.39,2.39,0,0,0-.437-1.491,1.388,1.388,0,0,0-1.16-.571,1.373,1.373,0,0,0-1.143.563,2.6,2.6,0,0,0-.434,1.612" transform="translate(-50.778 -86.753)"/>
          <path id="Trazado_104614" data-name="Trazado 104614" d="M134.859,210.684l.031.7a2.037,2.037,0,0,1,1.674-.806q1.773,0,1.788,2v3.7H137.4v-3.7a1.284,1.284,0,0,0-.276-.894,1.107,1.107,0,0,0-.845-.289,1.38,1.38,0,0,0-.816.248,1.682,1.682,0,0,0-.548.651v3.985h-.956v-5.592Z" transform="translate(-55.185 -86.752)"/>
          <path id="Trazado_104615" data-name="Trazado 104615" d="M143.491,211.862a3.275,3.275,0,0,1,.61-2.069,2.075,2.075,0,0,1,3.152-.112v-2.915h.956V214.7h-.879l-.046-.6a1.946,1.946,0,0,1-1.6.7,1.909,1.909,0,0,1-1.584-.8,3.312,3.312,0,0,1-.613-2.078Zm.956.109a2.481,2.481,0,0,0,.393,1.488,1.269,1.269,0,0,0,1.085.537,1.394,1.394,0,0,0,1.328-.816v-2.569a1.405,1.405,0,0,0-1.318-.79,1.274,1.274,0,0,0-1.1.543,2.731,2.731,0,0,0-.393,1.607" transform="translate(-59.114 -85.181)"/>
          <path id="Trazado_104616" data-name="Trazado 104616" d="M157.476,215.8a2.032,2.032,0,0,1-1.638.656,1.74,1.74,0,0,1-1.362-.519A2.247,2.247,0,0,1,154,214.4v-3.638h.956v3.612q0,1.272,1.034,1.271a1.431,1.431,0,0,0,1.457-.816v-4.067h.956v5.592h-.91Z" transform="translate(-63.444 -86.825)"/>
          <path id="Trazado_104617" data-name="Trazado 104617" d="M166.03,215.6a1.38,1.38,0,0,0,.894-.31,1.093,1.093,0,0,0,.423-.776h.9a1.731,1.731,0,0,1-.33.915,2.183,2.183,0,0,1-.814.693,2.346,2.346,0,0,1-1.077.258,2.3,2.3,0,0,1-1.817-.763,3.036,3.036,0,0,1-.674-2.085v-.16a3.375,3.375,0,0,1,.3-1.452,2.288,2.288,0,0,1,.86-.987,2.448,2.448,0,0,1,1.326-.351,2.243,2.243,0,0,1,1.564.563,2.016,2.016,0,0,1,.664,1.462h-.9a1.317,1.317,0,0,0-.41-.891,1.277,1.277,0,0,0-.913-.349,1.34,1.34,0,0,0-1.13.525,2.463,2.463,0,0,0-.4,1.517v.181a2.413,2.413,0,0,0,.4,1.488,1.345,1.345,0,0,0,1.137.522" transform="translate(-67.373 -86.753)"/>
          <path id="Trazado_104618" data-name="Trazado 104618" d="M174.206,208.453v1.355h1.043v.739h-1.043v3.472a.772.772,0,0,0,.139.5.587.587,0,0,0,.475.168,2.315,2.315,0,0,0,.455-.061v.77a2.768,2.768,0,0,1-.733.1,1.189,1.189,0,0,1-.967-.387,1.665,1.665,0,0,1-.326-1.1v-3.467h-1.018v-.739h1.018v-1.355Z" transform="translate(-70.954 -85.876)"/>
          <path id="Trazado_104619" data-name="Trazado 104619" d="M178.656,213.429a3.3,3.3,0,0,1,.323-1.478,2.406,2.406,0,0,1,.9-1.013,2.449,2.449,0,0,1,1.315-.356,2.358,2.358,0,0,1,1.848.791,3.043,3.043,0,0,1,.705,2.1v.067a3.331,3.331,0,0,1-.312,1.465,2.369,2.369,0,0,1-.894,1.011,2.474,2.474,0,0,1-1.336.362,2.351,2.351,0,0,1-1.842-.791,3.026,3.026,0,0,1-.706-2.093Zm.961.113a2.393,2.393,0,0,0,.431,1.494,1.463,1.463,0,0,0,2.313-.008,2.613,2.613,0,0,0,.429-1.6,2.39,2.39,0,0,0-.437-1.491,1.388,1.388,0,0,0-1.16-.571,1.373,1.373,0,0,0-1.143.563,2.6,2.6,0,0,0-.434,1.612" transform="translate(-73.601 -86.753)"/>
          <path id="Trazado_104620" data-name="Trazado 104620" d="M192.055,211.541a2.867,2.867,0,0,0-.47-.036,1.261,1.261,0,0,0-1.277.8v3.969h-.956v-5.592h.93l.016.646a1.488,1.488,0,0,1,1.333-.75.977.977,0,0,1,.424.072Z" transform="translate(-78.007 -86.752)"/>
          <path id="Trazado_104621" data-name="Trazado 104621" d="M201.147,212.048v2.946h-.993v-7.525h2.775a2.787,2.787,0,0,1,1.935.63,2.14,2.14,0,0,1,.7,1.669,2.114,2.114,0,0,1-.684,1.688,2.917,2.917,0,0,1-1.962.592Zm0-.811h1.783a1.778,1.778,0,0,0,1.219-.376,1.37,1.37,0,0,0,.425-1.084,1.417,1.417,0,0,0-.425-1.077,1.665,1.665,0,0,0-1.162-.419h-1.84Z" transform="translate(-82.457 -85.471)"/>
          <rect id="Rectángulo_34148" data-name="Rectángulo 34148" width="0.992" height="7.525" transform="translate(124.447 121.998)"/>
          <path id="Trazado_104622" data-name="Trazado 104622" d="M222.188,214.994h-1l-3.789-5.8v5.8h-1v-7.525h1l3.8,5.824v-5.824h.987Z" transform="translate(-89.152 -85.471)"/>
          <path id="Trazado_104623" data-name="Trazado 104623" d="M79.526,234.134a2.768,2.768,0,0,1-.881,1.842,2.888,2.888,0,0,1-1.972.649,2.652,2.652,0,0,1-2.137-.956,3.847,3.847,0,0,1-.8-2.558v-.724a4.275,4.275,0,0,1,.375-1.845,2.8,2.8,0,0,1,1.062-1.223,2.963,2.963,0,0,1,1.592-.426,2.718,2.718,0,0,1,1.922.67,2.8,2.8,0,0,1,.843,1.852h-1a2.166,2.166,0,0,0-.561-1.307,1.7,1.7,0,0,0-1.207-.4,1.775,1.775,0,0,0-1.491.7,3.228,3.228,0,0,0-.54,2v.73a3.32,3.32,0,0,0,.512,1.95,1.652,1.652,0,0,0,1.431.724,1.909,1.909,0,0,0,1.27-.375,2.08,2.08,0,0,0,.586-1.3Z" transform="translate(-30.375 -94.297)"/>
          <path id="Trazado_104624" data-name="Trazado 104624" d="M88.972,237.875a1.99,1.99,0,0,1-.134-.589,2.134,2.134,0,0,1-1.592.693,1.973,1.973,0,0,1-1.357-.467,1.511,1.511,0,0,1-.53-1.186,1.579,1.579,0,0,1,.664-1.357,3.127,3.127,0,0,1,1.868-.483h.93v-.439a1.077,1.077,0,0,0-.3-.8,1.207,1.207,0,0,0-.884-.3,1.394,1.394,0,0,0-.858.259.76.76,0,0,0-.346.625h-.961a1.32,1.32,0,0,1,.3-.809,2.033,2.033,0,0,1,.806-.618,2.721,2.721,0,0,1,1.119-.227,2.212,2.212,0,0,1,1.515.483,1.742,1.742,0,0,1,.568,1.331v2.574a3.155,3.155,0,0,0,.2,1.225v.082Zm-1.587-.729a1.678,1.678,0,0,0,.853-.233,1.4,1.4,0,0,0,.584-.6v-1.147h-.749q-1.757,0-1.757,1.028a.871.871,0,0,0,.3.7,1.154,1.154,0,0,0,.77.253" transform="translate(-35.166 -95.651)"/>
          <path id="Trazado_104625" data-name="Trazado 104625" d="M96.749,236.651l1.385-4.295h.977l-2.006,5.592h-.729l-2.026-5.592h.977Z" transform="translate(-38.87 -95.723)"/>
          <path id="Trazado_104626" data-name="Trazado 104626" d="M104.019,229.446a.572.572,0,0,1,.142-.393.537.537,0,0,1,.422-.16.543.543,0,0,1,.424.16.566.566,0,0,1,.145.393.547.547,0,0,1-.145.388.553.553,0,0,1-.424.155.547.547,0,0,1-.422-.155.553.553,0,0,1-.142-.388m1.034,7.076H104.1v-5.592h.956Z" transform="translate(-42.853 -94.297)"/>
          <path id="Trazado_104627" data-name="Trazado 104627" d="M107.983,233.461a3.275,3.275,0,0,1,.61-2.069,2.075,2.075,0,0,1,3.152-.112v-2.915h.956V236.3h-.879l-.046-.6a1.946,1.946,0,0,1-1.6.7,1.909,1.909,0,0,1-1.584-.8,3.312,3.312,0,0,1-.613-2.078Zm.956.109a2.481,2.481,0,0,0,.393,1.488,1.269,1.269,0,0,0,1.086.537,1.394,1.394,0,0,0,1.328-.816V232.21a1.405,1.405,0,0,0-1.318-.79,1.274,1.274,0,0,0-1.1.543,2.731,2.731,0,0,0-.393,1.607" transform="translate(-44.486 -94.079)"/>
          <path id="Trazado_104628" data-name="Trazado 104628" d="M121.87,237.875a1.99,1.99,0,0,1-.134-.589,2.134,2.134,0,0,1-1.592.693,1.973,1.973,0,0,1-1.357-.467,1.511,1.511,0,0,1-.53-1.186,1.579,1.579,0,0,1,.664-1.357,3.127,3.127,0,0,1,1.868-.483h.93v-.439a1.077,1.077,0,0,0-.3-.8,1.207,1.207,0,0,0-.884-.3,1.394,1.394,0,0,0-.858.259.76.76,0,0,0-.346.625h-.961a1.32,1.32,0,0,1,.3-.809,2.033,2.033,0,0,1,.806-.618,2.721,2.721,0,0,1,1.119-.227,2.212,2.212,0,0,1,1.515.483,1.742,1.742,0,0,1,.568,1.331v2.574a3.155,3.155,0,0,0,.2,1.225v.082Zm-1.587-.729a1.678,1.678,0,0,0,.853-.233,1.4,1.4,0,0,0,.584-.6v-1.147h-.749q-1.757,0-1.757,1.028a.871.871,0,0,0,.3.7,1.154,1.154,0,0,0,.77.253" transform="translate(-48.719 -95.651)"/>
          <path id="Trazado_104629" data-name="Trazado 104629" d="M127.925,233.461a3.275,3.275,0,0,1,.61-2.069,2.075,2.075,0,0,1,3.152-.112v-2.915h.956V236.3h-.879l-.046-.6a1.946,1.946,0,0,1-1.6.7,1.909,1.909,0,0,1-1.584-.8,3.312,3.312,0,0,1-.613-2.078Zm.956.109a2.481,2.481,0,0,0,.393,1.488,1.269,1.269,0,0,0,1.086.537,1.394,1.394,0,0,0,1.328-.816V232.21a1.405,1.405,0,0,0-1.318-.79,1.274,1.274,0,0,0-1.1.543,2.731,2.731,0,0,0-.393,1.607" transform="translate(-52.701 -94.079)"/>
          <path id="Trazado_104630" data-name="Trazado 104630" d="M145.631,233.141a2.866,2.866,0,0,0-.47-.036,1.261,1.261,0,0,0-1.277.8v3.969h-.956v-5.592h.93l.016.646a1.488,1.488,0,0,1,1.333-.75.977.977,0,0,1,.424.072Z" transform="translate(-58.882 -95.651)"/>
          <path id="Trazado_104631" data-name="Trazado 104631" d="M151,237.979a2.441,2.441,0,0,1-1.85-.746,2.773,2.773,0,0,1-.713-2v-.175a3.357,3.357,0,0,1,.318-1.486,2.481,2.481,0,0,1,.889-1.023,2.234,2.234,0,0,1,1.238-.37,2.094,2.094,0,0,1,1.7.719,3.111,3.111,0,0,1,.6,2.057v.4H149.4a1.983,1.983,0,0,0,.483,1.335,1.515,1.515,0,0,0,1.175.509,1.667,1.667,0,0,0,.858-.206,2.165,2.165,0,0,0,.615-.548l.584.455a2.348,2.348,0,0,1-2.109,1.08m-.119-5.013a1.274,1.274,0,0,0-.971.422,2.044,2.044,0,0,0-.486,1.181h2.8V234.5a1.818,1.818,0,0,0-.393-1.129,1.2,1.2,0,0,0-.951-.4" transform="translate(-61.152 -95.651)"/>
          <path id="Trazado_104632" data-name="Trazado 104632" d="M158.569,236.228v-4.853h-.884v-.739h.884v-.573a1.9,1.9,0,0,1,.48-1.391,1.818,1.818,0,0,1,1.36-.491,2.523,2.523,0,0,1,.656.088l-.052.77a2.779,2.779,0,0,0-.517-.046.934.934,0,0,0-.718.272,1.1,1.1,0,0,0-.253.78v.591h1.194v.739h-1.194v4.853Z" transform="translate(-64.961 -94.003)"/>
          <rect id="Rectángulo_34149" data-name="Rectángulo 34149" width="0.956" height="7.938" transform="translate(96.895 134.286)"/>
          <path id="Trazado_104633" data-name="Trazado 104633" d="M171.156,237.979a2.441,2.441,0,0,1-1.85-.746,2.773,2.773,0,0,1-.713-2v-.175a3.358,3.358,0,0,1,.318-1.486,2.481,2.481,0,0,1,.889-1.023,2.234,2.234,0,0,1,1.238-.37,2.094,2.094,0,0,1,1.7.719,3.111,3.111,0,0,1,.6,2.057v.4h-3.788a1.983,1.983,0,0,0,.483,1.335,1.515,1.515,0,0,0,1.175.509,1.667,1.667,0,0,0,.858-.206,2.165,2.165,0,0,0,.615-.548l.584.455a2.348,2.348,0,0,1-2.109,1.08m-.119-5.013a1.274,1.274,0,0,0-.971.422,2.044,2.044,0,0,0-.486,1.181h2.8V234.5a1.818,1.818,0,0,0-.393-1.129,1.2,1.2,0,0,0-.951-.4" transform="translate(-69.455 -95.651)"/>
          <path id="Trazado_104634" data-name="Trazado 104634" d="M180.611,237.2a1.38,1.38,0,0,0,.894-.31,1.093,1.093,0,0,0,.423-.776h.9a1.731,1.731,0,0,1-.33.915,2.183,2.183,0,0,1-.814.693,2.346,2.346,0,0,1-1.077.258,2.3,2.3,0,0,1-1.817-.763,3.036,3.036,0,0,1-.674-2.085v-.16a3.374,3.374,0,0,1,.3-1.452,2.287,2.287,0,0,1,.86-.987,2.448,2.448,0,0,1,1.326-.351,2.243,2.243,0,0,1,1.564.563,2.016,2.016,0,0,1,.664,1.462h-.9a1.317,1.317,0,0,0-.41-.891,1.277,1.277,0,0,0-.913-.349,1.34,1.34,0,0,0-1.13.525,2.463,2.463,0,0,0-.4,1.517v.181a2.414,2.414,0,0,0,.4,1.488,1.345,1.345,0,0,0,1.137.522" transform="translate(-73.38 -95.651)"/>
          <path id="Trazado_104635" data-name="Trazado 104635" d="M188.787,230.053v1.354h1.044v.739h-1.044v3.472a.775.775,0,0,0,.139.5.588.588,0,0,0,.476.168,2.324,2.324,0,0,0,.455-.062V237a2.771,2.771,0,0,1-.734.1,1.189,1.189,0,0,1-.966-.388,1.665,1.665,0,0,1-.326-1.1v-3.468h-1.018v-.739h1.018v-1.354Z" transform="translate(-76.961 -94.775)"/>
          <path id="Trazado_104636" data-name="Trazado 104636" d="M197.183,237.875a1.99,1.99,0,0,1-.134-.589,2.134,2.134,0,0,1-1.592.693,1.973,1.973,0,0,1-1.357-.467,1.511,1.511,0,0,1-.53-1.186,1.579,1.579,0,0,1,.664-1.357,3.127,3.127,0,0,1,1.868-.483h.93v-.439a1.077,1.077,0,0,0-.3-.8,1.207,1.207,0,0,0-.884-.3,1.394,1.394,0,0,0-.858.259.76.76,0,0,0-.346.625h-.961a1.32,1.32,0,0,1,.3-.809,2.033,2.033,0,0,1,.806-.618,2.721,2.721,0,0,1,1.119-.227,2.212,2.212,0,0,1,1.515.483,1.742,1.742,0,0,1,.568,1.331v2.574a3.155,3.155,0,0,0,.2,1.225v.082Zm-1.587-.729a1.678,1.678,0,0,0,.853-.233,1.4,1.4,0,0,0,.584-.6v-1.147h-.749q-1.757,0-1.757,1.028a.871.871,0,0,0,.3.7,1.154,1.154,0,0,0,.77.253" transform="translate(-79.745 -95.651)"/>
          <path id="Trazado_104637" data-name="Trazado 104637" d="M204.539,232.283l.031.7a2.037,2.037,0,0,1,1.674-.806q1.773,0,1.788,2v3.7h-.956v-3.7a1.281,1.281,0,0,0-.276-.894,1.107,1.107,0,0,0-.845-.289,1.38,1.38,0,0,0-.816.248,1.683,1.683,0,0,0-.548.651v3.985h-.956v-5.592Z" transform="translate(-83.891 -95.651)"/>
          <path id="Trazado_104638" data-name="Trazado 104638" d="M214.389,230.053v1.354h1.044v.739h-1.044v3.472a.775.775,0,0,0,.139.5.588.588,0,0,0,.476.168,2.324,2.324,0,0,0,.455-.062V237a2.771,2.771,0,0,1-.734.1,1.189,1.189,0,0,1-.966-.388,1.665,1.665,0,0,1-.326-1.1v-3.468h-1.018v-.739h1.018v-1.354Z" transform="translate(-87.508 -94.775)"/>
          <path id="Trazado_104639" data-name="Trazado 104639" d="M221.6,237.979a2.441,2.441,0,0,1-1.85-.746,2.773,2.773,0,0,1-.713-2v-.175a3.358,3.358,0,0,1,.318-1.486,2.481,2.481,0,0,1,.889-1.023,2.234,2.234,0,0,1,1.238-.37,2.094,2.094,0,0,1,1.7.719,3.111,3.111,0,0,1,.6,2.057v.4h-3.788a1.983,1.983,0,0,0,.483,1.335,1.515,1.515,0,0,0,1.175.509,1.667,1.667,0,0,0,.858-.206,2.165,2.165,0,0,0,.615-.548l.584.455a2.348,2.348,0,0,1-2.109,1.08m-.119-5.013a1.274,1.274,0,0,0-.971.422,2.044,2.044,0,0,0-.486,1.181h2.8V234.5a1.818,1.818,0,0,0-.393-1.129,1.2,1.2,0,0,0-.951-.4" transform="translate(-90.235 -95.651)"/>
          <path id="Trazado_104640" data-name="Trazado 104640" d="M184.025,276.848v2.946h-.992v-7.525h2.775a2.787,2.787,0,0,1,1.935.63,2.138,2.138,0,0,1,.7,1.669,2.112,2.112,0,0,1-.684,1.688,2.916,2.916,0,0,1-1.962.592Zm0-.812h1.783a1.78,1.78,0,0,0,1.22-.376,1.37,1.37,0,0,0,.424-1.084,1.417,1.417,0,0,0-.424-1.077,1.667,1.667,0,0,0-1.163-.419h-1.84Z" transform="translate(-75.404 -112.166)"/>
          <path id="Trazado_104641" data-name="Trazado 104641" d="M193.588,278.228a3.3,3.3,0,0,1,.323-1.478,2.4,2.4,0,0,1,.9-1.013,2.449,2.449,0,0,1,1.315-.356,2.358,2.358,0,0,1,1.848.791,3.043,3.043,0,0,1,.705,2.1v.067a3.331,3.331,0,0,1-.312,1.465,2.369,2.369,0,0,1-.894,1.011,2.474,2.474,0,0,1-1.336.362,2.351,2.351,0,0,1-1.842-.791,3.026,3.026,0,0,1-.706-2.093Zm.961.113a2.393,2.393,0,0,0,.431,1.494,1.463,1.463,0,0,0,2.313-.008,2.613,2.613,0,0,0,.429-1.6,2.39,2.39,0,0,0-.437-1.491,1.388,1.388,0,0,0-1.16-.571,1.373,1.373,0,0,0-1.143.563,2.6,2.6,0,0,0-.434,1.612" transform="translate(-79.752 -113.448)"/>
          <path id="Trazado_104642" data-name="Trazado 104642" d="M207.378,279.592a.706.706,0,0,0-.292-.6,2.812,2.812,0,0,0-1.019-.369,4.8,4.8,0,0,1-1.151-.372,1.631,1.631,0,0,1-.631-.517,1.234,1.234,0,0,1-.2-.713,1.452,1.452,0,0,1,.581-1.163,2.269,2.269,0,0,1,1.486-.476,2.335,2.335,0,0,1,1.542.491,1.56,1.56,0,0,1,.592,1.256h-.961a.862.862,0,0,0-.333-.677,1.248,1.248,0,0,0-.84-.284,1.3,1.3,0,0,0-.816.228.714.714,0,0,0-.295.594.58.58,0,0,0,.273.522,3.363,3.363,0,0,0,.99.336,5.168,5.168,0,0,1,1.16.383,1.7,1.7,0,0,1,.659.534,1.322,1.322,0,0,1,.214.763,1.43,1.43,0,0,1-.6,1.2,2.512,2.512,0,0,1-1.555.452,2.822,2.822,0,0,1-1.189-.238,1.944,1.944,0,0,1-.809-.664,1.6,1.6,0,0,1-.292-.923h.956a.989.989,0,0,0,.385.762,1.491,1.491,0,0,0,.949.282,1.535,1.535,0,0,0,.87-.22.674.674,0,0,0,.329-.586" transform="translate(-83.996 -113.448)"/>
          <path id="Trazado_104643" data-name="Trazado 104643" d="M214.389,273.253v1.354h1.044v.739h-1.044v3.472a.775.775,0,0,0,.139.5.588.588,0,0,0,.476.168,2.326,2.326,0,0,0,.455-.062v.77a2.771,2.771,0,0,1-.734.1,1.189,1.189,0,0,1-.966-.388,1.665,1.665,0,0,1-.326-1.1v-3.468h-1.018v-.739h1.018v-1.354Z" transform="translate(-87.508 -112.572)"/>
          <path id="Trazado_104644" data-name="Trazado 104644" d="M221.6,281.179a2.441,2.441,0,0,1-1.85-.746,2.773,2.773,0,0,1-.713-2v-.175a3.358,3.358,0,0,1,.318-1.486,2.481,2.481,0,0,1,.889-1.023,2.234,2.234,0,0,1,1.238-.37,2.094,2.094,0,0,1,1.7.719,3.111,3.111,0,0,1,.6,2.057v.4h-3.788a1.983,1.983,0,0,0,.483,1.335,1.515,1.515,0,0,0,1.175.509,1.667,1.667,0,0,0,.858-.206,2.163,2.163,0,0,0,.615-.548l.584.455a2.348,2.348,0,0,1-2.109,1.08m-.119-5.013a1.274,1.274,0,0,0-.971.422,2.045,2.045,0,0,0-.486,1.181h2.8V277.7a1.818,1.818,0,0,0-.393-1.129,1.2,1.2,0,0,0-.951-.4" transform="translate(-90.235 -113.448)"/>
          <path id="Trazado_104645" data-name="Trazado 104645" d="M170.962,297.647l1.964-3.778h1.127l-2.594,4.719v2.806h-.993v-2.806l-2.594-4.719h1.137Z" transform="translate(-69.158 -121.065)"/>
          <path id="Trazado_104646" data-name="Trazado 104646" d="M182.876,302.2a2.032,2.032,0,0,1-1.638.656,1.74,1.74,0,0,1-1.362-.519,2.247,2.247,0,0,1-.473-1.538v-3.638h.956v3.612q0,1.272,1.034,1.271a1.431,1.431,0,0,0,1.457-.816v-4.067h.956v5.592h-.91Z" transform="translate(-73.908 -122.419)"/>
          <path id="Trazado_104647" data-name="Trazado 104647" d="M190.265,297.084l.031.7a2.037,2.037,0,0,1,1.674-.806q1.773,0,1.788,2v3.7H192.8v-3.7a1.284,1.284,0,0,0-.276-.894,1.107,1.107,0,0,0-.845-.289,1.38,1.38,0,0,0-.816.248,1.682,1.682,0,0,0-.548.651v3.985h-.956v-5.592Z" transform="translate(-78.011 -122.347)"/>
          <path id="Trazado_104648" data-name="Trazado 104648" d="M198.9,299.834a3.285,3.285,0,0,1,.6-2.085,2.134,2.134,0,0,1,3.189-.1l.042-.563h.879v7.742h-.956V302.16a2.008,2.008,0,0,1-1.54.62,1.927,1.927,0,0,1-1.615-.788,3.354,3.354,0,0,1-.6-2.09Zm.956.109a2.487,2.487,0,0,0,.405,1.509,1.291,1.291,0,0,0,1.094.548,1.432,1.432,0,0,0,1.3-.754v-2.739a1.437,1.437,0,0,0-1.292-.739,1.3,1.3,0,0,0-1.1.55,2.711,2.711,0,0,0-.408,1.626" transform="translate(-81.939 -122.347)"/>
          <path id="Trazado_104649" data-name="Trazado 104649" d="M212.961,302.2a2.032,2.032,0,0,1-1.638.656,1.74,1.74,0,0,1-1.362-.519,2.247,2.247,0,0,1-.473-1.538v-3.638h.956v3.612q0,1.272,1.034,1.271a1.431,1.431,0,0,0,1.457-.816v-4.067h.956v5.592h-.91Z" transform="translate(-86.302 -122.419)"/>
          <path id="Trazado_104650" data-name="Trazado 104650" d="M221.6,302.78a2.441,2.441,0,0,1-1.85-.746,2.773,2.773,0,0,1-.713-2v-.175a3.358,3.358,0,0,1,.318-1.486,2.481,2.481,0,0,1,.889-1.023,2.234,2.234,0,0,1,1.238-.37,2.094,2.094,0,0,1,1.7.719,3.111,3.111,0,0,1,.6,2.057v.4h-3.788a1.983,1.983,0,0,0,.483,1.335,1.515,1.515,0,0,0,1.175.509,1.667,1.667,0,0,0,.858-.206,2.165,2.165,0,0,0,.615-.548l.584.455a2.348,2.348,0,0,1-2.109,1.08m-.119-5.013a1.274,1.274,0,0,0-.971.422,2.044,2.044,0,0,0-.486,1.181h2.8V299.3a1.818,1.818,0,0,0-.393-1.129,1.2,1.2,0,0,0-.951-.4" transform="translate(-90.235 -122.347)"/>
          <path id="Trazado_104651" data-name="Trazado 104651" d="M141.43,343.782H145v.811h-4.563v-7.525h1Z" transform="translate(-57.854 -138.862)"/>
          <path id="Trazado_104652" data-name="Trazado 104652" d="M153.2,345.875a1.989,1.989,0,0,1-.134-.589,2.134,2.134,0,0,1-1.592.693,1.973,1.973,0,0,1-1.357-.467,1.511,1.511,0,0,1-.53-1.186,1.579,1.579,0,0,1,.664-1.357,3.127,3.127,0,0,1,1.868-.483h.93v-.439a1.077,1.077,0,0,0-.3-.8,1.207,1.207,0,0,0-.884-.3,1.394,1.394,0,0,0-.858.259.761.761,0,0,0-.346.625H149.7a1.32,1.32,0,0,1,.3-.809,2.033,2.033,0,0,1,.806-.618,2.721,2.721,0,0,1,1.119-.227,2.212,2.212,0,0,1,1.515.483,1.742,1.742,0,0,1,.568,1.331v2.574a3.155,3.155,0,0,0,.2,1.225v.082Zm-1.587-.729a1.678,1.678,0,0,0,.853-.233,1.4,1.4,0,0,0,.584-.6v-1.147H152.3q-1.757,0-1.757,1.028a.871.871,0,0,0,.3.7,1.154,1.154,0,0,0,.77.253" transform="translate(-61.627 -140.143)"/>
          <path id="Trazado_104653" data-name="Trazado 104653" d="M159.258,341.461a3.275,3.275,0,0,1,.61-2.069,2.075,2.075,0,0,1,3.152-.112v-2.915h.956V344.3H163.1l-.046-.6a1.946,1.946,0,0,1-1.6.7,1.909,1.909,0,0,1-1.584-.8,3.312,3.312,0,0,1-.613-2.078Zm.956.109a2.481,2.481,0,0,0,.393,1.488,1.269,1.269,0,0,0,1.086.537,1.394,1.394,0,0,0,1.328-.816V340.21a1.405,1.405,0,0,0-1.318-.79,1.274,1.274,0,0,0-1.1.543,2.731,2.731,0,0,0-.393,1.607" transform="translate(-65.609 -138.572)"/>
          <path id="Trazado_104654" data-name="Trazado 104654" d="M169.374,343.028a3.3,3.3,0,0,1,.323-1.478,2.4,2.4,0,0,1,.9-1.013,2.449,2.449,0,0,1,1.315-.356,2.358,2.358,0,0,1,1.848.791,3.043,3.043,0,0,1,.705,2.1v.067a3.331,3.331,0,0,1-.312,1.465,2.369,2.369,0,0,1-.894,1.011,2.474,2.474,0,0,1-1.336.362,2.351,2.351,0,0,1-1.842-.791,3.026,3.026,0,0,1-.706-2.093Zm.961.113a2.393,2.393,0,0,0,.431,1.494,1.463,1.463,0,0,0,2.313-.008,2.613,2.613,0,0,0,.429-1.6,2.39,2.39,0,0,0-.437-1.491,1.388,1.388,0,0,0-1.16-.571,1.373,1.373,0,0,0-1.143.563,2.6,2.6,0,0,0-.434,1.612" transform="translate(-69.777 -140.143)"/>
          <path id="Trazado_104655" data-name="Trazado 104655" d="M189.251,343.142a3.349,3.349,0,0,1-.584,2.057,1.873,1.873,0,0,1-1.582.78,2.049,2.049,0,0,1-1.6-.646v2.693h-.956v-7.742h.873l.046.62a1.97,1.97,0,0,1,1.623-.724,1.906,1.906,0,0,1,1.594.76,3.386,3.386,0,0,1,.587,2.114Zm-.956-.109a2.471,2.471,0,0,0-.4-1.494,1.3,1.3,0,0,0-1.105-.548,1.406,1.406,0,0,0-1.3.77v2.672a1.408,1.408,0,0,0,1.313.765,1.293,1.293,0,0,0,1.093-.545,2.7,2.7,0,0,0,.406-1.621" transform="translate(-76.019 -140.143)"/>
          <rect id="Rectángulo_34150" data-name="Rectángulo 34150" width="0.956" height="7.938" transform="translate(114.529 197.794)"/>
          <path id="Trazado_104656" data-name="Trazado 104656" d="M202.334,345.875a1.989,1.989,0,0,1-.134-.589,2.134,2.134,0,0,1-1.592.693,1.973,1.973,0,0,1-1.357-.467,1.511,1.511,0,0,1-.53-1.186,1.579,1.579,0,0,1,.664-1.357,3.127,3.127,0,0,1,1.868-.483h.93v-.439a1.077,1.077,0,0,0-.3-.8,1.207,1.207,0,0,0-.884-.3,1.394,1.394,0,0,0-.858.259.761.761,0,0,0-.346.625h-.961a1.32,1.32,0,0,1,.3-.809,2.033,2.033,0,0,1,.806-.618,2.721,2.721,0,0,1,1.119-.227,2.212,2.212,0,0,1,1.515.483,1.742,1.742,0,0,1,.568,1.331v2.574a3.155,3.155,0,0,0,.2,1.225v.082Zm-1.587-.729a1.678,1.678,0,0,0,.853-.233,1.4,1.4,0,0,0,.584-.6v-1.147h-.749q-1.757,0-1.757,1.028a.871.871,0,0,0,.3.7,1.154,1.154,0,0,0,.77.253" transform="translate(-81.867 -140.143)"/>
          <path id="Trazado_104657" data-name="Trazado 104657" d="M209.689,340.283l.031.7a2.037,2.037,0,0,1,1.674-.806q1.773,0,1.788,2v3.7h-.956v-3.7a1.284,1.284,0,0,0-.276-.894,1.107,1.107,0,0,0-.845-.289,1.38,1.38,0,0,0-.816.248,1.682,1.682,0,0,0-.548.651v3.985h-.956v-5.592Z" transform="translate(-86.013 -140.143)"/>
          <path id="Trazado_104658" data-name="Trazado 104658" d="M218.286,343.028a3.3,3.3,0,0,1,.323-1.478,2.406,2.406,0,0,1,.9-1.013,2.449,2.449,0,0,1,1.315-.356,2.358,2.358,0,0,1,1.848.791,3.043,3.043,0,0,1,.705,2.1v.067a3.331,3.331,0,0,1-.312,1.465,2.369,2.369,0,0,1-.894,1.011,2.474,2.474,0,0,1-1.336.362,2.351,2.351,0,0,1-1.842-.791,3.026,3.026,0,0,1-.706-2.093Zm.961.113a2.393,2.393,0,0,0,.431,1.494,1.463,1.463,0,0,0,2.313-.008,2.613,2.613,0,0,0,.429-1.6,2.39,2.39,0,0,0-.437-1.491,1.388,1.388,0,0,0-1.16-.571,1.373,1.373,0,0,0-1.143.563,2.6,2.6,0,0,0-.434,1.612" transform="translate(-89.927 -140.143)"/>
          <path id="Trazado_104659" data-name="Trazado 104659" d="M153.455,384.412H150.3l-.708,1.969h-1.023l2.874-7.525h.868l2.879,7.525h-1.018ZM150.6,383.6h2.559l-1.282-3.519Zm1.768-6.76h1.158l-1.385,1.519-.77,0Z" transform="translate(-61.207 -155.247)"/>
          <path id="Trazado_104660" data-name="Trazado 104660" d="M162.2,383.483l.031.7a2.037,2.037,0,0,1,1.674-.806q1.773,0,1.788,2v3.7h-.956v-3.7a1.284,1.284,0,0,0-.276-.894,1.107,1.107,0,0,0-.845-.289,1.38,1.38,0,0,0-.816.248,1.682,1.682,0,0,0-.548.651v3.985H161.3v-5.592Z" transform="translate(-66.45 -157.94)"/>
          <path id="Trazado_104661" data-name="Trazado 104661" d="M170.8,386.228a3.3,3.3,0,0,1,.323-1.478,2.406,2.406,0,0,1,.9-1.013,2.449,2.449,0,0,1,1.315-.356,2.358,2.358,0,0,1,1.848.791,3.043,3.043,0,0,1,.705,2.1v.067a3.331,3.331,0,0,1-.312,1.465,2.369,2.369,0,0,1-.894,1.011,2.474,2.474,0,0,1-1.336.362,2.351,2.351,0,0,1-1.842-.791,3.026,3.026,0,0,1-.706-2.093Zm.961.113a2.393,2.393,0,0,0,.431,1.494,1.463,1.463,0,0,0,2.313-.008,2.613,2.613,0,0,0,.429-1.6,2.39,2.39,0,0,0-.437-1.491,1.388,1.388,0,0,0-1.16-.571,1.373,1.373,0,0,0-1.143.563,2.6,2.6,0,0,0-.434,1.612" transform="translate(-70.363 -157.94)"/>
          <path id="Trazado_104662" data-name="Trazado 104662" d="M181.1,384.661a3.275,3.275,0,0,1,.61-2.069,2.075,2.075,0,0,1,3.152-.112v-2.915h.956V387.5h-.879l-.046-.6a1.946,1.946,0,0,1-1.6.7,1.909,1.909,0,0,1-1.584-.8,3.312,3.312,0,0,1-.613-2.078Zm.956.109a2.481,2.481,0,0,0,.393,1.488,1.269,1.269,0,0,0,1.086.537,1.394,1.394,0,0,0,1.328-.816V383.41a1.405,1.405,0,0,0-1.318-.79,1.274,1.274,0,0,0-1.1.543,2.731,2.731,0,0,0-.393,1.607" transform="translate(-74.607 -156.369)"/>
          <path id="Trazado_104663" data-name="Trazado 104663" d="M191.215,386.228a3.3,3.3,0,0,1,.323-1.478,2.4,2.4,0,0,1,.9-1.013,2.449,2.449,0,0,1,1.315-.356,2.358,2.358,0,0,1,1.848.791,3.043,3.043,0,0,1,.705,2.1v.067a3.331,3.331,0,0,1-.312,1.465,2.369,2.369,0,0,1-.894,1.011,2.474,2.474,0,0,1-1.336.362,2.351,2.351,0,0,1-1.842-.791,3.026,3.026,0,0,1-.706-2.093Zm.961.113a2.393,2.393,0,0,0,.431,1.494,1.463,1.463,0,0,0,2.313-.008,2.613,2.613,0,0,0,.429-1.6,2.39,2.39,0,0,0-.437-1.491,1.388,1.388,0,0,0-1.16-.571,1.373,1.373,0,0,0-1.143.563,2.6,2.6,0,0,0-.434,1.612" transform="translate(-78.775 -157.94)"/>
          <path id="Trazado_104664" data-name="Trazado 104664" d="M206.306,384.062a7.979,7.979,0,0,1,.313-2.243,6.517,6.517,0,0,1,.933-1.954,3.958,3.958,0,0,1,1.287-1.24l.2.63a4.111,4.111,0,0,0-1.238,1.768,7.637,7.637,0,0,0-.53,2.661l-.005.44a7.7,7.7,0,0,0,.729,3.462,4.13,4.13,0,0,0,1.044,1.375l-.2.584a4.09,4.09,0,0,1-1.313-1.281,7.185,7.185,0,0,1-1.22-4.2" transform="translate(-84.992 -155.982)"/>
          <path id="Trazado_104665" data-name="Trazado 104665" d="M215.035,384.663h2.1v.9h-2.1v2.377h-.961v-2.377h-2.1v-.9h2.1v-2.2h.961Z" transform="translate(-87.327 -157.564)"/>
          <path id="Trazado_104666" data-name="Trazado 104666" d="M224.562,384.114a7.962,7.962,0,0,1-.3,2.209,6.512,6.512,0,0,1-.924,1.951,4.05,4.05,0,0,1-1.305,1.271l-.2-.584a4.154,4.154,0,0,0,1.279-1.895,8.191,8.191,0,0,0,.493-2.85v-.165a8.54,8.54,0,0,0-.227-2.019,6.822,6.822,0,0,0-.634-1.672,3.864,3.864,0,0,0-.911-1.153l.2-.584a4.035,4.035,0,0,1,1.3,1.261,6.557,6.557,0,0,1,.926,1.948,8.215,8.215,0,0,1,.307,2.279" transform="translate(-91.386 -155.982)"/>
          <path id="Trazado_104667" data-name="Trazado 104667" d="M149.548,406.935a2.768,2.768,0,0,1-.881,1.842,2.888,2.888,0,0,1-1.972.649,2.652,2.652,0,0,1-2.137-.956,3.847,3.847,0,0,1-.8-2.558v-.724a4.276,4.276,0,0,1,.375-1.845,2.8,2.8,0,0,1,1.062-1.223,2.963,2.963,0,0,1,1.592-.426,2.718,2.718,0,0,1,1.922.67,2.8,2.8,0,0,1,.843,1.852h-1a2.166,2.166,0,0,0-.561-1.307,1.7,1.7,0,0,0-1.207-.4,1.775,1.775,0,0,0-1.491.7,3.228,3.228,0,0,0-.54,2v.73a3.32,3.32,0,0,0,.512,1.95,1.652,1.652,0,0,0,1.431.724,1.908,1.908,0,0,0,1.27-.375,2.08,2.08,0,0,0,.586-1.3Z" transform="translate(-59.222 -165.485)"/>
          <path id="Trazado_104668" data-name="Trazado 104668" d="M159,409.1a2.009,2.009,0,0,1-.134-.589,2.134,2.134,0,0,1-1.592.693,1.973,1.973,0,0,1-1.357-.467,1.513,1.513,0,0,1-.53-1.187,1.578,1.578,0,0,1,.664-1.356,3.127,3.127,0,0,1,1.868-.484h.93v-.439a1.075,1.075,0,0,0-.3-.8,1.207,1.207,0,0,0-.884-.3,1.4,1.4,0,0,0-.858.258.762.762,0,0,0-.346.626H155.5a1.317,1.317,0,0,1,.3-.809,2.033,2.033,0,0,1,.806-.618,2.712,2.712,0,0,1,1.119-.228,2.211,2.211,0,0,1,1.515.484,1.741,1.741,0,0,1,.568,1.33V407.8a3.153,3.153,0,0,0,.2,1.225v.083Zm-1.587-.729a1.678,1.678,0,0,0,.853-.233,1.4,1.4,0,0,0,.584-.6v-1.147H158.1q-1.757,0-1.757,1.028a.871.871,0,0,0,.3.7,1.154,1.154,0,0,0,.77.253m.884-7.21h1.158l-1.385,1.52-.77,0Z" transform="translate(-64.013 -165.268)"/>
          <path id="Trazado_104669" data-name="Trazado 104669" d="M166.269,402.854v1.354h1.044v.739h-1.044v3.472a.775.775,0,0,0,.139.5.588.588,0,0,0,.476.168,2.324,2.324,0,0,0,.455-.062v.77a2.771,2.771,0,0,1-.734.1,1.189,1.189,0,0,1-.966-.388,1.665,1.665,0,0,1-.326-1.1v-3.468h-1.018v-.739h1.018v-1.354Z" transform="translate(-67.684 -165.963)"/>
          <path id="Trazado_104670" data-name="Trazado 104670" d="M170.719,407.829a3.3,3.3,0,0,1,.323-1.478,2.4,2.4,0,0,1,.9-1.013,2.449,2.449,0,0,1,1.315-.356,2.358,2.358,0,0,1,1.848.791,3.043,3.043,0,0,1,.705,2.1v.067a3.331,3.331,0,0,1-.312,1.465,2.369,2.369,0,0,1-.894,1.011,2.474,2.474,0,0,1-1.336.362,2.351,2.351,0,0,1-1.842-.791,3.026,3.026,0,0,1-.706-2.093Zm.961.113a2.393,2.393,0,0,0,.431,1.494,1.463,1.463,0,0,0,2.313-.008,2.613,2.613,0,0,0,.429-1.6,2.39,2.39,0,0,0-.437-1.491,1.388,1.388,0,0,0-1.16-.571,1.373,1.373,0,0,0-1.143.563,2.6,2.6,0,0,0-.434,1.612" transform="translate(-70.331 -166.839)"/>
          <path id="Trazado_104671" data-name="Trazado 104671" d="M181.02,406.262a3.275,3.275,0,0,1,.61-2.069,2.075,2.075,0,0,1,3.152-.112v-2.915h.956V409.1h-.879l-.046-.6a1.946,1.946,0,0,1-1.6.7,1.909,1.909,0,0,1-1.584-.8,3.312,3.312,0,0,1-.613-2.078Zm.956.109a2.481,2.481,0,0,0,.393,1.488,1.269,1.269,0,0,0,1.086.537,1.394,1.394,0,0,0,1.328-.816v-2.569a1.405,1.405,0,0,0-1.318-.79,1.274,1.274,0,0,0-1.1.543,2.731,2.731,0,0,0-.393,1.607" transform="translate(-74.575 -165.268)"/>
          <path id="Trazado_104672" data-name="Trazado 104672" d="M191.136,407.829a3.3,3.3,0,0,1,.323-1.478,2.4,2.4,0,0,1,.9-1.013,2.449,2.449,0,0,1,1.315-.356,2.358,2.358,0,0,1,1.848.791,3.043,3.043,0,0,1,.705,2.1v.067a3.331,3.331,0,0,1-.312,1.465,2.369,2.369,0,0,1-.894,1.011,2.475,2.475,0,0,1-1.336.362,2.35,2.35,0,0,1-1.842-.791,3.026,3.026,0,0,1-.706-2.093Zm.961.113a2.393,2.393,0,0,0,.431,1.494,1.463,1.463,0,0,0,2.313-.008,2.613,2.613,0,0,0,.429-1.6,2.39,2.39,0,0,0-.437-1.491,1.388,1.388,0,0,0-1.16-.571,1.373,1.373,0,0,0-1.143.563,2.6,2.6,0,0,0-.434,1.612" transform="translate(-78.742 -166.839)"/>
          <path id="Trazado_104673" data-name="Trazado 104673" d="M206.227,405.663a7.976,7.976,0,0,1,.313-2.243,6.51,6.51,0,0,1,.933-1.954,3.966,3.966,0,0,1,1.287-1.24l.2.63a4.107,4.107,0,0,0-1.238,1.768,7.636,7.636,0,0,0-.53,2.661l-.005.439a7.7,7.7,0,0,0,.729,3.463,4.131,4.131,0,0,0,1.044,1.375l-.2.584a4.091,4.091,0,0,1-1.313-1.281,7.186,7.186,0,0,1-1.22-4.2" transform="translate(-84.959 -164.881)"/>
          <rect id="Rectángulo_34151" data-name="Rectángulo 34151" width="4.316" height="0.78" transform="translate(125.067 239.692)"/>
          <path id="Trazado_104674" data-name="Trazado 104674" d="M224.562,405.715a7.962,7.962,0,0,1-.3,2.209,6.511,6.511,0,0,1-.924,1.951,4.049,4.049,0,0,1-1.305,1.271l-.2-.584a4.154,4.154,0,0,0,1.279-1.895,8.191,8.191,0,0,0,.493-2.85v-.165a8.54,8.54,0,0,0-.227-2.019,6.821,6.821,0,0,0-.634-1.672,3.864,3.864,0,0,0-.911-1.153l.2-.584a4.035,4.035,0,0,1,1.3,1.261,6.557,6.557,0,0,1,.926,1.948,8.215,8.215,0,0,1,.307,2.279" transform="translate(-91.386 -164.881)"/>
          <rect id="Rectángulo_34152" data-name="Rectángulo 34152" width="64.059" height="0.588" transform="translate(142.619 70.485)"/>
          <path id="Trazado_104675" data-name="Trazado 104675" d="M241.177,121.027a2.211,2.211,0,1,1,2.211-2.211,2.211,2.211,0,0,1-2.211,2.211" transform="translate(-98.446 -48.038)"/>
          <path id="Trazado_104676" data-name="Trazado 104676" d="M349.739,121.027a2.211,2.211,0,1,0-2.212-2.211,2.211,2.211,0,0,0,2.212,2.211" transform="translate(-143.17 -48.038)"/>
          <rect id="Rectángulo_34153" data-name="Rectángulo 34153" width="52.644" height="0.588" transform="translate(142.62 227.009)"/>
          <path id="Trazado_104677" data-name="Trazado 104677" d="M241.177,387.211A2.211,2.211,0,1,1,243.388,385a2.211,2.211,0,0,1-2.211,2.211" transform="translate(-98.446 -157.697)"/>
          <path id="Trazado_104678" data-name="Trazado 104678" d="M330.327,387.211A2.211,2.211,0,1,0,328.116,385a2.211,2.211,0,0,0,2.211,2.211" transform="translate(-135.173 -157.697)"/>
          <rect id="Rectángulo_34154" data-name="Rectángulo 34154" width="80.44" height="0.588" transform="translate(142.62 241.069)"/>
          <path id="Trazado_104679" data-name="Trazado 104679" d="M241.177,411.121a2.211,2.211,0,1,1,2.211-2.211,2.211,2.211,0,0,1-2.211,2.211" transform="translate(-98.446 -167.547)"/>
          <path id="Trazado_104680" data-name="Trazado 104680" d="M377.6,411.121a2.211,2.211,0,1,0-2.211-2.211,2.211,2.211,0,0,0,2.211,2.211" transform="translate(-154.647 -167.547)"/>
          <rect id="Rectángulo_34155" data-name="Rectángulo 34155" width="0.588" height="64.794" transform="translate(142.484 101.741) rotate(-75.848)"/>
          <path id="Trazado_104681" data-name="Trazado 104681" d="M240.522,173.174a2.211,2.211,0,1,1,2.684-1.6,2.211,2.211,0,0,1-2.684,1.6" transform="translate(-98.399 -69.548)"/>
          <path id="Trazado_104682" data-name="Trazado 104682" d="M347,200.023a2.211,2.211,0,1,0-1.6-2.684,2.211,2.211,0,0,0,1.6,2.684" transform="translate(-142.265 -80.609)"/>
          <rect id="Rectángulo_34156" data-name="Rectángulo 34156" width="0.588" height="71.27" transform="translate(142.612 126.081) rotate(-88.566)"/>
          <path id="Trazado_104683" data-name="Trazado 104683" d="M241.12,214.578a2.211,2.211,0,1,1,2.266-2.155,2.211,2.211,0,0,1-2.266,2.155" transform="translate(-98.446 -86.578)"/>
          <path id="Trazado_104684" data-name="Trazado 104684" d="M361.908,217.6a2.211,2.211,0,1,0-2.155-2.266,2.211,2.211,0,0,0,2.155,2.266" transform="translate(-148.207 -87.824)"/>
          <rect id="Rectángulo_34157" data-name="Rectángulo 34157" width="59.05" height="0.588" transform="translate(142.397 163.668) rotate(-19.886)"/>
          <path id="Trazado_104685" data-name="Trazado 104685" d="M241.7,279.254a2.211,2.211,0,1,1,1.328-2.831,2.211,2.211,0,0,1-1.328,2.831" transform="translate(-98.354 -113.276)"/>
          <path id="Trazado_104686" data-name="Trazado 104686" d="M335.791,245.25a2.211,2.211,0,1,0-2.831-1.328,2.211,2.211,0,0,0,2.831,1.328" transform="translate(-137.115 -99.268)"/>
          <rect id="Rectángulo_34158" data-name="Rectángulo 34158" width="47.828" height="0.588" transform="translate(142.397 201.865) rotate(-19.886)"/>
          <path id="Trazado_104687" data-name="Trazado 104687" d="M241.7,344.214a2.211,2.211,0,1,1,1.328-2.831,2.211,2.211,0,0,1-1.328,2.831" transform="translate(-98.354 -140.038)"/>
          <path id="Trazado_104688" data-name="Trazado 104688" d="M317.844,316.7a2.211,2.211,0,1,0-2.831-1.328,2.211,2.211,0,0,0,2.831,1.328" transform="translate(-129.721 -128.701)"/>
          <rect id="Rectángulo_34159" data-name="Rectángulo 34159" width="83.293" height="0.588" transform="translate(142.389 177.122) rotate(-20.141)"/>
          <path id="Trazado_104689" data-name="Trazado 104689" d="M241.707,302.145a2.211,2.211,0,1,1,1.314-2.837,2.211,2.211,0,0,1-1.314,2.837" transform="translate(-98.351 -122.708)"/>
          <path id="Trazado_104690" data-name="Trazado 104690" d="M374.336,253.5a2.211,2.211,0,1,0-2.837-1.314,2.211,2.211,0,0,0,2.837,1.314" transform="translate(-152.99 -102.666)"/>
          <rect id="Rectángulo_34160" data-name="Rectángulo 34160" width="72.074" height="0.588" transform="matrix(0.989, -0.146, 0.146, 0.989, 142.55, 138.196)"/>
          <path id="Trazado_104691" data-name="Trazado 104691" d="M241.46,236.169a2.211,2.211,0,1,1,1.862-2.511,2.211,2.211,0,0,1-1.862,2.511" transform="translate(-98.429 -95.482)"/>
          <path id="Trazado_104692" data-name="Trazado 104692" d="M362.327,218.225a2.211,2.211,0,1,0-2.511-1.862,2.211,2.211,0,0,0,2.511,1.862" transform="translate(-148.223 -88.09)"/>
          <path id="Trazado_104693" data-name="Trazado 104693" d="M661.047,189.363a49.831,49.831,0,1,0,0,56.7Z" transform="translate(-234.923 -69.163)" fill="#c8eea5"/>
          <path id="Trazado_104694" data-name="Trazado 104694" d="M619.633,267.734a50.462,50.462,0,1,1,41.492-79.174.636.636,0,0,1,.112.36v56.7a.635.635,0,0,1-.112.36,50.515,50.515,0,0,1-41.492,21.752m0-99.663a49.2,49.2,0,1,0,40.341,77.353V189.119a49.252,49.252,0,0,0-40.341-21.047" transform="translate(-234.48 -68.72)"/>
          <path id="Trazado_104695" data-name="Trazado 104695" d="M631.44,262.688a33.608,33.608,0,1,1,33.608-33.608,33.646,33.646,0,0,1-33.608,33.608m0-66.662a33.054,33.054,0,1,0,33.054,33.054,33.091,33.091,0,0,0-33.054-33.054" transform="translate(-246.288 -80.528)" fill="#7d6529"/>
          <rect id="Rectángulo_34161" data-name="Rectángulo 34161" width="25.491" height="0.993" transform="translate(383.654 146.736)"/>
          <rect id="Rectángulo_34162" data-name="Rectángulo 34162" width="12.746" height="0.993" transform="translate(362.706 146.736)"/>
          <path id="Trazado_104696" data-name="Trazado 104696" d="M508.738,246.77a15.984,15.984,0,0,1,.625-4.486,13.036,13.036,0,0,1,1.866-3.907A7.939,7.939,0,0,1,513.8,235.9l.393,1.261a8.237,8.237,0,0,0-2.476,3.535,15.328,15.328,0,0,0-1.059,5.323l-.011.879a15.407,15.407,0,0,0,1.457,6.925,8.282,8.282,0,0,0,2.088,2.75l-.393,1.168a8.2,8.2,0,0,1-2.626-2.563,14.369,14.369,0,0,1-2.439-8.4" transform="translate(-209.584 -97.182)"/>
          <path id="Trazado_104697" data-name="Trazado 104697" d="M526.2,247.97h4.2v1.809h-4.2v4.755h-1.923v-4.755h-4.2V247.97h4.2v-4.393H526.2Z" transform="translate(-214.255 -100.346)"/>
          <path id="Trazado_104698" data-name="Trazado 104698" d="M545.249,246.873a16,16,0,0,1-.6,4.419,13.073,13.073,0,0,1-1.851,3.9,8.106,8.106,0,0,1-2.61,2.543l-.4-1.168a8.31,8.31,0,0,0,2.559-3.788,16.394,16.394,0,0,0,.987-5.7v-.331a17,17,0,0,0-.455-4.036,13.635,13.635,0,0,0-1.266-3.344,7.721,7.721,0,0,0-1.825-2.305l.4-1.168a8.08,8.08,0,0,1,2.6,2.522,13.1,13.1,0,0,1,1.85,3.9,16.364,16.364,0,0,1,.615,4.558" transform="translate(-222.373 -97.182)"/>
          <path id="Trazado_104699" data-name="Trazado 104699" d="M507.966,292.124h-3.153l-.708,1.969h-1.023l2.874-7.525h.868l2.879,7.525h-1.018Zm-2.853-.811h2.559l-1.282-3.519Zm1.768-6.76h1.158l-1.385,1.519-.77,0Z" transform="translate(-207.254 -117.226)"/>
          <path id="Trazado_104700" data-name="Trazado 104700" d="M516.712,291.194l.031.7a2.037,2.037,0,0,1,1.674-.806q1.773,0,1.788,2v3.7h-.956v-3.7a1.284,1.284,0,0,0-.276-.894,1.107,1.107,0,0,0-.845-.289,1.38,1.38,0,0,0-.816.248,1.681,1.681,0,0,0-.548.651v3.985h-.956v-5.592Z" transform="translate(-212.497 -119.92)"/>
          <path id="Trazado_104701" data-name="Trazado 104701" d="M525.309,293.939a3.3,3.3,0,0,1,.323-1.478,2.4,2.4,0,0,1,.9-1.013,2.449,2.449,0,0,1,1.315-.356,2.358,2.358,0,0,1,1.848.791,3.043,3.043,0,0,1,.705,2.1v.067a3.331,3.331,0,0,1-.312,1.465,2.368,2.368,0,0,1-.894,1.011,2.474,2.474,0,0,1-1.336.362,2.351,2.351,0,0,1-1.842-.791,3.026,3.026,0,0,1-.706-2.093Zm.961.113a2.393,2.393,0,0,0,.431,1.494,1.463,1.463,0,0,0,2.313-.008,2.614,2.614,0,0,0,.429-1.6,2.39,2.39,0,0,0-.437-1.491,1.388,1.388,0,0,0-1.16-.571,1.373,1.373,0,0,0-1.143.563,2.6,2.6,0,0,0-.434,1.612" transform="translate(-216.411 -119.92)"/>
          <path id="Trazado_104702" data-name="Trazado 104702" d="M535.61,292.372a3.275,3.275,0,0,1,.61-2.069,2.075,2.075,0,0,1,3.152-.112v-2.915h.956v7.938h-.879l-.047-.6a1.946,1.946,0,0,1-1.6.7,1.909,1.909,0,0,1-1.584-.8,3.312,3.312,0,0,1-.613-2.078Zm.956.109a2.481,2.481,0,0,0,.393,1.488,1.269,1.269,0,0,0,1.086.537,1.394,1.394,0,0,0,1.328-.816v-2.569a1.405,1.405,0,0,0-1.318-.79,1.274,1.274,0,0,0-1.1.543,2.731,2.731,0,0,0-.393,1.607" transform="translate(-220.654 -118.349)"/>
          <path id="Trazado_104703" data-name="Trazado 104703" d="M545.726,293.939a3.3,3.3,0,0,1,.323-1.478,2.4,2.4,0,0,1,.9-1.013,2.449,2.449,0,0,1,1.315-.356,2.358,2.358,0,0,1,1.848.791,3.043,3.043,0,0,1,.705,2.1v.067a3.331,3.331,0,0,1-.312,1.465,2.368,2.368,0,0,1-.894,1.011,2.474,2.474,0,0,1-1.336.362,2.351,2.351,0,0,1-1.842-.791,3.026,3.026,0,0,1-.706-2.093Zm.961.113a2.393,2.393,0,0,0,.431,1.494,1.463,1.463,0,0,0,2.313-.008,2.614,2.614,0,0,0,.429-1.6,2.39,2.39,0,0,0-.437-1.491,1.388,1.388,0,0,0-1.16-.571,1.373,1.373,0,0,0-1.143.563,2.6,2.6,0,0,0-.434,1.612" transform="translate(-224.822 -119.92)"/>
          <path id="Trazado_104704" data-name="Trazado 104704" d="M748.322,246.77a15.983,15.983,0,0,1,.625-4.486,13.036,13.036,0,0,1,1.866-3.907,7.94,7.94,0,0,1,2.574-2.481l.393,1.261a8.237,8.237,0,0,0-2.476,3.535,15.328,15.328,0,0,0-1.059,5.323l-.011.879a15.408,15.408,0,0,0,1.457,6.925,8.281,8.281,0,0,0,2.088,2.75l-.393,1.168a8.2,8.2,0,0,1-2.626-2.563,14.37,14.37,0,0,1-2.439-8.4" transform="translate(-308.285 -97.182)"/>
          <rect id="Rectángulo_34163" data-name="Rectángulo 34163" width="8.631" height="1.561" transform="translate(447.634 147.407)"/>
          <path id="Trazado_104705" data-name="Trazado 104705" d="M784.991,246.873a16,16,0,0,1-.6,4.419,13.073,13.073,0,0,1-1.851,3.9,8.105,8.105,0,0,1-2.61,2.543l-.4-1.168a8.31,8.31,0,0,0,2.559-3.788,16.393,16.393,0,0,0,.987-5.7v-.331a17,17,0,0,0-.455-4.036,13.632,13.632,0,0,0-1.266-3.344,7.723,7.723,0,0,0-1.825-2.305l.4-1.168a8.081,8.081,0,0,1,2.6,2.522,13.1,13.1,0,0,1,1.85,3.9,16.364,16.364,0,0,1,.615,4.558" transform="translate(-321.139 -97.182)"/>
          <path id="Trazado_104706" data-name="Trazado 104706" d="M746.571,293.045a2.768,2.768,0,0,1-.881,1.842,2.888,2.888,0,0,1-1.972.649,2.652,2.652,0,0,1-2.137-.956,3.847,3.847,0,0,1-.8-2.558V291.3a4.276,4.276,0,0,1,.375-1.845,2.8,2.8,0,0,1,1.062-1.223,2.963,2.963,0,0,1,1.592-.426,2.718,2.718,0,0,1,1.922.67,2.8,2.8,0,0,1,.843,1.852h-1a2.166,2.166,0,0,0-.561-1.307,1.7,1.7,0,0,0-1.207-.4,1.775,1.775,0,0,0-1.491.7,3.228,3.228,0,0,0-.54,2v.73a3.321,3.321,0,0,0,.512,1.95,1.652,1.652,0,0,0,1.431.724,1.908,1.908,0,0,0,1.27-.375,2.08,2.08,0,0,0,.586-1.3Z" transform="translate(-305.177 -118.566)"/>
          <path id="Trazado_104707" data-name="Trazado 104707" d="M756.017,295.215a2.013,2.013,0,0,1-.134-.589,2.133,2.133,0,0,1-1.592.693,1.973,1.973,0,0,1-1.357-.467,1.513,1.513,0,0,1-.53-1.187,1.578,1.578,0,0,1,.664-1.356,3.127,3.127,0,0,1,1.868-.484h.93v-.439a1.075,1.075,0,0,0-.3-.8,1.207,1.207,0,0,0-.884-.3,1.4,1.4,0,0,0-.858.258.762.762,0,0,0-.346.626h-.961a1.317,1.317,0,0,1,.3-.809,2.034,2.034,0,0,1,.806-.618,2.712,2.712,0,0,1,1.119-.228,2.211,2.211,0,0,1,1.515.484,1.741,1.741,0,0,1,.568,1.33v2.574a3.152,3.152,0,0,0,.2,1.225v.083Zm-1.586-.729a1.678,1.678,0,0,0,.853-.233,1.4,1.4,0,0,0,.584-.6V292.5h-.749q-1.757,0-1.757,1.028a.871.871,0,0,0,.3.7,1.153,1.153,0,0,0,.77.253m.884-7.21h1.158l-1.385,1.519-.77,0Z" transform="translate(-309.967 -118.349)"/>
          <path id="Trazado_104708" data-name="Trazado 104708" d="M763.291,288.964v1.354h1.044v.739h-1.044v3.472a.774.774,0,0,0,.139.5.588.588,0,0,0,.476.168,2.324,2.324,0,0,0,.455-.062v.77a2.769,2.769,0,0,1-.734.1,1.189,1.189,0,0,1-.966-.388,1.664,1.664,0,0,1-.326-1.1v-3.468h-1.018v-.739h1.018v-1.354Z" transform="translate(-313.639 -119.044)"/>
          <path id="Trazado_104709" data-name="Trazado 104709" d="M767.742,293.939a3.3,3.3,0,0,1,.323-1.478,2.4,2.4,0,0,1,.9-1.013,2.449,2.449,0,0,1,1.315-.356,2.358,2.358,0,0,1,1.848.791,3.043,3.043,0,0,1,.705,2.1v.067a3.331,3.331,0,0,1-.312,1.465,2.369,2.369,0,0,1-.894,1.011,2.475,2.475,0,0,1-1.336.362,2.351,2.351,0,0,1-1.842-.791,3.026,3.026,0,0,1-.706-2.093Zm.961.113a2.393,2.393,0,0,0,.431,1.494,1.463,1.463,0,0,0,2.313-.008,2.613,2.613,0,0,0,.429-1.6,2.39,2.39,0,0,0-.437-1.491,1.388,1.388,0,0,0-1.16-.571,1.373,1.373,0,0,0-1.143.563,2.6,2.6,0,0,0-.434,1.612" transform="translate(-316.286 -119.92)"/>
          <path id="Trazado_104710" data-name="Trazado 104710" d="M778.043,292.372a3.274,3.274,0,0,1,.61-2.069,2.075,2.075,0,0,1,3.152-.112v-2.915h.956v7.938h-.879l-.046-.6a1.946,1.946,0,0,1-1.6.7,1.909,1.909,0,0,1-1.584-.8,3.312,3.312,0,0,1-.613-2.078Zm.956.109a2.48,2.48,0,0,0,.393,1.488,1.269,1.269,0,0,0,1.085.537,1.394,1.394,0,0,0,1.328-.816v-2.569a1.4,1.4,0,0,0-1.318-.79,1.274,1.274,0,0,0-1.1.543,2.731,2.731,0,0,0-.393,1.607" transform="translate(-320.529 -118.349)"/>
          <path id="Trazado_104711" data-name="Trazado 104711" d="M788.159,293.939a3.3,3.3,0,0,1,.323-1.478,2.4,2.4,0,0,1,.9-1.013,2.449,2.449,0,0,1,1.315-.356,2.358,2.358,0,0,1,1.848.791,3.043,3.043,0,0,1,.705,2.1v.067a3.331,3.331,0,0,1-.312,1.465,2.368,2.368,0,0,1-.894,1.011,2.474,2.474,0,0,1-1.336.362,2.351,2.351,0,0,1-1.842-.791,3.026,3.026,0,0,1-.706-2.093Zm.961.113a2.394,2.394,0,0,0,.431,1.494,1.463,1.463,0,0,0,2.313-.008,2.614,2.614,0,0,0,.429-1.6,2.39,2.39,0,0,0-.437-1.491,1.388,1.388,0,0,0-1.16-.571,1.373,1.373,0,0,0-1.143.563,2.6,2.6,0,0,0-.434,1.612" transform="translate(-324.697 -119.92)"/>
          <path id="Trazado_104712" data-name="Trazado 104712" d="M583.448,114.535v3.523h-1.323v-9h3.7a4,4,0,0,1,2.581.754,2.439,2.439,0,0,1,.934,2,2.4,2.4,0,0,1-.913,2.018,4.2,4.2,0,0,1-2.615.707Zm0-.97h2.377a2.565,2.565,0,0,0,1.626-.449,1.56,1.56,0,0,0,.565-1.3,1.611,1.611,0,0,0-.565-1.288,2.385,2.385,0,0,0-1.551-.5h-2.453Z" transform="translate(-239.817 -44.929)"/>
          <rect id="Rectángulo_34164" data-name="Rectángulo 34164" width="1.275" height="9.493" transform="translate(351.121 63.636)"/>
          <path id="Trazado_104713" data-name="Trazado 104713" d="M607.2,119.591a2.2,2.2,0,0,1-.179-.7,3.006,3.006,0,0,1-2.122.828,2.827,2.827,0,0,1-1.809-.559,1.736,1.736,0,0,1-.706-1.418,1.832,1.832,0,0,1,.886-1.622,4.543,4.543,0,0,1,2.491-.578H607v-.525a1.214,1.214,0,0,0-.4-.954,1.722,1.722,0,0,0-1.178-.356,2.012,2.012,0,0,0-1.144.309.89.89,0,0,0-.462.747h-1.282a1.483,1.483,0,0,1,.4-.967,2.684,2.684,0,0,1,1.075-.739,3.981,3.981,0,0,1,1.492-.272,3.176,3.176,0,0,1,2.019.578,1.991,1.991,0,0,1,.758,1.591v3.078a3.417,3.417,0,0,0,.262,1.465v.1Zm-2.116-.871a2.444,2.444,0,0,0,1.137-.278,1.78,1.78,0,0,0,.779-.723v-1.372h-1q-2.344,0-2.343,1.23a1,1,0,0,0,.4.84,1.651,1.651,0,0,0,1.027.3" transform="translate(-248.164 -46.462)"/>
          <path id="Trazado_104714" data-name="Trazado 104714" d="M617.01,112.9l.041.841a2.841,2.841,0,0,1,2.233-.964,2.122,2.122,0,0,1,2.385,2.392v4.419h-1.275v-4.425a1.44,1.44,0,0,0-.369-1.07,1.583,1.583,0,0,0-1.127-.346,2,2,0,0,0-1.089.3,2.091,2.091,0,0,0-.73.779v4.765H615.8V112.9Z" transform="translate(-253.692 -46.462)"/>
          <path id="Trazado_104715" data-name="Trazado 104715" d="M630.144,110.237v1.619h1.392v.884h-1.392v4.152a.861.861,0,0,0,.186.6.836.836,0,0,0,.634.2,3.428,3.428,0,0,0,.606-.074v.921a4.1,4.1,0,0,1-.979.123,1.684,1.684,0,0,1-1.289-.463,1.854,1.854,0,0,1-.434-1.316V112.74h-1.358v-.884h1.358v-1.619Z" transform="translate(-258.515 -45.414)"/>
          <path id="Trazado_104716" data-name="Trazado 104716" d="M641.34,119.591a2.2,2.2,0,0,1-.179-.7,3.006,3.006,0,0,1-2.122.828,2.827,2.827,0,0,1-1.809-.559,1.735,1.735,0,0,1-.706-1.418,1.833,1.833,0,0,1,.886-1.622,4.543,4.543,0,0,1,2.491-.578h1.241v-.525a1.214,1.214,0,0,0-.4-.954,1.723,1.723,0,0,0-1.178-.356,2.013,2.013,0,0,0-1.144.309.89.89,0,0,0-.462.747h-1.282a1.483,1.483,0,0,1,.4-.967,2.684,2.684,0,0,1,1.075-.739,3.98,3.98,0,0,1,1.492-.272,3.176,3.176,0,0,1,2.019.578,1.991,1.991,0,0,1,.758,1.591v3.078a3.416,3.416,0,0,0,.262,1.465v.1Zm-2.116-.871a2.444,2.444,0,0,0,1.137-.278,1.78,1.78,0,0,0,.779-.723v-1.372h-1q-2.344,0-2.343,1.23a1,1,0,0,0,.4.84,1.651,1.651,0,0,0,1.027.3" transform="translate(-262.227 -46.462)"/>
          <path id="Trazado_104717" data-name="Trazado 104717" d="M655.894,109.511a.644.644,0,0,1,.189-.47.758.758,0,0,1,.562-.191.77.77,0,0,1,.565.191.638.638,0,0,1,.193.47.618.618,0,0,1-.193.463.784.784,0,0,1-.565.186.772.772,0,0,1-.562-.186.623.623,0,0,1-.189-.463m1.378,8.461H656v-6.687h1.275Z" transform="translate(-270.208 -44.843)"/>
          <path id="Trazado_104718" data-name="Trazado 104718" d="M662.913,112.9l.041.841a2.842,2.842,0,0,1,2.233-.964,2.122,2.122,0,0,1,2.385,2.392v4.419H666.3v-4.425a1.44,1.44,0,0,0-.369-1.07,1.582,1.582,0,0,0-1.126-.346,2,2,0,0,0-1.09.3,2.091,2.091,0,0,0-.73.779v4.765h-1.275V112.9Z" transform="translate(-272.602 -46.462)"/>
          <path id="Trazado_104719" data-name="Trazado 104719" d="M675.189,117.621v-5.8h-1.178v-.884h1.178v-.686a2.14,2.14,0,0,1,.641-1.662,2.585,2.585,0,0,1,1.812-.587,3.739,3.739,0,0,1,.875.1l-.069.921a4.077,4.077,0,0,0-.689-.055,1.325,1.325,0,0,0-.958.325,1.236,1.236,0,0,0-.338.933v.706h1.592v.884h-1.592v5.8Z" transform="translate(-277.671 -44.492)"/>
          <path id="Trazado_104720" data-name="Trazado 104720" d="M685.867,119.713a3.46,3.46,0,0,1-2.467-.893,3.12,3.12,0,0,1-.951-2.389v-.21a3.665,3.665,0,0,1,.424-1.777,3.089,3.089,0,0,1,1.185-1.224,3.233,3.233,0,0,1,1.651-.442,2.949,2.949,0,0,1,2.26.859,3.459,3.459,0,0,1,.806,2.459v.476h-5.051a2.234,2.234,0,0,0,.644,1.6,2.137,2.137,0,0,0,1.568.609,2.421,2.421,0,0,0,1.144-.247,2.8,2.8,0,0,0,.82-.655l.779.544a3.248,3.248,0,0,1-2.811,1.291m-.159-5.994a1.8,1.8,0,0,0-1.3.5,2.327,2.327,0,0,0-.648,1.412H687.5v-.086a2.043,2.043,0,0,0-.524-1.35,1.692,1.692,0,0,0-1.268-.479" transform="translate(-281.147 -46.462)"/>
          <path id="Trazado_104721" data-name="Trazado 104721" d="M699.318,113.93a4.258,4.258,0,0,0-.627-.043,1.7,1.7,0,0,0-1.7.958v4.746h-1.275V112.9h1.24l.021.773a2.042,2.042,0,0,1,1.778-.9,1.437,1.437,0,0,1,.565.086Z" transform="translate(-286.612 -46.462)"/>
          <path id="Trazado_104722" data-name="Trazado 104722" d="M703.847,109.511a.643.643,0,0,1,.19-.47.756.756,0,0,1,.562-.191.77.77,0,0,1,.565.191.638.638,0,0,1,.193.47.618.618,0,0,1-.193.463.783.783,0,0,1-.565.186.769.769,0,0,1-.562-.186.622.622,0,0,1-.19-.463m1.378,8.461h-1.275v-6.687h1.275Z" transform="translate(-289.963 -44.843)"/>
          <path id="Trazado_104723" data-name="Trazado 104723" d="M709.085,116.185a3.609,3.609,0,0,1,.431-1.768,3.018,3.018,0,0,1,1.2-1.211,3.555,3.555,0,0,1,1.753-.426,3.323,3.323,0,0,1,2.464.946,3.41,3.41,0,0,1,.94,2.515v.081a3.637,3.637,0,0,1-.417,1.752,2.959,2.959,0,0,1-1.192,1.208,3.6,3.6,0,0,1-1.781.433,3.313,3.313,0,0,1-2.457-.946,3.4,3.4,0,0,1-.941-2.5Zm1.282.136a2.654,2.654,0,0,0,.576,1.786,2.091,2.091,0,0,0,3.084-.009,2.894,2.894,0,0,0,.572-1.912,2.653,2.653,0,0,0-.582-1.783,2.075,2.075,0,0,0-3.07-.009,2.876,2.876,0,0,0-.579,1.928" transform="translate(-292.121 -46.462)"/>
          <path id="Trazado_104724" data-name="Trazado 104724" d="M726.951,113.93a4.258,4.258,0,0,0-.627-.043,1.7,1.7,0,0,0-1.7.958v4.746h-1.275V112.9h1.24l.021.773a2.042,2.042,0,0,1,1.778-.9,1.437,1.437,0,0,1,.565.086Z" transform="translate(-297.996 -46.462)"/>
        </g>
      </g>
    </g>
  </g>
</svg>
