<svg xmlns="http://www.w3.org/2000/svg" width="368" height="268" viewBox="0 0 368 268">
  <g id="Grupo_99596" data-name="Grupo 99596" transform="translate(5297 6094)">
    <g id="Rectángulo_33793" data-name="Rectángulo 33793" transform="translate(-5297 -6094)" fill="#fff" stroke="#707070" stroke-width="1">
      <rect width="368" height="268" stroke="none"/>
      <rect x="0.5" y="0.5" width="367" height="267" fill="none"/>
    </g>
    <path id="Trazado_104135" data-name="Trazado 104135" d="M0,0H202V34H0Z" transform="translate(-5256 -6033)" fill="red"/>
    <path id="Trazado_104137" data-name="Trazado 104137" d="M0,0H202V34H0Z" transform="translate(-5256 -5999)" fill="#ff9300"/>
    <path id="Trazado_104138" data-name="Trazado 104138" d="M0,0H202V34H0Z" transform="translate(-5256 -5965)" fill="#ff0"/>
    <path id="Trazado_104142" data-name="Trazado 104142" d="M0,0H202V34H0Z" transform="translate(-5256 -5931)" fill="#548135"/>
    <path id="Trazado_104149" data-name="Trazado 104149" d="M0,0H202V34H0Z" transform="translate(-5256 -5898)" fill="#2f74b5"/>
    <path id="Trazado_104136" data-name="Trazado 104136" d="M5.227-4.164H3.359V0H1.016V-11.375H5.242a4.778,4.778,0,0,1,3.109.9A3.1,3.1,0,0,1,9.445-7.937,3.5,3.5,0,0,1,8.941-6,3.437,3.437,0,0,1,7.414-4.758L9.875-.109V0H7.359Zm-1.867-1.9H5.25a1.936,1.936,0,0,0,1.367-.449A1.606,1.606,0,0,0,7.1-7.75a1.719,1.719,0,0,0-.457-1.266,1.9,1.9,0,0,0-1.4-.461H3.359ZM10.727-4.3a5.013,5.013,0,0,1,.484-2.242A3.546,3.546,0,0,1,12.605-8.07a4.069,4.069,0,0,1,2.113-.539,3.849,3.849,0,0,1,2.793,1.047,4.2,4.2,0,0,1,1.207,2.844l.016.578A4.418,4.418,0,0,1,17.648-1.02,3.775,3.775,0,0,1,14.734.156a3.793,3.793,0,0,1-2.918-1.172A4.5,4.5,0,0,1,10.727-4.2Zm2.258.164a3.151,3.151,0,0,0,.453,1.84,1.5,1.5,0,0,0,1.3.637,1.5,1.5,0,0,0,1.281-.629A3.448,3.448,0,0,0,16.477-4.3a3.12,3.12,0,0,0-.461-1.828,1.5,1.5,0,0,0-1.3-.648,1.475,1.475,0,0,0-1.281.645A3.506,3.506,0,0,0,12.984-4.141Zm9.531-4.312V.461a3.024,3.024,0,0,1-.742,2.176,2.821,2.821,0,0,1-2.141.777,4.591,4.591,0,0,1-1.117-.133V1.492a4.238,4.238,0,0,0,.711.07q1.023,0,1.023-1.086v-8.93ZM20.07-10.641a1.112,1.112,0,0,1,.34-.836,1.277,1.277,0,0,1,.926-.328,1.277,1.277,0,0,1,.926.328,1.112,1.112,0,0,1,.34.836,1.108,1.108,0,0,1-.348.844,1.283,1.283,0,0,1-.918.328,1.283,1.283,0,0,1-.918-.328A1.108,1.108,0,0,1,20.07-10.641ZM23.93-4.3a5.013,5.013,0,0,1,.484-2.242A3.546,3.546,0,0,1,25.809-8.07a4.069,4.069,0,0,1,2.113-.539,3.849,3.849,0,0,1,2.793,1.047,4.2,4.2,0,0,1,1.207,2.844l.016.578A4.418,4.418,0,0,1,30.852-1.02,3.775,3.775,0,0,1,27.938.156,3.793,3.793,0,0,1,25.02-1.016,4.5,4.5,0,0,1,23.93-4.2Zm2.258.164a3.151,3.151,0,0,0,.453,1.84,1.5,1.5,0,0,0,1.3.637,1.5,1.5,0,0,0,1.281-.629A3.448,3.448,0,0,0,29.68-4.3a3.12,3.12,0,0,0-.461-1.828,1.5,1.5,0,0,0-1.3-.648,1.475,1.475,0,0,0-1.281.645A3.506,3.506,0,0,0,26.188-4.141Z" transform="translate(-5236.461 -6012.445)"/>
    <path id="Trazado_104139" data-name="Trazado 104139" d="M10.266,0H7.922L3.359-7.484V0H1.016V-11.375H3.359l4.57,7.5v-7.5h2.336Zm6.8,0a2.507,2.507,0,0,1-.227-.758A2.732,2.732,0,0,1,14.7.156a3,3,0,0,1-2.059-.719,2.312,2.312,0,0,1-.816-1.812,2.389,2.389,0,0,1,1-2.062A4.915,4.915,0,0,1,15.7-5.164h1.039v-.484a1.393,1.393,0,0,0-.3-.937,1.183,1.183,0,0,0-.949-.352,1.345,1.345,0,0,0-.895.273.929.929,0,0,0-.324.75H12.016a2.268,2.268,0,0,1,.453-1.359,3,3,0,0,1,1.281-.98,4.669,4.669,0,0,1,1.859-.355,3.689,3.689,0,0,1,2.48.785,2.747,2.747,0,0,1,.918,2.207v3.664a4.041,4.041,0,0,0,.336,1.82V0ZM15.2-1.57a1.945,1.945,0,0,0,.922-.223,1.462,1.462,0,0,0,.625-.6V-3.844H15.9q-1.7,0-1.8,1.172l-.008.133a.9.9,0,0,0,.3.7A1.153,1.153,0,0,0,15.2-1.57Zm10.3-4.766A6.134,6.134,0,0,0,24.68-6.4,1.654,1.654,0,0,0,23-5.531V0H20.742V-8.453h2.133l.063,1.008A2.092,2.092,0,0,1,24.82-8.609a2.366,2.366,0,0,1,.7.1ZM31.242,0a2.507,2.507,0,0,1-.227-.758,2.732,2.732,0,0,1-2.133.914,3,3,0,0,1-2.059-.719,2.312,2.312,0,0,1-.816-1.812,2.389,2.389,0,0,1,1-2.062,4.915,4.915,0,0,1,2.879-.727h1.039v-.484a1.393,1.393,0,0,0-.3-.937,1.183,1.183,0,0,0-.949-.352,1.345,1.345,0,0,0-.895.273.929.929,0,0,0-.324.75H26.2a2.268,2.268,0,0,1,.453-1.359,3,3,0,0,1,1.281-.98,4.669,4.669,0,0,1,1.859-.355,3.689,3.689,0,0,1,2.48.785,2.747,2.747,0,0,1,.918,2.207v3.664a4.041,4.041,0,0,0,.336,1.82V0ZM29.375-1.57a1.945,1.945,0,0,0,.922-.223,1.462,1.462,0,0,0,.625-.6V-3.844h-.844q-1.7,0-1.8,1.172l-.008.133a.9.9,0,0,0,.3.7A1.153,1.153,0,0,0,29.375-1.57ZM37-8.453l.07.977A2.951,2.951,0,0,1,39.5-8.609a2.453,2.453,0,0,1,2,.789,3.682,3.682,0,0,1,.672,2.359V0H39.914V-5.406A1.465,1.465,0,0,0,39.6-6.449a1.4,1.4,0,0,0-1.039-.324,1.553,1.553,0,0,0-1.43.813V0H34.875V-8.453Zm9.273,0V.461a3.024,3.024,0,0,1-.742,2.176,2.821,2.821,0,0,1-2.141.777,4.591,4.591,0,0,1-1.117-.133V1.492a4.238,4.238,0,0,0,.711.07q1.023,0,1.023-1.086v-8.93Zm-2.445-2.187a1.112,1.112,0,0,1,.34-.836,1.277,1.277,0,0,1,.926-.328,1.277,1.277,0,0,1,.926.328,1.112,1.112,0,0,1,.34.836,1.108,1.108,0,0,1-.348.844,1.283,1.283,0,0,1-.918.328,1.283,1.283,0,0,1-.918-.328A1.108,1.108,0,0,1,43.828-10.641ZM52.938,0a2.507,2.507,0,0,1-.227-.758,2.732,2.732,0,0,1-2.133.914A3,3,0,0,1,48.52-.562,2.312,2.312,0,0,1,47.7-2.375a2.389,2.389,0,0,1,1-2.062,4.915,4.915,0,0,1,2.879-.727h1.039v-.484a1.393,1.393,0,0,0-.3-.937,1.183,1.183,0,0,0-.949-.352,1.345,1.345,0,0,0-.895.273.929.929,0,0,0-.324.75H47.891a2.268,2.268,0,0,1,.453-1.359,3,3,0,0,1,1.281-.98,4.669,4.669,0,0,1,1.859-.355,3.689,3.689,0,0,1,2.48.785,2.747,2.747,0,0,1,.918,2.207v3.664a4.041,4.041,0,0,0,.336,1.82V0ZM51.07-1.57a1.945,1.945,0,0,0,.922-.223,1.462,1.462,0,0,0,.625-.6V-3.844h-.844q-1.7,0-1.8,1.172l-.008.133a.9.9,0,0,0,.3.7A1.153,1.153,0,0,0,51.07-1.57Z" transform="translate(-5236.461 -5976.5)"/>
    <path id="Trazado_104141" data-name="Trazado 104141" d="M7.438-2.344H3.328L2.547,0H.055L4.289-11.375H6.461L10.719,0H8.227Zm-3.477-1.9H6.8L5.375-8.5Zm9.414-4.211.07.945a2.971,2.971,0,0,1,2.43-1.1A2.255,2.255,0,0,1,18.117-7.32a2.9,2.9,0,0,1,2.539-1.289,2.521,2.521,0,0,1,2.047.8,3.681,3.681,0,0,1,.672,2.41V0H21.109V-5.391a1.61,1.61,0,0,0-.281-1.051,1.246,1.246,0,0,0-.992-.332A1.409,1.409,0,0,0,18.43-5.8L18.438,0H16.18V-5.383a1.59,1.59,0,0,0-.289-1.062,1.259,1.259,0,0,0-.984-.328,1.463,1.463,0,0,0-1.391.8V0H11.258V-8.453ZM30.008,0a2.507,2.507,0,0,1-.227-.758,2.732,2.732,0,0,1-2.133.914A3,3,0,0,1,25.59-.562a2.312,2.312,0,0,1-.816-1.812,2.389,2.389,0,0,1,1-2.062,4.915,4.915,0,0,1,2.879-.727h1.039v-.484a1.393,1.393,0,0,0-.3-.937,1.183,1.183,0,0,0-.949-.352,1.345,1.345,0,0,0-.895.273.929.929,0,0,0-.324.75H24.961a2.268,2.268,0,0,1,.453-1.359,3,3,0,0,1,1.281-.98,4.669,4.669,0,0,1,1.859-.355,3.689,3.689,0,0,1,2.48.785,2.747,2.747,0,0,1,.918,2.207v3.664a4.041,4.041,0,0,0,.336,1.82V0ZM28.141-1.57a1.945,1.945,0,0,0,.922-.223,1.462,1.462,0,0,0,.625-.6V-3.844h-.844q-1.7,0-1.8,1.172l-.008.133a.9.9,0,0,0,.3.7A1.153,1.153,0,0,0,28.141-1.57Zm10.3-4.766a6.134,6.134,0,0,0-.812-.062,1.654,1.654,0,0,0-1.68.867V0H33.688V-8.453H35.82l.063,1.008a2.092,2.092,0,0,1,1.883-1.164,2.366,2.366,0,0,1,.7.1ZM41.906,0H39.641V-8.453h2.266Zm-2.4-10.641a1.112,1.112,0,0,1,.34-.836,1.277,1.277,0,0,1,.926-.328,1.28,1.28,0,0,1,.922.328,1.105,1.105,0,0,1,.344.836,1.108,1.108,0,0,1-.348.844,1.283,1.283,0,0,1-.918.328,1.283,1.283,0,0,1-.918-.328A1.108,1.108,0,0,1,39.508-10.641ZM46.148,0H43.883V-12h2.266Zm4.242,0H48.125V-12h2.266ZM51.9-4.3a5.013,5.013,0,0,1,.484-2.242A3.546,3.546,0,0,1,53.777-8.07a4.069,4.069,0,0,1,2.113-.539,3.849,3.849,0,0,1,2.793,1.047,4.2,4.2,0,0,1,1.207,2.844l.016.578A4.418,4.418,0,0,1,58.82-1.02,3.775,3.775,0,0,1,55.906.156a3.793,3.793,0,0,1-2.918-1.172A4.5,4.5,0,0,1,51.9-4.2Zm2.258.164a3.151,3.151,0,0,0,.453,1.84,1.5,1.5,0,0,0,1.3.637,1.5,1.5,0,0,0,1.281-.629A3.448,3.448,0,0,0,57.648-4.3a3.12,3.12,0,0,0-.461-1.828,1.5,1.5,0,0,0-1.3-.648,1.475,1.475,0,0,0-1.281.645A3.506,3.506,0,0,0,54.156-4.141Z" transform="translate(-5236.461 -5942.5)"/>
    <path id="Trazado_104143" data-name="Trazado 104143" d="M5.219-2.82,7.8-11.375h2.609L6.445,0H4L.055-11.375h2.6ZM14.875.156A4.15,4.15,0,0,1,11.848-.984,4.054,4.054,0,0,1,10.68-4.023v-.219a5.106,5.106,0,0,1,.492-2.277,3.612,3.612,0,0,1,1.395-1.547,3.914,3.914,0,0,1,2.059-.543,3.508,3.508,0,0,1,2.73,1.094,4.444,4.444,0,0,1,1,3.1v.922H12.969a2.1,2.1,0,0,0,.66,1.328,2,2,0,0,0,1.395.5,2.437,2.437,0,0,0,2.039-.945l1.109,1.242A3.389,3.389,0,0,1,16.8-.246,4.511,4.511,0,0,1,14.875.156Zm-.258-6.937a1.414,1.414,0,0,0-1.09.453,2.341,2.341,0,0,0-.535,1.3h3.141v-.18a1.669,1.669,0,0,0-.406-1.16A1.459,1.459,0,0,0,14.617-6.781Zm9.766.445A6.134,6.134,0,0,0,23.57-6.4a1.654,1.654,0,0,0-1.68.867V0H19.633V-8.453h2.133l.063,1.008a2.092,2.092,0,0,1,1.883-1.164,2.366,2.366,0,0,1,.7.1Zm.586,2.047a5.094,5.094,0,0,1,.887-3.148,2.877,2.877,0,0,1,2.426-1.172,2.589,2.589,0,0,1,2.039.922V-12h2.266V0H30.547l-.109-.9A2.657,2.657,0,0,1,28.266.156,2.869,2.869,0,0,1,25.871-1.02,5.258,5.258,0,0,1,24.969-4.289Zm2.258.164a3.328,3.328,0,0,0,.414,1.82,1.349,1.349,0,0,0,1.2.633,1.511,1.511,0,0,0,1.477-.883V-5.891a1.489,1.489,0,0,0-1.461-.883Q27.227-6.773,27.227-4.125Zm11,4.281A4.15,4.15,0,0,1,35.2-.984a4.054,4.054,0,0,1-1.168-3.039v-.219a5.106,5.106,0,0,1,.492-2.277,3.612,3.612,0,0,1,1.395-1.547,3.914,3.914,0,0,1,2.059-.543,3.508,3.508,0,0,1,2.73,1.094,4.444,4.444,0,0,1,1,3.1v.922H36.32a2.1,2.1,0,0,0,.66,1.328,2,2,0,0,0,1.395.5,2.437,2.437,0,0,0,2.039-.945l1.109,1.242A3.389,3.389,0,0,1,40.148-.246,4.511,4.511,0,0,1,38.227.156Zm-.258-6.937a1.414,1.414,0,0,0-1.09.453,2.341,2.341,0,0,0-.535,1.3h3.141v-.18a1.669,1.669,0,0,0-.406-1.16A1.459,1.459,0,0,0,37.969-6.781Z" transform="translate(-5236.461 -5908.5)" fill="#fff"/>
    <path id="Trazado_104150" data-name="Trazado 104150" d="M7.438-2.344H3.328L2.547,0H.055L4.289-11.375H6.461L10.719,0H8.227Zm-3.477-1.9H6.8L5.375-8.5ZM14.32-1.82h4.133V0H11.438V-1.375l3.977-5.25H11.555V-8.453h6.773v1.336ZM24.93-.859A2.831,2.831,0,0,1,22.617.156a2.67,2.67,0,0,1-2.074-.781,3.335,3.335,0,0,1-.73-2.289V-8.453H22.07v5.461q0,1.32,1.2,1.32a1.631,1.631,0,0,0,1.578-.8V-8.453h2.266V0H24.992ZM31.2,0H28.938V-12H31.2Z" transform="translate(-5236.461 -5875.5)" fill="#fff"/>
    <path id="Trazado_104144" data-name="Trazado 104144" d="M5.7,0H4.242V-9.633L1.328-8.562V-9.875L5.469-11.43H5.7Zm4.336,2.266L9.211,1.7A3.77,3.77,0,0,0,9.977-.406v-1.3h1.414V-.578A3.559,3.559,0,0,1,11,1,3.7,3.7,0,0,1,10.031,2.266ZM20.414-10.562,15.7,0H14.188l4.7-10.187H12.727v-1.187h7.688Zm9.742,8.57,3.25-9.383h1.641L30.828,0H29.5L25.289-11.375h1.633Z" transform="translate(-5036 -6012.445)"/>
    <path id="Trazado_104145" data-name="Trazado 104145" d="M8.4,0H.945V-1.039L4.883-5.414A9.354,9.354,0,0,0,6.09-7.027a2.693,2.693,0,0,0,.332-1.285,2.041,2.041,0,0,0-.539-1.461,1.885,1.885,0,0,0-1.437-.57A2.232,2.232,0,0,0,2.77-9.73a2.343,2.343,0,0,0-.6,1.707H.727a3.355,3.355,0,0,1,1.012-2.539,3.751,3.751,0,0,1,2.707-.969,3.6,3.6,0,0,1,2.508.832,2.838,2.838,0,0,1,.922,2.215q0,1.68-2.141,4L2.688-1.18H8.4Zm1.633,2.266L9.211,1.7A3.77,3.77,0,0,0,9.977-.406v-1.3h1.414V-.578A3.559,3.559,0,0,1,11,1,3.7,3.7,0,0,1,10.031,2.266ZM20.2-4.852a6.61,6.61,0,0,1-.867,3.773A3.084,3.084,0,0,1,16.625.156a3.107,3.107,0,0,1-2.7-1.207,6.274,6.274,0,0,1-.906-3.605v-1.93a6.463,6.463,0,0,1,.867-3.727,3.108,3.108,0,0,1,2.719-1.219,3.136,3.136,0,0,1,2.7,1.176A6.237,6.237,0,0,1,20.2-6.727ZM18.758-6.828A5.3,5.3,0,0,0,18.242-9.5a1.775,1.775,0,0,0-1.633-.84,1.751,1.751,0,0,0-1.617.836,5.171,5.171,0,0,0-.523,2.57v2.313A5.381,5.381,0,0,0,15-1.9a1.771,1.771,0,0,0,1.621.879,1.747,1.747,0,0,0,1.59-.828,5.186,5.186,0,0,0,.543-2.609Zm11.4,4.836,3.25-9.383h1.641L30.828,0H29.5L25.289-11.375h1.633Z" transform="translate(-5036 -5976.5)"/>
    <path id="Trazado_104146" data-name="Trazado 104146" d="M8.4,0H.945V-1.039L4.883-5.414A9.354,9.354,0,0,0,6.09-7.027a2.693,2.693,0,0,0,.332-1.285,2.041,2.041,0,0,0-.539-1.461,1.885,1.885,0,0,0-1.437-.57A2.232,2.232,0,0,0,2.77-9.73a2.343,2.343,0,0,0-.6,1.707H.727a3.355,3.355,0,0,1,1.012-2.539,3.751,3.751,0,0,1,2.707-.969,3.6,3.6,0,0,1,2.508.832,2.838,2.838,0,0,1,.922,2.215q0,1.68-2.141,4L2.688-1.18H8.4Zm1.633,2.266L9.211,1.7A3.77,3.77,0,0,0,9.977-.406v-1.3h1.414V-.578A3.559,3.559,0,0,1,11,1,3.7,3.7,0,0,1,10.031,2.266Zm3.7-7.969.578-5.672h5.828v1.336h-4.6l-.344,3.1a3.671,3.671,0,0,1,1.9-.492A3.138,3.138,0,0,1,19.563-6.4a4.026,4.026,0,0,1,.914,2.777,3.886,3.886,0,0,1-.949,2.77A3.46,3.46,0,0,1,16.875.156,3.6,3.6,0,0,1,14.414-.68a3.337,3.337,0,0,1-1.086-2.312H14.7a2.3,2.3,0,0,0,.7,1.473,2.162,2.162,0,0,0,1.484.5,1.95,1.95,0,0,0,1.582-.687,2.874,2.874,0,0,0,.574-1.9,2.638,2.638,0,0,0-.621-1.832,2.113,2.113,0,0,0-1.652-.691,2.383,2.383,0,0,0-1.484.414l-.383.313ZM30.156-1.992l3.25-9.383h1.641L30.828,0H29.5L25.289-11.375h1.633Z" transform="translate(-5036 -5942.5)"/>
    <path id="Trazado_104147" data-name="Trazado 104147" d="M8.4,0H.945V-1.039L4.883-5.414A9.354,9.354,0,0,0,6.09-7.027a2.693,2.693,0,0,0,.332-1.285,2.041,2.041,0,0,0-.539-1.461,1.885,1.885,0,0,0-1.437-.57A2.232,2.232,0,0,0,2.77-9.73a2.343,2.343,0,0,0-.6,1.707H.727a3.355,3.355,0,0,1,1.012-2.539,3.751,3.751,0,0,1,2.707-.969,3.6,3.6,0,0,1,2.508.832,2.838,2.838,0,0,1,.922,2.215q0,1.68-2.141,4L2.688-1.18H8.4Zm1.633,2.266L9.211,1.7A3.77,3.77,0,0,0,9.977-.406v-1.3h1.414V-.578A3.559,3.559,0,0,1,11,1,3.7,3.7,0,0,1,10.031,2.266Zm3.7-7.969.578-5.672h5.828v1.336h-4.6l-.344,3.1a3.671,3.671,0,0,1,1.9-.492A3.138,3.138,0,0,1,19.563-6.4a4.026,4.026,0,0,1,.914,2.777,3.886,3.886,0,0,1-.949,2.77A3.46,3.46,0,0,1,16.875.156,3.6,3.6,0,0,1,14.414-.68a3.337,3.337,0,0,1-1.086-2.312H14.7a2.3,2.3,0,0,0,.7,1.473,2.162,2.162,0,0,0,1.484.5,1.95,1.95,0,0,0,1.582-.687,2.874,2.874,0,0,0,.574-1.9,2.638,2.638,0,0,0-.621-1.832,2.113,2.113,0,0,0-1.652-.691,2.383,2.383,0,0,0-1.484.414l-.383.313ZM30.156-1.992l3.25-9.383h1.641L30.828,0H29.5L25.289-11.375h1.633Z" transform="translate(-5036 -5908.5)"/>
    <path id="Trazado_104151" data-name="Trazado 104151" d="M7.047-3.82H8.625v1.18H7.047V0H5.594V-2.641H.414v-.852l5.094-7.883H7.047Zm-4.992,0H5.594V-9.4l-.172.313Zm7.977,6.086L9.211,1.7A3.77,3.77,0,0,0,9.977-.406v-1.3h1.414V-.578A3.559,3.559,0,0,1,11,1,3.7,3.7,0,0,1,10.031,2.266ZM20.2-4.852a6.61,6.61,0,0,1-.867,3.773A3.084,3.084,0,0,1,16.625.156a3.107,3.107,0,0,1-2.7-1.207,6.274,6.274,0,0,1-.906-3.605v-1.93a6.463,6.463,0,0,1,.867-3.727,3.108,3.108,0,0,1,2.719-1.219,3.136,3.136,0,0,1,2.7,1.176A6.237,6.237,0,0,1,20.2-6.727ZM18.758-6.828A5.3,5.3,0,0,0,18.242-9.5a1.775,1.775,0,0,0-1.633-.84,1.751,1.751,0,0,0-1.617.836,5.171,5.171,0,0,0-.523,2.57v2.313A5.381,5.381,0,0,0,15-1.9a1.771,1.771,0,0,0,1.621.879,1.747,1.747,0,0,0,1.59-.828,5.186,5.186,0,0,0,.543-2.609Zm11.4,4.836,3.25-9.383h1.641L30.828,0H29.5L25.289-11.375h1.633Z" transform="translate(-5036 -5875.5)"/>
    <path id="Trazado_104140" data-name="Trazado 104140" d="M9.945-3.789A4.025,4.025,0,0,1,8.59-.9,4.76,4.76,0,0,1,5.367.156,4.28,4.28,0,0,1,1.926-1.316,6.038,6.038,0,0,1,.672-5.359v-.7A6.819,6.819,0,0,1,1.25-8.945,4.332,4.332,0,0,1,2.9-10.863a4.629,4.629,0,0,1,2.5-.668A4.637,4.637,0,0,1,8.57-10.477,4.326,4.326,0,0,1,9.961-7.516H7.617A2.376,2.376,0,0,0,7-9.113a2.271,2.271,0,0,0-1.605-.5,1.991,1.991,0,0,0-1.754.84,4.707,4.707,0,0,0-.6,2.605V-5.3a5.038,5.038,0,0,0,.559,2.7,1.954,1.954,0,0,0,1.762.852,2.314,2.314,0,0,0,1.621-.5A2.241,2.241,0,0,0,7.6-3.789ZM10.984-4.3a5.013,5.013,0,0,1,.484-2.242A3.546,3.546,0,0,1,12.863-8.07a4.069,4.069,0,0,1,2.113-.539A3.849,3.849,0,0,1,17.77-7.562a4.2,4.2,0,0,1,1.207,2.844l.016.578A4.418,4.418,0,0,1,17.906-1.02,3.775,3.775,0,0,1,14.992.156a3.793,3.793,0,0,1-2.918-1.172A4.5,4.5,0,0,1,10.984-4.2Zm2.258.164A3.151,3.151,0,0,0,13.7-2.3a1.5,1.5,0,0,0,1.3.637,1.5,1.5,0,0,0,1.281-.629A3.448,3.448,0,0,0,16.734-4.3a3.12,3.12,0,0,0-.461-1.828,1.5,1.5,0,0,0-1.3-.648,1.475,1.475,0,0,0-1.281.645A3.506,3.506,0,0,0,13.242-4.141ZM22.766,0H20.5V-12h2.266Zm1.508-4.3a5.013,5.013,0,0,1,.484-2.242A3.546,3.546,0,0,1,26.152-8.07a4.069,4.069,0,0,1,2.113-.539,3.849,3.849,0,0,1,2.793,1.047,4.2,4.2,0,0,1,1.207,2.844l.016.578A4.418,4.418,0,0,1,31.2-1.02,3.775,3.775,0,0,1,28.281.156a3.793,3.793,0,0,1-2.918-1.172A4.5,4.5,0,0,1,24.273-4.2Zm2.258.164a3.151,3.151,0,0,0,.453,1.84,1.5,1.5,0,0,0,1.3.637,1.5,1.5,0,0,0,1.281-.629A3.448,3.448,0,0,0,30.023-4.3a3.12,3.12,0,0,0-.461-1.828,1.5,1.5,0,0,0-1.3-.648,1.475,1.475,0,0,0-1.281.645A3.506,3.506,0,0,0,26.531-4.141Zm11.891-2.2a6.134,6.134,0,0,0-.812-.062,1.654,1.654,0,0,0-1.68.867V0H33.672V-8.453H35.8l.063,1.008A2.092,2.092,0,0,1,37.75-8.609a2.366,2.366,0,0,1,.7.1Z" transform="translate(-5176.461 -6047.445)"/>
    <path id="Trazado_104148" data-name="Trazado 104148" d="M5.219-2.82,7.8-11.375h2.609L6.445,0H4L.055-11.375h2.6ZM11.945,0V-6.8H10.688V-8.453h1.258v-.719a2.918,2.918,0,0,1,.816-2.207,3.162,3.162,0,0,1,2.285-.785,5.278,5.278,0,0,1,1.148.156l-.023,1.75a2.878,2.878,0,0,0-.687-.07q-1.273,0-1.273,1.2v.68h1.68V-6.8h-1.68V0Z" transform="translate(-5026.5 -6047.445)"/>
  </g>
</svg>
