<svg xmlns="http://www.w3.org/2000/svg" width="330" height="310" viewBox="0 0 330 310">
  <g id="Grupo_99504" data-name="Grupo 99504" transform="translate(-777 -608)">
    <rect id="Rectángulo_33760" data-name="Rectángulo 33760" width="330" height="310" transform="translate(777 608)" fill="#3c0061"/>
    <g id="Grupo_99479" data-name="Grupo 99479" transform="translate(0 5)">
      <g id="Elipse_4674" data-name="Elipse 4674" transform="translate(814 656)" fill="none" stroke="#fff" stroke-width="4">
        <circle cx="26" cy="26" r="26" stroke="none"/>
        <circle cx="26" cy="26" r="24" fill="none"/>
      </g>
      <path id="Trazado_103986" data-name="Trazado 103986" d="M15.724-17.174h8.75v5.112h-8.75v9.97H10.29v-9.97h-8.8v-5.112h8.8V-26.5h5.434Z" transform="translate(826.694 696.254)" fill="#fff"/>
    </g>
    <g id="Grupo_99480" data-name="Grupo 99480" transform="translate(70 5)">
      <g id="Elipse_4674-2" data-name="Elipse 4674" transform="translate(814 656)" fill="none" stroke="#fff" stroke-width="4">
        <circle cx="26" cy="26" r="26" stroke="none"/>
        <circle cx="26" cy="26" r="24" fill="none"/>
      </g>
      <path id="Trazado_103986-2" data-name="Trazado 103986" d="M15.724-17.174h8.75v5.112h-8.75v9.97H10.29v-9.97h-8.8v-5.112h8.8V-26.5h5.434Z" transform="translate(826.694 696.254)" fill="#fff"/>
    </g>
    <g id="Grupo_99481" data-name="Grupo 99481" transform="translate(140 5)">
      <g id="Elipse_4674-3" data-name="Elipse 4674" transform="translate(814 656)" fill="none" stroke="#fff" stroke-width="4">
        <circle cx="26" cy="26" r="26" stroke="none"/>
        <circle cx="26" cy="26" r="24" fill="none"/>
      </g>
      <path id="Trazado_103986-3" data-name="Trazado 103986" d="M15.724-17.174h8.75v5.112h-8.75v9.97H10.29v-9.97h-8.8v-5.112h8.8V-26.5h5.434Z" transform="translate(826.694 696.254)" fill="#fff"/>
    </g>
    <g id="Grupo_99482" data-name="Grupo 99482" transform="translate(210 5)">
      <g id="Elipse_4674-4" data-name="Elipse 4674" transform="translate(814 656)" fill="none" stroke="#fff" stroke-width="4">
        <circle cx="26" cy="26" r="26" stroke="none"/>
        <circle cx="26" cy="26" r="24" fill="none"/>
      </g>
      <path id="Trazado_103986-4" data-name="Trazado 103986" d="M15.724-17.174h8.75v5.112h-8.75v9.97H10.29v-9.97h-8.8v-5.112h8.8V-26.5h5.434Z" transform="translate(826.694 696.254)" fill="#fff"/>
    </g>
    <g id="Grupo_99483" data-name="Grupo 99483" transform="translate(0 75)">
      <g id="Elipse_4674-5" data-name="Elipse 4674" transform="translate(814 656)" fill="none" stroke="#fff" stroke-width="4">
        <circle cx="26" cy="26" r="26" stroke="none"/>
        <circle cx="26" cy="26" r="24" fill="none"/>
      </g>
      <path id="Trazado_103986-5" data-name="Trazado 103986" d="M15.724-17.174h8.75v5.112h-8.75v9.97H10.29v-9.97h-8.8v-5.112h8.8V-26.5h5.434Z" transform="translate(826.694 696.254)" fill="#fff"/>
    </g>
    <g id="Grupo_99484" data-name="Grupo 99484" transform="translate(70 75)">
      <g id="Elipse_4674-6" data-name="Elipse 4674" transform="translate(814 656)" fill="none" stroke="#fff" stroke-width="4">
        <circle cx="26" cy="26" r="26" stroke="none"/>
        <circle cx="26" cy="26" r="24" fill="none"/>
      </g>
      <path id="Trazado_103986-6" data-name="Trazado 103986" d="M15.724-17.174h8.75v5.112h-8.75v9.97H10.29v-9.97h-8.8v-5.112h8.8V-26.5h5.434Z" transform="translate(826.694 696.254)" fill="#fff"/>
    </g>
    <g id="Grupo_99485" data-name="Grupo 99485" transform="translate(140 75)">
      <g id="Elipse_4674-7" data-name="Elipse 4674" transform="translate(814 656)" fill="none" stroke="#fff" stroke-width="4">
        <circle cx="26" cy="26" r="26" stroke="none"/>
        <circle cx="26" cy="26" r="24" fill="none"/>
      </g>
      <path id="Trazado_103986-7" data-name="Trazado 103986" d="M15.724-17.174h8.75v5.112h-8.75v9.97H10.29v-9.97h-8.8v-5.112h8.8V-26.5h5.434Z" transform="translate(826.694 696.254)" fill="#fff"/>
    </g>
    <g id="Grupo_99486" data-name="Grupo 99486" transform="translate(210 75)">
      <g id="Elipse_4674-8" data-name="Elipse 4674" transform="translate(814 656)" fill="none" stroke="#fff" stroke-width="4">
        <circle cx="26" cy="26" r="26" stroke="none"/>
        <circle cx="26" cy="26" r="24" fill="none"/>
      </g>
      <path id="Trazado_103986-8" data-name="Trazado 103986" d="M15.724-17.174h8.75v5.112h-8.75v9.97H10.29v-9.97h-8.8v-5.112h8.8V-26.5h5.434Z" transform="translate(826.694 696.254)" fill="#fff"/>
    </g>
    <g id="Grupo_99487" data-name="Grupo 99487" transform="translate(0 145)">
      <g id="Elipse_4674-9" data-name="Elipse 4674" transform="translate(814 656)" fill="none" stroke="#fff" stroke-width="4">
        <circle cx="26" cy="26" r="26" stroke="none"/>
        <circle cx="26" cy="26" r="24" fill="none"/>
      </g>
      <path id="Trazado_103986-9" data-name="Trazado 103986" d="M15.724-17.174h8.75v5.112h-8.75v9.97H10.29v-9.97h-8.8v-5.112h8.8V-26.5h5.434Z" transform="translate(826.694 696.254)" fill="#fff"/>
    </g>
    <g id="Grupo_99488" data-name="Grupo 99488" transform="translate(70 145)">
      <g id="Elipse_4674-10" data-name="Elipse 4674" transform="translate(814 656)" fill="none" stroke="#fff" stroke-width="4">
        <circle cx="26" cy="26" r="26" stroke="none"/>
        <circle cx="26" cy="26" r="24" fill="none"/>
      </g>
      <path id="Trazado_103986-10" data-name="Trazado 103986" d="M15.724-17.174h8.75v5.112h-8.75v9.97H10.29v-9.97h-8.8v-5.112h8.8V-26.5h5.434Z" transform="translate(826.694 696.254)" fill="#fff"/>
    </g>
    <g id="Grupo_99489" data-name="Grupo 99489" transform="translate(140 145)">
      <g id="Elipse_4674-11" data-name="Elipse 4674" transform="translate(814 656)" fill="none" stroke="#fff" stroke-width="4">
        <circle cx="26" cy="26" r="26" stroke="none"/>
        <circle cx="26" cy="26" r="24" fill="none"/>
      </g>
      <path id="Trazado_103986-11" data-name="Trazado 103986" d="M15.724-17.174h8.75v5.112h-8.75v9.97H10.29v-9.97h-8.8v-5.112h8.8V-26.5h5.434Z" transform="translate(826.694 696.254)" fill="#fff"/>
    </g>
    <g id="Grupo_99490" data-name="Grupo 99490" transform="translate(210 145)">
      <g id="Elipse_4674-12" data-name="Elipse 4674" transform="translate(814 656)" fill="none" stroke="#fff" stroke-width="4">
        <circle cx="26" cy="26" r="26" stroke="none"/>
        <circle cx="26" cy="26" r="24" fill="none"/>
      </g>
      <path id="Trazado_103986-12" data-name="Trazado 103986" d="M15.724-17.174h8.75v5.112h-8.75v9.97H10.29v-9.97h-8.8v-5.112h8.8V-26.5h5.434Z" transform="translate(826.694 696.254)" fill="#fff"/>
    </g>
  </g>
</svg>
