<svg xmlns="http://www.w3.org/2000/svg" width="51" height="75.001" viewBox="0 0 51 75.001">
  <g id="Unión_1" data-name="Unión 1" transform="translate(-6959 -11700)" fill="#00cca7">
    <path d="M 6984.50048828125 11774.18359375 L 6960.0185546875 11742.5009765625 L 6972 11742.5009765625 L 6972.5 11742.5009765625 L 6972.5 11742.0009765625 L 6972.5 11700.5 L 6996.50048828125 11700.5 L 6996.50048828125 11742.0009765625 L 6996.50048828125 11742.5009765625 L 6997.00048828125 11742.5009765625 L 7008.98193359375 11742.5009765625 L 6984.50048828125 11774.18359375 Z" stroke="none"/>
    <path d="M 6984.50048828125 11773.365234375 L 7007.96337890625 11743.0009765625 L 6996.00048828125 11743.0009765625 L 6996.00048828125 11701 L 6973 11701 L 6973 11743.0009765625 L 6961.037109375 11743.0009765625 L 6984.50048828125 11773.365234375 M 6984.50048828125 11775.0009765625 L 6959.00048828125 11742.0009765625 L 6972 11742.0009765625 L 6972 11700 L 6997.00048828125 11700 L 6997.00048828125 11742.0009765625 L 7010 11742.0009765625 L 6984.50048828125 11775.0009765625 Z" stroke="none" fill="#fff"/>
  </g>
</svg>
