<svg xmlns="http://www.w3.org/2000/svg" width="337.251" height="192.26" viewBox="0 0 337.251 192.26">
  <g id="Grupo_99584" data-name="Grupo 99584" transform="translate(-793.749 -2682.74)">
    <path id="Trazado_104179" data-name="Trazado 104179" d="M-327.27-8764.48h-2v-168.78h2Z" transform="translate(1206 11616)" fill="#00cca7"/>
    <path id="Trazado_104180" data-name="Trazado 104180" d="M-343.066-8814.8h-69.186v-2h68.346l14-14.273,1.428,1.4Z" transform="translate(1206 11616)" fill="#00cca7"/>
    <path id="Trazado_104181" data-name="Trazado 104181" d="M-365.236-8815.8h-2v-60.647h77.061l15.571,15.571-1.414,1.414L-291-8874.452h-74.233Z" transform="translate(1206 11616)" fill="#00cca7"/>
    <path id="Trazado_104182" data-name="Trazado 104182" d="M-273.775-8790.614H-328.27v-2h52.495v-113.193H-328.27v-2h54.495Z" transform="translate(1206 11616)" fill="#00cca7"/>
    <path id="Trazado_104183" data-name="Trazado 104183" d="M-315.758-8829.378h-25.871v-2h25.871Z" transform="translate(1206 11616)" fill="#ea7596"/>
    <path id="Trazado_104184" data-name="Trazado 104184" d="M-315.758-8829.378h-25.871v-2h25.871Z" transform="translate(1259.383 11586)" fill="#ea7596"/>
    <path id="Polígono_42" data-name="Polígono 42" d="M8.5,0,17,14H0Z" transform="translate(922 2756)" fill="#ea7596"/>
    <path id="Polígono_43" data-name="Polígono 43" d="M8.5,0,17,14H0Z" transform="translate(886 2786) rotate(180)" fill="#ea7596"/>
    <circle id="Elipse_4687" data-name="Elipse 4687" cx="3.5" cy="3.5" r="3.5" transform="translate(874 2706)" fill="#ea7596"/>
    <circle id="Elipse_4688" data-name="Elipse 4688" cx="3.5" cy="3.5" r="3.5" transform="translate(874 2820)" fill="#ea7596"/>
    <circle id="Elipse_4689" data-name="Elipse 4689" cx="3.5" cy="3.5" r="3.5" transform="translate(836 2797)" fill="#ea7596"/>
    <text id="A2" transform="translate(881 2703)" fill="#12263f" font-size="16" font-family="Roboto-Regular, Roboto"><tspan x="0" y="0">A2</tspan></text>
    <text id="A1" transform="translate(881 2842)" fill="#12263f" font-size="16" font-family="Roboto-Regular, Roboto"><tspan x="0" y="0">A1</tspan></text>
    <text id="G" transform="translate(794 2820)" fill="#12263f" font-size="16" font-family="Roboto-Regular, Roboto"><tspan x="0" y="0">G</tspan></text>
    <text id="_A_" data-name="(A)" transform="translate(868 2871)" fill="#12263f" font-size="16" font-family="Roboto-Regular, Roboto"><tspan x="0" y="0">(a)</tspan></text>
    <path id="Trazado_104185" data-name="Trazado 104185" d="M-343.489-8495.8h-12.925v-2h12.1l13.432-13.432,1.414,1.414Z" transform="translate(1205.986 11297)" fill="#ea7596"/>
    <path id="Trazado_104186" data-name="Trazado 104186" d="M-327-8482.5h-2v-29.9h2Z" transform="translate(1206 11297)" fill="#ea7596"/>
    <path id="Trazado_104187" data-name="Trazado 104187" d="M-327-8467.324h-2V-8512.4h2Z" transform="translate(1259.225 11252.946)" fill="#ea7596"/>
    <path id="Trazado_104188" data-name="Trazado 104188" d="M-275.555-8540.463l-14.99-14.989h-14.542v-2h15.37l.293.293,15.283,15.282Z" transform="translate(1206 11297)" fill="#ea7596"/>
    <path id="Trazado_104192" data-name="Trazado 104192" d="M-124.615-8827.312h-54.946v-2h53.85l8.311-13.02h15.061v2H-116.3Z" transform="translate(1206 11618.995)" fill="#00cca7"/>
    <path id="Trazado_104193" data-name="Trazado 104193" d="M-101.339-8865h-2v-61.226h2Z" transform="translate(1206 11618.995)" fill="#00cca7"/>
    <path id="Polígono_46" data-name="Polígono 46" d="M8.5,0,17,22H0Z" transform="translate(1101 2775.995) rotate(180)" fill="#ea7596"/>
    <path id="Polígono_47" data-name="Polígono 47" d="M8.5,0,17,22H0Z" transform="translate(1106 2753.995)" fill="#ea7596"/>
    <path id="Trazado_104194" data-name="Trazado 104194" d="M-79.724-8864h-46.729v-2h46.729Z" transform="translate(1206 11618.995)" fill="#00cca7"/>
    <text id="A2-2" data-name="A2" transform="translate(1111 2713.03)" fill="#12263f" font-size="16" font-family="Roboto-Regular, Roboto"><tspan x="0" y="0">A2</tspan></text>
    <text id="A1-2" data-name="A1" transform="translate(1111 2839.03)" fill="#12263f" font-size="16" font-family="Roboto-Regular, Roboto"><tspan x="0" y="0">A1</tspan></text>
    <text id="G-2" data-name="G" transform="translate(1029 2781.03)" fill="#12263f" font-size="16" font-family="Roboto-Regular, Roboto"><tspan x="0" y="0">G</tspan></text>
    <text id="_b_" data-name="(b)" transform="translate(1094 2871)" fill="#12263f" font-size="16" font-family="Roboto-Regular, Roboto"><tspan x="0" y="0">(b)</tspan></text>
    <path id="Trazado_104195" data-name="Trazado 104195" d="M-101.339-8865h-2v-61.226h2Z" transform="translate(1206 11702.89)" fill="#00cca7"/>
    <path id="Trazado_104196" data-name="Trazado 104196" d="M-124.454-8505.774h-13.389v-2h12.286l8.2-13.02h14.265v2H-116.25Z" transform="translate(1206 11297.458)" fill="#ea7596"/>
    <path id="Trazado_104197" data-name="Trazado 104197" d="M-112-8518.336h-19.06v-2H-112Z" transform="translate(1206 11297)" fill="#ea7596"/>
    <path id="Trazado_104198" data-name="Trazado 104198" d="M-101.339-8900.052h-2v-26.174h2Z" transform="translate(1206 11654.047)" fill="#ea7596"/>
    <path id="Trazado_104199" data-name="Trazado 104199" d="M-101.339-8900.052h-2v-26.174h2Z" transform="translate(1206 11702.89)" fill="#ea7596"/>
  </g>
</svg>
