<svg xmlns="http://www.w3.org/2000/svg" width="386.742" height="150.194" viewBox="0 0 386.742 150.194">
  <g id="Grupo_99475" data-name="Grupo 99475" transform="translate(-392.317 -4820)">
    <g id="Grupo_99474" data-name="Grupo 99474" transform="translate(439.999 4820)">
      <g id="Rectángulo_33761" data-name="Rectángulo 33761" transform="translate(18.218)" fill="#8ed59c" stroke="#3c0061" stroke-width="2">
        <path d="M0,0H248.811a20.821,20.821,0,0,1,20.821,20.821v0a20.821,20.821,0,0,1-20.821,20.821H0a0,0,0,0,1,0,0V0A0,0,0,0,1,0,0Z" stroke="none"/>
        <path d="M1.336,1H248.811a19.821,19.821,0,0,1,19.821,19.821v0a19.821,19.821,0,0,1-19.821,19.821H1.336A.336.336,0,0,1,1,40.306V1.336A.336.336,0,0,1,1.336,1Z" fill="none"/>
      </g>
      <g id="Elipse_4673" data-name="Elipse 4673" fill="#c7e6cd" stroke="#3c0061" stroke-width="2">
        <ellipse cx="17.958" cy="20.821" rx="17.958" ry="20.821" stroke="none"/>
        <ellipse cx="17.958" cy="20.821" rx="16.958" ry="19.821" fill="none"/>
      </g>
      <g id="Grupo_99473" data-name="Grupo 99473" transform="translate(43.636 5.841)">
        <path id="Trazado_103863" data-name="Trazado 103863" d="M4.757-12.148H7.171v1.411H4.757v2.751h-1.5v-2.751H.83v-1.411H3.257v-2.573h1.5Z" transform="translate(-0.83 37.613)" fill="#12263f"/>
        <path id="Trazado_103864" data-name="Trazado 103864" d="M4.757-12.148H7.171v1.411H4.757v2.751h-1.5v-2.751H.83v-1.411H3.257v-2.573h1.5Z" transform="translate(224.557 37.613)" fill="#12263f"/>
        <path id="Trazado_103865" data-name="Trazado 103865" d="M4.757-12.148H7.171v1.411H4.757v2.751h-1.5v-2.751H.83v-1.411H3.257v-2.573h1.5Z" transform="translate(13.231 37.613)" fill="#12263f"/>
        <path id="Trazado_103866" data-name="Trazado 103866" d="M4.757-12.148H7.171v1.411H4.757v2.751h-1.5v-2.751H.83v-1.411H3.257v-2.573h1.5Z" transform="translate(27.291 37.613)" fill="#12263f"/>
        <path id="Trazado_103867" data-name="Trazado 103867" d="M4.757-12.148H7.171v1.411H4.757v2.751h-1.5v-2.751H.83v-1.411H3.257v-2.573h1.5Z" transform="translate(41.352 37.613)" fill="#12263f"/>
        <path id="Trazado_103868" data-name="Trazado 103868" d="M4.757-12.148H7.171v1.411H4.757v2.751h-1.5v-2.751H.83v-1.411H3.257v-2.573h1.5Z" transform="translate(55.413 37.613)" fill="#12263f"/>
        <path id="Trazado_103869" data-name="Trazado 103869" d="M4.757-12.148H7.171v1.411H4.757v2.751h-1.5v-2.751H.83v-1.411H3.257v-2.573h1.5Z" transform="translate(69.474 37.613)" fill="#12263f"/>
        <path id="Trazado_103870" data-name="Trazado 103870" d="M4.757-12.148H7.171v1.411H4.757v2.751h-1.5v-2.751H.83v-1.411H3.257v-2.573h1.5Z" transform="translate(83.535 37.613)" fill="#12263f"/>
        <path id="Trazado_103871" data-name="Trazado 103871" d="M4.757-12.148H7.171v1.411H4.757v2.751h-1.5v-2.751H.83v-1.411H3.257v-2.573h1.5Z" transform="translate(97.595 37.613)" fill="#12263f"/>
        <path id="Trazado_103872" data-name="Trazado 103872" d="M4.757-12.148H7.171v1.411H4.757v2.751h-1.5v-2.751H.83v-1.411H3.257v-2.573h1.5Z" transform="translate(111.656 37.613)" fill="#12263f"/>
        <path id="Trazado_103873" data-name="Trazado 103873" d="M4.757-12.148H7.171v1.411H4.757v2.751h-1.5v-2.751H.83v-1.411H3.257v-2.573h1.5Z" transform="translate(125.717 37.613)" fill="#12263f"/>
        <path id="Trazado_103874" data-name="Trazado 103874" d="M4.757-12.148H7.171v1.411H4.757v2.751h-1.5v-2.751H.83v-1.411H3.257v-2.573h1.5Z" transform="translate(139.778 37.613)" fill="#12263f"/>
        <path id="Trazado_103875" data-name="Trazado 103875" d="M4.757-12.148H7.171v1.411H4.757v2.751h-1.5v-2.751H.83v-1.411H3.257v-2.573h1.5Z" transform="translate(153.839 37.613)" fill="#12263f"/>
        <path id="Trazado_103876" data-name="Trazado 103876" d="M4.757-12.148H7.171v1.411H4.757v2.751h-1.5v-2.751H.83v-1.411H3.257v-2.573h1.5Z" transform="translate(167.899 37.613)" fill="#12263f"/>
        <path id="Trazado_103877" data-name="Trazado 103877" d="M4.757-12.148H7.171v1.411H4.757v2.751h-1.5v-2.751H.83v-1.411H3.257v-2.573h1.5Z" transform="translate(181.96 37.613)" fill="#12263f"/>
        <path id="Trazado_103878" data-name="Trazado 103878" d="M4.757-12.148H7.171v1.411H4.757v2.751h-1.5v-2.751H.83v-1.411H3.257v-2.573h1.5Z" transform="translate(196.021 37.613)" fill="#12263f"/>
        <path id="Trazado_103879" data-name="Trazado 103879" d="M4.757-12.148H7.171v1.411H4.757v2.751h-1.5v-2.751H.83v-1.411H3.257v-2.573h1.5Z" transform="translate(210.082 37.613)" fill="#12263f"/>
        <path id="Trazado_103880" data-name="Trazado 103880" d="M4.757-9.778H7.171v1.411H.83V-9.778H4.757Z" transform="translate(-0.83 26.435)" fill="#12263f"/>
        <path id="Trazado_103881" data-name="Trazado 103881" d="M4.757-9.778H7.171v1.411H.83V-9.778H4.757Z" transform="translate(13.231 26.435)" fill="#12263f"/>
        <path id="Trazado_103882" data-name="Trazado 103882" d="M4.757-9.778H7.171v1.411H.83V-9.778H4.757Z" transform="translate(27.291 26.435)" fill="#12263f"/>
        <path id="Trazado_103883" data-name="Trazado 103883" d="M4.757-9.778H7.171v1.411H.83V-9.778H4.757Z" transform="translate(41.352 26.435)" fill="#12263f"/>
        <path id="Trazado_103884" data-name="Trazado 103884" d="M4.757-9.778H7.171v1.411H.83V-9.778H4.757Z" transform="translate(55.413 26.435)" fill="#12263f"/>
        <path id="Trazado_103885" data-name="Trazado 103885" d="M4.757-9.778H7.171v1.411H.83V-9.778H4.757Z" transform="translate(69.474 26.435)" fill="#12263f"/>
        <path id="Trazado_103886" data-name="Trazado 103886" d="M4.757-9.778H7.171v1.411H.83V-9.778H4.757Z" transform="translate(83.535 26.435)" fill="#12263f"/>
        <path id="Trazado_103887" data-name="Trazado 103887" d="M4.757-9.778H7.171v1.411H.83V-9.778H4.757Z" transform="translate(97.595 26.435)" fill="#12263f"/>
        <path id="Trazado_103888" data-name="Trazado 103888" d="M4.757-9.778H7.171v1.411H.83V-9.778H4.757Z" transform="translate(111.656 26.435)" fill="#12263f"/>
        <path id="Trazado_103889" data-name="Trazado 103889" d="M4.757-9.778H7.171v1.411H.83V-9.778H4.757Z" transform="translate(125.717 26.435)" fill="#12263f"/>
        <path id="Trazado_103890" data-name="Trazado 103890" d="M4.757-9.778H7.171v1.411H.83V-9.778H4.757Z" transform="translate(139.778 26.435)" fill="#12263f"/>
        <path id="Trazado_103891" data-name="Trazado 103891" d="M4.757-9.778H7.171v1.411H.83V-9.778H4.757Z" transform="translate(153.839 26.435)" fill="#12263f"/>
        <path id="Trazado_103892" data-name="Trazado 103892" d="M4.757-9.778H7.171v1.411H.83V-9.778H4.757Z" transform="translate(167.899 26.435)" fill="#12263f"/>
        <path id="Trazado_103893" data-name="Trazado 103893" d="M4.757-9.778H7.171v1.411H.83V-9.778H4.757Z" transform="translate(181.96 26.435)" fill="#12263f"/>
        <path id="Trazado_103894" data-name="Trazado 103894" d="M4.757-9.778H7.171v1.411H.83V-9.778H4.757Z" transform="translate(196.021 26.435)" fill="#12263f"/>
        <path id="Trazado_103895" data-name="Trazado 103895" d="M4.757-9.778H7.171v1.411H.83V-9.778H4.757Z" transform="translate(210.082 26.435)" fill="#12263f"/>
        <path id="Trazado_103896" data-name="Trazado 103896" d="M4.757-9.778H7.171v1.411H.83V-9.778H4.757Z" transform="translate(224.142 26.435)" fill="#12263f"/>
        <path id="Trazado_103897" data-name="Trazado 103897" d="M4.757-9.778H7.171v1.411H.83V-9.778H4.757Z" transform="translate(-0.83 20.709)" fill="#12263f"/>
        <path id="Trazado_103898" data-name="Trazado 103898" d="M4.757-9.778H7.171v1.411H.83V-9.778H4.757Z" transform="translate(13.231 20.709)" fill="#12263f"/>
        <path id="Trazado_103899" data-name="Trazado 103899" d="M4.757-9.778H7.171v1.411H.83V-9.778H4.757Z" transform="translate(27.291 20.709)" fill="#12263f"/>
        <path id="Trazado_103900" data-name="Trazado 103900" d="M4.757-9.778H7.171v1.411H.83V-9.778H4.757Z" transform="translate(41.352 20.709)" fill="#12263f"/>
        <path id="Trazado_103901" data-name="Trazado 103901" d="M4.757-9.778H7.171v1.411H.83V-9.778H4.757Z" transform="translate(55.413 20.709)" fill="#12263f"/>
        <path id="Trazado_103902" data-name="Trazado 103902" d="M4.757-9.778H7.171v1.411H.83V-9.778H4.757Z" transform="translate(69.474 20.709)" fill="#12263f"/>
        <path id="Trazado_103903" data-name="Trazado 103903" d="M4.757-9.778H7.171v1.411H.83V-9.778H4.757Z" transform="translate(83.535 20.709)" fill="#12263f"/>
        <path id="Trazado_103904" data-name="Trazado 103904" d="M4.757-9.778H7.171v1.411H.83V-9.778H4.757Z" transform="translate(97.595 20.709)" fill="#12263f"/>
        <path id="Trazado_103905" data-name="Trazado 103905" d="M4.757-9.778H7.171v1.411H.83V-9.778H4.757Z" transform="translate(111.656 20.709)" fill="#12263f"/>
        <path id="Trazado_103906" data-name="Trazado 103906" d="M4.757-9.778H7.171v1.411H.83V-9.778H4.757Z" transform="translate(125.717 20.709)" fill="#12263f"/>
        <path id="Trazado_103907" data-name="Trazado 103907" d="M4.757-9.778H7.171v1.411H.83V-9.778H4.757Z" transform="translate(139.778 20.709)" fill="#12263f"/>
        <path id="Trazado_103908" data-name="Trazado 103908" d="M4.757-9.778H7.171v1.411H.83V-9.778H4.757Z" transform="translate(153.839 20.709)" fill="#12263f"/>
        <path id="Trazado_103909" data-name="Trazado 103909" d="M4.757-9.778H7.171v1.411H.83V-9.778H4.757Z" transform="translate(167.899 20.709)" fill="#12263f"/>
        <path id="Trazado_103910" data-name="Trazado 103910" d="M4.757-9.778H7.171v1.411H.83V-9.778H4.757Z" transform="translate(181.96 20.709)" fill="#12263f"/>
        <path id="Trazado_103911" data-name="Trazado 103911" d="M4.757-9.778H7.171v1.411H.83V-9.778H4.757Z" transform="translate(196.021 20.709)" fill="#12263f"/>
        <path id="Trazado_103912" data-name="Trazado 103912" d="M4.757-9.778H7.171v1.411H.83V-9.778H4.757Z" transform="translate(210.082 20.709)" fill="#12263f"/>
        <path id="Trazado_103913" data-name="Trazado 103913" d="M4.757-9.778H7.171v1.411H.83V-9.778H4.757Z" transform="translate(224.142 20.709)" fill="#12263f"/>
        <path id="Trazado_103914" data-name="Trazado 103914" d="M4.757-9.778H7.171v1.411H.83V-9.778H4.757Z" transform="translate(-0.83 14.983)" fill="#12263f"/>
        <path id="Trazado_103915" data-name="Trazado 103915" d="M4.757-9.778H7.171v1.411H.83V-9.778H4.757Z" transform="translate(13.231 14.983)" fill="#12263f"/>
        <path id="Trazado_103916" data-name="Trazado 103916" d="M4.757-9.778H7.171v1.411H.83V-9.778H4.757Z" transform="translate(27.291 14.983)" fill="#12263f"/>
        <path id="Trazado_103917" data-name="Trazado 103917" d="M4.757-9.778H7.171v1.411H.83V-9.778H4.757Z" transform="translate(41.352 14.983)" fill="#12263f"/>
        <path id="Trazado_103918" data-name="Trazado 103918" d="M4.757-9.778H7.171v1.411H.83V-9.778H4.757Z" transform="translate(55.413 14.983)" fill="#12263f"/>
        <path id="Trazado_103919" data-name="Trazado 103919" d="M4.757-9.778H7.171v1.411H.83V-9.778H4.757Z" transform="translate(69.474 14.983)" fill="#12263f"/>
        <path id="Trazado_103920" data-name="Trazado 103920" d="M4.757-9.778H7.171v1.411H.83V-9.778H4.757Z" transform="translate(83.535 14.983)" fill="#12263f"/>
        <path id="Trazado_103921" data-name="Trazado 103921" d="M4.757-9.778H7.171v1.411H.83V-9.778H4.757Z" transform="translate(97.595 14.983)" fill="#12263f"/>
        <path id="Trazado_103922" data-name="Trazado 103922" d="M4.757-9.778H7.171v1.411H.83V-9.778H4.757Z" transform="translate(111.656 14.983)" fill="#12263f"/>
        <path id="Trazado_103923" data-name="Trazado 103923" d="M4.757-9.778H7.171v1.411H.83V-9.778H4.757Z" transform="translate(125.717 14.983)" fill="#12263f"/>
        <path id="Trazado_103924" data-name="Trazado 103924" d="M4.757-9.778H7.171v1.411H.83V-9.778H4.757Z" transform="translate(139.778 14.983)" fill="#12263f"/>
        <path id="Trazado_103925" data-name="Trazado 103925" d="M4.757-9.778H7.171v1.411H.83V-9.778H4.757Z" transform="translate(153.839 14.983)" fill="#12263f"/>
        <path id="Trazado_103926" data-name="Trazado 103926" d="M4.757-9.778H7.171v1.411H.83V-9.778H4.757Z" transform="translate(167.899 14.983)" fill="#12263f"/>
        <path id="Trazado_103927" data-name="Trazado 103927" d="M4.757-9.778H7.171v1.411H.83V-9.778H4.757Z" transform="translate(181.96 14.983)" fill="#12263f"/>
        <path id="Trazado_103928" data-name="Trazado 103928" d="M4.757-9.778H7.171v1.411H.83V-9.778H4.757Z" transform="translate(196.021 14.983)" fill="#12263f"/>
        <path id="Trazado_103929" data-name="Trazado 103929" d="M4.757-9.778H7.171v1.411H.83V-9.778H4.757Z" transform="translate(210.082 14.983)" fill="#12263f"/>
        <path id="Trazado_103930" data-name="Trazado 103930" d="M4.757-9.778H7.171v1.411H.83V-9.778H4.757Z" transform="translate(224.142 14.983)" fill="#12263f"/>
        <path id="Trazado_103931" data-name="Trazado 103931" d="M4.757-9.778H7.171v1.411H.83V-9.778H4.757Z" transform="translate(-0.83 9.778)" fill="#12263f"/>
        <path id="Trazado_103932" data-name="Trazado 103932" d="M4.757-9.778H7.171v1.411H.83V-9.778H4.757Z" transform="translate(13.231 9.778)" fill="#12263f"/>
        <path id="Trazado_103933" data-name="Trazado 103933" d="M4.757-9.778H7.171v1.411H.83V-9.778H4.757Z" transform="translate(27.291 9.778)" fill="#12263f"/>
        <path id="Trazado_103934" data-name="Trazado 103934" d="M4.757-9.778H7.171v1.411H.83V-9.778H4.757Z" transform="translate(41.352 9.778)" fill="#12263f"/>
        <path id="Trazado_103935" data-name="Trazado 103935" d="M4.757-9.778H7.171v1.411H.83V-9.778H4.757Z" transform="translate(55.413 9.778)" fill="#12263f"/>
        <path id="Trazado_103936" data-name="Trazado 103936" d="M4.757-9.778H7.171v1.411H.83V-9.778H4.757Z" transform="translate(69.474 9.778)" fill="#12263f"/>
        <path id="Trazado_103937" data-name="Trazado 103937" d="M4.757-9.778H7.171v1.411H.83V-9.778H4.757Z" transform="translate(83.535 9.778)" fill="#12263f"/>
        <path id="Trazado_103938" data-name="Trazado 103938" d="M4.757-9.778H7.171v1.411H.83V-9.778H4.757Z" transform="translate(97.595 9.778)" fill="#12263f"/>
        <path id="Trazado_103939" data-name="Trazado 103939" d="M4.757-9.778H7.171v1.411H.83V-9.778H4.757Z" transform="translate(111.656 9.778)" fill="#12263f"/>
        <path id="Trazado_103940" data-name="Trazado 103940" d="M4.757-9.778H7.171v1.411H.83V-9.778H4.757Z" transform="translate(125.717 9.778)" fill="#12263f"/>
        <path id="Trazado_103941" data-name="Trazado 103941" d="M4.757-9.778H7.171v1.411H.83V-9.778H4.757Z" transform="translate(139.778 9.778)" fill="#12263f"/>
        <path id="Trazado_103942" data-name="Trazado 103942" d="M4.757-9.778H7.171v1.411H.83V-9.778H4.757Z" transform="translate(153.839 9.778)" fill="#12263f"/>
        <path id="Trazado_103943" data-name="Trazado 103943" d="M4.757-9.778H7.171v1.411H.83V-9.778H4.757Z" transform="translate(167.899 9.778)" fill="#12263f"/>
        <path id="Trazado_103944" data-name="Trazado 103944" d="M4.757-9.778H7.171v1.411H.83V-9.778H4.757Z" transform="translate(181.96 9.778)" fill="#12263f"/>
        <path id="Trazado_103945" data-name="Trazado 103945" d="M4.757-9.778H7.171v1.411H.83V-9.778H4.757Z" transform="translate(196.021 9.778)" fill="#12263f"/>
        <path id="Trazado_103946" data-name="Trazado 103946" d="M4.757-9.778H7.171v1.411H.83V-9.778H4.757Z" transform="translate(210.082 9.778)" fill="#12263f"/>
        <path id="Trazado_103947" data-name="Trazado 103947" d="M4.757-9.778H7.171v1.411H.83V-9.778H4.757Z" transform="translate(224.142 9.778)" fill="#12263f"/>
      </g>
    </g>
    <path id="Trazado_103948" data-name="Trazado 103948" d="M-8170.782-7271.823h-64.9v105.947h174.712" transform="translate(8629 12112.736)" fill="none" stroke="#000" stroke-width="2"/>
    <path id="Trazado_103949" data-name="Trazado 103949" d="M-7735.2-7271.823h50.21v104.642h-204.589" transform="translate(8463.054 12112.736)" fill="none" stroke="#000" stroke-width="2"/>
    <path id="Trazado_103950" data-name="Trazado 103950" d="M-7900.037-7113.337v46.785" transform="translate(8468.066 12036.746)" fill="none" stroke="#000" stroke-width="2"/>
    <path id="Trazado_103951" data-name="Trazado 103951" d="M-7900.037-7113.337v21.122" transform="translate(8473.507 12048.368)" fill="none" stroke="#000" stroke-width="2"/>
  </g>
</svg>
