<svg xmlns="http://www.w3.org/2000/svg" width="527.178" height="322" viewBox="0 0 527.178 322">
  <g id="Grupo_99546" data-name="Grupo 99546" transform="translate(-893.822 -1431)">
    <text id="P" transform="translate(1053.822 1450)" fill="#12263f" font-size="20" font-family="Roboto-Bold, Roboto" font-weight="700"><tspan x="0" y="0">P</tspan></text>
    <text id="N" transform="translate(1247.822 1450)" fill="#12263f" font-size="20" font-family="Roboto-Bold, Roboto" font-weight="700"><tspan x="0" y="0">N</tspan></text>
    <g id="Grupo_99532" data-name="Grupo 99532" transform="translate(1157.536 1464.768)">
      <rect id="Rect치ngulo_33759" data-name="Rect치ngulo 33759" width="193" height="180" transform="translate(-0.213 0.232)" fill="#b3009d"/>
      <g id="Grupo_99491" data-name="Grupo 99491" transform="translate(18.934 30.768)">
        <g id="Elipse_4674" data-name="Elipse 4674" transform="translate(-0.147 0.465)" fill="none" stroke="#fff" stroke-width="3">
          <ellipse cx="15.5" cy="15" rx="15.5" ry="15" stroke="none"/>
          <ellipse cx="15.5" cy="15" rx="14" ry="13.5" fill="none"/>
        </g>
        <path id="Trazado_103986" data-name="Trazado 103986" d="M9.8-17.174H14.91v2.984H1.494v-2.984H9.8Z" transform="translate(7.121 30.823)" fill="#fff"/>
      </g>
      <g id="Grupo_99520" data-name="Grupo 99520" transform="translate(57.934 30.768)">
        <g id="Elipse_4674-2" data-name="Elipse 4674" transform="translate(-0.147 0.465)" fill="none" stroke="#fff" stroke-width="3">
          <ellipse cx="15.5" cy="15" rx="15.5" ry="15" stroke="none"/>
          <ellipse cx="15.5" cy="15" rx="14" ry="13.5" fill="none"/>
        </g>
        <path id="Trazado_103986-2" data-name="Trazado 103986" d="M9.8-17.174H14.91v2.984H1.494v-2.984H9.8Z" transform="translate(7.121 30.823)" fill="#fff"/>
      </g>
      <g id="Grupo_99521" data-name="Grupo 99521" transform="translate(96.934 30.768)">
        <g id="Elipse_4674-3" data-name="Elipse 4674" transform="translate(-0.147 0.465)" fill="none" stroke="#fff" stroke-width="3">
          <ellipse cx="15.5" cy="15" rx="15.5" ry="15" stroke="none"/>
          <ellipse cx="15.5" cy="15" rx="14" ry="13.5" fill="none"/>
        </g>
        <path id="Trazado_103986-3" data-name="Trazado 103986" d="M9.8-17.174H14.91v2.984H1.494v-2.984H9.8Z" transform="translate(7.121 30.823)" fill="#fff"/>
      </g>
      <g id="Grupo_99522" data-name="Grupo 99522" transform="translate(135.934 30.768)">
        <g id="Elipse_4674-4" data-name="Elipse 4674" transform="translate(-0.147 0.465)" fill="none" stroke="#fff" stroke-width="3">
          <ellipse cx="15.5" cy="15" rx="15.5" ry="15" stroke="none"/>
          <ellipse cx="15.5" cy="15" rx="14" ry="13.5" fill="none"/>
        </g>
        <path id="Trazado_103986-4" data-name="Trazado 103986" d="M9.8-17.174H14.91v2.984H1.494v-2.984H9.8Z" transform="translate(7.121 30.823)" fill="#fff"/>
      </g>
      <g id="Grupo_99523" data-name="Grupo 99523" transform="translate(18.934 71.768)">
        <g id="Elipse_4674-5" data-name="Elipse 4674" transform="translate(-0.147 0.465)" fill="none" stroke="#fff" stroke-width="3">
          <ellipse cx="15.5" cy="15" rx="15.5" ry="15" stroke="none"/>
          <ellipse cx="15.5" cy="15" rx="14" ry="13.5" fill="none"/>
        </g>
        <path id="Trazado_103986-5" data-name="Trazado 103986" d="M9.8-17.174H14.91v2.984H1.494v-2.984H9.8Z" transform="translate(7.121 30.823)" fill="#fff"/>
      </g>
      <g id="Grupo_99524" data-name="Grupo 99524" transform="translate(57.934 71.768)">
        <g id="Elipse_4674-6" data-name="Elipse 4674" transform="translate(-0.147 0.465)" fill="none" stroke="#fff" stroke-width="3">
          <ellipse cx="15.5" cy="15" rx="15.5" ry="15" stroke="none"/>
          <ellipse cx="15.5" cy="15" rx="14" ry="13.5" fill="none"/>
        </g>
        <path id="Trazado_103986-6" data-name="Trazado 103986" d="M9.8-17.174H14.91v2.984H1.494v-2.984H9.8Z" transform="translate(7.121 30.823)" fill="#fff"/>
      </g>
      <g id="Grupo_99525" data-name="Grupo 99525" transform="translate(96.934 71.768)">
        <g id="Elipse_4674-7" data-name="Elipse 4674" transform="translate(-0.147 0.465)" fill="none" stroke="#fff" stroke-width="3">
          <ellipse cx="15.5" cy="15" rx="15.5" ry="15" stroke="none"/>
          <ellipse cx="15.5" cy="15" rx="14" ry="13.5" fill="none"/>
        </g>
        <path id="Trazado_103986-7" data-name="Trazado 103986" d="M9.8-17.174H14.91v2.984H1.494v-2.984H9.8Z" transform="translate(7.121 30.823)" fill="#fff"/>
      </g>
      <g id="Grupo_99526" data-name="Grupo 99526" transform="translate(135.934 71.768)">
        <g id="Elipse_4674-8" data-name="Elipse 4674" transform="translate(-0.147 0.465)" fill="none" stroke="#fff" stroke-width="3">
          <ellipse cx="15.5" cy="15" rx="15.5" ry="15" stroke="none"/>
          <ellipse cx="15.5" cy="15" rx="14" ry="13.5" fill="none"/>
        </g>
        <path id="Trazado_103986-8" data-name="Trazado 103986" d="M9.8-17.174H14.91v2.984H1.494v-2.984H9.8Z" transform="translate(7.121 30.823)" fill="#fff"/>
      </g>
      <g id="Grupo_99527" data-name="Grupo 99527" transform="translate(18.934 112.768)">
        <g id="Elipse_4674-9" data-name="Elipse 4674" transform="translate(-0.147 0.465)" fill="none" stroke="#fff" stroke-width="3">
          <ellipse cx="15.5" cy="15" rx="15.5" ry="15" stroke="none"/>
          <ellipse cx="15.5" cy="15" rx="14" ry="13.5" fill="none"/>
        </g>
        <path id="Trazado_103986-9" data-name="Trazado 103986" d="M9.8-17.174H14.91v2.984H1.494v-2.984H9.8Z" transform="translate(7.121 30.823)" fill="#fff"/>
      </g>
      <g id="Grupo_99528" data-name="Grupo 99528" transform="translate(57.934 112.768)">
        <g id="Elipse_4674-10" data-name="Elipse 4674" transform="translate(-0.147 0.465)" fill="none" stroke="#fff" stroke-width="3">
          <ellipse cx="15.5" cy="15" rx="15.5" ry="15" stroke="none"/>
          <ellipse cx="15.5" cy="15" rx="14" ry="13.5" fill="none"/>
        </g>
        <path id="Trazado_103986-10" data-name="Trazado 103986" d="M9.8-17.174H14.91v2.984H1.494v-2.984H9.8Z" transform="translate(7.121 30.823)" fill="#fff"/>
      </g>
      <g id="Grupo_99529" data-name="Grupo 99529" transform="translate(96.934 112.768)">
        <g id="Elipse_4674-11" data-name="Elipse 4674" transform="translate(-0.147 0.465)" fill="none" stroke="#fff" stroke-width="3">
          <ellipse cx="15.5" cy="15" rx="15.5" ry="15" stroke="none"/>
          <ellipse cx="15.5" cy="15" rx="14" ry="13.5" fill="none"/>
        </g>
        <path id="Trazado_103986-11" data-name="Trazado 103986" d="M9.8-17.174H14.91v2.984H1.494v-2.984H9.8Z" transform="translate(7.121 30.823)" fill="#fff"/>
      </g>
      <g id="Grupo_99530" data-name="Grupo 99530" transform="translate(135.934 112.768)">
        <g id="Elipse_4674-12" data-name="Elipse 4674" transform="translate(-0.147 0.465)" fill="none" stroke="#fff" stroke-width="3">
          <ellipse cx="15.5" cy="15" rx="15.5" ry="15" stroke="none"/>
          <ellipse cx="15.5" cy="15" rx="14" ry="13.5" fill="none"/>
        </g>
        <path id="Trazado_103986-12" data-name="Trazado 103986" d="M9.8-17.174H14.91v2.984H1.494v-2.984H9.8Z" transform="translate(7.121 30.823)" fill="#fff"/>
      </g>
    </g>
    <path id="Trazado_104001" data-name="Trazado 104001" d="M-6708.787-10117.339H-6779V-9967.6h231.7" transform="translate(7673.822 11668.619)" fill="none" stroke="#000" stroke-width="2"/>
    <path id="Trazado_104002" data-name="Trazado 104002" d="M-6617.512-10117.339h70.213V-9967.6H-6779" transform="translate(7967.298 11668.619)" fill="none" stroke="#000" stroke-width="2"/>
    <path id="Trazado_104003" data-name="Trazado 104003" d="M-6485.3-9963.393v51.282" transform="translate(7611.826 11639.597)" fill="none" stroke="#000" stroke-width="2"/>
    <path id="Trazado_104004" data-name="Trazado 104004" d="M-6485.3-9963.393v35.053" transform="translate(7673.6 11647.711)" fill="none" stroke="#000" stroke-width="2"/>
    <text id="_B_" data-name="(B)" transform="translate(1145.822 1748)" fill="#12263f" font-size="20" font-family="Roboto-Regular, Roboto"><tspan x="0" y="0">(b)</tspan></text>
    <g id="Grupo_99544" data-name="Grupo 99544" transform="translate(-193)">
      <rect id="Rect치ngulo_33768" data-name="Rect치ngulo 33768" width="193" height="180" transform="translate(1157.822 1465)" fill="#3c0061"/>
      <g id="Grupo_99531" data-name="Grupo 99531" transform="translate(1179.62 1495.535)">
        <g id="Elipse_4674-13" data-name="Elipse 4674" transform="translate(0.203 0.465)" fill="none" stroke="#fff" stroke-width="3">
          <ellipse cx="15.5" cy="15" rx="15.5" ry="15" stroke="none"/>
          <ellipse cx="15.5" cy="15" rx="14" ry="13.5" fill="none"/>
        </g>
        <path id="Trazado_103986-13" data-name="Trazado 103986" d="M9.8-21.055H14.91v2.984H9.8v5.821H6.629V-18.07H1.494v-2.984H6.629V-26.5H9.8Z" transform="translate(7.051 34.704)" fill="#fff"/>
      </g>
      <g id="Grupo_99533" data-name="Grupo 99533" transform="translate(1218.62 1495.535)">
        <g id="Elipse_4674-14" data-name="Elipse 4674" transform="translate(0.203 0.465)" fill="none" stroke="#fff" stroke-width="3">
          <ellipse cx="15.5" cy="15" rx="15.5" ry="15" stroke="none"/>
          <ellipse cx="15.5" cy="15" rx="14" ry="13.5" fill="none"/>
        </g>
        <path id="Trazado_103986-14" data-name="Trazado 103986" d="M9.8-21.055H14.91v2.984H9.8v5.821H6.629V-18.07H1.494v-2.984H6.629V-26.5H9.8Z" transform="translate(7.051 34.704)" fill="#fff"/>
      </g>
      <g id="Grupo_99534" data-name="Grupo 99534" transform="translate(1257.62 1495.535)">
        <g id="Elipse_4674-15" data-name="Elipse 4674" transform="translate(0.203 0.465)" fill="none" stroke="#fff" stroke-width="3">
          <ellipse cx="15.5" cy="15" rx="15.5" ry="15" stroke="none"/>
          <ellipse cx="15.5" cy="15" rx="14" ry="13.5" fill="none"/>
        </g>
        <path id="Trazado_103986-15" data-name="Trazado 103986" d="M9.8-21.055H14.91v2.984H9.8v5.821H6.629V-18.07H1.494v-2.984H6.629V-26.5H9.8Z" transform="translate(7.051 34.704)" fill="#fff"/>
      </g>
      <g id="Grupo_99535" data-name="Grupo 99535" transform="translate(1296.62 1495.535)">
        <g id="Elipse_4674-16" data-name="Elipse 4674" transform="translate(0.203 0.465)" fill="none" stroke="#fff" stroke-width="3">
          <ellipse cx="15.5" cy="15" rx="15.5" ry="15" stroke="none"/>
          <ellipse cx="15.5" cy="15" rx="14" ry="13.5" fill="none"/>
        </g>
        <path id="Trazado_103986-16" data-name="Trazado 103986" d="M9.8-21.055H14.91v2.984H9.8v5.821H6.629V-18.07H1.494v-2.984H6.629V-26.5H9.8Z" transform="translate(7.051 34.704)" fill="#fff"/>
      </g>
      <g id="Grupo_99536" data-name="Grupo 99536" transform="translate(1179.62 1535.535)">
        <g id="Elipse_4674-17" data-name="Elipse 4674" transform="translate(0.203 0.465)" fill="none" stroke="#fff" stroke-width="3">
          <ellipse cx="15.5" cy="15" rx="15.5" ry="15" stroke="none"/>
          <ellipse cx="15.5" cy="15" rx="14" ry="13.5" fill="none"/>
        </g>
        <path id="Trazado_103986-17" data-name="Trazado 103986" d="M9.8-21.055H14.91v2.984H9.8v5.821H6.629V-18.07H1.494v-2.984H6.629V-26.5H9.8Z" transform="translate(7.051 34.704)" fill="#fff"/>
      </g>
      <g id="Grupo_99537" data-name="Grupo 99537" transform="translate(1218.62 1535.535)">
        <g id="Elipse_4674-18" data-name="Elipse 4674" transform="translate(0.203 0.465)" fill="none" stroke="#fff" stroke-width="3">
          <ellipse cx="15.5" cy="15" rx="15.5" ry="15" stroke="none"/>
          <ellipse cx="15.5" cy="15" rx="14" ry="13.5" fill="none"/>
        </g>
        <path id="Trazado_103986-18" data-name="Trazado 103986" d="M9.8-21.055H14.91v2.984H9.8v5.821H6.629V-18.07H1.494v-2.984H6.629V-26.5H9.8Z" transform="translate(7.051 34.704)" fill="#fff"/>
      </g>
      <g id="Grupo_99538" data-name="Grupo 99538" transform="translate(1257.62 1535.535)">
        <g id="Elipse_4674-19" data-name="Elipse 4674" transform="translate(0.203 0.465)" fill="none" stroke="#fff" stroke-width="3">
          <ellipse cx="15.5" cy="15" rx="15.5" ry="15" stroke="none"/>
          <ellipse cx="15.5" cy="15" rx="14" ry="13.5" fill="none"/>
        </g>
        <path id="Trazado_103986-19" data-name="Trazado 103986" d="M9.8-21.055H14.91v2.984H9.8v5.821H6.629V-18.07H1.494v-2.984H6.629V-26.5H9.8Z" transform="translate(7.051 34.704)" fill="#fff"/>
      </g>
      <g id="Grupo_99539" data-name="Grupo 99539" transform="translate(1296.62 1535.535)">
        <g id="Elipse_4674-20" data-name="Elipse 4674" transform="translate(0.203 0.465)" fill="none" stroke="#fff" stroke-width="3">
          <ellipse cx="15.5" cy="15" rx="15.5" ry="15" stroke="none"/>
          <ellipse cx="15.5" cy="15" rx="14" ry="13.5" fill="none"/>
        </g>
        <path id="Trazado_103986-20" data-name="Trazado 103986" d="M9.8-21.055H14.91v2.984H9.8v5.821H6.629V-18.07H1.494v-2.984H6.629V-26.5H9.8Z" transform="translate(7.051 34.704)" fill="#fff"/>
      </g>
      <g id="Grupo_99540" data-name="Grupo 99540" transform="translate(1179.62 1575.535)">
        <g id="Elipse_4674-21" data-name="Elipse 4674" transform="translate(0.203 0.465)" fill="none" stroke="#fff" stroke-width="3">
          <ellipse cx="15.5" cy="15" rx="15.5" ry="15" stroke="none"/>
          <ellipse cx="15.5" cy="15" rx="14" ry="13.5" fill="none"/>
        </g>
        <path id="Trazado_103986-21" data-name="Trazado 103986" d="M9.8-21.055H14.91v2.984H9.8v5.821H6.629V-18.07H1.494v-2.984H6.629V-26.5H9.8Z" transform="translate(7.051 34.704)" fill="#fff"/>
      </g>
      <g id="Grupo_99541" data-name="Grupo 99541" transform="translate(1218.62 1575.535)">
        <g id="Elipse_4674-22" data-name="Elipse 4674" transform="translate(0.203 0.465)" fill="none" stroke="#fff" stroke-width="3">
          <ellipse cx="15.5" cy="15" rx="15.5" ry="15" stroke="none"/>
          <ellipse cx="15.5" cy="15" rx="14" ry="13.5" fill="none"/>
        </g>
        <path id="Trazado_103986-22" data-name="Trazado 103986" d="M9.8-21.055H14.91v2.984H9.8v5.821H6.629V-18.07H1.494v-2.984H6.629V-26.5H9.8Z" transform="translate(7.051 34.704)" fill="#fff"/>
      </g>
      <g id="Grupo_99542" data-name="Grupo 99542" transform="translate(1257.62 1575.535)">
        <g id="Elipse_4674-23" data-name="Elipse 4674" transform="translate(0.203 0.465)" fill="none" stroke="#fff" stroke-width="3">
          <ellipse cx="15.5" cy="15" rx="15.5" ry="15" stroke="none"/>
          <ellipse cx="15.5" cy="15" rx="14" ry="13.5" fill="none"/>
        </g>
        <path id="Trazado_103986-23" data-name="Trazado 103986" d="M9.8-21.055H14.91v2.984H9.8v5.821H6.629V-18.07H1.494v-2.984H6.629V-26.5H9.8Z" transform="translate(7.051 34.704)" fill="#fff"/>
      </g>
      <g id="Grupo_99543" data-name="Grupo 99543" transform="translate(1296.62 1575.535)">
        <g id="Elipse_4674-24" data-name="Elipse 4674" transform="translate(0.203 0.465)" fill="none" stroke="#fff" stroke-width="3">
          <ellipse cx="15.5" cy="15" rx="15.5" ry="15" stroke="none"/>
          <ellipse cx="15.5" cy="15" rx="14" ry="13.5" fill="none"/>
        </g>
        <path id="Trazado_103986-24" data-name="Trazado 103986" d="M9.8-21.055H14.91v2.984H9.8v5.821H6.629V-18.07H1.494v-2.984H6.629V-26.5H9.8Z" transform="translate(7.051 34.704)" fill="#fff"/>
      </g>
    </g>
    <path id="Trazado_104005" data-name="Trazado 104005" d="M9.8-21.055H14.91v2.984H9.8v5.821H6.629V-18.07H1.494v-2.984H6.629V-26.5H9.8Z" transform="translate(1089.671 1696.936)" fill="#3c0061"/>
    <path id="Trazado_104006" data-name="Trazado 104006" d="M9.8-17.174H14.91v2.984H1.494v-2.984H9.8Z" transform="translate(1202.621 1690.394)" fill="#b3009d"/>
  </g>
</svg>
